<?xml version="1.0" encoding="UTF-8" standalone="no"?>
<!DOCTYPE svg PUBLIC "-//W3C//DTD SVG 1.1//EN"
 "http://www.w3.org/Graphics/SVG/1.1/DTD/svg11.dtd">
<!-- Generated by graphviz version 2.36.0 (20140111.2315)
 -->
<!-- Title: G Pages: 1 -->
<svg width="340pt" height="209pt"
 viewBox="0.00 0.00 340.00 209.00" xmlns="http://www.w3.org/2000/svg" xmlns:xlink="http://www.w3.org/1999/xlink">
<g id="graph0" class="graph" transform="scale(1 1) rotate(0) translate(4 205)">
<title>G</title>
<polygon fill="white" stroke="none" points="-4,4 -4,-205 336,-205 336,4 -4,4"/>
<g id="clust1" class="cluster"><title>cluster_Global</title>
<path fill="none" stroke="gray" d="M20,-8C20,-8 312,-8 312,-8 318,-8 324,-14 324,-20 324,-20 324,-181 324,-181 324,-187 318,-193 312,-193 312,-193 20,-193 20,-193 14,-193 8,-187 8,-181 8,-181 8,-20 8,-20 8,-14 14,-8 20,-8"/>
<text text-anchor="middle" x="166" y="-180.2" font-family="Times,serif" font-size="11.00" fill="gray">Global</text>
</g>
<g id="clust2" class="cluster"><title>cluster_\UserSpace</title>
<path fill="none" stroke="gray" d="M236,-95C236,-95 290,-95 290,-95 296,-95 302,-101 302,-107 302,-107 302,-154 302,-154 302,-160 296,-166 290,-166 290,-166 236,-166 236,-166 230,-166 224,-160 224,-154 224,-154 224,-107 224,-107 224,-101 230,-95 236,-95"/>
<text text-anchor="middle" x="263" y="-153.2" font-family="Times,serif" font-size="11.00" fill="gray">UserSpace</text>
</g>
<g id="clust3" class="cluster"><title>cluster_\InterestSpace</title>
<path fill="none" stroke="gray" d="M28,-16C28,-16 304,-16 304,-16 310,-16 316,-22 316,-28 316,-28 316,-75 316,-75 316,-81 310,-87 304,-87 304,-87 28,-87 28,-87 22,-87 16,-81 16,-75 16,-75 16,-28 16,-28 16,-22 22,-16 28,-16"/>
<text text-anchor="middle" x="166" y="-74.2" font-family="Times,serif" font-size="11.00" fill="gray">InterestSpace</text>
</g>
<!-- \\UserSpace\\cl_user -->
<g id="node1" class="node"><title>\\UserSpace\\cl_user</title>
<polygon fill="none" stroke="black" points="294.208,-139 231.792,-139 231.792,-103 294.208,-103 294.208,-139"/>
<text text-anchor="middle" x="263" y="-117.7" font-family="Courier,monospace" font-size="11.00">cl_user</text>
</g>
<!-- \\InterestSpace\\cl_interest_list -->
<g id="node2" class="node"><title>\\InterestSpace\\cl_interest_list</title>
<polygon fill="none" stroke="black" points="145.618,-60 24.3822,-60 24.3822,-24 145.618,-24 145.618,-60"/>
<text text-anchor="middle" x="85" y="-38.7" font-family="Courier,monospace" font-size="11.00">cl_interest_list</text>
</g>
<!-- \\InterestSpace\\cl_interest -->
<g id="node3" class="node"><title>\\InterestSpace\\cl_interest</title>
<polygon fill="none" stroke="black" points="307.113,-60 218.887,-60 218.887,-24 307.113,-24 307.113,-60"/>
<text text-anchor="middle" x="263" y="-38.7" font-family="Courier,monospace" font-size="11.00">cl_interest</text>
</g>
<!-- \\InterestSpace\\cl_interest&#45;&gt;\\InterestSpace\\cl_interest_list -->
<g id="edge1" class="edge"><title>\\InterestSpace\\cl_interest&#45;&gt;\\InterestSpace\\cl_interest_list</title>
<path fill="none" stroke="black" d="M218.494,-42C199.686,-42 177.198,-42 156.136,-42"/>
<polygon fill="none" stroke="black" points="155.933,-38.5001 145.933,-42 155.933,-45.5001 155.933,-38.5001"/>
</g>
</g>
</svg>
