<?xml version="1.0" standalone="no"?>
<!DOCTYPE svg PUBLIC "-//W3C//DTD SVG 1.1//EN" "http://www.w3.org/Graphics/SVG/1.1/DTD/svg11.dtd" >
<svg xmlns="http://www.w3.org/2000/svg" xmlns:xlink="http://www.w3.org/1999/xlink" version="1.1">
<metadata>
Created by FontForge 20161116 at Fri Aug  8 17:03:10 2014
 By Jimmy Wärting
Please contact us to learn more about license restrictions.
</metadata>
<defs>
<font id="SofiaPro-SemiBold" horiz-adv-x="567" >
  <font-face 
    font-family="Sofia Pro Semi Bold"
    font-weight="600"
    font-stretch="normal"
    units-per-em="1000"
    panose-1="2 11 0 0 0 0 0 0 0 0"
    ascent="800"
    descent="-200"
    x-height="467"
    cap-height="689"
    bbox="-177 -274 1128 1110"
    underline-thickness="50"
    underline-position="-100"
    unicode-range="U+0020-FB04"
  />
<missing-glyph horiz-adv-x="635" 
d="M555 0h-475v665h475v-665zM185 431h62c0 49 31 83 74 83s80 -30 80 -73c0 -20 -8 -37 -24 -50c-10 -11 -21 -18 -33 -21c-60 -17 -93 -47 -93 -110v-38h62v38c0 29 17 41 50 50c57 17 99 67 99 131c0 40 -14 72 -42 97c-27 25 -60 38 -99 38c-38 0 -70 -13 -97 -40
c-26 -27 -39 -62 -39 -105zM283 88c24 0 45 19 45 43s-21 43 -45 43c-25 0 -46 -19 -46 -43s21 -43 46 -43z" />
    <glyph glyph-name="f_f" unicode="ff" horiz-adv-x="740" 
d="M694 721h51v-117h-51c-51 0 -76 -33 -76 -100v-37h99v-98h-99v-369h-123v369h-260v-369h-123v369h-89v98h89v37c0 137 70 217 199 217h51v-117h-51c-51 0 -76 -33 -76 -100v-37h260v37c0 137 70 217 199 217z" />
    <glyph glyph-name="fi" unicode="fi" horiz-adv-x="658" 
d="M235 467h355v-467h-121v369h-234v-369h-123v369h-89v98h89v37c0 137 70 217 199 217h51v-117h-51c-51 0 -76 -33 -76 -100v-37zM530 574c-44 0 -79 33 -79 74s36 73 79 73s77 -32 77 -73s-34 -74 -77 -74z" />
    <glyph glyph-name="fl" unicode="fl" horiz-adv-x="665" 
d="M311 721h285v-721h-122v604h-163c-51 0 -76 -33 -76 -100v-37h99v-98h-99v-369h-123v369h-89v98h89v37c0 137 70 217 199 217z" />
    <glyph glyph-name="f_f_i" unicode="ffi" horiz-adv-x="1041" 
d="M618 467h355v-467h-121v369h-234v-369h-123v369h-260v-369h-123v369h-89v98h89v37c0 137 70 217 199 217h51v-117h-51c-51 0 -76 -33 -76 -100v-37h260v37c0 137 70 217 199 217h51v-117h-51c-51 0 -76 -33 -76 -100v-37zM913 574c-44 0 -79 33 -79 74s36 73 79 73
s77 -32 77 -73s-34 -74 -77 -74z" />
    <glyph glyph-name="f_f_l" unicode="ffl" horiz-adv-x="1048" 
d="M979 0h-122v604h-163c-51 0 -76 -33 -76 -100v-37h99v-98h-99v-369h-123v369h-260v-369h-123v369h-89v98h89v37c0 137 70 217 199 217h51v-117h-51c-51 0 -76 -33 -76 -100v-37h260v37c0 137 70 217 199 217h285v-721z" />
    <glyph glyph-name="f_f_j" unicode="ffj" horiz-adv-x="1029" 
d="M787 -233h-77v112h59c47 0 70 29 69 88v402h-220v-369h-123v369h-260v-369h-123v369h-89v98h89v37c0 137 70 217 199 217h51v-117h-51c-51 0 -76 -33 -76 -100v-37h260v37c0 137 70 217 199 217h51v-117h-51c-51 0 -76 -33 -76 -100v-37h343v-498
c0 -135 -58 -202 -174 -202zM821 648c0 40 35 73 78 73c44 0 78 -32 78 -73s-34 -74 -78 -74c-43 0 -78 33 -78 74z" />
    <glyph glyph-name="f_j" unicode="fj" horiz-adv-x="646" 
d="M404 -233h-77v112h59c47 0 70 29 69 88v402h-220v-369h-123v369h-89v98h89v37c0 137 70 217 199 217h51v-117h-51c-51 0 -76 -33 -76 -100v-37h343v-498c0 -135 -58 -202 -174 -202zM438 648c0 40 35 73 78 73c44 0 78 -32 78 -73s-34 -74 -78 -74c-43 0 -78 33 -78 74z
" />
    <glyph glyph-name=".notdef" horiz-adv-x="635" 
d="M555 0h-475v665h475v-665zM185 431h62c0 49 31 83 74 83s80 -30 80 -73c0 -20 -8 -37 -24 -50c-10 -11 -21 -18 -33 -21c-60 -17 -93 -47 -93 -110v-38h62v38c0 29 17 41 50 50c57 17 99 67 99 131c0 40 -14 72 -42 97c-27 25 -60 38 -99 38c-38 0 -70 -13 -97 -40
c-26 -27 -39 -62 -39 -105zM283 88c24 0 45 19 45 43s-21 43 -45 43c-25 0 -46 -19 -46 -43s21 -43 46 -43z" />
    <glyph glyph-name="NULL" horiz-adv-x="0" 
 />
    <glyph glyph-name="CR" horiz-adv-x="333" 
 />
    <glyph glyph-name="space" unicode=" " horiz-adv-x="248" 
 />
    <glyph glyph-name="exclam" unicode="!" horiz-adv-x="280" 
d="M88 201l-19 488h143l-19 -488h-105zM139 142c44 0 80 -32 80 -76s-36 -76 -80 -76c-43 0 -78 33 -78 76s35 76 78 76z" />
    <glyph glyph-name="quotedbl" unicode="&#x22;" horiz-adv-x="353" 
d="M144 395h-69l-10 294h89zM278 395h-69l-10 294h89z" />
    <glyph glyph-name="numbersign" unicode="#" horiz-adv-x="699" 
d="M604 689l-51 -174h111l-25 -90h-112l-50 -170h111l-25 -90h-111l-52 -165h-101l50 165h-103l-51 -165h-100l50 165h-110l25 90h110l49 170h-108l24 90h110l51 174h102l-50 -174h103l51 174h102zM425 425h-104l-50 -170h103z" />
    <glyph glyph-name="dollar" unicode="$" horiz-adv-x="569" 
d="M252 695v105h69v-106c112 -15 189 -92 189 -205h-128c0 55 -39 90 -103 90c-59 0 -103 -33 -103 -81c0 -38 27 -64 82 -79l85 -25c143 -39 195 -118 188 -210c-3 -55 -24 -100 -64 -134c-39 -34 -88 -54 -146 -59v-113h-69v113c-63 7 -113 30 -152 69s-58 86 -58 141h128
c3 -53 48 -97 119 -97c67 0 111 35 114 83c3 45 -28 75 -95 94l-85 22c-116 34 -174 98 -174 192c0 55 19 100 58 137s87 58 145 63z" />
    <glyph glyph-name="percent" unicode="%" horiz-adv-x="688" 
d="M536 661l-325 -661h-68l325 661h68zM169 666c37 0 68 -13 94 -39c27 -26 40 -58 40 -95s-13 -69 -39 -95c-26 -25 -58 -38 -95 -38s-69 13 -95 38c-25 26 -38 58 -38 95s13 69 38 95c26 26 58 39 95 39zM226 532c0 31 -26 57 -57 57c-49 4 -75 -65 -40 -97
c32 -35 101 -9 97 40zM652 123c0 -37 -13 -69 -39 -95c-26 -25 -58 -38 -95 -38s-69 13 -95 38c-25 26 -38 58 -38 95s13 69 38 95c26 26 58 39 95 39s69 -13 95 -40c26 -26 39 -57 39 -94zM575 123c0 31 -26 57 -57 57c-49 4 -75 -65 -40 -97c32 -35 101 -9 97 40z" />
    <glyph glyph-name="ampersand" unicode="&#x26;" horiz-adv-x="682" 
d="M422 319h-125c-41 0 -71 -12 -91 -37c-19 -25 -28 -50 -25 -77c7 -59 49 -96 116 -96c68 0 125 50 125 141v69zM283 -10c-67 0 -122 20 -166 59c-43 39 -65 89 -65 149c0 83 39 147 110 178c-44 21 -74 72 -74 133c0 49 18 92 55 128s83 55 138 57c79 3 142 -28 187 -92
l-103 -63c-19 25 -42 37 -69 37c-48 0 -78 -34 -78 -74c0 -9 2 -20 5 -31c8 -23 35 -53 78 -53h121v82h114v-82h83v-99h-83v-114c0 -41 6 -69 19 -84s39 -23 78 -23v-108c-103 1 -158 21 -181 82c-14 -25 -37 -45 -70 -60s-66 -22 -99 -22z" />
    <glyph glyph-name="quotesingle" unicode="'" horiz-adv-x="219" 
d="M144 395h-69l-10 294h89z" />
    <glyph glyph-name="parenleft" unicode="(" horiz-adv-x="378" 
d="M42 229c0 138 28 250 85 337s129 131 217 131v-102c-53 0 -99 -36 -138 -108s-58 -158 -58 -258c0 -99 19 -184 58 -255s85 -106 138 -106v-101c-88 0 -160 43 -217 128s-85 197 -85 334z" />
    <glyph glyph-name="parenright" unicode=")" horiz-adv-x="378" 
d="M336 229c0 -137 -28 -249 -85 -334s-129 -128 -217 -128v101c53 0 98 35 137 106s59 156 59 255c0 100 -20 186 -59 258s-84 108 -137 108v102c88 0 160 -44 217 -131s85 -199 85 -337z" />
    <glyph glyph-name="asterisk" unicode="*" horiz-adv-x="474" 
d="M163 327l-71 54l83 102l-128 36l29 86l123 -48l-8 132h92l-9 -131l125 47l27 -86l-127 -34l84 -105l-72 -51l-72 109z" />
    <glyph glyph-name="plus" unicode="+" horiz-adv-x="511" 
d="M461 213h-157v-158h-97v158h-157v97h157v156h97v-156h157v-97z" />
    <glyph glyph-name="comma" unicode="," horiz-adv-x="271" 
d="M86 -132l-81 30c45 63 75 153 74 245h126c-2 -65 -15 -121 -39 -168s-51 -83 -80 -107z" />
    <glyph glyph-name="hyphen" unicode="-" horiz-adv-x="477" 
d="M414 191h-351v102h351v-102z" />
    <glyph glyph-name="period" unicode="." horiz-adv-x="272" 
d="M135 142c44 0 80 -32 80 -76s-36 -76 -80 -76c-43 0 -78 33 -78 76s35 76 78 76z" />
    <glyph glyph-name="slash" unicode="/" horiz-adv-x="501" 
d="M30 0l334 689h107l-334 -689h-107z" />
    <glyph glyph-name="zero" unicode="0" horiz-adv-x="603" 
d="M60 327c0 226 81 339 243 339c92 0 157 -36 192 -100s48 -139 48 -239c0 -187 -51 -337 -240 -337c-162 0 -243 112 -243 337zM183 327c0 -145 40 -217 120 -217c79 0 118 72 118 217c0 146 -39 219 -118 219c-80 0 -120 -73 -120 -219z" />
    <glyph glyph-name="one" unicode="1" horiz-adv-x="362" 
d="M39 449v110l233 103v-662h-123v493z" />
    <glyph glyph-name="two" unicode="2" horiz-adv-x="541" 
d="M473 117v-117h-418v63l267 320c27 31 40 60 40 86c0 44 -39 78 -94 78c-53 0 -94 -39 -102 -95l-114 21c9 59 34 106 74 141s89 52 147 52c59 0 108 -19 149 -56s62 -84 62 -141c0 -59 -23 -114 -70 -167l-162 -185h221z" />
    <glyph glyph-name="three" unicode="3" horiz-adv-x="546" 
d="M258 291h-70v109h70c27 -1 46 7 57 24s17 33 17 48c0 32 -17 66 -58 74c-42 5 -76 -8 -101 -40l-96 63c37 63 114 102 198 97c55 -3 101 -22 136 -57s53 -77 53 -126c0 -52 -32 -100 -81 -128c34 -13 61 -37 82 -72s30 -71 27 -106c-6 -59 -33 -106 -82 -141
s-105 -50 -170 -45c-89 5 -167 61 -203 138l53 26l54 28c20 -41 63 -73 106 -73c63 0 110 41 110 97c0 17 -14 87 -102 84z" />
    <glyph glyph-name="four" unicode="4" horiz-adv-x="599" 
d="M345 477l-145 -228h145v228zM554 249v-107h-87v-142h-122v142h-323l326 512h119v-405h87z" />
    <glyph glyph-name="five" unicode="5" horiz-adv-x="582" 
d="M411 224c0 73 -53 113 -126 113c-59 0 -109 -22 -150 -66l-70 42l55 341h372v-113h-274l-23 -134c27 23 68 35 121 35c62 0 114 -19 155 -58c41 -38 62 -91 62 -160s-24 -126 -72 -169c-47 -43 -110 -65 -189 -65c-91 0 -180 55 -227 138c3 1 20 12 51 32s49 31 52 32
c27 -48 76 -81 124 -81c84 0 139 50 139 113z" />
    <glyph glyph-name="six" unicode="6" horiz-adv-x="573" 
d="M393 207c1 55 -41 100 -96 101c-27 1 -51 -9 -71 -28s-30 -43 -31 -70c0 -56 43 -101 98 -101c55 -1 99 42 100 98zM317 422c55 0 102 -20 142 -61c41 -41 61 -94 60 -161c-1 -62 -24 -113 -67 -152s-98 -59 -165 -58c-61 1 -112 22 -154 63s-66 96 -71 164
c-16 204 18 456 254 449c88 -4 154 -35 197 -127l-113 -48c-19 40 -49 60 -88 60c-45 0 -78 -20 -100 -60c-21 -39 -30 -87 -27 -143c13 37 68 74 132 74z" />
    <glyph glyph-name="seven" unicode="7" horiz-adv-x="541" 
d="M48 539v115h479l-313 -654h-140l259 539h-285z" />
    <glyph glyph-name="eight" unicode="8" horiz-adv-x="584" 
d="M218 484c0 -40 30 -71 75 -71c44 0 72 32 72 71c0 37 -30 68 -73 68c-44 0 -74 -32 -74 -68zM173 216c0 -30 12 -56 35 -78c23 -21 51 -32 84 -32c32 0 60 11 83 32c23 22 35 48 35 78c0 29 -11 54 -33 75c-22 22 -48 33 -78 33h-18c-30 0 -56 -11 -77 -33
s-31 -47 -31 -75zM99 488c0 49 19 91 56 126s83 52 137 52c53 0 99 -17 136 -52c38 -35 57 -77 57 -126c0 -44 -16 -81 -49 -112c60 -35 96 -95 96 -164c0 -61 -23 -114 -70 -157s-103 -65 -170 -65s-124 22 -171 65s-70 96 -70 157c0 71 36 129 96 164
c-32 31 -48 68 -48 112z" />
    <glyph glyph-name="nine" unicode="9" horiz-adv-x="574" 
d="M380 445c0 56 -43 101 -98 102s-99 -43 -100 -98s41 -100 96 -101c27 -1 51 8 71 27s30 43 31 70zM257 234c-54 0 -101 20 -142 61c-40 41 -60 94 -59 161c1 62 23 112 66 151s98 59 165 58c61 -1 113 -22 154 -63c42 -41 66 -95 72 -163c16 -203 -18 -458 -254 -449
c-88 4 -154 35 -197 127l113 48c19 -40 49 -60 88 -60c45 0 78 20 99 59c22 39 31 87 28 144c-13 -37 -68 -74 -133 -74z" />
    <glyph glyph-name="colon" unicode=":" horiz-adv-x="284" 
d="M86 11c-31 29 -31 81 0 109c31 29 81 29 112 0c31 -28 31 -80 0 -109c-31 -28 -81 -28 -112 0zM86 346c-31 29 -31 81 0 109c31 29 81 29 112 0c31 -28 31 -80 0 -109c-31 -28 -81 -28 -112 0z" />
    <glyph glyph-name="semicolon" unicode=";" horiz-adv-x="291" 
d="M94 -132l-83 30c51 69 76 150 75 245h127c-2 -65 -15 -121 -39 -168s-51 -83 -80 -107zM96 346c-31 29 -31 81 0 109c31 29 81 29 112 0c31 -28 31 -80 0 -109c-31 -28 -81 -28 -112 0z" />
    <glyph glyph-name="less" unicode="&#x3c;" horiz-adv-x="628" 
d="M550 150v-105l-504 192v104l504 192v-105l-369 -139z" />
    <glyph glyph-name="equal" unicode="=" horiz-adv-x="600" 
d="M530 428v-94h-460v94h460zM70 135v94h460v-94h-460z" />
    <glyph glyph-name="greater" unicode="&#x3e;" horiz-adv-x="628" 
d="M582 341v-104l-504 -192v105l369 139l-369 139v105z" />
    <glyph glyph-name="question" unicode="?" horiz-adv-x="491" 
d="M258 233l-2 -33h-119l-2 33c0 52 12 89 24 112c6 12 17 24 34 36c17 13 31 22 42 27l59 30c25 11 38 32 38 65c0 41 -39 72 -87 72c-49 0 -85 -35 -85 -87h-121c0 63 19 114 57 152c39 38 88 57 149 57s111 -18 150 -54c39 -35 59 -82 59 -141c0 -93 -57 -164 -138 -189
c-41 -13 -58 -33 -58 -80zM119 67c0 43 35 76 79 76s79 -33 79 -76c0 -44 -35 -77 -79 -77s-79 33 -79 77z" />
    <glyph glyph-name="at" unicode="@" horiz-adv-x="967" 
d="M590 133v127c0 34 -12 63 -36 86c-23 23 -52 35 -85 35s-62 -12 -86 -35c-23 -23 -35 -52 -35 -86c0 -33 12 -61 35 -84c24 -23 53 -35 86 -35c30 0 59 11 86 33v-91c-29 -16 -57 -24 -86 -24c-56 0 -104 19 -144 58c-39 39 -59 87 -59 143c0 57 20 105 59 144
c40 39 88 59 144 59c54 0 101 -18 141 -55s61 -83 63 -138v-143c0 -41 21 -62 64 -62s74 31 89 75c15 45 20 88 20 133c0 97 -36 177 -108 242s-158 97 -259 97c-98 0 -181 -35 -248 -104s-101 -154 -101 -253s34 -182 101 -250s150 -102 248 -102h29v-83h-29
c-121 0 -224 42 -307 126s-125 187 -125 309s42 226 125 311c84 86 186 129 307 129c239 6 455 -186 451 -422c0 -64 -14 -129 -42 -189s-83 -101 -151 -101c-84 0 -147 45 -147 150z" />
    <glyph glyph-name="A" unicode="A" horiz-adv-x="654" 
d="M654 0h-135l-63 167h-257l-63 -167h-136l258 689h138zM414 279l-87 263l-85 -263h172z" />
    <glyph glyph-name="B" unicode="B" horiz-adv-x="634" 
d="M554 502c0 -57 -27 -110 -91 -134c40 -10 71 -31 94 -63s34 -65 34 -98c0 -58 -20 -107 -59 -147s-90 -60 -155 -60h-291v689h270c121 0 198 -72 198 -187zM214 575v-163h133c45 0 74 35 74 83c0 49 -29 80 -78 80h-129zM367 305h-153v-191h156c53 0 87 44 87 95
c0 49 -34 96 -90 96z" />
    <glyph glyph-name="C" unicode="C" horiz-adv-x="693" 
d="M570 204l101 -74c-61 -87 -163 -140 -280 -140c-97 0 -180 34 -247 103s-100 153 -100 250c0 99 33 182 100 251s150 103 247 103c115 0 216 -52 277 -136l-102 -73c-45 59 -104 88 -175 88c-62 0 -114 -23 -156 -68s-63 -100 -63 -165s21 -120 63 -165s94 -67 156 -67
c72 0 138 36 179 93z" />
    <glyph glyph-name="D" unicode="D" horiz-adv-x="714" 
d="M355 572h-141v-455h141c59 0 104 21 135 64c32 43 48 97 48 162c0 66 -16 121 -48 164c-31 43 -76 65 -135 65zM355 0h-269v689h269c96 0 172 -33 227 -98c56 -65 84 -147 84 -248c0 -100 -28 -182 -84 -247c-55 -64 -131 -96 -227 -96z" />
    <glyph glyph-name="E" unicode="E" horiz-adv-x="572" 
d="M522 0h-436v689h426v-114h-299v-179h262v-113h-262v-169h309v-114z" />
    <glyph glyph-name="F" unicode="F" horiz-adv-x="534" 
d="M214 0h-128v689h421v-114h-293v-179h232v-114h-232v-282z" />
    <glyph glyph-name="G" unicode="G" horiz-adv-x="756" 
d="M645 592l-94 -82c-43 45 -95 67 -156 67c-63 0 -116 -23 -159 -69c-43 -45 -64 -100 -64 -165s21 -120 64 -166s96 -69 159 -69c49 0 91 13 128 40s57 61 58 103h-189v105h336c0 -244 -128 -366 -333 -366c-98 0 -181 34 -249 103s-102 153 -102 250c0 98 34 181 102 250
s151 104 249 104c101 0 185 -35 250 -105z" />
    <glyph glyph-name="H" unicode="H" horiz-adv-x="704" 
d="M489 400v289h129v-689h-129v285h-276v-285h-127v689h127v-289h276z" />
    <glyph glyph-name="I" unicode="I" horiz-adv-x="299" 
d="M213 0h-127v689h127v-689z" />
    <glyph glyph-name="J" unicode="J" horiz-adv-x="300" 
d="M-99 -218l12 116c20 -7 47 -10 80 -10c63 0 93 45 93 109v692h128v-692c0 -136 -69 -230 -221 -230c-21 0 -52 5 -92 15z" />
    <glyph glyph-name="K" unicode="K" horiz-adv-x="598" 
d="M550 689l-262 -342l324 -347h-167l-230 255v-255h-129v689h129v-251l185 251h150z" />
    <glyph glyph-name="L" unicode="L" horiz-adv-x="506" 
d="M480 0h-394v689h128v-575h266v-114z" />
    <glyph glyph-name="M" unicode="M" horiz-adv-x="919" 
d="M239 689l220 -466l219 466h110l84 -689h-128l-53 459l-180 -381h-102l-181 381l-54 -459h-128l85 689h108z" />
    <glyph glyph-name="N" unicode="N" horiz-adv-x="682" 
d="M468 689h128v-689h-117l-266 453v-453h-127v689h119l263 -448v448z" />
    <glyph glyph-name="O" unicode="O" horiz-adv-x="787" 
d="M235 504c-43 -44 -64 -98 -64 -161s21 -117 64 -161s96 -66 158 -66s114 22 157 66s65 98 65 161s-22 117 -65 161c-43 45 -95 67 -157 67s-115 -22 -158 -67zM44 343c0 98 34 181 101 250s150 104 248 104s181 -35 248 -104c68 -69 102 -152 102 -250
c0 -97 -34 -181 -102 -250s-151 -103 -248 -103s-180 34 -248 103c-67 69 -101 153 -101 250z" />
    <glyph glyph-name="P" unicode="P" horiz-adv-x="612" 
d="M364 575h-150v-216h146c61 0 97 51 97 107s-33 109 -93 109zM214 0h-128v689h280c72 0 126 -22 163 -66c37 -43 56 -96 56 -157s-19 -114 -56 -157s-91 -64 -163 -64h-152v-245z" />
    <glyph glyph-name="Q" unicode="Q" horiz-adv-x="792" 
d="M593 50l68 -111l-92 -56l-75 121c-33 -9 -66 -14 -99 -14c-98 0 -181 34 -249 103s-102 153 -102 250c0 98 34 181 102 250s151 104 249 104c99 0 183 -34 251 -103s102 -152 102 -251c0 -119 -59 -228 -155 -293zM365 216l92 55l70 -114c61 44 92 106 92 186
c0 65 -22 120 -65 165s-96 68 -159 68s-116 -23 -159 -68s-64 -100 -64 -165c0 -57 18 -107 53 -150c35 -42 80 -67 135 -75c19 -3 41 -4 65 -2z" />
    <glyph glyph-name="R" unicode="R" horiz-adv-x="631" 
d="M356 575h-142v-216h138c63 0 97 50 97 107c0 56 -33 109 -93 109zM407 250l176 -250h-154l-162 245h-53v-245h-128v689h276c71 0 126 -22 163 -66c38 -43 57 -96 57 -157c0 -53 -15 -100 -45 -141c-29 -41 -73 -66 -130 -75z" />
    <glyph glyph-name="S" unicode="S" horiz-adv-x="577" 
d="M46 201h128c3 -53 48 -97 119 -97c67 0 111 35 114 83c3 45 -28 75 -95 94l-85 22c-116 34 -174 98 -174 192c0 59 22 108 67 145c45 38 100 57 165 57c67 0 121 -19 164 -57c43 -37 65 -88 65 -151h-128c0 55 -39 90 -103 90c-59 0 -103 -33 -103 -81
c0 -38 27 -64 82 -79l85 -25c143 -39 195 -118 188 -210c-3 -60 -27 -108 -74 -143c-46 -35 -102 -52 -168 -52c-73 0 -132 20 -178 61s-69 91 -69 151z" />
    <glyph glyph-name="T" unicode="T" horiz-adv-x="573" 
d="M222 572h-194v117h517v-117h-194v-572h-129v572z" />
    <glyph glyph-name="U" unicode="U" horiz-adv-x="681" 
d="M474 243v446h128v-446c0 -75 -26 -136 -77 -183s-112 -70 -184 -70c-73 0 -135 23 -186 70s-76 108 -76 183v446h130v-446c0 -39 13 -70 39 -95s57 -37 93 -37s67 12 93 37c27 25 40 56 40 95z" />
    <glyph glyph-name="V" unicode="V" horiz-adv-x="575" 
d="M230 0l-210 689h133l134 -480l134 480h133l-209 -689h-115z" />
    <glyph glyph-name="W" unicode="W" horiz-adv-x="892" 
d="M497 593l104 -384l148 480h139l-234 -689h-103l-106 391l-104 -391h-104l-232 689h138l147 -480l105 384h102z" />
    <glyph glyph-name="X" unicode="X" horiz-adv-x="643" 
d="M460 689h153l-216 -321l240 -368h-152l-164 265l-164 -265h-151l239 368l-216 321h153l139 -219z" />
    <glyph glyph-name="Y" unicode="Y" horiz-adv-x="644" 
d="M387 312v-312h-131v314l-264 375h152l177 -265l179 265h153z" />
    <glyph glyph-name="Z" unicode="Z" horiz-adv-x="587" 
d="M42 0v100l332 474h-319v115h484v-101l-335 -473h335v-115h-497z" />
    <glyph glyph-name="bracketleft" unicode="[" horiz-adv-x="332" 
d="M296 -227h-220v916h220v-95h-112v-725h112v-96z" />
    <glyph glyph-name="backslash" unicode="\" horiz-adv-x="501" 
d="M364 0l-334 689h107l334 -689h-107z" />
    <glyph glyph-name="bracketright" unicode="]" horiz-adv-x="332" 
d="M36 689h220v-916h-220v96h112v725h-112v95z" />
    <glyph glyph-name="underscore" unicode="_" horiz-adv-x="728" 
d="M665 -124h-602v93h602v-93z" />
    <glyph glyph-name="grave" unicode="`" horiz-adv-x="539" 
d="M267 544l-138 163h128l105 -163h-95z" />
    <glyph glyph-name="a" unicode="a" horiz-adv-x="614" 
d="M545 0h-122v60c-28 -44 -93 -69 -145 -69c-64 0 -120 22 -167 67s-71 104 -71 176s23 130 70 175s103 68 168 68c52 0 114 -21 145 -68v58h122v-467zM423 234c0 39 -13 69 -39 92c-25 23 -55 34 -89 34c-35 0 -65 -12 -91 -36c-25 -23 -38 -53 -38 -90s13 -67 38 -91
c74 -74 224 -25 219 91z" />
    <glyph glyph-name="b" unicode="b" horiz-adv-x="606" 
d="M317 107c69 0 123 52 123 128c0 75 -54 126 -123 126c-33 0 -62 -12 -87 -35s-37 -53 -37 -91c0 -76 56 -128 124 -128zM191 63v-63h-122v721h122v-316c24 45 82 72 146 72c63 0 117 -23 162 -68s67 -103 67 -176c0 -72 -22 -131 -67 -176s-99 -67 -162 -67
s-122 28 -146 73z" />
    <glyph glyph-name="c" unicode="c" horiz-adv-x="520" 
d="M291 477c79 0 150 -34 194 -91l-97 -73c-23 31 -55 46 -97 46c-35 0 -66 -12 -92 -35s-39 -52 -39 -89s13 -67 39 -92c26 -24 57 -36 92 -36c42 0 74 16 97 47l98 -72c-44 -59 -116 -92 -195 -92c-69 0 -129 23 -178 69s-74 105 -74 176s25 129 74 174s109 68 178 68z
" />
    <glyph glyph-name="d" unicode="d" horiz-adv-x="606" 
d="M537 0h-121v63c-25 -45 -84 -73 -147 -73s-117 22 -162 67s-67 104 -67 176c0 73 22 131 67 176s99 68 162 68c64 0 122 -27 147 -72v316h121v-721zM289 361c-69 0 -123 -51 -123 -126c0 -38 12 -69 35 -93c24 -23 53 -35 88 -35s64 12 88 35c25 24 37 55 37 93
s-13 68 -38 91s-54 35 -87 35z" />
    <glyph glyph-name="e" unicode="e" horiz-adv-x="553" 
d="M519 235c0 -13 -1 -27 -2 -42h-356c8 -61 60 -100 129 -100c49 0 96 21 117 60l93 -50c-40 -76 -125 -113 -218 -113c-68 0 -125 23 -172 68c-47 46 -70 105 -70 177s23 130 70 175s104 67 172 67s124 -22 169 -67s68 -103 68 -175zM160 276h240c-9 63 -56 99 -117 99
c-65 0 -114 -38 -123 -99z" />
    <glyph glyph-name="f" unicode="f" horiz-adv-x="357" 
d="M311 721h51v-117h-51c-51 0 -76 -33 -76 -100v-37h99v-98h-99v-369h-123v369h-89v98h89v37c0 137 70 217 199 217z" />
    <glyph glyph-name="g" unicode="g" horiz-adv-x="611" 
d="M420 234c0 77 -56 126 -127 126c-69 0 -126 -53 -126 -126c0 -76 55 -128 126 -128c33 0 63 12 88 35c26 24 39 55 39 93zM58 -95l99 50c20 -45 73 -77 124 -77c109 0 150 77 142 186c-23 -45 -85 -74 -149 -74c-63 0 -118 22 -165 67c-46 45 -69 104 -69 175
c0 73 23 132 69 177c47 45 102 68 165 68s124 -28 149 -73v63h119v-400c0 -203 -94 -300 -261 -300c-97 0 -182 53 -223 138z" />
    <glyph glyph-name="h" unicode="h" horiz-adv-x="587" 
d="M191 249v-249h-122v721h122v-326c10 26 30 46 59 60c30 15 59 22 86 22c120 0 188 -80 188 -217v-260h-122v254c0 64 -46 104 -99 104c-60 0 -112 -34 -112 -109z" />
    <glyph glyph-name="i" unicode="i" horiz-adv-x="259" 
d="M69 467h121v-467h-121v467zM130 574c-44 0 -79 33 -79 74s36 73 79 73s77 -32 77 -73s-34 -74 -77 -74z" />
    <glyph glyph-name="j" unicode="j" horiz-adv-x="261" 
d="M18 -233h-77v112h59c47 0 70 29 69 88v500h123v-498c0 -135 -58 -202 -174 -202zM52 648c0 40 35 73 78 73c44 0 78 -32 78 -73s-34 -74 -78 -74c-43 0 -78 33 -78 74z" />
    <glyph glyph-name="k" unicode="k" horiz-adv-x="519" 
d="M519 0h-153l-176 200v-200h-121v721h121v-394l129 140h158l-196 -205z" />
    <glyph glyph-name="l" unicode="l" horiz-adv-x="260" 
d="M191 0h-122v721h122v-721z" />
    <glyph glyph-name="m" unicode="m" horiz-adv-x="864" 
d="M592 358c-57 0 -95 -40 -95 -109v-249h-122v257c-1 63 -37 101 -86 101c-56 0 -98 -34 -98 -109v-249h-122v467h122v-69c24 52 82 78 134 78c75 -4 124 -33 149 -87c33 59 82 88 147 88c115 0 180 -74 180 -210v-267h-121v254c0 65 -36 104 -88 104z" />
    <glyph glyph-name="n" unicode="n" 
d="M191 249v-249h-122v467h122v-69c25 48 83 79 139 79c111 0 174 -70 174 -201v-276h-122v254c0 67 -34 104 -89 104c-60 0 -102 -33 -102 -109z" />
    <glyph glyph-name="o" unicode="o" horiz-adv-x="566" 
d="M405 235c0 72 -53 122 -122 122s-122 -50 -122 -122c0 -75 53 -125 122 -125s122 50 122 125zM455 59c-47 -45 -104 -68 -172 -68s-126 23 -173 68s-70 104 -70 176s23 130 70 175s105 67 173 67s125 -22 172 -67s71 -103 71 -175s-24 -131 -71 -176z" />
    <glyph glyph-name="p" unicode="p" horiz-adv-x="605" 
d="M69 467h122v-63c24 45 83 73 146 73s116 -23 161 -68s67 -104 67 -175c0 -73 -22 -132 -67 -177c-44 -45 -98 -67 -161 -67s-122 27 -146 72v-289h-122v694zM193 232c0 -77 56 -126 124 -126c69 0 123 51 123 126c0 37 -12 68 -36 92s-53 36 -87 36
c-69 0 -124 -52 -124 -128z" />
    <glyph glyph-name="q" unicode="q" horiz-adv-x="605" 
d="M412 232c0 76 -55 128 -124 128c-68 0 -122 -52 -122 -128c0 -75 54 -126 122 -126c33 0 62 11 87 34s37 53 37 92zM414 404v63h122v-694h-122v289c-24 -45 -83 -72 -146 -72s-117 22 -162 67c-44 45 -66 104 -66 177c0 71 22 130 67 175s98 68 161 68s122 -28 146 -73z
" />
    <glyph glyph-name="r" unicode="r" horiz-adv-x="411" 
d="M191 165v-165h-122v467h122v-110c23 80 75 120 132 120c30 0 56 -6 77 -17l-21 -110c-19 9 -43 13 -71 13c-78 0 -117 -66 -117 -198z" />
    <glyph glyph-name="s" unicode="s" horiz-adv-x="454" 
d="M246 179l-64 16c-120 34 -132 87 -132 143c0 37 17 70 51 97c34 28 74 42 121 42c49 0 91 -12 126 -36s54 -61 56 -111h-116c-1 32 -31 48 -63 48c-39 0 -59 -15 -59 -46c0 -17 16 -30 49 -39l78 -19c107 -28 122 -103 122 -140c0 -45 -19 -81 -57 -106
c-37 -25 -82 -38 -134 -38c-49 0 -93 14 -131 42c-37 29 -56 67 -57 115h114c3 -33 42 -60 86 -59c35 1 61 20 61 47c1 23 -15 36 -51 44z" />
    <glyph glyph-name="t" unicode="t" horiz-adv-x="351" 
d="M108 645h121v-178h99v-98h-99v-369h-121v369h-85v98h85v178z" />
    <glyph glyph-name="u" unicode="u" 
d="M376 218v249h122v-467h-122v66c-25 -48 -80 -76 -129 -76c-113 0 -184 72 -184 201v276h123v-254c0 -71 40 -104 89 -104c57 0 101 34 101 109z" />
    <glyph glyph-name="v" unicode="v" horiz-adv-x="518" 
d="M313 0h-108l-196 467h130l120 -311l120 311h131z" />
    <glyph glyph-name="w" unicode="w" horiz-adv-x="774" 
d="M629 467h130l-167 -467h-102l-104 313l-101 -313h-101l-172 467h130l95 -295l94 295h108l95 -295z" />
    <glyph glyph-name="x" unicode="x" horiz-adv-x="520" 
d="M7 0l184 254l-153 213h143l80 -115l78 115h143l-153 -213l183 -254h-142l-110 156l-111 -156h-142z" />
    <glyph glyph-name="y" unicode="y" horiz-adv-x="511" 
d="M372 467h130l-289 -695h-129l107 264l-182 431h130l116 -291z" />
    <glyph glyph-name="z" unicode="z" horiz-adv-x="508" 
d="M56 353v114h403v-94l-245 -259h245v-114h-418v93l241 260h-226z" />
    <glyph glyph-name="braceleft" unicode="{" horiz-adv-x="407" 
d="M34 190v83c32 0 61 24 61 56v162c0 59 19 107 57 143c39 37 86 55 143 55h78v-94h-81c-51 0 -91 -41 -91 -96v-153c0 -55 -28 -99 -68 -115c39 -15 68 -59 68 -114v-147c0 -27 9 -51 27 -71s39 -30 64 -30h81v-96h-78c-57 0 -104 18 -143 55c-38 36 -57 84 -57 143v164
c0 32 -29 55 -61 55z" />
    <glyph glyph-name="bar" unicode="|" horiz-adv-x="221" 
d="M76 -122v922h69v-922h-69z" />
    <glyph glyph-name="braceright" unicode="}" horiz-adv-x="407" 
d="M373 273v-83c-32 0 -61 -23 -61 -55v-164c0 -59 -19 -107 -58 -143c-38 -37 -85 -55 -142 -55h-78v96h81c25 0 46 10 64 30s27 44 27 71v147c0 55 29 99 68 114c-40 16 -68 60 -68 115v153c0 55 -40 96 -91 96h-81v94h78c57 0 104 -18 142 -55c39 -36 58 -84 58 -143
v-162c0 -32 29 -56 61 -56z" />
    <glyph glyph-name="exclamdown" unicode="&#xa1;" horiz-adv-x="265" 
d="M185 266l19 -493h-143l19 493h105zM131 477c44 0 80 -32 80 -76s-36 -76 -80 -76c-43 0 -78 33 -78 76s35 76 78 76z" />
    <glyph glyph-name="cent" unicode="&#xa2;" horiz-adv-x="535" 
d="M248 580h69v-104c73 -6 131 -36 172 -90l-97 -73c-23 31 -55 46 -97 46c-35 0 -66 -12 -92 -35s-39 -52 -39 -89s13 -67 39 -92c26 -24 57 -36 92 -36c42 0 74 16 97 47l98 -72c-42 -55 -100 -85 -173 -91v-113h-69v116c-59 11 -108 38 -147 81s-58 97 -58 160
s19 115 58 158s88 69 147 80v107z" />
    <glyph glyph-name="sterling" unicode="&#xa3;" horiz-adv-x="663" 
d="M395 344v-62h-128v-170h190c27 0 40 10 40 31v39h121v-54c0 -73 -48 -128 -116 -128h-459v112h102v170h-81v62h81v126c0 69 19 124 57 165c39 41 90 62 153 62c62 0 113 -19 154 -57s62 -92 62 -163h-125c0 65 -40 95 -93 92c-49 -1 -86 -35 -86 -86v-139h128z" />
    <glyph glyph-name="currency" unicode="&#xa4;" horiz-adv-x="618" 
d="M202 169l-71 -72l-64 64l71 72c-21 31 -31 66 -31 106s11 76 32 107l-72 72l64 64l72 -72c33 21 68 31 106 31c41 0 76 -10 107 -31l71 72l64 -64l-71 -72c21 -35 31 -70 31 -107c0 -41 -10 -77 -31 -106l71 -72l-64 -64l-71 72c-63 -43 -151 -43 -214 0zM217 339
c0 -51 41 -92 92 -92c52 0 93 41 93 92c0 52 -41 93 -93 93c-51 0 -92 -41 -92 -93z" />
    <glyph glyph-name="yen" unicode="&#xa5;" horiz-adv-x="723" 
d="M692 689l-260 -367h159v-67h-165v-88h165v-66h-165v-101h-131v101h-164v66h164v88h-164v67h158l-258 367h152l177 -265l179 265h153z" />
    <glyph glyph-name="brokenbar" unicode="&#xa6;" horiz-adv-x="225" 
d="M78 -122v385h69v-385h-69zM78 800h69v-385h-69v385z" />
    <glyph glyph-name="section" unicode="&#xa7;" horiz-adv-x="532" 
d="M316 213v-110c-19 -5 -35 -7 -48 -7c-58 0 -107 19 -147 56c-40 38 -60 87 -60 148v188c0 61 20 110 60 147c40 38 89 57 147 57c47 0 89 -13 127 -40c39 -27 64 -65 76 -114l-105 -32c-16 51 -55 76 -98 76c-53 0 -96 -38 -96 -94v-188c0 -59 43 -93 100 -93
c13 0 28 2 44 6zM216 302v110c19 5 35 7 48 7c58 0 107 -19 147 -57c40 -37 60 -86 60 -147v-188c0 -61 -20 -110 -60 -147c-40 -38 -89 -57 -147 -57c-47 0 -89 13 -128 40c-38 27 -63 65 -75 114l105 32c16 -51 55 -76 98 -76c53 0 96 38 96 94v188c0 59 -43 93 -100 93
c-13 0 -28 -2 -44 -6z" />
    <glyph glyph-name="dieresis" unicode="&#xa8;" horiz-adv-x="551" 
d="M189 697c37 0 68 -29 68 -65s-31 -65 -68 -65c-39 0 -69 28 -69 65s30 65 69 65zM314 585c-27 25 -27 69 0 93c27 25 72 25 97 0c27 -24 27 -68 0 -93c-25 -24 -70 -24 -97 0z" />
    <glyph glyph-name="copyright" unicode="&#xa9;" horiz-adv-x="801" 
d="M541 222c-41 -43 -87 -65 -138 -65c-50 0 -93 18 -128 53s-52 78 -52 128s17 92 52 127s77 53 128 53c49 0 95 -22 137 -66l-46 -47c-31 31 -61 46 -91 46c-63 0 -112 -50 -112 -113c0 -31 11 -58 32 -81c22 -22 49 -33 80 -33c30 0 61 16 93 48zM152 93
c-67 69 -101 152 -101 250s34 181 101 250c68 69 151 104 248 104s180 -35 248 -104s102 -152 102 -250s-34 -181 -102 -250s-151 -103 -248 -103s-180 34 -248 103zM196 549c-56 -57 -84 -125 -84 -206s28 -149 84 -206s124 -85 204 -85s148 28 204 85s84 125 84 206
s-28 149 -84 206s-124 86 -204 86s-148 -29 -204 -86z" />
    <glyph glyph-name="ordfeminine" unicode="&#xaa;" horiz-adv-x="477" 
d="M398 324h-71v46c-23 -32 -66 -53 -107 -53c-47 0 -86 16 -119 47c-33 32 -49 74 -49 125s16 93 49 124c33 32 72 48 119 48s83 -17 107 -52v45h71v-330zM327 490c0 61 -49 100 -102 100c-56 0 -99 -41 -99 -100s43 -102 99 -102c57 0 102 39 102 102zM396 203h-315v62
h315v-62z" />
    <glyph glyph-name="guillemotleft" unicode="&#xab;" horiz-adv-x="499" 
d="M179 26l-138 207l138 207h98l-138 -207l138 -207h-98zM356 26l-138 207l138 207h98l-138 -207l138 -207h-98z" />
    <glyph glyph-name="logicalnot" unicode="&#xac;" horiz-adv-x="633" 
d="M70 260v108h487v-259h-109v151h-378z" />
    <glyph glyph-name="registered" unicode="&#xae;" horiz-adv-x="801" 
d="M544 165h-84l-88 122h-23v-122h-69v353h137c72 0 114 -53 114 -116c0 -52 -26 -97 -77 -110zM349 450v-95h66c29 0 48 22 48 47c0 27 -18 48 -46 48h-68zM152 93c-67 69 -101 152 -101 250s34 181 101 250c68 69 151 104 248 104s180 -35 248 -104s102 -152 102 -250
s-34 -181 -102 -250s-151 -103 -248 -103s-180 34 -248 103zM196 549c-56 -57 -84 -125 -84 -206s28 -149 84 -206s124 -85 204 -85s148 28 204 85s84 125 84 206s-28 149 -84 206s-124 86 -204 86s-148 -29 -204 -86z" />
    <glyph glyph-name="overscore" unicode="&#xaf;" horiz-adv-x="509" 
d="M389 585h-269v83h269v-83z" />
    <glyph glyph-name="degree" unicode="&#xb0;" horiz-adv-x="373" 
d="M47 558c0 38 14 71 41 98s60 41 98 41c39 0 72 -14 99 -41s41 -60 41 -98c0 -39 -14 -72 -41 -99s-60 -41 -99 -41c-38 0 -71 14 -98 41s-41 60 -41 99zM118 558c0 -39 31 -69 68 -69c39 0 69 30 69 69s-30 68 -69 68c-37 0 -68 -31 -68 -68z" />
    <glyph glyph-name="plusminus" unicode="&#xb1;" horiz-adv-x="546" 
d="M477 287h-156v-144h-97v144h-155v96h155v142h97v-142h156v-96zM477 94v-95h-408v95h408z" />
    <glyph glyph-name="twosuperior" unicode="&#xb2;" horiz-adv-x="317" 
d="M31 433v37l157 187c15 18 22 35 22 50c0 27 -21 46 -54 46c-31 0 -55 -22 -60 -57l-67 14c12 69 62 113 130 113c69 0 124 -48 124 -116c0 -35 -14 -67 -41 -98l-93 -106h128v-70h-246z" />
    <glyph glyph-name="threesuperior" unicode="&#xb3;" horiz-adv-x="320" 
d="M99 730l-28 18c-17 11 -26 18 -27 19c23 36 67 59 116 56c65 -4 111 -51 111 -107c0 -33 -16 -58 -48 -76c40 -15 68 -62 64 -103c-3 -33 -19 -60 -48 -81s-62 -31 -99 -28c-52 4 -99 36 -120 80c35 17 55 28 62 32c14 -25 35 -40 63 -43c33 -1 62 21 65 49
c1 28 -15 59 -60 58h-42v63h42c33 0 47 30 44 50c-1 20 -19 39 -44 39c-21 1 -38 -8 -51 -26z" />
    <glyph glyph-name="acute" unicode="&#xb4;" horiz-adv-x="539" 
d="M129 544l105 163h128l-138 -163h-95z" />
    <glyph glyph-name="mu" unicode="&#xb5;" 
d="M190 -178h-114v645h122v-256c0 -68 39 -102 86 -102c57 0 101 34 101 109v249h122v-467h-122v62c-25 -45 -77 -72 -125 -72c-32 0 -58 9 -79 28l9 -126v-70z" />
    <glyph glyph-name="paragraph" unicode="&#xb6;" horiz-adv-x="692" 
d="M251 689h86v-702c0 -19 -2 -31 -6 -35c-5 -4 -13 -6 -24 -6h-66v309c-57 3 -106 26 -147 68c-40 42 -60 92 -60 149c0 60 21 111 63 153c42 43 93 64 154 64zM521 594h-29v-653c0 -35 -14 -66 -42 -94c-27 -28 -59 -42 -95 -43h-28h-87v86h109c27 0 49 21 49 46v753h121
c37 0 69 -14 96 -41s41 -59 41 -96v-85h-90v79c0 27 -20 48 -45 48z" />
    <glyph glyph-name="middot" unicode="&#xb7;" horiz-adv-x="278" 
d="M138 389c44 0 80 -32 80 -76s-36 -76 -80 -76c-43 0 -78 33 -78 76s35 76 78 76z" />
    <glyph glyph-name="cedilla" unicode="&#xb8;" horiz-adv-x="528" 
d="M237 -122c7 -17 24 -25 43 -20c19 7 24 23 17 46l-46 125h59l51 -94c6 -11 9 -26 9 -46c0 -55 -46 -102 -105 -102c-56 0 -103 47 -102 120l69 -4c0 -9 2 -17 5 -25z" />
    <glyph glyph-name="onesuperior" unicode="&#xb9;" horiz-adv-x="212" 
d="M161 433h-73v284l-66 -30v65l139 70v-389z" />
    <glyph glyph-name="ordmasculine" unicode="&#xba;" horiz-adv-x="464" 
d="M229 317c-49 0 -90 16 -123 48s-50 74 -50 126c0 50 17 91 50 122c34 32 75 48 123 48s89 -16 122 -48c34 -31 51 -72 51 -122c0 -51 -17 -93 -51 -126c-33 -32 -74 -48 -122 -48zM330 491c0 59 -45 99 -101 99s-101 -40 -101 -99c0 -61 45 -103 101 -103s101 42 101 103
zM394 203h-320v62h320v-62z" />
    <glyph glyph-name="guillemotright" unicode="&#xbb;" horiz-adv-x="499" 
d="M143 440l138 -207l-138 -207h-98l138 207l-138 207h98zM320 440l138 -207l-138 -207h-98l138 207l-138 207h98z" />
    <glyph glyph-name="onequarter" unicode="&#xbc;" horiz-adv-x="777" 
d="M740 83h-51v-83h-73v83h-190l193 302h70v-238h51v-64zM616 277l-82 -130h82v130zM556 669h76l-450 -679h-78zM178 270h-73v284l-66 -30v66l139 69v-389z" />
    <glyph glyph-name="onehalf" unicode="&#xbd;" horiz-adv-x="792" 
d="M495 0v38l157 187c15 18 22 35 22 50c0 27 -22 46 -54 46c-31 0 -55 -22 -60 -57l-67 13c12 71 62 114 130 114c35 0 64 -11 88 -33s36 -50 36 -83c0 -35 -14 -67 -41 -98l-93 -107h128v-70h-246zM556 669h76l-450 -679h-78zM178 270h-73v284l-66 -30v66l139 69v-389z
" />
    <glyph glyph-name="threequarters" unicode="&#xbe;" horiz-adv-x="853" 
d="M115 567l-55 38c23 36 67 59 116 56c65 -4 111 -51 111 -107c0 -33 -16 -58 -48 -76c40 -15 68 -61 64 -104c-3 -33 -19 -60 -48 -81s-62 -31 -99 -28c-52 4 -99 36 -120 81l62 32c15 -29 36 -43 63 -43c33 -1 62 21 65 48c1 28 -15 60 -60 59h-42v63h42
c33 0 47 30 44 50c-1 20 -19 39 -44 39c-22 1 -39 -8 -51 -27zM816 83h-51v-83h-73v83h-190l193 302h70v-238h51v-64zM692 277l-82 -130h82v130zM632 669h76l-450 -679h-78z" />
    <glyph glyph-name="questiondown" unicode="&#xbf;" horiz-adv-x="482" 
d="M229 231l2 36h119l2 -36c0 -52 -12 -89 -24 -113c-6 -11 -18 -23 -35 -36c-17 -12 -31 -21 -42 -27l-58 -29c-25 -11 -38 -32 -38 -65c0 -41 39 -72 87 -72c49 0 85 35 85 87h121c0 -63 -19 -114 -58 -152c-38 -38 -87 -57 -148 -57s-111 18 -150 54
c-39 35 -59 82 -59 141c0 93 57 164 138 189c41 13 58 33 58 80zM368 400c0 -43 -35 -76 -79 -76s-79 33 -79 76c0 44 35 77 79 77s79 -33 79 -77z" />
    <glyph glyph-name="Agrave" unicode="&#xc0;" horiz-adv-x="654" 
d="M654 0h-135l-63 167h-257l-63 -167h-136l258 689h138zM414 279l-87 263l-85 -263h172zM289 766l-138 163h128l105 -163h-95z" />
    <glyph glyph-name="Aacute" unicode="&#xc1;" horiz-adv-x="654" 
d="M456 167h-257l-63 -167h-136l258 689h138l258 -689h-135zM242 279h172l-87 263zM267 766l105 163h128l-138 -163h-95z" />
    <glyph glyph-name="Acircumflex" unicode="&#xc2;" horiz-adv-x="654" 
d="M654 0h-135l-63 167h-257l-63 -167h-136l258 689h138zM414 279l-87 263l-85 -263h172zM156 769l109 163h123l110 -163h-94l-78 88l-76 -88h-94z" />
    <glyph glyph-name="Atilde" unicode="&#xc3;" horiz-adv-x="654" 
d="M654 0h-135l-63 167h-257l-63 -167h-136l258 689h138zM414 279l-87 263l-85 -263h172zM282 829c-11 0 -25 -15 -26 -43h-70c4 87 48 125 96 125c16 0 33 -7 51 -21c18 -13 30 -20 37 -20c11 0 26 13 27 41h70c-4 -85 -50 -123 -97 -123c-15 0 -32 7 -51 20
c-19 14 -31 21 -37 21z" />
    <glyph glyph-name="Adieresis" unicode="&#xc4;" horiz-adv-x="654" 
d="M456 167h-257l-63 -167h-136l258 689h138l258 -689h-135zM242 279h172l-87 263zM240 919c37 0 68 -29 68 -65s-31 -65 -68 -65c-39 0 -69 28 -69 65s30 65 69 65zM365 807c-27 25 -27 69 0 93c27 25 72 25 97 0c27 -24 27 -68 0 -93c-25 -24 -70 -24 -97 0z" />
    <glyph glyph-name="Aring" unicode="&#xc5;" horiz-adv-x="654" 
d="M456 167h-257l-63 -167h-136l258 689h138l258 -689h-135zM242 279h172l-87 263zM211 876c0 33 11 60 33 83c23 23 50 34 81 34c33 0 60 -11 83 -34c23 -22 34 -50 34 -83c0 -64 -52 -114 -117 -114c-31 0 -58 11 -81 33c-22 22 -33 49 -33 81zM268 876
c0 -32 26 -57 57 -57c33 0 59 25 59 57c0 33 -26 59 -59 59c-31 0 -57 -26 -57 -59z" />
    <glyph glyph-name="AE" unicode="&#xc6;" horiz-adv-x="933" 
d="M-14 0l435 689h452v-116h-298v-177h261v-114h-261v-166h308v-116h-435v1l-1 -1v163h-205l-104 -163h-152zM447 286v230l-132 -230h132z" />
    <glyph glyph-name="Ccedilla" unicode="&#xc7;" horiz-adv-x="694" 
d="M327 -122c7 -17 24 -25 43 -20c19 7 24 23 17 46l-33 88c-89 9 -162 47 -221 114s-88 146 -88 237c0 99 33 182 100 251s150 103 247 103c115 0 216 -52 277 -136l-102 -73c-45 59 -104 88 -175 88c-62 0 -114 -23 -156 -68s-63 -100 -63 -165s21 -120 63 -165
s94 -67 156 -67c72 0 138 36 179 93l101 -74c-56 -80 -147 -131 -252 -139l31 -56c6 -11 9 -26 9 -46c0 -27 -10 -51 -31 -71c-21 -21 -45 -31 -74 -31c-56 0 -103 47 -102 120l69 -4c0 -9 2 -17 5 -25z" />
    <glyph glyph-name="Egrave" unicode="&#xc8;" horiz-adv-x="572" 
d="M522 0h-436v689h426v-114h-299v-179h262v-113h-262v-169h309v-114zM290 766l-138 163h128l105 -163h-95z" />
    <glyph glyph-name="Eacute" unicode="&#xc9;" horiz-adv-x="572" 
d="M86 689h426v-114h-299v-179h262v-113h-262v-169h309v-114h-436v689zM191 766l105 163h128l-138 -163h-95z" />
    <glyph glyph-name="Ecircumflex" unicode="&#xca;" horiz-adv-x="572" 
d="M522 0h-436v689h426v-114h-299v-179h262v-113h-262v-169h309v-114zM113 769l109 163h123l110 -163h-94l-78 88l-76 -88h-94z" />
    <glyph glyph-name="Edieresis" unicode="&#xcb;" horiz-adv-x="572" 
d="M86 689h426v-114h-299v-179h262v-113h-262v-169h309v-114h-436v689zM211 919c37 0 68 -29 68 -65s-31 -65 -68 -65c-39 0 -69 28 -69 65s30 65 69 65zM336 807c-27 25 -27 69 0 93c27 25 72 25 97 0c27 -24 27 -68 0 -93c-25 -24 -70 -24 -97 0z" />
    <glyph glyph-name="Igrave" unicode="&#xcc;" horiz-adv-x="299" 
d="M117 766l-138 163h128l105 -163h-95zM213 0h-127v689h127v-689z" />
    <glyph glyph-name="Iacute" unicode="&#xcd;" horiz-adv-x="299" 
d="M86 689h127v-689h-127v689zM87 766l105 163h128l-138 -163h-95z" />
    <glyph glyph-name="Icircumflex" unicode="&#xce;" horiz-adv-x="299" 
d="M-21 769l109 163h123l110 -163h-94l-78 88l-76 -88h-94zM213 0h-127v689h127v-689z" />
    <glyph glyph-name="Idieresis" unicode="&#xcf;" horiz-adv-x="299" 
d="M86 689h127v-689h-127v689zM63 919c37 0 68 -29 68 -65s-31 -65 -68 -65c-39 0 -69 28 -69 65s30 65 69 65zM188 807c-27 25 -27 69 0 93c27 25 72 25 97 0c27 -24 27 -68 0 -93c-25 -24 -70 -24 -97 0z" />
    <glyph glyph-name="Eth" unicode="&#xd0;" horiz-adv-x="722" 
d="M97 293h-94v88h94v308h267c97 0 172 -32 227 -97s83 -148 83 -249s-28 -183 -83 -247s-130 -96 -227 -96h-267v293zM362 293h-138v-174h140c59 0 104 21 135 63c32 42 48 96 48 161s-16 119 -48 162c-31 43 -76 65 -135 65h-140v-189h138v-88z" />
    <glyph glyph-name="Ntilde" unicode="&#xd1;" horiz-adv-x="682" 
d="M468 689h128v-689h-117l-266 453v-453h-127v689h119l263 -448v448zM296 829c-11 0 -25 -15 -26 -43h-70c4 87 48 125 96 125c16 0 33 -7 51 -21c18 -13 30 -20 37 -20c11 0 26 13 27 41h70c-4 -85 -50 -123 -97 -123c-15 0 -32 7 -51 20c-19 14 -31 21 -37 21z" />
    <glyph glyph-name="Ograve" unicode="&#xd2;" horiz-adv-x="787" 
d="M235 504c-43 -44 -64 -98 -64 -161s21 -117 64 -161s96 -66 158 -66s114 22 157 66s65 98 65 161s-22 117 -65 161c-43 45 -95 67 -157 67s-115 -22 -158 -67zM44 343c0 98 34 181 101 250s150 104 248 104s181 -35 248 -104c68 -69 102 -152 102 -250
c0 -97 -34 -181 -102 -250s-151 -103 -248 -103s-180 34 -248 103c-67 69 -101 153 -101 250zM346 766l-138 163h128l105 -163h-95z" />
    <glyph glyph-name="Oacute" unicode="&#xd3;" horiz-adv-x="787" 
d="M235 182c43 -44 96 -66 158 -66s114 22 157 66s65 98 65 161s-22 117 -65 161c-43 45 -95 67 -157 67s-115 -22 -158 -67c-43 -44 -64 -98 -64 -161s21 -117 64 -161zM44 343c0 98 34 181 101 250s150 104 248 104s181 -35 248 -104c68 -69 102 -152 102 -250
c0 -97 -34 -181 -102 -250s-151 -103 -248 -103s-180 34 -248 103c-67 69 -101 153 -101 250zM339 766l105 163h128l-138 -163h-95z" />
    <glyph glyph-name="Ocircumflex" unicode="&#xd4;" horiz-adv-x="787" 
d="M235 504c-43 -44 -64 -98 -64 -161s21 -117 64 -161s96 -66 158 -66s114 22 157 66s65 98 65 161s-22 117 -65 161c-43 45 -95 67 -157 67s-115 -22 -158 -67zM44 343c0 98 34 181 101 250s150 104 248 104s181 -35 248 -104c68 -69 102 -152 102 -250
c0 -97 -34 -181 -102 -250s-151 -103 -248 -103s-180 34 -248 103c-67 69 -101 153 -101 250zM222 769l109 163h123l110 -163h-94l-78 88l-76 -88h-94z" />
    <glyph glyph-name="Otilde" unicode="&#xd5;" horiz-adv-x="787" 
d="M349 829c-11 0 -25 -15 -26 -43h-70c4 87 48 125 96 125c16 0 33 -7 51 -21c18 -13 30 -20 37 -20c11 0 26 13 27 41h70c-4 -85 -50 -123 -97 -123c-15 0 -32 7 -51 20c-19 14 -31 21 -37 21zM235 504c-43 -44 -64 -98 -64 -161s21 -117 64 -161s96 -66 158 -66
s114 22 157 66s65 98 65 161s-22 117 -65 161c-43 45 -95 67 -157 67s-115 -22 -158 -67zM44 343c0 98 34 181 101 250s150 104 248 104s181 -35 248 -104c68 -69 102 -152 102 -250c0 -97 -34 -181 -102 -250s-151 -103 -248 -103s-180 34 -248 103
c-67 69 -101 153 -101 250z" />
    <glyph glyph-name="Odieresis" unicode="&#xd6;" horiz-adv-x="787" 
d="M235 182c43 -44 96 -66 158 -66s114 22 157 66s65 98 65 161s-22 117 -65 161c-43 45 -95 67 -157 67s-115 -22 -158 -67c-43 -44 -64 -98 -64 -161s21 -117 64 -161zM44 343c0 98 34 181 101 250s150 104 248 104s181 -35 248 -104c68 -69 102 -152 102 -250
c0 -97 -34 -181 -102 -250s-151 -103 -248 -103s-180 34 -248 103c-67 69 -101 153 -101 250zM307 919c37 0 68 -29 68 -65s-31 -65 -68 -65c-39 0 -69 28 -69 65s30 65 69 65zM432 807c-27 25 -27 69 0 93c27 25 72 25 97 0c27 -24 27 -68 0 -93c-25 -24 -70 -24 -97 0z
" />
    <glyph glyph-name="multiply" unicode="&#xd7;" horiz-adv-x="492" 
d="M434 383l-120 -119l120 -119l-68 -69l-120 119l-118 -117l-68 68l118 118l-119 119l68 67l119 -118l120 120z" />
    <glyph glyph-name="Oslash" unicode="&#xd8;" horiz-adv-x="785" 
d="M173 66l-80 -82l-47 47l80 82c-55 66 -83 143 -83 230c0 98 34 181 101 250s150 104 248 104c85 0 160 -27 223 -81l79 81l47 -46l-80 -82c54 -66 81 -141 81 -226c0 -97 -34 -181 -102 -250s-151 -103 -248 -103c-75 0 -143 22 -202 65c-3 1 -13 8 -17 11zM170 343
c0 -51 15 -97 45 -139l311 321c-38 31 -83 46 -134 46c-62 0 -115 -22 -158 -67c-43 -44 -64 -98 -64 -161zM392 116c62 0 114 22 157 66s65 98 65 161c0 49 -14 93 -43 134l-309 -319c37 -28 81 -42 130 -42z" />
    <glyph glyph-name="Ugrave" unicode="&#xd9;" horiz-adv-x="681" 
d="M474 243v446h128v-446c0 -75 -26 -136 -77 -183s-112 -70 -184 -70c-73 0 -135 23 -186 70s-76 108 -76 183v446h130v-446c0 -39 13 -70 39 -95s57 -37 93 -37s67 12 93 37c27 25 40 56 40 95zM321 766l-138 163h128l105 -163h-95z" />
    <glyph glyph-name="Uacute" unicode="&#xda;" horiz-adv-x="681" 
d="M474 243v446h128v-446c0 -75 -26 -136 -77 -183s-112 -70 -184 -70c-73 0 -135 23 -186 70s-76 108 -76 183v446h130v-446c0 -39 13 -70 39 -95s57 -37 93 -37s67 12 93 37c27 25 40 56 40 95zM256 766l105 163h128l-138 -163h-95z" />
    <glyph glyph-name="Ucircumflex" unicode="&#xdb;" horiz-adv-x="681" 
d="M474 243v446h128v-446c0 -75 -26 -136 -77 -183s-112 -70 -184 -70c-73 0 -135 23 -186 70s-76 108 -76 183v446h130v-446c0 -39 13 -70 39 -95s57 -37 93 -37s67 12 93 37c27 25 40 56 40 95zM169 769l109 163h123l110 -163h-94l-78 88l-76 -88h-94z" />
    <glyph glyph-name="Udieresis" unicode="&#xdc;" horiz-adv-x="681" 
d="M474 243v446h128v-446c0 -75 -26 -136 -77 -183s-112 -70 -184 -70c-73 0 -135 23 -186 70s-76 108 -76 183v446h130v-446c0 -39 13 -70 39 -95s57 -37 93 -37s67 12 93 37c27 25 40 56 40 95zM254 919c37 0 68 -29 68 -65s-31 -65 -68 -65c-39 0 -69 28 -69 65
s30 65 69 65zM379 807c-27 25 -27 69 0 93c27 25 72 25 97 0c27 -24 27 -68 0 -93c-25 -24 -70 -24 -97 0z" />
    <glyph glyph-name="Yacute" unicode="&#xdd;" horiz-adv-x="644" 
d="M387 312v-312h-131v314l-264 375h152l177 -265l179 265h153zM248 766l105 163h128l-138 -163h-95z" />
    <glyph glyph-name="Thorn" unicode="&#xde;" horiz-adv-x="573" 
d="M418 351c0 67 -45 108 -100 111h-105v-220h108c53 0 97 44 97 109zM326 130h-113v-130h-127v689h127v-116h113c62 0 114 -20 155 -61c42 -40 63 -93 63 -159s-21 -120 -63 -161c-41 -41 -93 -62 -155 -62z" />
    <glyph glyph-name="germandbls" unicode="&#xdf;" 
d="M223 2l18 115c21 -5 40 -8 59 -8c65 0 112 54 112 115c0 28 -10 54 -31 78c-20 25 -48 37 -85 37h-31v104h24c40 0 67 32 67 73c0 40 -33 69 -81 69c-51 0 -86 -27 -86 -124v-461h-120v490c0 65 19 115 56 152s86 55 145 55s108 -16 146 -49c38 -32 57 -72 57 -119
c0 -53 -21 -94 -63 -122c69 -33 117 -104 117 -189c0 -66 -20 -121 -61 -164c-40 -43 -95 -64 -165 -64c-25 0 -51 4 -78 12z" />
    <glyph glyph-name="agrave" unicode="&#xe0;" horiz-adv-x="614" 
d="M545 0h-122v60c-28 -44 -93 -69 -145 -69c-64 0 -120 22 -167 67s-71 104 -71 176s23 130 70 175s103 68 168 68c52 0 114 -21 145 -68v58h122v-467zM423 234c0 39 -13 69 -39 92c-25 23 -55 34 -89 34c-35 0 -65 -12 -91 -36c-25 -23 -38 -53 -38 -90s13 -67 38 -91
c74 -74 224 -25 219 91zM292 544l-138 163h128l105 -163h-95z" />
    <glyph glyph-name="aacute" unicode="&#xe1;" horiz-adv-x="614" 
d="M545 0h-122v60c-28 -44 -93 -69 -145 -69c-64 0 -120 22 -167 67s-71 104 -71 176s23 130 70 175s103 68 168 68c52 0 114 -21 145 -68v58h122v-467zM423 234c0 39 -13 69 -39 92c-25 23 -55 34 -89 34c-35 0 -65 -12 -91 -36c-25 -23 -38 -53 -38 -90s13 -67 38 -91
c74 -74 224 -25 219 91zM219 544l105 163h128l-138 -163h-95z" />
    <glyph glyph-name="acircumflex" unicode="&#xe2;" horiz-adv-x="614" 
d="M545 0h-122v60c-28 -44 -93 -69 -145 -69c-64 0 -120 22 -167 67s-71 104 -71 176s23 130 70 175s103 68 168 68c52 0 114 -21 145 -68v58h122v-467zM423 234c0 39 -13 69 -39 92c-25 23 -55 34 -89 34c-35 0 -65 -12 -91 -36c-25 -23 -38 -53 -38 -90s13 -67 38 -91
c74 -74 224 -25 219 91zM136 547l109 163h123l110 -163h-94l-78 88l-76 -88h-94z" />
    <glyph glyph-name="atilde" unicode="&#xe3;" horiz-adv-x="614" 
d="M545 0h-122v60c-28 -44 -93 -69 -145 -69c-64 0 -120 22 -167 67s-71 104 -71 176s23 130 70 175s103 68 168 68c52 0 114 -21 145 -68v58h122v-467zM423 234c0 39 -13 69 -39 92c-25 23 -55 34 -89 34c-35 0 -65 -12 -91 -36c-25 -23 -38 -53 -38 -90s13 -67 38 -91
c74 -74 224 -25 219 91zM263 607c-11 0 -25 -15 -26 -43h-70c4 87 48 125 96 125c16 0 33 -7 51 -21c18 -13 30 -20 37 -20c11 0 26 13 27 41h70c-4 -85 -50 -123 -97 -123c-15 0 -32 7 -51 20c-19 14 -31 21 -37 21z" />
    <glyph glyph-name="adieresis" unicode="&#xe4;" horiz-adv-x="614" 
d="M545 0h-122v60c-28 -44 -93 -69 -145 -69c-64 0 -120 22 -167 67s-71 104 -71 176s23 130 70 175s103 68 168 68c52 0 114 -21 145 -68v58h122v-467zM423 234c0 39 -13 69 -39 92c-25 23 -55 34 -89 34c-35 0 -65 -12 -91 -36c-25 -23 -38 -53 -38 -90s13 -67 38 -91
c74 -74 224 -25 219 91zM221 697c37 0 68 -29 68 -65s-31 -65 -68 -65c-39 0 -69 28 -69 65s30 65 69 65zM346 585c-27 25 -27 69 0 93c27 25 72 25 97 0c27 -24 27 -68 0 -93c-25 -24 -70 -24 -97 0z" />
    <glyph glyph-name="aring" unicode="&#xe5;" horiz-adv-x="614" 
d="M545 0h-122v60c-28 -44 -93 -69 -145 -69c-64 0 -120 22 -167 67s-71 104 -71 176s23 130 70 175s103 68 168 68c52 0 114 -21 145 -68v58h122v-467zM423 234c0 39 -13 69 -39 92c-25 23 -55 34 -89 34c-35 0 -65 -12 -91 -36c-25 -23 -38 -53 -38 -90s13 -67 38 -91
c74 -74 224 -25 219 91zM192 654c0 33 11 60 33 83c23 23 50 34 81 34c67 0 117 -50 117 -117c0 -64 -52 -114 -117 -114c-31 0 -58 11 -81 33c-22 22 -33 49 -33 81zM249 654c0 -32 26 -57 57 -57c33 0 59 25 59 57c0 33 -26 59 -59 59c-31 0 -57 -26 -57 -59z" />
    <glyph glyph-name="ae" unicode="&#xe6;" horiz-adv-x="993" 
d="M599 276h240c-8 61 -54 99 -117 99c-65 0 -114 -36 -123 -99zM423 234c0 39 -13 69 -39 92c-25 23 -55 34 -89 34c-35 0 -65 -12 -91 -36c-25 -23 -38 -53 -38 -90s13 -67 38 -91c74 -74 224 -25 219 91zM958 235c0 -13 -1 -27 -2 -42h-356c9 -61 60 -100 129 -100
c49 0 96 21 117 60l94 -50c-41 -76 -126 -113 -218 -113c-80 0 -142 29 -186 87v-77h-113v60c-28 -44 -93 -69 -145 -69c-64 0 -120 22 -167 67s-71 104 -71 176s23 130 70 175s103 68 168 68c52 0 114 -21 145 -68v58h113v-75c44 57 106 85 186 85c68 0 124 -22 169 -67
s67 -103 67 -175z" />
    <glyph glyph-name="ccedilla" unicode="&#xe7;" horiz-adv-x="522" 
d="M320 -8l31 -57c6 -11 9 -26 9 -46c0 -27 -10 -51 -31 -71c-21 -21 -45 -31 -74 -31c-56 0 -103 47 -102 120l69 -4c0 -9 2 -17 5 -25c7 -17 24 -25 43 -20c19 7 24 23 17 46l-33 89c-61 8 -112 34 -153 78c-41 45 -61 99 -61 164c0 71 25 129 74 174s109 68 178 68
c79 0 150 -34 194 -91l-97 -73c-23 31 -55 46 -97 46c-35 0 -66 -12 -92 -35s-39 -52 -39 -89s13 -67 39 -92c26 -24 57 -36 92 -36c42 0 74 16 97 47l98 -72c-40 -53 -96 -83 -167 -90z" />
    <glyph glyph-name="egrave" unicode="&#xe8;" horiz-adv-x="553" 
d="M519 235c0 -13 -1 -27 -2 -42h-356c8 -61 60 -100 129 -100c49 0 96 21 117 60l93 -50c-40 -76 -125 -113 -218 -113c-68 0 -125 23 -172 68c-47 46 -70 105 -70 177s23 130 70 175s104 67 172 67s124 -22 169 -67s68 -103 68 -175zM160 276h240c-9 63 -56 99 -117 99
c-65 0 -114 -38 -123 -99zM250 544l-138 163h128l105 -163h-95z" />
    <glyph glyph-name="eacute" unicode="&#xe9;" horiz-adv-x="553" 
d="M519 235c0 -13 -1 -27 -2 -42h-356c8 -61 60 -100 129 -100c49 0 96 21 117 60l93 -50c-40 -76 -125 -113 -218 -113c-68 0 -125 23 -172 68c-47 46 -70 105 -70 177s23 130 70 175s104 67 172 67s124 -22 169 -67s68 -103 68 -175zM160 276h240c-9 63 -56 99 -117 99
c-65 0 -114 -38 -123 -99zM227 544l105 163h128l-138 -163h-95z" />
    <glyph glyph-name="ecircumflex" unicode="&#xea;" horiz-adv-x="553" 
d="M519 235c0 -13 -1 -27 -2 -42h-356c8 -61 60 -100 129 -100c49 0 96 21 117 60l93 -50c-40 -76 -125 -113 -218 -113c-68 0 -125 23 -172 68c-47 46 -70 105 -70 177s23 130 70 175s104 67 172 67s124 -22 169 -67s68 -103 68 -175zM160 276h240c-9 63 -56 99 -117 99
c-65 0 -114 -38 -123 -99zM108 547l109 163h123l110 -163h-94l-78 88l-76 -88h-94z" />
    <glyph glyph-name="edieresis" unicode="&#xeb;" horiz-adv-x="553" 
d="M519 235c0 -13 -1 -27 -2 -42h-356c8 -61 60 -100 129 -100c49 0 96 21 117 60l93 -50c-40 -76 -125 -113 -218 -113c-68 0 -125 23 -172 68c-47 46 -70 105 -70 177s23 130 70 175s104 67 172 67s124 -22 169 -67s68 -103 68 -175zM160 276h240c-9 63 -56 99 -117 99
c-65 0 -114 -38 -123 -99zM193 697c37 0 68 -29 68 -65s-31 -65 -68 -65c-39 0 -69 28 -69 65s30 65 69 65zM318 585c-27 25 -27 69 0 93c27 25 72 25 97 0c27 -24 27 -68 0 -93c-25 -24 -70 -24 -97 0z" />
    <glyph glyph-name="igrave" unicode="&#xec;" horiz-adv-x="259" 
d="M92 544l-138 163h128l105 -163h-95zM69 0v467h121v-467h-121z" />
    <glyph glyph-name="iacute" unicode="&#xed;" horiz-adv-x="259" 
d="M190 467v-467h-121v467h121zM68 544l105 163h128l-138 -163h-95z" />
    <glyph glyph-name="icircumflex" unicode="&#xee;" horiz-adv-x="259" 
d="M-41 547l109 163h123l110 -163h-94l-78 88l-76 -88h-94zM69 0v467h121v-467h-121z" />
    <glyph glyph-name="idieresis" unicode="&#xef;" horiz-adv-x="259" 
d="M190 467v-467h-121v467h121zM43 697c37 0 68 -29 68 -65s-31 -65 -68 -65c-39 0 -69 28 -69 65s30 65 69 65zM168 585c-27 25 -27 69 0 93c27 25 72 25 97 0c27 -24 27 -68 0 -93c-25 -24 -70 -24 -97 0z" />
    <glyph glyph-name="eth" unicode="&#xf0;" 
d="M402 629l-79 -41l157 -209c31 -42 46 -90 46 -145c0 -72 -24 -131 -71 -176s-104 -68 -172 -68s-126 23 -173 68s-70 104 -70 176c0 65 20 120 61 163s91 67 151 72c13 1 28 0 44 -3l-63 76l-85 -43l-30 48l80 41l-75 101h123l42 -56l79 39zM407 234
c0 73 -55 122 -124 122s-123 -49 -123 -122c0 -75 54 -125 123 -125s124 50 124 125z" />
    <glyph glyph-name="ntilde" unicode="&#xf1;" 
d="M191 249v-249h-122v467h122v-69c25 48 83 79 139 79c111 0 174 -70 174 -201v-276h-122v254c0 67 -34 104 -89 104c-60 0 -102 -33 -102 -109zM239 607c-11 0 -25 -15 -26 -43h-70c4 87 48 125 96 125c16 0 33 -7 51 -21c18 -13 30 -20 37 -20c11 0 26 13 27 41h70
c-4 -85 -50 -123 -97 -123c-15 0 -32 7 -51 20c-19 14 -31 21 -37 21z" />
    <glyph glyph-name="ograve" unicode="&#xf2;" horiz-adv-x="566" 
d="M405 235c0 72 -53 122 -122 122s-122 -50 -122 -122c0 -75 53 -125 122 -125s122 50 122 125zM455 59c-47 -45 -104 -68 -172 -68s-126 23 -173 68s-70 104 -70 176s23 130 70 175s105 67 173 67s125 -22 172 -67s71 -103 71 -175s-24 -131 -71 -176zM253 544l-138 163
h128l105 -163h-95z" />
    <glyph glyph-name="oacute" unicode="&#xf3;" horiz-adv-x="566" 
d="M161 235c0 -75 53 -125 122 -125s122 50 122 125c0 72 -53 122 -122 122s-122 -50 -122 -122zM110 59c-47 45 -70 104 -70 176s23 130 70 175s105 67 173 67s125 -22 172 -67s71 -103 71 -175s-24 -131 -71 -176s-104 -68 -172 -68s-126 23 -173 68zM219 544l105 163h128
l-138 -163h-95z" />
    <glyph glyph-name="ocircumflex" unicode="&#xf4;" horiz-adv-x="566" 
d="M405 235c0 72 -53 122 -122 122s-122 -50 -122 -122c0 -75 53 -125 122 -125s122 50 122 125zM455 59c-47 -45 -104 -68 -172 -68s-126 23 -173 68s-70 104 -70 176s23 130 70 175s105 67 173 67s125 -22 172 -67s71 -103 71 -175s-24 -131 -71 -176zM112 547l109 163
h123l110 -163h-94l-78 88l-76 -88h-94z" />
    <glyph glyph-name="otilde" unicode="&#xf5;" horiz-adv-x="566" 
d="M405 235c0 72 -53 122 -122 122s-122 -50 -122 -122c0 -75 53 -125 122 -125s122 50 122 125zM455 59c-47 -45 -104 -68 -172 -68s-126 23 -173 68s-70 104 -70 176s23 130 70 175s105 67 173 67s125 -22 172 -67s71 -103 71 -175s-24 -131 -71 -176zM238 607
c-11 0 -25 -15 -26 -43h-70c4 87 48 125 96 125c16 0 33 -7 51 -21c18 -13 30 -20 37 -20c11 0 26 13 27 41h70c-4 -85 -50 -123 -97 -123c-15 0 -32 7 -51 20c-19 14 -31 21 -37 21z" />
    <glyph glyph-name="odieresis" unicode="&#xf6;" horiz-adv-x="566" 
d="M161 235c0 -75 53 -125 122 -125s122 50 122 125c0 72 -53 122 -122 122s-122 -50 -122 -122zM110 59c-47 45 -70 104 -70 176s23 130 70 175s105 67 173 67s125 -22 172 -67s71 -103 71 -175s-24 -131 -71 -176s-104 -68 -172 -68s-126 23 -173 68zM196 697
c37 0 68 -29 68 -65s-31 -65 -68 -65c-39 0 -69 28 -69 65s30 65 69 65zM321 585c-27 25 -27 69 0 93c27 25 72 25 97 0c27 -24 27 -68 0 -93c-25 -24 -70 -24 -97 0z" />
    <glyph glyph-name="divide" unicode="&#xf7;" 
d="M232 15c-29 28 -29 74 0 101c29 28 75 28 104 0c29 -27 29 -73 0 -101c-29 -27 -75 -27 -104 0zM210 432c0 40 33 70 74 70s74 -30 74 -70c0 -41 -33 -71 -74 -71s-74 30 -74 71zM56 202v91h455v-91h-455z" />
    <glyph glyph-name="oslash" unicode="&#xf8;" horiz-adv-x="566" 
d="M283 -10c-54 0 -101 14 -142 43l-58 -59l-47 47l56 58c-35 42 -52 94 -52 155c0 72 23 130 70 175s105 68 173 68c56 0 106 -16 150 -49l51 53l47 -46l-52 -53c31 -42 47 -91 47 -148c0 -72 -24 -131 -71 -176s-104 -68 -172 -68zM283 357c-68 0 -122 -51 -122 -123
c0 -27 6 -49 17 -67l168 173c-19 11 -40 17 -63 17zM283 109c69 0 122 50 122 125c0 21 -4 41 -13 58l-165 -170c17 -9 35 -13 56 -13z" />
    <glyph glyph-name="ugrave" unicode="&#xf9;" 
d="M272 544l-137 163h127l106 -163h-96zM376 218v249h122v-467h-122v66c-25 -48 -80 -76 -129 -76c-113 0 -184 72 -184 201v276h123v-254c0 -71 40 -104 89 -104c57 0 101 34 101 109z" />
    <glyph glyph-name="uacute" unicode="&#xfa;" 
d="M206 544l106 163h128l-138 -163h-96zM376 218v249h122v-467h-122v66c-25 -48 -80 -76 -129 -76c-113 0 -184 72 -184 201v276h123v-254c0 -71 40 -104 89 -104c57 0 101 34 101 109z" />
    <glyph glyph-name="ucircumflex" unicode="&#xfb;" 
d="M376 218v249h122v-467h-122v66c-25 -48 -80 -76 -129 -76c-113 0 -184 72 -184 201v276h123v-254c0 -71 40 -104 89 -104c57 0 101 34 101 109zM107 547l109 163h123l110 -163h-94l-78 88l-76 -88h-94z" />
    <glyph glyph-name="udieresis" unicode="&#xfc;" 
d="M194 700c37 0 67 -28 67 -65s-30 -65 -67 -65c-39 0 -69 28 -69 65s30 65 69 65zM368 700c37 0 68 -29 68 -65s-31 -65 -68 -65c-39 0 -69 28 -69 65s30 65 69 65zM376 218v249h122v-467h-122v66c-25 -48 -80 -76 -129 -76c-113 0 -184 72 -184 201v276h123v-254
c0 -71 40 -104 89 -104c57 0 101 34 101 109z" />
    <glyph glyph-name="yacute" unicode="&#xfd;" horiz-adv-x="511" 
d="M213 -228h-129l107 264l-182 431h130l116 -291l117 291h130zM168 544l105 163h128l-138 -163h-95z" />
    <glyph glyph-name="thorn" unicode="&#xfe;" horiz-adv-x="603" 
d="M192 235c0 -77 55 -128 124 -128c68 0 122 52 122 128c0 73 -54 125 -122 125c-33 0 -62 -11 -87 -34s-37 -53 -37 -91zM190 58v-285h-121v948h121v-311c27 41 83 67 143 67c64 0 118 -23 163 -68s67 -103 67 -176c0 -72 -22 -131 -67 -176s-99 -67 -163 -67
c-59 0 -116 25 -143 68z" />
    <glyph glyph-name="ydieresis" unicode="&#xff;" horiz-adv-x="511" 
d="M213 -228h-129l107 264l-182 431h130l116 -291l117 291h130zM172 697c37 0 68 -29 68 -65s-31 -65 -68 -65c-39 0 -69 28 -69 65s30 65 69 65zM297 585c-27 25 -27 69 0 93c27 25 72 25 97 0c27 -24 27 -68 0 -93c-25 -24 -70 -24 -97 0z" />
    <glyph glyph-name="Amacron" unicode="&#x100;" horiz-adv-x="654" 
d="M654 0h-135l-63 167h-257l-63 -167h-136l258 689h138zM414 279l-87 263l-85 -263h172zM461 807h-269v83h269v-83z" />
    <glyph glyph-name="amacron" unicode="&#x101;" horiz-adv-x="614" 
d="M545 0h-122v60c-28 -44 -93 -69 -145 -69c-64 0 -120 22 -167 67s-71 104 -71 176s23 130 70 175s103 68 168 68c52 0 114 -21 145 -68v58h122v-467zM423 234c0 39 -13 69 -39 92c-25 23 -55 34 -89 34c-35 0 -65 -12 -91 -36c-25 -23 -38 -53 -38 -90s13 -67 38 -91
c74 -74 224 -25 219 91zM442 585h-269v83h269v-83z" />
    <glyph glyph-name="Abreve" unicode="&#x102;" horiz-adv-x="654" 
d="M456 167h-257l-63 -167h-136l258 689h138l258 -689h-135zM242 279h172l-87 263zM193 909h82c0 -37 17 -55 51 -55c33 0 51 24 51 55h83c0 -79 -54 -130 -134 -130c-87 0 -133 58 -133 130z" />
    <glyph glyph-name="abreve" unicode="&#x103;" horiz-adv-x="614" 
d="M545 0h-122v60c-28 -44 -93 -69 -145 -69c-64 0 -120 22 -167 67s-71 104 -71 176s23 130 70 175s103 68 168 68c52 0 114 -21 145 -68v58h122v-467zM423 234c0 39 -13 69 -39 92c-25 23 -55 34 -89 34c-35 0 -65 -12 -91 -36c-25 -23 -38 -53 -38 -90s13 -67 38 -91
c74 -74 224 -25 219 91zM174 687h82c0 -37 17 -55 51 -55c33 0 51 24 51 55h83c0 -79 -54 -130 -134 -130c-87 0 -133 58 -133 130z" />
    <glyph glyph-name="Aogonek" unicode="&#x104;" horiz-adv-x="654" 
d="M483 -65l35 65l-62 167h-257l-63 -167h-136l258 689h138l258 -689h-72l-35 -96c-7 -23 -2 -39 17 -46c19 -5 36 3 43 20l5 25l69 4c1 -73 -46 -120 -102 -120c-29 0 -53 10 -74 31c-21 20 -31 44 -31 71c0 20 3 35 9 46zM414 279l-87 263l-85 -263h172z" />
    <glyph glyph-name="aogonek" unicode="&#x105;" horiz-adv-x="614" 
d="M388 -65l35 65v60c-28 -44 -93 -69 -145 -69c-64 0 -120 22 -167 67s-71 104 -71 176s23 130 70 175s103 68 168 68c52 0 114 -21 145 -68v58h122v-467h-58l-35 -96c-7 -23 -2 -39 17 -46c19 -5 36 3 43 20l5 25l69 4c1 -73 -46 -120 -102 -120c-59 0 -105 47 -105 102
c0 20 3 35 9 46zM423 234c0 39 -13 69 -39 92c-25 23 -55 34 -89 34c-35 0 -65 -12 -91 -36c-25 -23 -38 -53 -38 -90s13 -67 38 -91c74 -74 224 -25 219 91z" />
    <glyph glyph-name="Cacute" unicode="&#x106;" horiz-adv-x="693" 
d="M570 204l101 -74c-61 -87 -163 -140 -280 -140c-97 0 -180 34 -247 103s-100 153 -100 250c0 99 33 182 100 251s150 103 247 103c115 0 216 -52 277 -136l-102 -73c-45 59 -104 88 -175 88c-62 0 -114 -23 -156 -68s-63 -100 -63 -165s21 -120 63 -165s94 -67 156 -67
c72 0 138 36 179 93zM333 766l105 163h128l-138 -163h-95z" />
    <glyph glyph-name="cacute" unicode="&#x107;" horiz-adv-x="520" 
d="M291 477c79 0 150 -34 194 -91l-97 -73c-23 31 -55 46 -97 46c-35 0 -66 -12 -92 -35s-39 -52 -39 -89s13 -67 39 -92c26 -24 57 -36 92 -36c42 0 74 16 97 47l98 -72c-44 -59 -116 -92 -195 -92c-69 0 -129 23 -178 69s-74 105 -74 176s25 129 74 174s109 68 178 68z
M239 544l105 163h128l-138 -163h-95z" />
    <glyph glyph-name="Ccircumflex" unicode="&#x108;" horiz-adv-x="693" 
d="M570 204l101 -74c-61 -87 -163 -140 -280 -140c-97 0 -180 34 -247 103s-100 153 -100 250c0 99 33 182 100 251s150 103 247 103c115 0 216 -52 277 -136l-102 -73c-45 59 -104 88 -175 88c-62 0 -114 -23 -156 -68s-63 -100 -63 -165s21 -120 63 -165s94 -67 156 -67
c72 0 138 36 179 93zM219 769l109 163h123l110 -163h-94l-78 88l-76 -88h-94z" />
    <glyph glyph-name="ccircumflex" unicode="&#x109;" horiz-adv-x="520" 
d="M291 477c79 0 150 -34 194 -91l-97 -73c-23 31 -55 46 -97 46c-35 0 -66 -12 -92 -35s-39 -52 -39 -89s13 -67 39 -92c26 -24 57 -36 92 -36c42 0 74 16 97 47l98 -72c-44 -59 -116 -92 -195 -92c-69 0 -129 23 -178 69s-74 105 -74 176s25 129 74 174s109 68 178 68z
M114 547l109 163h123l110 -163h-94l-78 88l-76 -88h-94z" />
    <glyph glyph-name="Cdotaccent" unicode="&#x10a;" horiz-adv-x="693" 
d="M570 204l101 -74c-61 -87 -163 -140 -280 -140c-97 0 -180 34 -247 103s-100 153 -100 250c0 99 33 182 100 251s150 103 247 103c115 0 216 -52 277 -136l-102 -73c-45 59 -104 88 -175 88c-62 0 -114 -23 -156 -68s-63 -100 -63 -165s21 -120 63 -165s94 -67 156 -67
c72 0 138 36 179 93zM314 850c0 39 32 69 72 69c41 0 73 -30 73 -69c0 -40 -32 -70 -73 -70c-40 0 -72 30 -72 70z" />
    <glyph glyph-name="cdotaccent" unicode="&#x10b;" horiz-adv-x="520" 
d="M291 477c79 0 150 -34 194 -91l-97 -73c-23 31 -55 46 -97 46c-35 0 -66 -12 -92 -35s-39 -52 -39 -89s13 -67 39 -92c26 -24 57 -36 92 -36c42 0 74 16 97 47l98 -72c-44 -59 -116 -92 -195 -92c-69 0 -129 23 -178 69s-74 105 -74 176s25 129 74 174s109 68 178 68z
M219 628c0 39 32 69 72 69c41 0 73 -30 73 -69c0 -40 -32 -70 -73 -70c-40 0 -72 30 -72 70z" />
    <glyph glyph-name="Ccaron" unicode="&#x10c;" horiz-adv-x="693" 
d="M570 204l101 -74c-61 -87 -163 -140 -280 -140c-97 0 -180 34 -247 103s-100 153 -100 250c0 99 33 182 100 251s150 103 247 103c115 0 216 -52 277 -136l-102 -73c-45 59 -104 88 -175 88c-62 0 -114 -23 -156 -68s-63 -100 -63 -165s21 -120 63 -165s94 -67 156 -67
c72 0 138 36 179 93zM445 766h-123l-109 163h94l76 -89l78 89h94z" />
    <glyph glyph-name="ccaron" unicode="&#x10d;" horiz-adv-x="520" 
d="M291 477c79 0 150 -34 194 -91l-97 -73c-23 31 -55 46 -97 46c-35 0 -66 -12 -92 -35s-39 -52 -39 -89s13 -67 39 -92c26 -24 57 -36 92 -36c42 0 74 16 97 47l98 -72c-44 -59 -116 -92 -195 -92c-69 0 -129 23 -178 69s-74 105 -74 176s25 129 74 174s109 68 178 68z
M342 544h-123l-109 163h94l76 -89l78 89h94z" />
    <glyph glyph-name="Dcaron" unicode="&#x10e;" horiz-adv-x="714" 
d="M214 117h141c59 0 104 21 135 64c32 43 48 97 48 162c0 66 -16 121 -48 164c-31 43 -76 65 -135 65h-141v-455zM355 0h-269v689h269c96 0 172 -33 227 -98c56 -65 84 -147 84 -248c0 -100 -28 -182 -84 -247c-55 -64 -131 -96 -227 -96zM416 766h-123l-109 163h94l76 -89
l78 89h94z" />
    <glyph glyph-name="dcaron" unicode="&#x10f;" horiz-adv-x="651" 
d="M537 0h-121v63c-25 -45 -84 -73 -147 -73s-117 22 -162 67s-67 104 -67 176c0 73 22 131 67 176s99 68 162 68c64 0 122 -27 147 -72v316h121v-721zM289 361c-69 0 -123 -51 -123 -126c0 -38 12 -69 35 -93c24 -23 53 -35 88 -35s64 12 88 35c25 24 37 55 37 93
s-13 68 -38 91s-54 35 -87 35zM646 452l-75 25c46 64 68 135 65 212h107c-5 -112 -48 -197 -97 -237z" />
    <glyph glyph-name="Dcroat" unicode="&#x110;" horiz-adv-x="722" 
d="M97 293h-94v88h94v308h267c97 0 172 -32 227 -97s83 -148 83 -249s-28 -183 -83 -247s-130 -96 -227 -96h-267v293zM362 293h-138v-174h140c59 0 104 21 135 63c32 42 48 96 48 161s-16 119 -48 162c-31 43 -76 65 -135 65h-140v-189h138v-88z" />
    <glyph glyph-name="dslash" unicode="&#x111;" horiz-adv-x="606" 
d="M416 558h-149v77h149v86h121v-86h76v-77h-76v-558h-121v63c-25 -45 -84 -73 -147 -73s-117 22 -162 67s-67 104 -67 176c0 73 22 131 67 176s99 68 162 68c64 0 122 -27 147 -72v153zM289 361c-69 0 -123 -51 -123 -126c0 -38 12 -69 35 -93c24 -23 53 -35 88 -35
s64 12 88 35c25 24 37 55 37 93s-13 68 -38 91s-54 35 -87 35z" />
    <glyph glyph-name="Emacron" unicode="&#x112;" horiz-adv-x="572" 
d="M522 0h-436v689h426v-114h-299v-179h262v-113h-262v-169h309v-114zM434 807h-269v83h269v-83z" />
    <glyph glyph-name="emacron" unicode="&#x113;" horiz-adv-x="553" 
d="M519 235c0 -13 -1 -27 -2 -42h-356c8 -61 60 -100 129 -100c49 0 96 21 117 60l93 -50c-40 -76 -125 -113 -218 -113c-68 0 -125 23 -172 68c-47 46 -70 105 -70 177s23 130 70 175s104 67 172 67s124 -22 169 -67s68 -103 68 -175zM160 276h240c-9 63 -56 99 -117 99
c-65 0 -114 -38 -123 -99zM414 585h-269v83h269v-83z" />
    <glyph glyph-name="Ebreve" unicode="&#x114;" horiz-adv-x="572" 
d="M86 689h426v-114h-299v-179h262v-113h-262v-169h309v-114h-436v689zM150 909h82c0 -37 17 -55 51 -55c33 0 51 24 51 55h83c0 -79 -54 -130 -134 -130c-87 0 -133 58 -133 130z" />
    <glyph glyph-name="ebreve" unicode="&#x115;" horiz-adv-x="553" 
d="M519 235c0 -13 -1 -27 -2 -42h-356c8 -61 60 -100 129 -100c49 0 96 21 117 60l93 -50c-40 -76 -125 -113 -218 -113c-68 0 -125 23 -172 68c-47 46 -70 105 -70 177s23 130 70 175s104 67 172 67s124 -22 169 -67s68 -103 68 -175zM160 276h240c-9 63 -56 99 -117 99
c-65 0 -114 -38 -123 -99zM146 687h82c0 -37 17 -55 51 -55c33 0 51 24 51 55h83c0 -79 -54 -130 -134 -130c-87 0 -133 58 -133 130z" />
    <glyph glyph-name="Edotaccent" unicode="&#x116;" horiz-adv-x="572" 
d="M86 689h426v-114h-299v-179h262v-113h-262v-169h309v-114h-436v689zM229 850c0 39 32 69 72 69c41 0 73 -30 73 -69c0 -40 -32 -70 -73 -70c-40 0 -72 30 -72 70z" />
    <glyph glyph-name="edotaccent" unicode="&#x117;" horiz-adv-x="553" 
d="M519 235c0 -13 -1 -27 -2 -42h-356c8 -61 60 -100 129 -100c49 0 96 21 117 60l93 -50c-40 -76 -125 -113 -218 -113c-68 0 -125 23 -172 68c-47 46 -70 105 -70 177s23 130 70 175s104 67 172 67s124 -22 169 -67s68 -103 68 -175zM160 276h240c-9 63 -56 99 -117 99
c-65 0 -114 -38 -123 -99zM207 628c0 39 32 69 72 69c41 0 73 -30 73 -69c0 -40 -32 -70 -73 -70c-40 0 -72 30 -72 70z" />
    <glyph glyph-name="Eogonek" unicode="&#x118;" horiz-adv-x="572" 
d="M522 114v-114l-37 -96c-7 -23 -2 -39 17 -46c19 -5 36 3 43 20l5 25l69 4c1 -73 -46 -120 -102 -120c-29 0 -53 10 -74 31c-21 20 -31 44 -31 71c0 20 3 35 9 46l35 65h-370v689h426v-114h-299v-179h262v-113h-262v-169h309z" />
    <glyph glyph-name="eogonek" unicode="&#x119;" horiz-adv-x="554" 
d="M384 -96c-7 -23 -2 -39 17 -46c19 -5 36 3 43 20l5 25l69 4c1 -73 -46 -120 -102 -120c-59 0 -105 47 -105 102c0 20 3 35 9 46l34 64c-23 -6 -47 -9 -72 -9c-68 0 -125 23 -172 68c-47 46 -70 105 -70 177s23 130 70 175s104 67 172 67s124 -22 169 -67s68 -103 68 -175
c0 -13 -1 -27 -2 -42h-356c8 -61 60 -100 129 -100c49 0 96 21 117 60l93 -50c-13 -20 -39 -50 -56 -70c-16 -20 -41 -68 -60 -129zM160 276h240c-9 63 -56 99 -117 99c-65 0 -114 -38 -123 -99z" />
    <glyph glyph-name="Ecaron" unicode="&#x11a;" horiz-adv-x="572" 
d="M86 689h426v-114h-299v-179h262v-113h-262v-169h309v-114h-436v689zM358 766h-123l-109 163h94l76 -89l78 89h94z" />
    <glyph glyph-name="ecaron" unicode="&#x11b;" horiz-adv-x="553" 
d="M519 235c0 -13 -1 -27 -2 -42h-356c8 -61 60 -100 129 -100c49 0 96 21 117 60l93 -50c-40 -76 -125 -113 -218 -113c-68 0 -125 23 -172 68c-47 46 -70 105 -70 177s23 130 70 175s104 67 172 67s124 -22 169 -67s68 -103 68 -175zM160 276h240c-9 63 -56 99 -117 99
c-65 0 -114 -38 -123 -99zM341 544h-123l-109 163h94l76 -89l78 89h94z" />
    <glyph glyph-name="Gcircumflex" unicode="&#x11c;" horiz-adv-x="756" 
d="M645 592l-94 -82c-43 45 -95 67 -156 67c-63 0 -116 -23 -159 -69c-43 -45 -64 -100 -64 -165s21 -120 64 -166s96 -69 159 -69c49 0 91 13 128 40s57 61 58 103h-189v105h336c0 -244 -128 -366 -333 -366c-98 0 -181 34 -249 103s-102 153 -102 250c0 98 34 181 102 250
s151 104 249 104c101 0 185 -35 250 -105zM210 769l109 163h123l110 -163h-94l-78 88l-76 -88h-94z" />
    <glyph glyph-name="gcircumflex" unicode="&#x11d;" horiz-adv-x="611" 
d="M420 234c0 77 -56 126 -127 126c-69 0 -126 -53 -126 -126c0 -76 55 -128 126 -128c33 0 63 12 88 35c26 24 39 55 39 93zM58 -95l99 50c20 -45 73 -77 124 -77c109 0 150 77 142 186c-23 -45 -85 -74 -149 -74c-63 0 -118 22 -165 67c-46 45 -69 104 -69 175
c0 73 23 132 69 177c47 45 102 68 165 68s124 -28 149 -73v63h119v-400c0 -203 -94 -300 -261 -300c-97 0 -182 53 -223 138zM135 547l109 163h123l110 -163h-94l-78 88l-76 -88h-94z" />
    <glyph glyph-name="Gbreve" unicode="&#x11e;" horiz-adv-x="756" 
d="M645 592l-94 -82c-43 45 -95 67 -156 67c-63 0 -116 -23 -159 -69c-43 -45 -64 -100 -64 -165s21 -120 64 -166s96 -69 159 -69c49 0 91 13 128 40s57 61 58 103h-189v105h336c0 -244 -128 -366 -333 -366c-98 0 -181 34 -249 103s-102 153 -102 250c0 98 34 181 102 250
s151 104 249 104c101 0 185 -35 250 -105zM247 909h82c0 -37 17 -55 51 -55c33 0 51 24 51 55h83c0 -79 -54 -130 -134 -130c-87 0 -133 58 -133 130z" />
    <glyph glyph-name="gbreve" unicode="&#x11f;" horiz-adv-x="611" 
d="M420 234c0 77 -56 126 -127 126c-69 0 -126 -53 -126 -126c0 -76 55 -128 126 -128c33 0 63 12 88 35c26 24 39 55 39 93zM157 -45c20 -45 73 -77 124 -77c109 0 150 77 142 186c-23 -45 -85 -74 -149 -74c-63 0 -118 22 -165 67c-46 45 -69 104 -69 175
c0 73 23 132 69 177c47 45 102 68 165 68s124 -28 149 -73v63h119v-400c0 -203 -94 -300 -261 -300c-97 0 -182 53 -223 138zM172 687h82c0 -37 17 -55 51 -55c33 0 51 24 51 55h83c0 -79 -54 -130 -134 -130c-87 0 -133 58 -133 130z" />
    <glyph glyph-name="Gdotaccent" unicode="&#x120;" horiz-adv-x="756" 
d="M645 592l-94 -82c-43 45 -95 67 -156 67c-63 0 -116 -23 -159 -69c-43 -45 -64 -100 -64 -165s21 -120 64 -166s96 -69 159 -69c49 0 91 13 128 40s57 61 58 103h-189v105h336c0 -244 -128 -366 -333 -366c-98 0 -181 34 -249 103s-102 153 -102 250c0 98 34 181 102 250
s151 104 249 104c101 0 185 -35 250 -105zM308 850c0 39 32 69 72 69c41 0 73 -30 73 -69c0 -40 -32 -70 -73 -70c-40 0 -72 30 -72 70z" />
    <glyph glyph-name="gdotaccent" unicode="&#x121;" horiz-adv-x="611" 
d="M420 234c0 77 -56 126 -127 126c-69 0 -126 -53 -126 -126c0 -76 55 -128 126 -128c33 0 63 12 88 35c26 24 39 55 39 93zM157 -45c20 -45 73 -77 124 -77c109 0 150 77 142 186c-23 -45 -85 -74 -149 -74c-63 0 -118 22 -165 67c-46 45 -69 104 -69 175
c0 73 23 132 69 177c47 45 102 68 165 68s124 -28 149 -73v63h119v-400c0 -203 -94 -300 -261 -300c-97 0 -182 53 -223 138zM233 628c0 39 32 69 72 69c41 0 73 -30 73 -69c0 -40 -32 -70 -73 -70c-40 0 -72 30 -72 70z" />
    <glyph glyph-name="Gcommaaccent" unicode="&#x122;" horiz-adv-x="756" 
d="M645 592l-94 -82c-43 45 -95 67 -156 67c-63 0 -116 -23 -159 -69c-43 -45 -64 -100 -64 -165s21 -120 64 -166s96 -69 159 -69c49 0 91 13 128 40s57 61 58 103h-189v105h336c0 -244 -128 -366 -333 -366c-98 0 -181 34 -249 103s-102 153 -102 250c0 98 34 181 102 250
s151 104 249 104c101 0 185 -35 250 -105zM364 -274l-64 29c21 30 36 58 44 85s11 61 10 104h107c-5 -97 -37 -170 -97 -218z" />
    <glyph glyph-name="gcommaaccent" unicode="&#x123;" horiz-adv-x="611" 
d="M318 772l64 -29c-21 -30 -36 -58 -44 -85s-11 -61 -9 -103h-108c5 96 37 168 97 217zM420 234c0 77 -56 126 -127 126c-69 0 -126 -53 -126 -126c0 -76 55 -128 126 -128c33 0 63 12 88 35c26 24 39 55 39 93zM157 -45c20 -45 73 -77 124 -77c109 0 150 77 142 186
c-23 -45 -85 -74 -149 -74c-63 0 -118 22 -165 67c-46 45 -69 104 -69 175c0 73 23 132 69 177c47 45 102 68 165 68s124 -28 149 -73v63h119v-400c0 -203 -94 -300 -261 -300c-97 0 -182 53 -223 138z" />
    <glyph glyph-name="Hcircumflex" unicode="&#x124;" horiz-adv-x="704" 
d="M489 400v289h129v-689h-129v285h-276v-285h-127v689h127v-289h276zM181 769l109 163h123l110 -163h-94l-78 88l-76 -88h-94z" />
    <glyph glyph-name="hcircumflex" unicode="&#x125;" horiz-adv-x="587" 
d="M191 249v-249h-122v721h122v-326c10 26 30 46 59 60c30 15 59 22 86 22c120 0 188 -80 188 -217v-260h-122v254c0 64 -46 104 -99 104c-60 0 -112 -34 -112 -109zM-39 764l109 163h123l110 -163h-94l-78 88l-76 -88h-94z" />
    <glyph glyph-name="Hbar" unicode="&#x126;" horiz-adv-x="716" 
d="M92 0v508h-71v75h71v106h128v-106h275v106h129v-106h71v-75h-71v-508h-129v284h-275v-284h-128zM220 508v-108h275v108h-275z" />
    <glyph glyph-name="hbar" unicode="&#x127;" horiz-adv-x="581" 
d="M191 249v-249h-122v558h-74v77h74v86h122v-86h142v-77h-142v-163c10 26 29 46 56 60c28 15 56 22 83 22c120 0 188 -80 188 -217v-260h-123v254c0 64 -42 104 -94 104c-59 0 -110 -34 -110 -109z" />
    <glyph glyph-name="Itilde" unicode="&#x128;" horiz-adv-x="299" 
d="M105 829c-11 0 -25 -15 -26 -43h-70c4 87 48 125 96 125c16 0 33 -7 51 -21c18 -13 30 -20 37 -20c11 0 26 13 27 41h70c-4 -85 -50 -123 -97 -123c-15 0 -32 7 -51 20c-19 14 -31 21 -37 21zM213 0h-127v689h127v-689z" />
    <glyph glyph-name="itilde" unicode="&#x129;" horiz-adv-x="259" 
d="M85 607c-11 0 -25 -15 -26 -43h-70c4 87 48 125 96 125c16 0 33 -7 51 -21c18 -13 30 -20 37 -20c11 0 26 13 27 41h70c-4 -85 -50 -123 -97 -123c-15 0 -32 7 -51 20c-19 14 -31 21 -37 21zM69 0v467h121v-467h-121z" />
    <glyph glyph-name="Imacron" unicode="&#x12a;" horiz-adv-x="299" 
d="M284 807h-269v83h269v-83zM213 0h-127v689h127v-689z" />
    <glyph glyph-name="imacron" unicode="&#x12b;" horiz-adv-x="259" 
d="M265 585h-269v83h269v-83zM69 0v467h121v-467h-121z" />
    <glyph glyph-name="Ibreve" unicode="&#x12c;" horiz-adv-x="299" 
d="M86 689h127v-689h-127v689zM16 909h82c0 -37 17 -55 51 -55c33 0 51 24 51 55h83c0 -79 -54 -130 -134 -130c-87 0 -133 58 -133 130z" />
    <glyph glyph-name="ibreve" unicode="&#x12d;" horiz-adv-x="259" 
d="M190 467v-467h-121v467h121zM-4 687h82c0 -37 17 -55 51 -55c33 0 51 24 51 55h83c0 -79 -54 -130 -134 -130c-87 0 -133 58 -133 130z" />
    <glyph glyph-name="Iogonek" unicode="&#x12e;" horiz-adv-x="299" 
d="M213 0h-63l-35 -96c-7 -23 -2 -39 17 -46c19 -5 36 3 43 20l5 25l69 4c1 -73 -46 -120 -102 -120c-29 0 -53 10 -74 31c-21 20 -31 44 -31 71c0 20 3 35 9 46l35 65v689h127v-689z" />
    <glyph glyph-name="iogonek" unicode="&#x12f;" horiz-adv-x="259" 
d="M159 -122l5 25l69 4c1 -73 -46 -120 -102 -120c-29 0 -53 10 -74 31c-21 20 -31 44 -31 71c0 20 3 35 9 46l34 65v467h121v-467h-56l-35 -96c-7 -23 -2 -39 17 -46c19 -5 36 3 43 20zM130 574c-44 0 -79 33 -79 74s36 73 79 73s77 -32 77 -73s-34 -74 -77 -74z" />
    <glyph glyph-name="Idot" unicode="&#x130;" horiz-adv-x="299" 
d="M86 689h127v-689h-127v689zM77 850c0 39 32 69 72 69c41 0 73 -30 73 -69c0 -40 -32 -70 -73 -70c-40 0 -72 30 -72 70z" />
    <glyph glyph-name="dotlessi" unicode="&#x131;" horiz-adv-x="259" 
d="M69 0v467h121v-467h-121z" />
    <glyph glyph-name="IJ" unicode="&#x132;" horiz-adv-x="599" 
d="M200 -218l12 116c20 -7 47 -10 80 -10c63 0 93 45 93 109v692h128v-692c0 -136 -69 -230 -221 -230c-21 0 -52 5 -92 15zM213 0h-127v689h127v-689z" />
    <glyph glyph-name="ij" unicode="&#x133;" horiz-adv-x="520" 
d="M277 -233h-77v112h59c47 0 70 29 69 88v500h123v-498c0 -135 -58 -202 -174 -202zM311 648c0 40 35 73 78 73c44 0 78 -32 78 -73s-34 -74 -78 -74c-43 0 -78 33 -78 74zM69 467h121v-467h-121v467zM130 574c-44 0 -79 33 -79 74s36 73 79 73s77 -32 77 -73
s-34 -74 -77 -74z" />
    <glyph glyph-name="Jcircumflex" unicode="&#x134;" horiz-adv-x="300" 
d="M-99 -218l12 116c20 -7 47 -10 80 -10c63 0 93 45 93 109v692h128v-692c0 -136 -69 -230 -221 -230c-21 0 -52 5 -92 15zM-23 769l109 163h123l110 -163h-94l-78 88l-76 -88h-94z" />
    <glyph glyph-name="jcircumflex" unicode="&#x135;" horiz-adv-x="261" 
d="M18 -233h-77v112h59c47 0 70 29 69 88v500h123v-498c0 -135 -58 -202 -174 -202zM-33 547l109 163h123l110 -163h-94l-78 88l-76 -88h-94z" />
    <glyph glyph-name="Kcommaaccent" unicode="&#x136;" horiz-adv-x="598" 
d="M550 689l-262 -342l324 -347h-167l-230 255v-255h-129v689h129v-251l185 251h150zM287 -274l-64 29c21 30 36 58 44 85s11 61 10 104h107c-5 -97 -37 -170 -97 -218z" />
    <glyph glyph-name="kcommaaccent" unicode="&#x137;" horiz-adv-x="519" 
d="M519 0h-153l-176 200v-200h-121v721h121v-394l129 140h158l-196 -205zM247 -274l-64 29c21 30 36 58 44 85s11 61 10 104h107c-5 -97 -37 -170 -97 -218z" />
    <glyph glyph-name="kgreenlandic" unicode="&#x138;" horiz-adv-x="498" 
d="M494 0h-154l-150 159v-159h-121v467h121v-154l130 154h147l-203 -230z" />
    <glyph glyph-name="Lacute" unicode="&#x139;" horiz-adv-x="506" 
d="M86 689h128v-575h266v-114h-394v689zM91 766l105 163h128l-138 -163h-95z" />
    <glyph glyph-name="lacute" unicode="&#x13a;" horiz-adv-x="260" 
d="M69 721h122v-721h-122v721zM74 766l105 163h128l-138 -163h-95z" />
    <glyph glyph-name="Lcommaaccent" unicode="&#x13b;" horiz-adv-x="506" 
d="M480 0h-394v689h128v-575h266v-114zM236 -274l-64 29c21 30 36 58 44 85s11 61 10 104h107c-5 -97 -37 -170 -97 -218z" />
    <glyph glyph-name="lcommaaccent" unicode="&#x13c;" horiz-adv-x="260" 
d="M86 -274l-64 29c21 30 36 58 44 85s11 61 10 104h107c-5 -97 -37 -170 -97 -218zM191 0h-122v721h122v-721z" />
    <glyph glyph-name="Lcaron" unicode="&#x13d;" horiz-adv-x="508" 
d="M480 0h-394v689h128v-575h266v-114zM356 452l-75 25c46 64 68 135 65 212h107c-5 -112 -48 -197 -97 -237z" />
    <glyph glyph-name="lcaron" unicode="&#x13e;" horiz-adv-x="260" 
d="M300 484l-75 25c46 64 68 135 65 212h107c-5 -112 -48 -197 -97 -237zM69 721h122v-721h-122v721z" />
    <glyph glyph-name="Ldot" unicode="&#x13f;" horiz-adv-x="506" 
d="M343 389c44 0 80 -32 80 -76s-36 -76 -80 -76c-43 0 -78 33 -78 76s35 76 78 76zM480 0h-394v689h128v-575h266v-114z" />
    <glyph glyph-name="ldot" unicode="&#x140;" horiz-adv-x="394" 
d="M326 389c44 0 80 -32 80 -76s-36 -76 -80 -76c-43 0 -78 33 -78 76s35 76 78 76zM191 0h-122v721h122v-721z" />
    <glyph glyph-name="Lslash" unicode="&#x141;" horiz-adv-x="512" 
d="M92 0v304l-69 -44v85l69 44v300h128v-220l97 60v-85l-97 -60v-268h266v-116h-394z" />
    <glyph glyph-name="lslash" unicode="&#x142;" horiz-adv-x="292" 
d="M93 721h122v-264l83 52v-84l-83 -52v-373h-122v296l-80 -50v84l80 50v341z" />
    <glyph glyph-name="Nacute" unicode="&#x143;" horiz-adv-x="682" 
d="M596 0h-117l-266 453v-453h-127v689h119l263 -448v448h128v-689zM273 766l105 163h128l-138 -163h-95z" />
    <glyph glyph-name="nacute" unicode="&#x144;" 
d="M191 249v-249h-122v467h122v-69c25 48 83 79 139 79c111 0 174 -70 174 -201v-276h-122v254c0 67 -34 104 -89 104c-60 0 -102 -33 -102 -109zM214 544l105 163h128l-138 -163h-95z" />
    <glyph glyph-name="Ncommaaccent" unicode="&#x145;" horiz-adv-x="682" 
d="M468 689h128v-689h-117l-266 453v-453h-127v689h119l263 -448v448zM304 -274l-64 29c21 30 36 58 44 85s11 61 10 104h107c-5 -97 -37 -170 -97 -218z" />
    <glyph glyph-name="ncommaaccent" unicode="&#x146;" 
d="M191 249v-249h-122v467h122v-69c25 48 83 79 139 79c111 0 174 -70 174 -201v-276h-122v254c0 67 -34 104 -89 104c-60 0 -102 -33 -102 -109zM248 -274l-64 29c21 30 36 58 44 85s11 61 10 104h107c-5 -97 -37 -170 -97 -218z" />
    <glyph glyph-name="Ncaron" unicode="&#x147;" horiz-adv-x="682" 
d="M596 0h-117l-266 453v-453h-127v689h119l263 -448v448h128v-689zM402 766h-123l-109 163h94l76 -89l78 89h94z" />
    <glyph glyph-name="ncaron" unicode="&#x148;" 
d="M191 249v-249h-122v467h122v-69c25 48 83 79 139 79c111 0 174 -70 174 -201v-276h-122v254c0 67 -34 104 -89 104c-60 0 -102 -33 -102 -109zM345 544h-123l-109 163h94l76 -89l78 89h94z" />
    <glyph glyph-name="napostrophe" unicode="&#x149;" 
d="M191 249v-249h-122v467h122v-69c25 48 83 79 139 79c111 0 174 -70 174 -201v-276h-122v254c0 67 -34 104 -89 104c-60 0 -102 -33 -102 -109zM1 478l-71 21c35 47 48 104 39 171h110c1 -85 -25 -149 -78 -192z" />
    <glyph glyph-name="Eng" unicode="&#x14a;" horiz-adv-x="681" 
d="M476 2l-262 449v-451h-128v689h119l262 -456v456h128v-679c0 -130 -53 -243 -219 -243c-23 0 -54 5 -93 15l13 119c41 -11 76 -13 105 -8c45 8 75 58 75 109z" />
    <glyph glyph-name="eng" unicode="&#x14b;" horiz-adv-x="568" 
d="M504 276v-250c0 -136 -62 -227 -209 -227c-16 0 -38 3 -67 10l12 112c15 -5 33 -7 55 -7c60 0 87 45 87 105v235c0 67 -34 104 -89 104c-60 0 -102 -33 -102 -109v-249h-122v467h122v-69c25 48 83 79 139 79c111 0 175 -70 174 -201z" />
    <glyph glyph-name="Omacron" unicode="&#x14c;" horiz-adv-x="787" 
d="M235 504c-43 -44 -64 -98 -64 -161s21 -117 64 -161s96 -66 158 -66s114 22 157 66s65 98 65 161s-22 117 -65 161c-43 45 -95 67 -157 67s-115 -22 -158 -67zM44 343c0 98 34 181 101 250s150 104 248 104s181 -35 248 -104c68 -69 102 -152 102 -250
c0 -97 -34 -181 -102 -250s-151 -103 -248 -103s-180 34 -248 103c-67 69 -101 153 -101 250zM528 807h-269v83h269v-83z" />
    <glyph glyph-name="omacron" unicode="&#x14d;" horiz-adv-x="566" 
d="M405 235c0 72 -53 122 -122 122s-122 -50 -122 -122c0 -75 53 -125 122 -125s122 50 122 125zM455 59c-47 -45 -104 -68 -172 -68s-126 23 -173 68s-70 104 -70 176s23 130 70 175s105 67 173 67s125 -22 172 -67s71 -103 71 -175s-24 -131 -71 -176zM417 585h-269v83
h269v-83z" />
    <glyph glyph-name="Obreve" unicode="&#x14e;" horiz-adv-x="787" 
d="M235 182c43 -44 96 -66 158 -66s114 22 157 66s65 98 65 161s-22 117 -65 161c-43 45 -95 67 -157 67s-115 -22 -158 -67c-43 -44 -64 -98 -64 -161s21 -117 64 -161zM44 343c0 98 34 181 101 250s150 104 248 104s181 -35 248 -104c68 -69 102 -152 102 -250
c0 -97 -34 -181 -102 -250s-151 -103 -248 -103s-180 34 -248 103c-67 69 -101 153 -101 250zM260 909h82c0 -37 17 -55 51 -55c33 0 51 24 51 55h83c0 -79 -54 -130 -134 -130c-87 0 -133 58 -133 130z" />
    <glyph glyph-name="obreve" unicode="&#x14f;" horiz-adv-x="566" 
d="M161 235c0 -75 53 -125 122 -125s122 50 122 125c0 72 -53 122 -122 122s-122 -50 -122 -122zM110 59c-47 45 -70 104 -70 176s23 130 70 175s105 67 173 67s125 -22 172 -67s71 -103 71 -175s-24 -131 -71 -176s-104 -68 -172 -68s-126 23 -173 68zM149 687h82
c0 -37 17 -55 51 -55c33 0 51 24 51 55h83c0 -79 -54 -130 -134 -130c-87 0 -133 58 -133 130z" />
    <glyph glyph-name="Ohungarumlaut" unicode="&#x150;" horiz-adv-x="787" 
d="M235 182c43 -44 96 -66 158 -66s114 22 157 66s65 98 65 161s-22 117 -65 161c-43 45 -95 67 -157 67s-115 -22 -158 -67c-43 -44 -64 -98 -64 -161s21 -117 64 -161zM44 343c0 98 34 181 101 250s150 104 248 104s181 -35 248 -104c68 -69 102 -152 102 -250
c0 -97 -34 -181 -102 -250s-151 -103 -248 -103s-180 34 -248 103c-67 69 -101 153 -101 250zM525 929h107l-121 -163h-97zM371 929h105l-110 -163h-94z" />
    <glyph glyph-name="ohungarumlaut" unicode="&#x151;" horiz-adv-x="566" 
d="M161 235c0 -75 53 -125 122 -125s122 50 122 125c0 72 -53 122 -122 122s-122 -50 -122 -122zM110 59c-47 45 -70 104 -70 176s23 130 70 175s105 67 173 67s125 -22 172 -67s71 -103 71 -175s-24 -131 -71 -176s-104 -68 -172 -68s-126 23 -173 68zM413 707h107
l-121 -163h-97zM259 707h105l-110 -163h-94z" />
    <glyph glyph-name="OE" unicode="&#x152;" horiz-adv-x="1100" 
d="M615 605v84h425v-116h-298v-177h261v-114h-261v-166h308v-116h-435v81c-61 -61 -135 -91 -223 -91c-97 0 -180 34 -247 103s-101 153 -101 250c0 98 34 181 101 250s150 104 247 104c91 0 165 -31 223 -92zM392 117c63 0 115 22 158 67s64 99 64 163
c-1 62 -23 115 -66 158s-95 65 -156 65c-62 0 -114 -22 -157 -67c-42 -44 -63 -97 -63 -160s21 -116 63 -160c43 -44 95 -66 157 -66z" />
    <glyph glyph-name="oe" unicode="&#x153;" horiz-adv-x="919" 
d="M526 276h240c-9 61 -54 99 -117 99c-65 0 -114 -36 -123 -99zM405 234c0 72 -54 123 -122 123s-122 -51 -122 -123c0 -75 53 -125 122 -125s122 50 122 125zM465 71c-47 -54 -107 -81 -182 -81c-68 0 -126 23 -173 68s-70 104 -70 176s23 130 70 175s105 68 173 68
c75 0 135 -27 182 -80c47 53 109 80 184 80c136 0 223 -90 234 -223c2 -17 2 -38 1 -61h-357c9 -61 60 -100 129 -100c49 0 96 21 117 60l94 -50c-41 -76 -126 -113 -218 -113c-76 0 -137 27 -184 81z" />
    <glyph glyph-name="Racute" unicode="&#x154;" horiz-adv-x="631" 
d="M356 575h-142v-216h138c63 0 97 50 97 107c0 56 -33 109 -93 109zM407 250l176 -250h-154l-162 245h-53v-245h-128v689h276c71 0 126 -22 163 -66c38 -43 57 -96 57 -157c0 -53 -15 -100 -45 -141c-29 -41 -73 -66 -130 -75zM223 766l105 163h128l-138 -163h-95z" />
    <glyph glyph-name="racute" unicode="&#x155;" horiz-adv-x="411" 
d="M76 544l105 163h128l-138 -163h-95zM191 165v-165h-122v467h122v-110c23 80 75 120 132 120c30 0 56 -6 77 -17l-21 -110c-19 9 -43 13 -71 13c-78 0 -117 -66 -117 -198z" />
    <glyph glyph-name="Rcommaaccent" unicode="&#x156;" horiz-adv-x="631" 
d="M356 575h-142v-216h138c63 0 97 50 97 107c0 56 -33 109 -93 109zM407 250l176 -250h-154l-162 245h-53v-245h-128v689h276c71 0 126 -22 163 -66c38 -43 57 -96 57 -157c0 -53 -15 -100 -45 -141c-29 -41 -73 -66 -130 -75zM296 -274l-64 29c21 30 36 58 44 85
s11 61 10 104h107c-5 -97 -37 -170 -97 -218z" />
    <glyph glyph-name="rcommaaccent" unicode="&#x157;" horiz-adv-x="411" 
d="M191 165v-165h-122v467h122v-110c23 80 75 120 132 120c30 0 56 -6 77 -17l-21 -110c-19 9 -43 13 -71 13c-78 0 -117 -66 -117 -198zM88 -274l-64 29c21 30 36 58 44 85s11 61 10 104h107c-5 -97 -37 -170 -97 -218z" />
    <glyph glyph-name="Rcaron" unicode="&#x158;" horiz-adv-x="631" 
d="M356 575h-142v-216h138c63 0 97 50 97 107c0 56 -33 109 -93 109zM407 250l176 -250h-154l-162 245h-53v-245h-128v689h276c71 0 126 -22 163 -66c38 -43 57 -96 57 -157c0 -53 -15 -100 -45 -141c-29 -41 -73 -66 -130 -75zM373 766h-123l-109 163h94l76 -89l78 89h94z
" />
    <glyph glyph-name="rcaron" unicode="&#x159;" horiz-adv-x="411" 
d="M276 544h-123l-109 163h94l76 -89l78 89h94zM191 165v-165h-122v467h122v-110c23 80 75 120 132 120c30 0 56 -6 77 -17l-21 -110c-19 9 -43 13 -71 13c-78 0 -117 -66 -117 -198z" />
    <glyph glyph-name="Sacute" unicode="&#x15a;" horiz-adv-x="577" 
d="M174 201c3 -53 48 -97 119 -97c67 0 111 35 114 83c3 45 -28 75 -95 94l-85 22c-116 34 -174 98 -174 192c0 59 22 108 67 145c45 38 100 57 165 57c67 0 121 -19 164 -57c43 -37 65 -88 65 -151h-128c0 55 -39 90 -103 90c-59 0 -103 -33 -103 -81c0 -38 27 -64 82 -79
l85 -25c143 -39 195 -118 188 -210c-3 -60 -27 -108 -74 -143c-46 -35 -102 -52 -168 -52c-73 0 -132 20 -178 61s-69 91 -69 151h128zM239 766l105 163h128l-138 -163h-95z" />
    <glyph glyph-name="sacute" unicode="&#x15b;" horiz-adv-x="454" 
d="M246 179l-64 16c-120 34 -132 87 -132 143c0 37 17 70 51 97c34 28 74 42 121 42c49 0 91 -12 126 -36s54 -61 56 -111h-116c-1 32 -31 48 -63 48c-39 0 -59 -15 -59 -46c0 -17 16 -30 49 -39l78 -19c107 -28 122 -103 122 -140c0 -45 -19 -81 -57 -106
c-37 -25 -82 -38 -134 -38c-49 0 -93 14 -131 42c-37 29 -56 67 -57 115h114c3 -33 42 -60 86 -59c35 1 61 20 61 47c1 23 -15 36 -51 44zM163 544l105 163h128l-138 -163h-95z" />
    <glyph glyph-name="Scircumflex" unicode="&#x15c;" horiz-adv-x="577" 
d="M46 201h128c3 -53 48 -97 119 -97c67 0 111 35 114 83c3 45 -28 75 -95 94l-85 22c-116 34 -174 98 -174 192c0 59 22 108 67 145c45 38 100 57 165 57c67 0 121 -19 164 -57c43 -37 65 -88 65 -151h-128c0 55 -39 90 -103 90c-59 0 -103 -33 -103 -81
c0 -38 27 -64 82 -79l85 -25c143 -39 195 -118 188 -210c-3 -60 -27 -108 -74 -143c-46 -35 -102 -52 -168 -52c-73 0 -132 20 -178 61s-69 91 -69 151zM120 769l109 163h123l110 -163h-94l-78 88l-76 -88h-94z" />
    <glyph glyph-name="scircumflex" unicode="&#x15d;" horiz-adv-x="454" 
d="M246 179l-64 16c-120 34 -132 87 -132 143c0 37 17 70 51 97c34 28 74 42 121 42c49 0 91 -12 126 -36s54 -61 56 -111h-116c-1 32 -31 48 -63 48c-39 0 -59 -15 -59 -46c0 -17 16 -30 49 -39l78 -19c107 -28 122 -103 122 -140c0 -45 -19 -81 -57 -106
c-37 -25 -82 -38 -134 -38c-49 0 -93 14 -131 42c-37 29 -56 67 -57 115h114c3 -33 42 -60 86 -59c35 1 61 20 61 47c1 23 -15 36 -51 44zM55 547l109 163h123l110 -163h-94l-78 88l-76 -88h-94z" />
    <glyph glyph-name="Scedilla" unicode="&#x15e;" horiz-adv-x="579" 
d="M246 -122c7 -17 24 -25 43 -20c19 7 24 23 17 46l-32 86c-67 4 -122 26 -164 65c-42 40 -63 89 -63 146h128c3 -53 48 -97 119 -97c67 0 111 35 114 83c3 45 -28 75 -95 94l-85 22c-116 34 -174 98 -174 192c0 59 22 108 67 145c45 38 100 57 165 57
c67 0 121 -19 164 -57c43 -37 65 -88 65 -151h-128c0 55 -39 90 -103 90c-59 0 -103 -33 -103 -81c0 -38 27 -64 82 -79l85 -25c143 -39 195 -118 188 -210c-3 -53 -22 -96 -59 -130c-37 -33 -83 -54 -138 -62l31 -57c6 -11 9 -26 9 -46c0 -55 -46 -102 -105 -102
c-56 0 -103 47 -102 120l69 -4c0 -9 2 -17 5 -25z" />
    <glyph glyph-name="scedilla" unicode="&#x15f;" horiz-adv-x="455" 
d="M288 -2l34 -63c6 -11 9 -26 9 -46c0 -55 -46 -102 -105 -102c-56 0 -103 47 -102 120l69 -4c0 -9 2 -17 5 -25c7 -17 24 -25 43 -20c19 7 24 23 17 46l-32 86h-1c-49 0 -93 14 -131 42c-37 29 -56 67 -57 115h114c3 -33 42 -60 86 -59c35 1 61 20 61 47
c1 23 -15 36 -51 44l-64 16c-120 34 -132 87 -132 143c0 37 17 70 51 97c34 28 74 42 121 42c49 0 91 -12 126 -36s54 -61 56 -111h-116c-1 32 -31 48 -63 48c-39 0 -59 -15 -59 -46c0 -17 16 -30 49 -39l78 -19c107 -28 122 -103 122 -140c0 -71 -52 -119 -128 -136z" />
    <glyph glyph-name="Scaron" unicode="&#x160;" horiz-adv-x="577" 
d="M174 201c3 -53 48 -97 119 -97c67 0 111 35 114 83c3 45 -28 75 -95 94l-85 22c-116 34 -174 98 -174 192c0 59 22 108 67 145c45 38 100 57 165 57c67 0 121 -19 164 -57c43 -37 65 -88 65 -151h-128c0 55 -39 90 -103 90c-59 0 -103 -33 -103 -81c0 -38 27 -64 82 -79
l85 -25c143 -39 195 -118 188 -210c-3 -60 -27 -108 -74 -143c-46 -35 -102 -52 -168 -52c-73 0 -132 20 -178 61s-69 91 -69 151h128zM352 766h-123l-109 163h94l76 -89l78 89h94z" />
    <glyph glyph-name="scaron" unicode="&#x161;" horiz-adv-x="454" 
d="M246 179l-64 16c-120 34 -132 87 -132 143c0 37 17 70 51 97c34 28 74 42 121 42c49 0 91 -12 126 -36s54 -61 56 -111h-116c-1 32 -31 48 -63 48c-39 0 -59 -15 -59 -46c0 -17 16 -30 49 -39l78 -19c107 -28 122 -103 122 -140c0 -45 -19 -81 -57 -106
c-37 -25 -82 -38 -134 -38c-49 0 -93 14 -131 42c-37 29 -56 67 -57 115h114c3 -33 42 -60 86 -59c35 1 61 20 61 47c1 23 -15 36 -51 44zM287 544h-123l-109 163h94l76 -89l78 89h94z" />
    <glyph glyph-name="Tcommaaccent" unicode="&#x162;" horiz-adv-x="573" 
d="M222 572h-194v117h517v-117h-194v-572h-129v572zM240 -274l-64 29c21 30 36 58 44 85s11 61 10 104h107c-5 -97 -37 -170 -97 -218z" />
    <glyph glyph-name="tcommaaccent" unicode="&#x163;" horiz-adv-x="351" 
d="M108 645h121v-178h99v-98h-99v-369h-121v369h-85v98h85v178zM127 -274l-64 29c21 30 36 58 44 85s11 61 10 104h107c-5 -97 -37 -170 -97 -218z" />
    <glyph glyph-name="Tcaron" unicode="&#x164;" horiz-adv-x="573" 
d="M28 689h517v-117h-194v-572h-129v572h-194v117zM348 766h-123l-109 163h94l76 -89l78 89h94z" />
    <glyph glyph-name="tcaron" unicode="&#x165;" horiz-adv-x="350" 
d="M345 524l-65 29c21 30 36 58 44 85s11 61 10 104h107c-5 -97 -37 -169 -96 -218zM107 369h-84v98h84v178h122v-178h98v-98h-98v-369h-122v369z" />
    <glyph glyph-name="Tbar" unicode="&#x166;" horiz-adv-x="573" 
d="M222 0v334h-115v76h115v162h-194v117h517v-117h-194v-162h114v-76h-114v-334h-129z" />
    <glyph glyph-name="tbar" unicode="&#x167;" horiz-adv-x="354" 
d="M231 0h-122v198h-58v71h58v100h-84v98h84v178h122v-178h98v-98h-98v-100h72v-71h-72v-198z" />
    <glyph glyph-name="Utilde" unicode="&#x168;" horiz-adv-x="681" 
d="M296 829c-11 0 -25 -15 -26 -43h-70c4 87 48 125 96 125c16 0 33 -7 51 -21c18 -13 30 -20 37 -20c11 0 26 13 27 41h70c-4 -85 -50 -123 -97 -123c-15 0 -32 7 -51 20c-19 14 -31 21 -37 21zM474 243v446h128v-446c0 -75 -26 -136 -77 -183s-112 -70 -184 -70
c-73 0 -135 23 -186 70s-76 108 -76 183v446h130v-446c0 -39 13 -70 39 -95s57 -37 93 -37s67 12 93 37c27 25 40 56 40 95z" />
    <glyph glyph-name="utilde" unicode="&#x169;" 
d="M376 218v249h122v-467h-122v66c-25 -48 -80 -76 -129 -76c-113 0 -184 72 -184 201v276h123v-254c0 -71 40 -104 89 -104c57 0 101 34 101 109zM246 607c-11 0 -25 -15 -26 -43h-70c4 87 48 125 96 125c16 0 33 -7 51 -21c18 -13 30 -20 37 -20c11 0 26 13 27 41h70
c-4 -85 -50 -123 -97 -123c-15 0 -32 7 -51 20c-19 14 -31 21 -37 21z" />
    <glyph glyph-name="Umacron" unicode="&#x16a;" horiz-adv-x="681" 
d="M474 243v446h128v-446c0 -75 -26 -136 -77 -183s-112 -70 -184 -70c-73 0 -135 23 -186 70s-76 108 -76 183v446h130v-446c0 -39 13 -70 39 -95s57 -37 93 -37s67 12 93 37c27 25 40 56 40 95zM475 807h-269v83h269v-83z" />
    <glyph glyph-name="umacron" unicode="&#x16b;" 
d="M376 218v249h122v-467h-122v66c-25 -48 -80 -76 -129 -76c-113 0 -184 72 -184 201v276h123v-254c0 -71 40 -104 89 -104c57 0 101 34 101 109zM425 585h-269v83h269v-83z" />
    <glyph glyph-name="Ubreve" unicode="&#x16c;" horiz-adv-x="681" 
d="M474 243v446h128v-446c0 -75 -26 -136 -77 -183s-112 -70 -184 -70c-73 0 -135 23 -186 70s-76 108 -76 183v446h130v-446c0 -39 13 -70 39 -95s57 -37 93 -37s67 12 93 37c27 25 40 56 40 95zM207 909h82c0 -37 17 -55 51 -55c33 0 51 24 51 55h83
c0 -79 -54 -130 -134 -130c-87 0 -133 58 -133 130z" />
    <glyph glyph-name="ubreve" unicode="&#x16d;" 
d="M376 218v249h122v-467h-122v66c-25 -48 -80 -76 -129 -76c-113 0 -184 72 -184 201v276h123v-254c0 -71 40 -104 89 -104c57 0 101 34 101 109zM157 687h82c0 -37 17 -55 51 -55c33 0 51 24 51 55h83c0 -79 -54 -130 -134 -130c-87 0 -133 58 -133 130z" />
    <glyph glyph-name="Uring" unicode="&#x16e;" horiz-adv-x="681" 
d="M474 243v446h128v-446c0 -75 -26 -136 -77 -183s-112 -70 -184 -70c-73 0 -135 23 -186 70s-76 108 -76 183v446h130v-446c0 -39 13 -70 39 -95s57 -37 93 -37s67 12 93 37c27 25 40 56 40 95zM225 876c0 33 11 60 33 83c23 23 50 34 81 34c33 0 60 -11 83 -34
c23 -22 34 -50 34 -83c0 -64 -52 -114 -117 -114c-31 0 -58 11 -81 33c-22 22 -33 49 -33 81zM282 876c0 -32 26 -57 57 -57c33 0 59 25 59 57c0 33 -26 59 -59 59c-31 0 -57 -26 -57 -59z" />
    <glyph glyph-name="uring" unicode="&#x16f;" 
d="M376 218v249h122v-467h-122v66c-25 -48 -80 -76 -129 -76c-113 0 -184 72 -184 201v276h123v-254c0 -71 40 -104 89 -104c57 0 101 34 101 109zM175 654c0 33 11 60 33 83c23 23 50 34 81 34c33 0 60 -11 83 -34c23 -22 34 -50 34 -83c0 -64 -52 -114 -117 -114
c-31 0 -58 11 -81 33c-22 22 -33 49 -33 81zM232 654c0 -32 26 -57 57 -57c33 0 59 25 59 57c0 33 -26 59 -59 59c-31 0 -57 -26 -57 -59z" />
    <glyph glyph-name="Uhungarumlaut" unicode="&#x170;" horiz-adv-x="681" 
d="M475 929h107l-121 -163h-97zM321 929h105l-110 -163h-94zM474 243v446h128v-446c0 -75 -26 -136 -77 -183s-112 -70 -184 -70c-73 0 -135 23 -186 70s-76 108 -76 183v446h130v-446c0 -39 13 -70 39 -95s57 -37 93 -37s67 12 93 37c27 25 40 56 40 95z" />
    <glyph glyph-name="uhungarumlaut" unicode="&#x171;" 
d="M396 707h107l-121 -163h-97zM242 707h105l-110 -163h-94zM376 218v249h122v-467h-122v66c-25 -48 -80 -76 -129 -76c-113 0 -184 72 -184 201v276h123v-254c0 -71 40 -104 89 -104c57 0 101 34 101 109z" />
    <glyph glyph-name="Uogonek" unicode="&#x172;" horiz-adv-x="681" 
d="M399 -122l5 25l69 4c1 -73 -46 -120 -102 -120c-29 0 -53 10 -74 31c-21 20 -31 44 -31 71c0 20 3 35 9 46l31 57c-65 8 -119 35 -162 80s-65 102 -65 171v446h130v-446c0 -39 13 -70 39 -95s57 -37 93 -37s67 12 93 37c27 25 40 56 40 95v446h128v-446
c0 -69 -22 -127 -67 -173c-44 -46 -99 -72 -164 -78l-32 -88c-7 -23 -2 -39 17 -46c19 -5 36 3 43 20z" />
    <glyph glyph-name="uogonek" unicode="&#x173;" 
d="M465 -122l5 25l69 4c1 -73 -46 -120 -102 -120c-29 0 -53 10 -74 31c-21 20 -31 44 -31 71c0 20 3 35 9 46l35 65v66c-25 -48 -80 -76 -129 -76c-113 0 -184 72 -184 201v276h123v-254c0 -71 40 -104 89 -104c57 0 101 34 101 109v249h122v-467h-58l-35 -96
c-7 -23 -2 -39 17 -46c19 -5 36 3 43 20z" />
    <glyph glyph-name="Wcircumflex" unicode="&#x174;" horiz-adv-x="892" 
d="M497 593l104 -384l148 480h139l-234 -689h-103l-106 391l-104 -391h-104l-232 689h138l147 -480l105 384h102zM275 769l109 163h123l110 -163h-94l-78 88l-76 -88h-94z" />
    <glyph glyph-name="wcircumflex" unicode="&#x175;" horiz-adv-x="774" 
d="M629 467h130l-167 -467h-102l-104 313l-101 -313h-101l-172 467h130l95 -295l94 295h108l95 -295zM214 547l109 163h123l110 -163h-94l-78 88l-76 -88h-94z" />
    <glyph glyph-name="Ycircumflex" unicode="&#x176;" horiz-adv-x="644" 
d="M387 312v-312h-131v314l-264 375h152l177 -265l179 265h153zM151 769l109 163h123l110 -163h-94l-78 88l-76 -88h-94z" />
    <glyph glyph-name="ycircumflex" unicode="&#x177;" horiz-adv-x="511" 
d="M372 467h130l-289 -695h-129l107 264l-182 431h130l116 -291zM87 547l109 163h123l110 -163h-94l-78 88l-76 -88h-94z" />
    <glyph glyph-name="Ydieresis" unicode="&#x178;" horiz-adv-x="644" 
d="M387 312v-312h-131v314l-264 375h152l177 -265l179 265h153zM236 919c37 0 68 -29 68 -65s-31 -65 -68 -65c-39 0 -69 28 -69 65s30 65 69 65zM361 807c-27 25 -27 69 0 93c27 25 72 25 97 0c27 -24 27 -68 0 -93c-25 -24 -70 -24 -97 0z" />
    <glyph glyph-name="Zacute" unicode="&#x179;" horiz-adv-x="587" 
d="M42 0v100l332 474h-319v115h484v-101l-335 -473h335v-115h-497zM215 766l105 163h128l-138 -163h-95z" />
    <glyph glyph-name="zacute" unicode="&#x17a;" horiz-adv-x="508" 
d="M459 467v-94l-245 -259h245v-114h-418v93l241 260h-226v114h403zM179 544l105 163h128l-138 -163h-95z" />
    <glyph glyph-name="Zdotaccent" unicode="&#x17b;" horiz-adv-x="587" 
d="M42 0v100l332 474h-319v115h484v-101l-335 -473h335v-115h-497zM218 850c0 39 32 69 72 69c41 0 73 -30 73 -69c0 -40 -32 -70 -73 -70c-40 0 -72 30 -72 70z" />
    <glyph glyph-name="zdotaccent" unicode="&#x17c;" horiz-adv-x="508" 
d="M459 467v-94l-245 -259h245v-114h-418v93l241 260h-226v114h403zM177 628c0 39 32 69 72 69c41 0 73 -30 73 -69c0 -40 -32 -70 -73 -70c-40 0 -72 30 -72 70z" />
    <glyph glyph-name="Zcaron" unicode="&#x17d;" horiz-adv-x="587" 
d="M42 0v100l332 474h-319v115h484v-101l-335 -473h335v-115h-497zM352 766h-123l-109 163h94l76 -89l78 89h94z" />
    <glyph glyph-name="zcaron" unicode="&#x17e;" horiz-adv-x="508" 
d="M459 467v-94l-245 -259h245v-114h-418v93l241 260h-226v114h403zM311 544h-123l-109 163h94l76 -89l78 89h94z" />
    <glyph glyph-name="longs" unicode="&#x17f;" horiz-adv-x="324" 
d="M311 721h51v-117h-51c-51 0 -76 -33 -76 -100v-504h-123v369h-89v98h89v37c0 137 70 217 199 217z" />
    <glyph glyph-name="florin" unicode="&#x192;" horiz-adv-x="623" 
d="M30 -189l23 115h54c48 0 79 33 94 99l70 341h-87l21 101h87l8 35c27 137 112 216 247 213l46 -1l-23 -116h-53c-64 0 -86 -47 -102 -131h99l-20 -101h-100c-41 -205 -67 -328 -77 -371c-27 -116 -115 -186 -236 -185c-22 0 -39 0 -51 1z" />
    <glyph glyph-name="Aringacute" unicode="&#x1fa;" horiz-adv-x="654" 
d="M456 167h-257l-63 -167h-136l258 689h138l258 -689h-135zM291 988l79 122h128l-113 -133c38 -23 57 -56 57 -101c0 -64 -52 -114 -117 -114c-31 0 -58 11 -81 33c-22 22 -33 49 -33 81c0 53 33 96 80 112zM242 279h172l-87 263zM268 876c0 -32 26 -57 57 -57
c33 0 59 25 59 57c0 33 -26 59 -59 59c-31 0 -57 -26 -57 -59z" />
    <glyph glyph-name="aringacute" unicode="&#x1fb;" horiz-adv-x="614" 
d="M545 0h-122v60c-28 -44 -93 -69 -145 -69c-64 0 -120 22 -167 67s-71 104 -71 176s23 130 70 175s103 68 168 68c52 0 114 -21 145 -68v58h122v-467zM423 234c0 39 -13 69 -39 92c-25 23 -55 34 -89 34c-35 0 -65 -12 -91 -36c-25 -23 -38 -53 -38 -90s13 -67 38 -91
c74 -74 224 -25 219 91zM245 760l79 122h128l-113 -133c38 -23 57 -56 57 -101c0 -64 -52 -114 -117 -114c-31 0 -58 11 -81 33c-22 22 -33 49 -33 81c0 53 33 96 80 112zM222 648c0 -32 26 -57 57 -57c33 0 59 25 59 57c0 33 -26 59 -59 59c-31 0 -57 -26 -57 -59z" />
    <glyph glyph-name="AEacute" unicode="&#x1fc;" horiz-adv-x="933" 
d="M873 689v-116h-298v-177h261v-114h-261v-166h308v-116h-435v1l-1 -1v163h-205l-104 -163h-152l435 689h452zM315 286h132v230zM422 766l105 163h128l-138 -163h-95z" />
    <glyph glyph-name="aeacute" unicode="&#x1fd;" horiz-adv-x="993" 
d="M599 276h240c-8 61 -54 99 -117 99c-65 0 -114 -36 -123 -99zM295 360c-35 0 -65 -12 -91 -36c-25 -23 -38 -53 -38 -90s13 -67 38 -91c74 -74 224 -25 219 91c0 39 -13 69 -39 92c-25 23 -55 34 -89 34zM958 235c0 -13 -1 -27 -2 -42h-356c9 -61 60 -100 129 -100
c49 0 96 21 117 60l94 -50c-41 -76 -126 -113 -218 -113c-80 0 -142 29 -186 87v-77h-113v60c-28 -44 -93 -69 -145 -69c-64 0 -120 22 -167 67s-71 104 -71 176s23 130 70 175s103 68 168 68c52 0 114 -21 145 -68v58h113v-75c44 57 106 85 186 85c68 0 124 -22 169 -67
s67 -103 67 -175zM423 544l105 163h128l-138 -163h-95z" />
    <glyph glyph-name="Oslashacute" unicode="&#x1fe;" horiz-adv-x="785" 
d="M344 766l105 163h128l-138 -163h-95zM173 66l-80 -82l-47 47l80 82c-55 66 -83 143 -83 230c0 98 34 181 101 250s150 104 248 104c85 0 160 -27 223 -81l79 81l47 -46l-80 -82c54 -66 81 -141 81 -226c0 -97 -34 -181 -102 -250s-151 -103 -248 -103
c-75 0 -143 22 -202 65c-3 1 -13 8 -17 11zM170 343c0 -51 15 -97 45 -139l311 321c-38 31 -83 46 -134 46c-62 0 -115 -22 -158 -67c-43 -44 -64 -98 -64 -161zM392 116c62 0 114 22 157 66s65 98 65 161c0 49 -14 93 -43 134l-309 -319c37 -28 81 -42 130 -42z" />
    <glyph glyph-name="oslashacute" unicode="&#x1ff;" horiz-adv-x="566" 
d="M239 544l105 163h128l-138 -163h-95zM283 -10c-54 0 -101 14 -142 43l-58 -59l-47 47l56 58c-35 42 -52 94 -52 155c0 72 23 130 70 175s105 68 173 68c56 0 106 -16 150 -49l51 53l47 -46l-52 -53c31 -42 47 -91 47 -148c0 -72 -24 -131 -71 -176s-104 -68 -172 -68z
M283 357c-68 0 -122 -51 -122 -123c0 -27 6 -49 17 -67l168 173c-19 11 -40 17 -63 17zM283 109c69 0 122 50 122 125c0 21 -4 41 -13 58l-165 -170c17 -9 35 -13 56 -13z" />
    <glyph glyph-name="Scommaaccent" unicode="&#x218;" horiz-adv-x="577" 
d="M46 201h128c3 -53 48 -97 119 -97c67 0 111 35 114 83c3 45 -28 75 -95 94l-85 22c-116 34 -174 98 -174 192c0 59 22 108 67 145c45 38 100 57 165 57c67 0 121 -19 164 -57c43 -37 65 -88 65 -151h-128c0 55 -39 90 -103 90c-59 0 -103 -33 -103 -81
c0 -38 27 -64 82 -79l85 -25c143 -39 195 -118 188 -210c-3 -60 -27 -108 -74 -143c-46 -35 -102 -52 -168 -52c-73 0 -132 20 -178 61s-69 91 -69 151zM254 -274l-64 29c21 30 36 58 44 85s11 61 10 104h107c-5 -97 -37 -170 -97 -218z" />
    <glyph glyph-name="scommaaccent" unicode="&#x219;" horiz-adv-x="454" 
d="M246 179l-64 16c-120 34 -132 87 -132 143c0 37 17 70 51 97c34 28 74 42 121 42c49 0 91 -12 126 -36s54 -61 56 -111h-116c-1 32 -31 48 -63 48c-39 0 -59 -15 -59 -46c0 -17 16 -30 49 -39l78 -19c107 -28 122 -103 122 -140c0 -45 -19 -81 -57 -106
c-37 -25 -82 -38 -134 -38c-49 0 -93 14 -131 42c-37 29 -56 67 -57 115h114c3 -33 42 -60 86 -59c35 1 61 20 61 47c1 23 -15 36 -51 44zM188 -274l-64 29c21 30 36 58 44 85s11 61 10 104h107c-5 -97 -37 -170 -97 -218z" />
    <glyph glyph-name="circumflex" unicode="&#x2c6;" horiz-adv-x="582" 
d="M120 547l109 163h123l110 -163h-94l-78 88l-76 -88h-94z" />
    <glyph glyph-name="caron" unicode="&#x2c7;" horiz-adv-x="582" 
d="M352 544h-123l-109 163h94l76 -89l78 89h94z" />
    <glyph glyph-name="breve" unicode="&#x2d8;" horiz-adv-x="507" 
d="M120 687h82c0 -37 17 -55 51 -55c33 0 51 24 51 55h83c0 -79 -54 -130 -134 -130c-87 0 -133 58 -133 130z" />
    <glyph glyph-name="dotaccent" unicode="&#x2d9;" horiz-adv-x="365" 
d="M110 628c0 39 32 69 72 69c41 0 73 -30 73 -69c0 -40 -32 -70 -73 -70c-40 0 -72 30 -72 70z" />
    <glyph glyph-name="ring" unicode="&#x2da;" horiz-adv-x="531" 
d="M160 654c0 33 11 60 33 83c23 23 50 34 81 34c67 0 117 -50 117 -117c0 -64 -52 -114 -117 -114c-31 0 -58 11 -81 33c-22 22 -33 49 -33 81zM217 654c0 -32 26 -57 57 -57c33 0 59 25 59 57c0 33 -26 59 -59 59c-31 0 -57 -26 -57 -59z" />
    <glyph glyph-name="ogonek" unicode="&#x2db;" horiz-adv-x="528" 
d="M293 -122l5 25l69 4c1 -73 -46 -120 -102 -120c-29 0 -53 10 -74 31c-21 20 -31 44 -31 71c0 20 3 35 9 46l51 94h59l-46 -125c-7 -23 -2 -39 17 -46c19 -5 36 3 43 20z" />
    <glyph glyph-name="tilde" unicode="&#x2dc;" horiz-adv-x="441" 
d="M176 607c-11 0 -25 -15 -26 -43h-70c4 87 48 125 96 125c16 0 33 -7 51 -21c18 -13 30 -20 37 -20c11 0 26 13 27 41h70c-4 -85 -50 -123 -97 -123c-15 0 -32 7 -51 20c-19 14 -31 21 -37 21z" />
    <glyph glyph-name="hungarumlaut" unicode="&#x2dd;" horiz-adv-x="520" 
d="M333 707h107l-121 -163h-97zM179 707h105l-110 -163h-94z" />
    <glyph glyph-name="Wgrave" unicode="&#x1e80;" horiz-adv-x="892" 
d="M497 593l104 -384l148 480h139l-234 -689h-103l-106 391l-104 -391h-104l-232 689h138l147 -480l105 384h102zM377 766l-138 163h128l105 -163h-95z" />
    <glyph glyph-name="wgrave" unicode="&#x1e81;" horiz-adv-x="774" 
d="M629 467h130l-167 -467h-102l-104 313l-101 -313h-101l-172 467h130l95 -295l94 295h108l95 -295zM336 544l-138 163h128l105 -163h-95z" />
    <glyph glyph-name="Wacute" unicode="&#x1e82;" horiz-adv-x="892" 
d="M749 689h139l-234 -689h-103l-106 391l-104 -391h-104l-232 689h138l147 -480l105 384h102l104 -384zM403 766l105 163h128l-138 -163h-95z" />
    <glyph glyph-name="wacute" unicode="&#x1e83;" horiz-adv-x="774" 
d="M592 0h-102l-104 313l-101 -313h-101l-172 467h130l95 -295l94 295h108l95 -295l95 295h130zM330 544l105 163h128l-138 -163h-95z" />
    <glyph glyph-name="Wdieresis" unicode="&#x1e84;" horiz-adv-x="892" 
d="M749 689h139l-234 -689h-103l-106 391l-104 -391h-104l-232 689h138l147 -480l105 384h102l104 -384zM360 919c37 0 68 -29 68 -65s-31 -65 -68 -65c-39 0 -69 28 -69 65s30 65 69 65zM485 807c-27 25 -27 69 0 93c27 25 72 25 97 0c27 -24 27 -68 0 -93
c-25 -24 -70 -24 -97 0z" />
    <glyph glyph-name="wdieresis" unicode="&#x1e85;" horiz-adv-x="774" 
d="M592 0h-102l-104 313l-101 -313h-101l-172 467h130l95 -295l94 295h108l95 -295l95 295h130zM299 697c37 0 68 -29 68 -65s-31 -65 -68 -65c-39 0 -69 28 -69 65s30 65 69 65zM424 585c-27 25 -27 69 0 93c27 25 72 25 97 0c27 -24 27 -68 0 -93c-25 -24 -70 -24 -97 0z
" />
    <glyph glyph-name="Ygrave" unicode="&#x1ef2;" horiz-adv-x="644" 
d="M387 312v-312h-131v314l-264 375h152l177 -265l179 265h153zM291 766l-138 163h128l105 -163h-95z" />
    <glyph glyph-name="ygrave" unicode="&#x1ef3;" horiz-adv-x="511" 
d="M372 467h130l-289 -695h-129l107 264l-182 431h130l116 -291zM232 544l-138 163h128l105 -163h-95z" />
    <glyph glyph-name="thinspace" unicode="&#x2009;" horiz-adv-x="14" 
 />
    <glyph glyph-name="endash" unicode="&#x2013;" horiz-adv-x="619" 
d="M556 181h-493v108h493v-108z" />
    <glyph glyph-name="emdash" unicode="&#x2014;" horiz-adv-x="830" 
d="M767 181h-704v108h704v-108z" />
    <glyph glyph-name="quoteleft" unicode="&#x2018;" horiz-adv-x="267" 
d="M185 714l54 -27c-17 -23 -30 -44 -41 -63c-20 -36 -42 -107 -42 -180h-104c2 55 17 107 46 158s58 89 87 112z" />
    <glyph glyph-name="quoteright" unicode="&#x2019;" horiz-adv-x="265" 
d="M95 421l-54 27c17 24 30 45 40 62c21 36 44 107 44 180h103c-1 -55 -17 -108 -46 -159s-58 -87 -87 -110z" />
    <glyph glyph-name="quotesinglbase" unicode="&#x201a;" horiz-adv-x="250" 
d="M55 -103l-54 26c17 25 31 46 41 64c20 35 43 106 43 179h103c-1 -55 -17 -108 -46 -159s-58 -87 -87 -110z" />
    <glyph glyph-name="quotedblleft" unicode="&#x201c;" horiz-adv-x="431" 
d="M349 714l54 -27c-17 -24 -30 -45 -41 -63c-20 -35 -42 -106 -42 -179h-104c2 55 17 107 46 158s58 88 87 111zM186 714l53 -27c-17 -23 -30 -44 -41 -63c-20 -36 -42 -106 -42 -179h-103c1 55 17 107 46 158s58 88 87 111z" />
    <glyph glyph-name="quotedblright" unicode="&#x201d;" horiz-adv-x="427" 
d="M95 421l-54 26c17 24 30 45 40 63c21 36 43 107 43 180h103c-1 -55 -17 -108 -46 -159s-57 -87 -86 -110zM258 421l-54 26c17 25 31 46 41 63c20 36 42 107 42 180h104c-2 -55 -18 -108 -47 -159s-57 -87 -86 -110z" />
    <glyph glyph-name="quotedblbase" unicode="&#x201e;" horiz-adv-x="413" 
d="M55 -103l-53 26c17 24 30 45 40 63c21 36 43 107 43 180h103c-1 -55 -17 -108 -46 -159s-58 -87 -87 -110zM219 -103l-54 26c17 25 31 46 41 64c20 35 42 106 42 179h103c-1 -55 -17 -108 -46 -159s-57 -87 -86 -110z" />
    <glyph glyph-name="dagger" unicode="&#x2020;" horiz-adv-x="413" 
d="M151 689h111v-173h111v-85h-111v-534h-111v534h-111v85h111v173z" />
    <glyph glyph-name="daggerdbl" unicode="&#x2021;" horiz-adv-x="441" 
d="M165 689h111v-173h111v-85h-111v-223h111v-84h-111v-227h-111v227h-111v84h111v223h-111v85h111v173z" />
    <glyph glyph-name="bullet" unicode="&#x2022;" horiz-adv-x="464" 
d="M121 131c-30 29 -45 64 -45 107s15 78 45 107c31 29 68 43 111 43s80 -14 110 -43c31 -29 46 -64 46 -107s-15 -78 -46 -107c-30 -29 -67 -43 -110 -43s-80 14 -111 43z" />
    <glyph glyph-name="ellipsis" unicode="&#x2026;" horiz-adv-x="811" 
d="M80 11c-31 29 -31 81 0 109c31 29 81 29 112 0c31 -28 31 -80 0 -109c-31 -28 -81 -28 -112 0zM349 11c-29 29 -29 81 0 109c31 29 81 29 112 0c32 -29 32 -79 0 -108c-31 -29 -81 -29 -112 -1zM619 11c-31 29 -31 81 0 109c31 29 81 29 112 0c31 -28 31 -80 0 -109
c-31 -28 -81 -28 -112 0z" />
    <glyph glyph-name="perthousand" unicode="&#x2030;" horiz-adv-x="995" 
d="M538 661l-325 -661h-68l325 661h68zM171 666c37 0 68 -13 94 -39c27 -26 40 -58 40 -95s-13 -69 -39 -95c-26 -25 -58 -38 -95 -38s-69 13 -95 38c-25 26 -38 58 -38 95s13 69 38 95c26 26 58 39 95 39zM228 532c0 31 -26 57 -57 57c-49 4 -75 -65 -40 -97
c32 -35 101 -9 97 40zM654 123c0 -37 -13 -69 -39 -95c-26 -25 -58 -38 -95 -38s-69 13 -95 38c-25 26 -38 58 -38 95s13 69 38 95c26 26 58 39 95 39s69 -13 95 -40c26 -26 39 -57 39 -94zM577 123c0 31 -26 57 -57 57c-49 4 -75 -65 -40 -97c32 -35 101 -9 97 40zM960 123
c0 -37 -13 -69 -39 -95c-26 -25 -58 -38 -95 -38s-69 13 -95 38c-25 26 -38 58 -38 95s13 69 38 95c26 26 58 39 95 39s69 -13 95 -40c26 -26 39 -57 39 -94zM883 123c0 31 -26 57 -57 57c-49 4 -75 -65 -40 -97c32 -35 101 -9 97 40z" />
    <glyph glyph-name="guilsinglleft" unicode="&#x2039;" horiz-adv-x="322" 
d="M179 26l-138 207l138 207h98l-138 -207l138 -207h-98z" />
    <glyph glyph-name="guilsinglright" unicode="&#x203a;" horiz-adv-x="322" 
d="M143 440l138 -207l-138 -207h-98l138 207l-138 207h98z" />
    <glyph glyph-name="fraction" unicode="&#x2044;" horiz-adv-x="180" 
d="M275 669h76l-450 -679h-78z" />
    <glyph glyph-name="zerosuperior" unicode="&#x2070;" horiz-adv-x="356" 
d="M36 624c0 133 47 199 142 199s142 -66 142 -199c0 -131 -47 -197 -142 -197s-142 66 -142 197zM109 624c0 -84 23 -126 69 -126s69 42 69 126c0 85 -23 128 -69 128s-69 -43 -69 -128z" />
    <glyph glyph-name="foursuperior" unicode="&#x2074;" horiz-adv-x="350" 
d="M325 515h-51v-82h-73v82h-190l193 302h70v-238h51v-64zM201 709l-82 -130h82v130z" />
    <glyph glyph-name="fivesuperior" unicode="&#x2075;" horiz-adv-x="340" 
d="M24 506l61 40c15 -28 45 -47 74 -47c47 0 79 29 79 65c0 41 -31 64 -72 64c-36 0 -67 -13 -93 -38l-35 23l32 204h215v-68h-156l-13 -74c17 11 40 17 67 17c73 0 127 -47 127 -128s-59 -137 -151 -137c-55 0 -107 31 -135 79z" />
    <glyph glyph-name="sixsuperior" unicode="&#x2076;" horiz-adv-x="339" 
d="M310 747l-67 -28c-11 23 -28 35 -51 35c-52 0 -78 -52 -75 -117c11 23 41 44 77 44c32 0 60 -12 84 -36s36 -56 35 -95c-1 -73 -59 -125 -136 -124c-72 1 -126 53 -133 133c-8 112 7 268 150 264c56 -3 95 -28 116 -76zM124 556c0 -33 25 -58 57 -59c31 0 57 25 58 57
c0 32 -25 58 -56 59c-33 0 -59 -25 -59 -57z" />
    <glyph glyph-name="sevensuperior" unicode="&#x2077;" horiz-adv-x="324" 
d="M30 817h283l-186 -384h-83l152 315h-166v69z" />
    <glyph glyph-name="eightsuperior" unicode="&#x2078;" horiz-adv-x="345" 
d="M59 718c0 59 51 105 114 105s113 -46 113 -105c0 -26 -9 -47 -28 -64c37 -24 56 -56 56 -97c0 -36 -14 -67 -41 -92s-61 -38 -100 -38s-73 13 -101 38c-27 25 -41 56 -41 92c0 41 19 74 56 97c-19 19 -28 40 -28 64zM104 558c-3 -54 79 -83 117 -44c43 36 10 109 -45 107
h-9c-35 0 -63 -30 -63 -63zM131 717c-5 -35 49 -54 72 -28c25 25 8 67 -30 67c-25 0 -42 -18 -42 -39z" />
    <glyph glyph-name="ninesuperior" unicode="&#x2079;" horiz-adv-x="339" 
d="M37 503l68 28c11 -24 28 -36 51 -36c51 0 76 53 75 118c-12 -23 -42 -44 -78 -44c-32 0 -60 12 -84 36s-36 56 -35 95c3 73 59 124 136 123c73 -1 127 -53 134 -133c4 -63 0 -117 -19 -174c-19 -56 -64 -92 -131 -89c-55 3 -94 28 -117 76zM224 694c0 32 -25 58 -57 59
c-32 0 -58 -25 -58 -57c-1 -33 24 -58 56 -59c32 0 58 24 59 57z" />
    <glyph glyph-name="zeroinferior" unicode="&#x2080;" horiz-adv-x="356" 
d="M36 43c0 133 47 199 142 199s142 -66 142 -199c0 -131 -47 -197 -142 -197s-142 66 -142 197zM109 43c0 -84 23 -126 69 -126s69 42 69 126c0 85 -23 128 -69 128s-69 -43 -69 -128z" />
    <glyph glyph-name="oneinferior" unicode="&#x2081;" horiz-adv-x="212" 
d="M161 -149h-73v285l-66 -30v65l139 70v-390z" />
    <glyph glyph-name="twoinferior" unicode="&#x2082;" horiz-adv-x="321" 
d="M34 -149v38l157 187c15 18 22 35 22 50c0 27 -22 46 -54 46c-31 0 -55 -22 -60 -57l-67 13c12 71 62 114 130 114c69 0 124 -48 124 -116c0 -35 -14 -67 -41 -98l-93 -107h128v-70h-246z" />
    <glyph glyph-name="threeinferior" unicode="&#x2083;" horiz-adv-x="318" 
d="M98 148l-55 38c23 36 67 59 116 56c65 -4 111 -51 111 -107c0 -33 -16 -58 -48 -76c40 -15 68 -61 64 -104c-3 -33 -19 -60 -48 -81s-62 -31 -99 -28c-52 4 -99 36 -120 81l62 32c15 -29 36 -43 63 -43c33 -1 62 21 65 48c1 28 -15 60 -60 59h-42v63h42c33 0 47 30 44 50
c-1 20 -19 39 -44 39c-22 1 -39 -8 -51 -27z" />
    <glyph glyph-name="fourinferior" unicode="&#x2084;" horiz-adv-x="347" 
d="M323 -66h-51v-83h-73v83h-190l193 302h70v-238h51v-64zM199 128l-82 -130h82v130z" />
    <glyph glyph-name="fiveinferior" unicode="&#x2085;" horiz-adv-x="338" 
d="M54 -55l31 20c15 -28 45 -47 74 -47c47 0 79 29 79 65c0 41 -31 64 -72 64c-36 0 -67 -13 -93 -38l-35 23l32 204h215v-68h-156l-13 -75c17 12 39 18 67 18c73 0 127 -47 127 -128s-60 -138 -151 -138c-53 0 -107 31 -135 79z" />
    <glyph glyph-name="sixinferior" unicode="&#x2086;" horiz-adv-x="338" 
d="M309 166l-67 -28c-11 23 -28 35 -51 35c-52 0 -78 -51 -75 -118c9 23 41 45 77 45c32 0 60 -12 84 -37c24 -24 36 -55 35 -94c-1 -73 -59 -125 -136 -124c-72 1 -126 53 -133 133c-8 110 7 267 150 264c56 -3 95 -28 116 -76zM123 -26c0 -32 25 -58 57 -58
c31 -1 57 25 58 56c0 33 -25 59 -56 59c-33 1 -59 -24 -59 -57z" />
    <glyph glyph-name="seveninferior" unicode="&#x2087;" horiz-adv-x="314" 
d="M27 236h283l-186 -385h-83l152 316h-166v69z" />
    <glyph glyph-name="eightinferior" unicode="&#x2088;" horiz-adv-x="345" 
d="M59 137c0 59 51 105 114 105s113 -46 113 -105c0 -26 -9 -47 -28 -64c37 -24 56 -56 56 -97c0 -36 -14 -67 -41 -92s-61 -38 -100 -38s-73 13 -101 38c-27 25 -41 56 -41 92c0 41 19 74 56 97c-19 19 -28 40 -28 64zM104 -23c-3 -53 79 -84 117 -43c44 34 9 108 -45 106
h-9c-35 0 -63 -30 -63 -63zM131 136c0 -23 17 -41 42 -41c56 3 54 80 0 80c-25 0 -42 -18 -42 -39z" />
    <glyph glyph-name="nineinferior" unicode="&#x2089;" horiz-adv-x="339" 
d="M37 -79l68 29c11 -24 28 -36 51 -36c51 0 76 51 75 118c-11 -23 -42 -44 -78 -44c-32 0 -60 12 -84 36s-36 56 -35 95c3 72 59 124 136 123c73 -1 127 -53 134 -133c4 -63 0 -117 -19 -173c-19 -57 -64 -92 -131 -91c-55 3 -94 28 -117 76zM224 112c0 33 -25 59 -57 59
c-32 1 -58 -25 -58 -56c-1 -33 24 -59 56 -59s58 24 59 56z" />
    <glyph glyph-name="colonmonetary" unicode="&#x20a1;" horiz-adv-x="704" 
d="M324 -4l-38 -107l-54 20l36 102c-24 9 -46 19 -66 32l-43 -118l-54 19l49 136c-72 65 -114 160 -114 263c0 96 32 178 96 246s143 104 237 107l39 109l54 -20l-33 -92c28 -3 52 -9 73 -17l33 93l54 -20l-34 -96c40 -22 75 -53 105 -92l-102 -73c-15 19 -30 33 -47 44
l-149 -419c9 -1 16 -2 21 -2c72 0 138 36 179 93l101 -74c-61 -87 -163 -140 -280 -140c-21 0 -42 2 -63 6zM392 575l-147 -410c19 -18 41 -31 64 -39l156 435c-25 9 -50 13 -73 14zM168 343c0 -47 11 -89 34 -127l125 351c-47 -13 -86 -41 -115 -82s-44 -89 -44 -142z" />
    <glyph glyph-name="lira" unicode="&#x20a4;" horiz-adv-x="667" 
d="M399 287v-60h-128v-115h205c15 0 25 14 25 31v39h121v-54c0 -73 -48 -128 -116 -128h-459v112h102v115h-81v60h81v53h-81v60h81v71c0 69 19 123 57 164c39 41 90 62 153 62c62 0 113 -19 154 -57s62 -92 62 -163h-125c0 65 -40 95 -93 92c-49 -1 -86 -35 -86 -86v-83h128
v-60h-128v-53h128z" />
    <glyph glyph-name="uni20A6" unicode="&#x20a6;" horiz-adv-x="786" 
d="M139 379v108h-90v55h90v147h119l86 -147h177v147h128v-147h87v-55h-87v-108h87v-55h-87v-324h-117l-190 324h-76v-324h-127v324h-90v55h90zM521 487h-144l63 -108h81v108zM521 324h-49l49 -83v83zM309 379l-43 74v-74h43z" />
    <glyph glyph-name="peseta" unicode="&#x20a7;" horiz-adv-x="755" 
d="M129 0v385h-80v55h80v52h-80v55h80v142h280c105 0 175 -58 204 -142h101v-55h-88c1 -16 2 -27 2 -34c0 -8 0 -14 -1 -18h87v-55h-97c-25 -85 -96 -140 -208 -140h-152v-245h-128zM500 458c0 12 -1 23 -4 34h-239v-52h241c1 8 2 14 2 18zM407 575h-150v-28h211
c-17 19 -38 28 -61 28zM257 385v-26h146c29 0 52 9 69 26h-215z" />
    <glyph glyph-name="rupee" unicode="&#x20a8;" horiz-adv-x="701" 
d="M376 453h-313v58h307c-16 43 -45 64 -86 64h-221c0 3 0 22 -1 57v57h594v-58h-212c34 -32 55 -72 62 -120h150v-58h-146c-5 -103 -64 -186 -175 -203l176 -250h-154l-162 245h-132v114h217c57 0 91 41 96 94z" />
    <glyph glyph-name="uni20A9" unicode="&#x20a9;" horiz-adv-x="993" 
d="M290 0l-109 322h-133v55h115l-22 64h-93v55h75l-65 193h138l59 -193h166l27 97h102l26 -97h166l60 193h139l-66 -193h68v-55h-87l-21 -64h108v-55h-127l-109 -322h-103l-87 322h-38l-85 -322h-104zM406 441h-134l19 -64h98zM725 441h-134l17 -64h98zM374 322h-66l35 -113
zM689 322h-66l31 -113z" />
    <glyph glyph-name="afii57636" unicode="&#x20aa;" horiz-adv-x="884" 
d="M605 332v-136h-122v119c0 57 -44 101 -109 101h-41h-120v-416h-123v538h257c27 0 51 -1 72 -4c56 -5 101 -26 135 -64c34 -37 51 -83 51 -138zM279 206v136h122v-119c0 -57 44 -101 109 -101h41h120v416h123v-538h-257c-24 0 -48 1 -72 3c-56 5 -101 26 -135 64
c-34 39 -51 85 -51 139z" />
    <glyph glyph-name="Euro" unicode="&#x20ac;" horiz-adv-x="835" 
d="M532 430v-60h-484v60h117c19 77 59 141 121 191c62 51 134 76 216 76c115 0 216 -52 277 -136l-102 -73c-45 59 -104 88 -175 88c-93 0 -172 -58 -204 -146h234zM48 254v60h484v-60h-233c32 -85 111 -143 203 -143c72 0 138 36 179 93l101 -74
c-61 -87 -163 -140 -280 -140c-81 0 -153 25 -215 74c-61 49 -102 113 -121 190h-118z" />
    <glyph glyph-name="uni2113" unicode="&#x2113;" horiz-adv-x="399" 
d="M176 525v-245l34 2c21 0 31 17 31 51v192c0 43 -10 65 -31 65c-23 0 -34 -22 -34 -65zM230 105l97 -5v-100h-117c-97 0 -145 55 -145 166v365c0 111 48 166 145 166c95 0 142 -57 142 -171v-187c0 -57 -12 -99 -37 -126s-71 -40 -139 -40v-7c0 -41 11 -60 54 -61z" />
    <glyph glyph-name="afii61352" unicode="&#x2116;" horiz-adv-x="979" 
d="M599 0h-116l-266 453v-453h-128v689h120l262 -448v448h128v-689zM799 694c37 0 68 -13 94 -39s39 -57 39 -94s-13 -68 -39 -94c-26 -25 -57 -38 -94 -38s-69 13 -95 38c-25 25 -38 57 -38 94s13 69 38 94c26 26 58 39 95 39zM756 604c-23 -24 -23 -62 0 -86
c24 -23 62 -23 85 0c24 24 24 62 0 86c-23 24 -61 24 -85 0zM925 325h-253v60h253v-60z" />
    <glyph glyph-name="trademark" unicode="&#x2122;" horiz-adv-x="849" 
d="M407 319h-77l36 301h-107v-301h-78v301h-118v69h378l115 -241l113 241h67l45 -370h-77l-28 238l-91 -197h-58l-92 197z" />
    <glyph glyph-name="estimated" unicode="&#x212e;" horiz-adv-x="651" 
d="M607 279h-429v-193c44 -42 95 -63 152 -63c101 0 157 46 210 127l31 -19c-59 -91 -125 -141 -241 -141c-79 0 -144 28 -195 84c-51 57 -76 125 -76 206c0 82 25 151 75 206c50 56 117 84 200 84s149 -28 198 -85c50 -56 75 -125 75 -206zM178 312h309v163
c-45 41 -96 62 -153 62c-64 0 -116 -21 -156 -62v-163z" />
    <glyph glyph-name="minus" unicode="&#x2212;" horiz-adv-x="530" 
d="M460 310v-95h-390v95h390z" />
    <glyph glyph-name="notequal" unicode="&#x2260;" horiz-adv-x="610" 
d="M534 135h-262l-52 -106h-70l52 106h-128v94h173l51 105h-224v94h270l50 101h71l-50 -101h119v-94h-165l-51 -105h216v-94z" />
    <glyph glyph-name="lessequal" unicode="&#x2264;" horiz-adv-x="642" 
d="M567 249v-105l-504 192v104l504 192v-105l-369 -139zM562 88v-88h-492v88h492z" />
    <glyph glyph-name="greaterequal" unicode="&#x2265;" horiz-adv-x="642" 
d="M579 440v-104l-504 -192v105l369 139l-369 139v105zM80 0v88h492v-88h-492z" />
    <glyph glyph-name="commaaccent" unicode="&#xf6c3;" horiz-adv-x="301" 
d="M134 -274l-64 29c21 30 36 58 44 85s11 61 10 104h107c-5 -97 -37 -170 -97 -218z" />
    <glyph glyph-name="rupiah" unicode="&#xf6dd;" horiz-adv-x="1162" 
d="M342 575h-142v-216h138c63 0 97 50 97 107c0 56 -33 109 -93 109zM393 250l176 -250h-154l-162 245h-53v-245h-128v689h276c71 0 126 -22 163 -66c38 -43 57 -96 57 -157c0 -53 -15 -100 -45 -141c-29 -41 -73 -66 -130 -75zM632 467h122v-63c24 45 83 73 146 73
s116 -23 161 -68s67 -104 67 -175c0 -73 -22 -132 -67 -177c-44 -45 -98 -67 -161 -67s-122 27 -146 72v-289h-122v694zM756 232c0 -77 56 -126 124 -126c35 0 64 12 87 35c24 23 36 54 36 91s-12 68 -36 92c-23 24 -52 36 -87 36c-69 0 -124 -52 -124 -128z" />
    <glyph glyph-name="apple" unicode="&#xf8ff;" horiz-adv-x="847" 
d="M80 687h687v-687h-687v687zM426 332l-262 263v-377h81l-74 75v178l255 -253l256 253v-178l-74 -75h84v377zM193 96l-14 36h-15v-53h9v37l13 -37h10l11 37v-37h9v53h-14zM248 132c-17 0 -25 -9 -25 -27c0 -15 9 -26 25 -26c15 0 23 13 23 26c0 15 -8 27 -23 27zM248 89
c-9 0 -17 9 -17 16c0 8 8 17 17 17c8 0 12 -6 12 -17s-4 -16 -12 -16zM284 99h-13c0 -13 7 -20 22 -20s22 6 22 17c0 7 -5 12 -15 14c-11 2 -16 4 -16 6c0 4 3 6 9 6c7 0 10 -2 10 -6h9c0 11 -6 16 -19 16s-19 -5 -19 -16c0 -5 5 -10 16 -15c9 0 13 -2 13 -5
c0 -5 -3 -7 -10 -7c-6 0 -9 3 -9 10zM315 132v-10h17v-43h8v43h15v10h-40zM398 79l-21 53h-9l-22 -53h12l4 13h22l3 -13h11zM371 119h3l7 -18h-16zM426 132h-28v-53h9v22h13c6 0 9 -3 9 -9v-13h13c-2 2 -3 6 -3 13c0 6 -2 10 -7 13c5 2 7 6 7 11c0 11 -4 16 -13 16zM420 108
h-13v14h13c6 0 9 -2 9 -6c0 -5 -3 -8 -9 -8zM466 132h-20v-53h20c17 0 25 10 25 29c0 16 -8 24 -25 24zM466 89h-8v33h4c11 0 17 -6 17 -17c0 -8 -6 -16 -13 -16zM531 122v10h-37v-53h40v10h-28v12h25v9h-25v12h25zM543 99h-9c0 -13 7 -20 22 -20s22 6 22 17
c0 7 -5 12 -15 14c-11 2 -17 4 -17 6c0 4 2 6 7 6c8 0 12 -2 12 -6h10c0 11 -6 16 -19 16s-41 -15 -3 -31c8 0 12 -2 12 -5c0 -5 -3 -7 -9 -7c-9 0 -13 3 -13 10zM589 79v53h-7v-53h7zM633 86l4 -7h6v29h-22v-9h12c-3 -7 -7 -10 -12 -10c-9 0 -16 9 -16 16c0 8 7 17 16 17
c6 0 9 -3 9 -10h13c-3 13 -10 20 -22 20c-15 0 -25 -12 -25 -27c0 -13 10 -26 25 -26c6 0 10 2 12 7zM679 99l-22 33h-8v-53h8v33l22 -33h13v53h-13v-33z" />
    <glyph glyph-name="published" horiz-adv-x="801" 
d="M365 280v-122h-69v353h136c73 0 114 -52 114 -116c0 -29 -10 -56 -30 -80c-19 -23 -47 -35 -84 -35h-67zM365 443v-95h65c60 0 59 95 2 95h-67zM152 93c-67 69 -101 152 -101 250s34 181 101 250c68 69 151 104 248 104s180 -35 248 -104s102 -152 102 -250
s-34 -181 -102 -250s-151 -103 -248 -103s-180 34 -248 103zM196 549c-56 -57 -84 -125 -84 -206s28 -149 84 -206s124 -85 204 -85s148 28 204 85s84 125 84 206s-28 149 -84 206s-124 86 -204 86s-148 -29 -204 -86z" />
    <glyph glyph-name="frenchfranc" horiz-adv-x="737" 
d="M491 0h-118v310h-154v-310h-127v689h417v-115h-290v-152h272v-109c23 80 64 120 125 120c38 0 67 -6 86 -18l-21 -112c-21 11 -44 16 -70 16c-80 0 -120 -66 -120 -198v-121z" />
    <glyph glyph-name="parenleft.case" horiz-adv-x="378" 
d="M42 341c0 138 28 250 85 337s129 131 217 131v-102c-53 0 -99 -36 -138 -108s-58 -158 -58 -258c0 -99 19 -184 58 -255s85 -106 138 -106v-101c-88 0 -160 43 -217 128s-85 197 -85 334z" />
    <glyph glyph-name="parenright.case" horiz-adv-x="378" 
d="M336 341c0 -137 -28 -249 -85 -334s-129 -128 -217 -128v101c53 0 98 35 137 106s59 156 59 255c0 100 -20 186 -59 258s-84 108 -137 108v102c88 0 160 -44 217 -131s85 -199 85 -337z" />
    <glyph glyph-name="hyphen.case" horiz-adv-x="477" 
d="M414 303h-351v102h351v-102z" />
    <glyph glyph-name="at.case" horiz-adv-x="967" 
d="M590 245v127c0 34 -12 63 -36 86c-23 23 -52 35 -85 35s-62 -12 -86 -35c-23 -23 -35 -52 -35 -86c0 -33 12 -61 35 -84c24 -23 53 -35 86 -35c30 0 59 11 86 33v-91c-29 -16 -57 -24 -86 -24c-56 0 -104 19 -144 58c-39 39 -59 87 -59 143c0 57 20 105 59 144
c40 39 88 59 144 59c54 0 101 -18 141 -55s61 -83 63 -138v-143c0 -41 21 -62 64 -62s74 31 89 75c15 45 20 88 20 133c0 97 -36 177 -108 242s-158 97 -259 97c-98 0 -181 -35 -248 -104s-101 -154 -101 -253s34 -182 101 -250s150 -102 248 -102h29v-83h-29
c-121 0 -224 42 -307 126s-125 187 -125 309s42 226 125 311c84 86 186 129 307 129c239 6 455 -186 451 -422c0 -64 -14 -129 -42 -189s-83 -101 -151 -101c-84 0 -147 45 -147 150z" />
    <glyph glyph-name="bracketleft.case" horiz-adv-x="332" 
d="M296 -115h-220v916h220v-95h-112v-725h112v-96z" />
    <glyph glyph-name="bracketright.case" horiz-adv-x="332" 
d="M36 801h220v-916h-220v96h112v725h-112v95z" />
    <glyph glyph-name="braceleft.case" horiz-adv-x="407" 
d="M34 302v83c32 0 61 24 61 56v162c0 59 19 107 57 143c39 37 86 55 143 55h78v-94h-81c-51 0 -91 -41 -91 -96v-153c0 -55 -28 -99 -68 -115c39 -15 68 -59 68 -114v-147c0 -27 9 -51 27 -71s39 -30 64 -30h81v-96h-78c-57 0 -104 18 -143 55c-38 36 -57 84 -57 143v164
c0 32 -29 55 -61 55z" />
    <glyph glyph-name="braceright.case" horiz-adv-x="407" 
d="M373 385v-83c-32 0 -61 -23 -61 -55v-164c0 -59 -19 -107 -58 -143c-38 -37 -85 -55 -142 -55h-78v96h81c25 0 46 10 64 30s27 44 27 71v147c0 55 29 99 68 114c-40 16 -68 60 -68 115v153c0 55 -40 96 -91 96h-81v94h78c57 0 104 -18 142 -55c39 -36 58 -84 58 -143
v-162c0 -32 29 -56 61 -56z" />
    <glyph glyph-name="exclamdown.case" horiz-adv-x="280" 
d="M193 487l19 -487h-143l19 487h105zM139 698c44 0 80 -32 80 -76s-36 -76 -80 -76c-43 0 -78 33 -78 76s35 76 78 76z" />
    <glyph glyph-name="guillemotleft.case" horiz-adv-x="522" 
d="M188 138l-138 207l138 207h98l-138 -207l138 -207h-98zM365 138l-138 207l138 207h98l-138 -207l138 -207h-98z" />
    <glyph glyph-name="periodcentered.case" horiz-adv-x="278" 
d="M138 501c44 0 80 -32 80 -76s-36 -76 -80 -76c-43 0 -78 33 -78 76s35 76 78 76z" />
    <glyph glyph-name="guillemotright.case" horiz-adv-x="522" 
d="M157 552l138 -207l-138 -207h-98l138 207l-138 207h98zM334 552l138 -207l-138 -207h-98l138 207l-138 207h98z" />
    <glyph glyph-name="questiondown.case" horiz-adv-x="491" 
d="M233 452l2 36h119l2 -36c0 -52 -12 -89 -24 -113c-6 -11 -18 -23 -35 -36c-17 -12 -31 -21 -42 -27l-58 -29c-25 -11 -38 -32 -38 -65c0 -41 39 -72 87 -72c49 0 85 35 85 87h121c0 -63 -19 -114 -58 -152c-38 -38 -87 -57 -148 -57s-111 18 -150 53
c-39 36 -59 83 -59 142c0 93 57 164 138 189c41 13 58 33 58 80zM372 620c0 -43 -35 -76 -79 -76s-79 33 -79 76c0 44 35 77 79 77s79 -33 79 -77z" />
    <glyph glyph-name="endash.case" horiz-adv-x="621" 
d="M557 293h-493v108h493v-108z" />
    <glyph glyph-name="emdash.case" horiz-adv-x="832" 
d="M768 293h-704v108h704v-108z" />
    <glyph glyph-name="bullet.case" horiz-adv-x="468" 
d="M123 243c-30 29 -45 64 -45 107s15 78 45 107c31 29 68 43 111 43s80 -14 110 -43c31 -29 46 -64 46 -107s-15 -78 -46 -107c-30 -29 -67 -43 -110 -43s-80 14 -111 43z" />
    <glyph glyph-name="guilsinglleft.case" horiz-adv-x="345" 
d="M188 138l-138 207l138 207h98l-138 -207l138 -207h-98z" />
    <glyph glyph-name="guilsinglright.case" horiz-adv-x="345" 
d="M157 552l138 -207l-138 -207h-98l138 207l-138 207h98z" />
    <glyph glyph-name="cent.case" horiz-adv-x="537" 
d="M248 692h69v-104c73 -6 131 -36 172 -90l-97 -73c-23 31 -55 46 -97 46c-35 0 -66 -12 -92 -35s-39 -52 -39 -89s13 -67 39 -92c26 -24 57 -36 92 -36c42 0 74 16 97 47l98 -72c-42 -55 -100 -85 -173 -91v-113h-69v116c-59 11 -108 38 -147 81s-58 97 -58 160
s19 115 58 158s88 69 147 80v107z" />
    <glyph glyph-name="zero.tnum" horiz-adv-x="580" 
d="M48 327c0 226 81 339 243 339c92 0 157 -36 192 -100s48 -139 48 -239c0 -187 -51 -337 -240 -337c-162 0 -243 112 -243 337zM171 327c0 -145 40 -217 120 -217c79 0 118 72 118 217c0 146 -39 219 -118 219c-80 0 -120 -73 -120 -219z" />
    <glyph glyph-name="one.tnum" horiz-adv-x="580" 
d="M148 449v110l233 103v-662h-123v493z" />
    <glyph glyph-name="two.tnum" horiz-adv-x="580" 
d="M492 117v-117h-418v63l267 320c27 31 40 60 40 86c0 44 -39 78 -94 78c-53 0 -94 -39 -102 -95l-114 21c9 59 34 106 74 141s89 52 147 52c59 0 108 -19 149 -56s62 -84 62 -141c0 -59 -23 -114 -70 -167l-162 -185h221z" />
    <glyph glyph-name="three.tnum" horiz-adv-x="580" 
d="M275 291h-70v109h70c27 -1 46 7 57 24s17 33 17 48c0 32 -17 66 -58 74c-42 5 -76 -8 -101 -40l-96 63c37 63 114 102 198 97c55 -3 101 -22 136 -57s53 -77 53 -126c0 -52 -32 -100 -81 -128c34 -13 61 -37 82 -72s30 -71 27 -106c-6 -59 -33 -106 -82 -141
s-105 -50 -170 -45c-89 5 -167 61 -203 138l53 26l54 28c20 -41 63 -73 106 -73c63 0 110 41 110 97c0 17 -14 87 -102 84z" />
    <glyph glyph-name="four.tnum" horiz-adv-x="580" 
d="M335 477l-145 -228h145v228zM544 249v-107h-87v-142h-122v142h-323l326 512h119v-405h87z" />
    <glyph glyph-name="five.tnum" horiz-adv-x="580" 
d="M410 224c0 73 -53 113 -126 113c-59 0 -109 -22 -150 -66l-70 42l55 341h372v-113h-274l-23 -134c27 23 68 35 121 35c62 0 114 -19 155 -58c41 -38 62 -91 62 -160s-24 -126 -72 -169c-47 -43 -110 -65 -189 -65c-91 0 -180 55 -227 138c3 1 21 12 52 32s48 31 51 32
c27 -48 76 -81 124 -81c84 0 139 50 139 113z" />
    <glyph glyph-name="six.tnum" horiz-adv-x="580" 
d="M396 207c1 55 -41 100 -96 101c-27 1 -51 -9 -71 -28s-30 -43 -31 -70c0 -56 43 -101 98 -101c55 -1 99 42 100 98zM320 422c55 0 102 -20 142 -61c41 -41 61 -94 60 -161c-1 -62 -24 -113 -67 -152s-98 -59 -165 -58c-61 1 -112 22 -154 63s-66 96 -71 164
c-16 204 18 456 254 449c88 -4 154 -35 197 -127l-113 -48c-19 40 -49 60 -88 60c-45 0 -78 -20 -100 -60c-21 -39 -30 -87 -27 -143c13 37 68 74 132 74z" />
    <glyph glyph-name="seven.tnum" horiz-adv-x="580" 
d="M67 539v115h479l-313 -654h-140l259 539h-285z" />
    <glyph glyph-name="eight.tnum" horiz-adv-x="580" 
d="M216 484c0 -40 30 -71 75 -71c44 0 72 32 72 71c0 37 -30 68 -73 68c-44 0 -74 -32 -74 -68zM171 216c0 -30 12 -56 35 -78c23 -21 51 -32 84 -32c32 0 60 11 83 32c23 22 35 48 35 78c0 29 -11 54 -33 75c-22 22 -48 33 -78 33h-18c-30 0 -56 -11 -77 -33
s-31 -47 -31 -75zM97 488c0 49 19 91 56 126s83 52 137 52c53 0 99 -17 136 -52c38 -35 57 -77 57 -126c0 -44 -16 -81 -49 -112c60 -35 96 -95 96 -164c0 -61 -23 -114 -70 -157s-103 -65 -170 -65s-124 22 -171 65s-70 96 -70 157c0 71 36 129 96 164
c-32 31 -48 68 -48 112z" />
    <glyph glyph-name="nine.tnum" horiz-adv-x="580" 
d="M383 445c0 56 -43 101 -98 102s-99 -43 -100 -98s41 -100 96 -101c27 -1 51 8 71 27s30 43 31 70zM260 234c-54 0 -101 20 -142 61c-40 41 -60 94 -59 161c1 62 23 112 66 151s98 59 165 58c61 -1 113 -22 154 -63c42 -41 66 -95 72 -163c16 -203 -18 -458 -254 -449
c-88 4 -154 35 -197 127l113 48c19 -40 49 -60 88 -60c45 0 78 20 99 59c22 39 31 87 28 144c-13 -37 -68 -74 -133 -74z" />
    <glyph glyph-name="zero.taboldstyle" horiz-adv-x="580" 
d="M290 -9c-68 0 -127 24 -177 73c-49 49 -74 112 -74 189c0 78 25 141 74 189c49 49 108 73 177 73c70 0 129 -24 178 -73c49 -48 74 -111 74 -189c0 -77 -25 -140 -74 -189s-109 -73 -178 -73zM290 107c37 0 68 14 95 41s41 62 41 105s-13 78 -40 105s-59 40 -96 40
s-68 -13 -95 -40c-26 -27 -39 -62 -39 -105s13 -78 40 -105s58 -41 94 -41z" />
    <glyph glyph-name="one.taboldstyle" horiz-adv-x="580" 
d="M141 393l259 124v-517h-123v334l-136 -61v120z" />
    <glyph glyph-name="two.taboldstyle" horiz-adv-x="580" 
d="M485 111v-111h-400v66l235 240c23 21 34 39 34 54c0 27 -26 49 -66 49c-41 0 -71 -23 -76 -64l-119 16c12 99 86 163 197 163c57 0 103 -16 140 -47s56 -68 56 -112c0 -43 -23 -88 -70 -133l-128 -121h197z" />
    <glyph glyph-name="six.taboldstyle" horiz-adv-x="580" 
d="M396 207c1 55 -41 100 -96 101c-27 1 -51 -9 -71 -28s-30 -43 -31 -70c0 -56 43 -101 98 -101c55 -1 99 42 100 98zM320 422c55 0 102 -20 142 -61c41 -41 61 -94 60 -161c-1 -62 -24 -113 -67 -152s-98 -59 -165 -58c-61 1 -112 22 -154 63s-66 96 -71 164
c-16 204 18 456 254 449c88 -4 154 -35 197 -127l-113 -48c-19 40 -49 60 -88 60c-45 0 -78 -20 -100 -60c-21 -39 -30 -87 -27 -143c13 37 68 74 132 74z" />
    <glyph glyph-name="eight.taboldstyle" horiz-adv-x="580" 
d="M216 484c0 -40 30 -71 75 -71c44 0 72 32 72 71c0 37 -30 68 -73 68c-44 0 -74 -32 -74 -68zM171 216c0 -30 12 -56 35 -78c23 -21 51 -32 84 -32c32 0 60 11 83 32c23 22 35 48 35 78c0 29 -11 54 -33 75c-22 22 -48 33 -78 33h-18c-30 0 -56 -11 -77 -33
s-31 -47 -31 -75zM97 488c0 49 19 91 56 126s83 52 137 52c53 0 99 -17 136 -52c38 -35 57 -77 57 -126c0 -44 -16 -81 -49 -112c60 -35 96 -95 96 -164c0 -61 -23 -114 -70 -157s-103 -65 -170 -65s-124 22 -171 65s-70 96 -70 157c0 71 36 129 96 164
c-32 31 -48 68 -48 112z" />
    <glyph glyph-name="three.taboldstyle" horiz-adv-x="580" 
d="M277 102h-70v109h70c27 -1 46 7 57 24s17 33 17 48c0 32 -17 66 -58 74c-42 5 -76 -8 -101 -40l-96 63c37 63 114 102 198 97c55 -3 101 -22 136 -57s53 -77 53 -126c0 -52 -32 -100 -81 -128c34 -13 61 -37 82 -72s30 -71 27 -106c-6 -59 -33 -105 -82 -140
s-105 -51 -170 -46c-89 5 -167 61 -203 138c3 1 21 10 53 27l54 27c20 -41 63 -73 106 -73c63 0 110 41 110 97c0 17 -14 87 -102 84z" />
    <glyph glyph-name="four.taboldstyle" horiz-adv-x="580" 
d="M337 288l-145 -227h145v227zM547 61v-107h-87v-142h-123v142h-323l326 512h120v-405h87z" />
    <glyph glyph-name="five.taboldstyle" horiz-adv-x="580" 
d="M410 36c0 73 -51 113 -126 113c-60 0 -110 -22 -150 -65l-70 42l55 340h372v-113h-274l-23 -134c28 24 68 36 121 36c62 0 114 -19 155 -58s62 -92 62 -161s-24 -126 -72 -169c-47 -43 -110 -65 -189 -65c-91 0 -180 55 -227 138l52 32l52 32c25 -48 74 -80 123 -80
c85 0 139 49 139 112z" />
    <glyph glyph-name="seven.taboldstyle" horiz-adv-x="580" 
d="M68 351v115h479l-314 -654h-140l259 539h-284z" />
    <glyph glyph-name="nine.taboldstyle" horiz-adv-x="580" 
d="M386 257c0 56 -43 101 -98 102s-99 -43 -100 -98s41 -100 96 -101c27 -1 51 8 71 27s30 43 31 70zM263 46c-54 0 -101 20 -142 61c-40 41 -60 94 -59 161c1 62 23 112 66 151s98 59 165 58c61 -1 113 -22 154 -63c42 -41 66 -95 72 -163c16 -203 -18 -458 -254 -449
c-88 4 -154 35 -197 127l113 48c19 -40 49 -60 88 -60c45 0 78 20 99 59c22 39 31 87 28 144c-13 -37 -68 -74 -133 -74z" />
    <glyph glyph-name="zero.oldstyle" horiz-adv-x="600" 
d="M299 -9c-68 0 -127 24 -177 73c-49 49 -74 112 -74 189c0 78 25 141 74 189c49 49 108 73 177 73c70 0 129 -24 178 -73c49 -48 74 -111 74 -189c0 -77 -25 -140 -74 -189s-109 -73 -178 -73zM299 107c37 0 68 14 95 41s41 62 41 105s-14 78 -41 105s-58 40 -95 40
s-68 -13 -95 -40c-26 -27 -39 -62 -39 -105s13 -78 40 -105s58 -41 94 -41z" />
    <glyph glyph-name="one.oldstyle" horiz-adv-x="379" 
d="M41 393l259 124v-517h-122v334l-137 -61v120z" />
    <glyph glyph-name="two.oldstyle" horiz-adv-x="522" 
d="M457 111v-111h-400v66l235 240c22 21 33 39 33 54c0 27 -25 49 -65 49c-41 0 -71 -23 -76 -64l-119 16c11 99 85 163 197 163c57 0 103 -16 140 -47s55 -68 55 -112c0 -45 -23 -89 -70 -133l-128 -121h198z" />
    <glyph glyph-name="three.oldstyle" horiz-adv-x="527" 
d="M251 102h-70v109h70c27 -1 46 7 57 24s17 33 17 48c0 32 -17 66 -58 74c-42 5 -76 -8 -101 -40l-96 63c37 63 114 102 198 97c55 -3 101 -22 136 -57s53 -77 53 -126c0 -52 -32 -100 -81 -128c34 -13 61 -37 82 -72s30 -71 27 -106c-6 -59 -33 -105 -82 -140
s-105 -51 -170 -46c-89 5 -167 61 -203 138c3 1 21 10 53 27l54 27c20 -41 63 -73 106 -73c63 0 110 41 110 97c0 17 -14 87 -102 84z" />
    <glyph glyph-name="four.oldstyle" horiz-adv-x="586" 
d="M340 288l-145 -227h145v227zM550 61v-107h-87v-142h-123v142h-322l325 512h120v-405h87z" />
    <glyph glyph-name="five.oldstyle" 
d="M405 35c0 73 -53 114 -126 114c-60 0 -110 -22 -151 -66l-69 42l55 341h371v-114h-273l-24 -133c30 23 70 35 121 35c62 0 114 -19 155 -58s62 -92 62 -161s-24 -125 -72 -168c-47 -43 -110 -65 -189 -65c-91 0 -180 55 -227 138c4 2 22 13 53 33l51 31
c25 -49 75 -81 123 -81c85 0 140 49 140 112z" />
    <glyph glyph-name="six.oldstyle" horiz-adv-x="573" 
d="M393 207c1 55 -41 100 -96 101c-27 1 -51 -9 -71 -28s-30 -43 -31 -70c0 -56 43 -101 98 -101c55 -1 99 42 100 98zM317 422c55 0 102 -20 142 -61c41 -41 61 -94 60 -161c-1 -62 -24 -113 -67 -152s-98 -59 -165 -58c-61 1 -112 22 -154 63s-66 96 -71 164
c-16 204 18 456 254 449c88 -4 154 -35 197 -127l-113 -48c-19 40 -49 60 -88 60c-45 0 -78 -20 -100 -60c-21 -39 -30 -87 -27 -143c13 37 68 74 132 74z" />
    <glyph glyph-name="seven.oldstyle" horiz-adv-x="518" 
d="M37 351v115h479l-313 -654h-140l259 539h-285z" />
    <glyph glyph-name="eight.oldstyle" horiz-adv-x="584" 
d="M218 484c0 -40 30 -71 75 -71c44 0 72 32 72 71c0 37 -30 68 -73 68c-44 0 -74 -32 -74 -68zM173 216c0 -30 12 -56 35 -78c23 -21 51 -32 84 -32c32 0 60 11 83 32c23 22 35 48 35 78c0 29 -11 54 -33 75c-22 22 -48 33 -78 33h-18c-30 0 -56 -11 -77 -33
s-31 -47 -31 -75zM99 488c0 49 19 91 56 126s83 52 137 52c53 0 99 -17 136 -52c38 -35 57 -77 57 -126c0 -44 -16 -81 -49 -112c60 -35 96 -95 96 -164c0 -61 -23 -114 -70 -157s-103 -65 -170 -65s-124 22 -171 65s-70 96 -70 157c0 71 36 129 96 164
c-32 31 -48 68 -48 112z" />
    <glyph glyph-name="nine.oldstyle" horiz-adv-x="554" 
d="M373 257c0 56 -43 101 -98 102s-99 -43 -100 -98s41 -100 96 -101c27 -1 51 8 71 27s30 43 31 70zM250 46c-54 0 -101 20 -142 61c-40 41 -60 94 -59 161c1 62 23 112 66 151s98 59 165 58c61 -1 113 -22 154 -63c42 -41 66 -95 72 -163c16 -203 -18 -458 -254 -449
c-88 4 -154 35 -197 127l113 48c19 -40 49 -60 88 -60c45 0 78 20 99 59c22 39 31 87 28 144c-13 -37 -68 -74 -133 -74z" />
    <glyph glyph-name="Lslash.sc" horiz-adv-x="434" 
d="M199 572v-178l79 50v-73l-79 -50v-219h218v-102h-330v251l-58 -35v73l58 36v247h112z" />
    <glyph glyph-name="Zcaron.sc" horiz-adv-x="514" 
d="M197 769l62 -70l63 70h84l-94 -139h-105l-94 139h84zM47 0v87l271 385h-259v100h403v-86l-272 -385h272v-101h-415z" />
    <glyph glyph-name="exclam.sc" horiz-adv-x="290" 
d="M194 166h-97l-16 404h129zM212 55c0 -37 -31 -65 -68 -65c-39 0 -69 28 -69 65c0 39 30 66 69 66c37 0 68 -27 68 -66z" />
    <glyph glyph-name="ampersand.sc" horiz-adv-x="584" 
d="M259 349h97v67h100v-68h68v-86h-68v-91c0 -64 16 -85 80 -85v-95c-85 1 -133 16 -154 63c-25 -40 -84 -64 -136 -64c-56 0 -103 16 -140 49s-55 75 -55 126c0 71 29 120 86 147c-37 19 -55 55 -55 108c0 41 16 77 47 108c32 32 70 48 115 48c67 0 120 -27 157 -80
l-89 -56c-17 21 -35 32 -56 32c-39 0 -62 -26 -62 -58c0 -13 5 -27 14 -42c10 -15 27 -23 51 -23zM356 214v48h-83c-71 0 -106 -32 -110 -79c-1 -52 39 -89 94 -89c56 0 99 45 99 120z" />
    <glyph glyph-name="question.sc" horiz-adv-x="427" 
d="M142 406h-103c0 107 70 174 173 174c51 0 92 -15 125 -45c33 -29 49 -69 49 -118c0 -79 -47 -138 -115 -159c-15 -4 -25 -10 -32 -18s-11 -16 -12 -25l-4 -50h-104c0 7 -1 23 -1 31c0 85 31 129 104 156c43 16 58 34 58 65c0 32 -31 56 -68 56c-39 0 -69 -27 -70 -67z
M104 55c0 39 31 66 68 66c39 0 69 -27 69 -66c0 -37 -30 -65 -69 -65c-37 0 -68 28 -68 65z" />
    <glyph glyph-name="A.sc" horiz-adv-x="570" 
d="M284 439l-66 -204h134zM558 0h-118l-51 137h-207l-52 -137h-118l214 572h118z" />
    <glyph glyph-name="B.sc" horiz-adv-x="551" 
d="M473 415c0 -52 -23 -88 -69 -109c63 -19 99 -78 99 -133c0 -49 -16 -90 -49 -123s-76 -50 -130 -50h-242v572h225c103 0 166 -60 166 -157zM193 472v-126h106c35 0 58 27 58 64c0 39 -22 62 -61 62h-103zM316 250h-123v-150h125c41 0 69 36 69 76c0 37 -28 74 -71 74z
" />
    <glyph glyph-name="C.sc" horiz-adv-x="600" 
d="M482 174l89 -65c-52 -73 -138 -119 -234 -119c-81 0 -150 28 -206 85s-84 127 -84 208c0 82 28 152 83 209c56 57 125 86 207 86c96 0 173 -39 232 -116l-89 -64c-39 49 -86 74 -143 74c-51 0 -93 -18 -127 -55s-51 -81 -51 -134c0 -52 17 -96 51 -133
c34 -36 76 -54 127 -54c60 0 108 26 145 78z" />
    <glyph glyph-name="D.sc" horiz-adv-x="614" 
d="M306 0h-224v572h224c81 0 144 -27 190 -81c46 -53 69 -122 69 -207c0 -83 -23 -152 -69 -205s-109 -79 -190 -79zM193 470v-368h113c93 0 147 78 147 182c0 108 -52 186 -147 186h-113z" />
    <glyph glyph-name="E.sc" horiz-adv-x="499" 
d="M82 0v572h356v-100h-246v-140h216v-100h-216v-132h253v-100h-363z" />
    <glyph glyph-name="F.sc" horiz-adv-x="466" 
d="M82 0v572h352v-100h-241v-140h191v-100h-191v-232h-111z" />
    <glyph glyph-name="G.sc" horiz-adv-x="648" 
d="M547 488l-80 -71h-2c-34 37 -76 56 -127 56c-50 0 -93 -19 -128 -56s-52 -81 -52 -134c0 -52 17 -97 52 -134s78 -55 128 -55c38 0 72 10 102 30c30 21 46 47 47 80h-155v93h282c0 -204 -105 -307 -276 -307c-81 0 -150 29 -207 86s-85 126 -85 207c0 82 28 152 84 209
c57 57 126 86 208 86c85 0 154 -30 209 -90z" />
    <glyph glyph-name="H.sc" horiz-adv-x="607" 
d="M413 572h112v-572h-112v234h-221v-234h-110v572h110v-237h221v237z" />
    <glyph glyph-name="I.sc" horiz-adv-x="274" 
d="M82 0v572h110v-572h-110z" />
    <glyph glyph-name="J.sc" horiz-adv-x="275" 
d="M-71 -185l10 102c17 -6 40 -9 69 -9c51 0 74 35 74 86v578h111v-578c0 -115 -58 -192 -185 -192c-22 0 -48 4 -79 13z" />
    <glyph glyph-name="K.sc" horiz-adv-x="522" 
d="M473 572l-218 -284l269 -288h-145l-185 205v-205h-112v572h112v-199l148 199h131z" />
    <glyph glyph-name="L.sc" horiz-adv-x="428" 
d="M82 0v572h111v-472h218v-100h-329z" />
    <glyph glyph-name="M.sc" horiz-adv-x="784" 
d="M213 572l178 -378l179 378h95l69 -572h-111l-43 361l-143 -297h-88l-145 297l-44 -361h-111l70 572h94z" />
    <glyph glyph-name="N.sc" horiz-adv-x="589" 
d="M507 572v-572h-101l-214 364v-364h-110v572h102l211 -358v358h112z" />
    <glyph glyph-name="O.sc" horiz-adv-x="674" 
d="M47 283c0 82 28 152 84 209s124 86 205 86c82 0 151 -29 207 -86c57 -57 85 -127 85 -209c0 -81 -28 -150 -85 -207s-126 -86 -207 -86s-149 29 -205 86s-84 126 -84 207zM158 283c0 -51 17 -94 51 -130c35 -35 77 -53 127 -53c51 0 93 18 128 53c35 36 53 79 53 130
s-18 95 -53 131s-77 54 -128 54c-50 0 -92 -18 -127 -54c-34 -36 -51 -80 -51 -131z" />
    <glyph glyph-name="P.sc" horiz-adv-x="530" 
d="M82 0v572h233c60 0 106 -18 137 -55c31 -36 47 -80 47 -131s-16 -95 -47 -131c-31 -35 -77 -53 -137 -53h-122v-202h-111zM313 472h-120v-171h116c104 -4 101 174 4 171z" />
    <glyph glyph-name="Q.sc" horiz-adv-x="677" 
d="M505 43l56 -92l-82 -51l-62 101c-26 -7 -52 -11 -79 -11c-81 0 -150 29 -207 86s-85 126 -85 207c0 82 28 152 84 209c57 57 126 86 208 86s151 -29 208 -86s85 -127 85 -209c0 -96 -49 -185 -126 -240zM307 180l82 50l58 -94c43 33 72 90 72 147c0 53 -18 97 -53 134
s-77 55 -128 55s-93 -18 -128 -55s-52 -81 -52 -134c0 -48 15 -89 46 -123c31 -33 71 -53 119 -60h34l-32 51z" />
    <glyph glyph-name="R.sc" horiz-adv-x="549" 
d="M354 206l146 -206h-135l-134 202h-38v-202h-111v572h230c59 0 105 -18 137 -55s48 -80 48 -131c0 -87 -50 -161 -143 -180zM307 472h-114v-171h110c103 -4 101 174 4 171z" />
    <glyph glyph-name="S.sc" horiz-adv-x="503" 
d="M49 170h112c1 -44 38 -79 94 -79c53 0 88 26 91 65c3 36 -23 61 -76 74l-70 20c-97 26 -145 79 -145 160c0 49 19 90 56 121c38 31 84 47 138 47c112 0 191 -68 191 -176h-110c0 44 -33 74 -82 74c-45 0 -82 -27 -82 -64c0 -29 22 -50 66 -62l69 -20
c113 -31 161 -100 157 -177c-3 -50 -24 -90 -63 -119s-85 -44 -140 -44c-61 0 -110 17 -149 52c-38 35 -57 77 -57 128z" />
    <glyph glyph-name="T.sc" horiz-adv-x="477" 
d="M23 471v101h431v-101h-159v-471h-113v471h-159z" />
    <glyph glyph-name="U.sc" horiz-adv-x="588" 
d="M401 201v371h111v-371c0 -62 -21 -113 -64 -152s-94 -59 -154 -59s-111 20 -154 59s-64 90 -64 152v371h113v-371c0 -61 48 -105 105 -105s107 44 107 105z" />
    <glyph glyph-name="V.sc" horiz-adv-x="505" 
d="M28 572h116l108 -384l108 384h117l-174 -572h-100z" />
    <glyph glyph-name="W.sc" horiz-adv-x="770" 
d="M513 194l120 378h120l-195 -572h-89l-84 308l-84 -308h-89l-194 572h120l119 -379l84 301h89z" />
    <glyph glyph-name="X.sc" horiz-adv-x="564" 
d="M527 572l-180 -266l200 -306h-132l-134 213l-132 -213h-132l198 306l-179 266h134l111 -176l114 176h132z" />
    <glyph glyph-name="Y.sc" horiz-adv-x="572" 
d="M342 260v-260h-113v260l-220 312h132l144 -215l145 215h135z" />
    <glyph glyph-name="Z.sc" horiz-adv-x="514" 
d="M47 0v87l271 385h-259v100h403v-86l-272 -385h272v-101h-415z" />
    <glyph glyph-name="Scaron.sc" horiz-adv-x="503" 
d="M185 769l63 -70l63 70h84l-95 -139h-105l-93 139h83zM161 170c1 -44 38 -79 94 -79c53 0 88 26 91 65c3 36 -23 61 -76 74l-70 20c-97 26 -145 79 -145 160c0 49 19 90 56 121c38 31 84 47 138 47c112 0 191 -68 191 -176h-110c0 44 -33 74 -82 74c-45 0 -82 -27 -82 -64
c0 -29 22 -50 66 -62l69 -20c113 -31 161 -100 157 -177c-3 -50 -24 -90 -63 -119s-85 -44 -140 -44c-61 0 -110 17 -149 52c-38 35 -57 77 -57 128h112z" />
    <glyph glyph-name="OE.sc" horiz-adv-x="933" 
d="M515 506v66h357v-101h-245v-139h214v-101h-214v-129h252v-102h-364v61c-52 -47 -112 -71 -179 -71c-81 0 -150 29 -206 86s-84 126 -84 207c0 82 28 152 84 209s125 86 206 86c71 0 131 -24 179 -72zM157 283c0 -50 17 -93 52 -129c35 -35 77 -53 127 -53s92 18 127 55
s52 80 52 130c-1 49 -19 92 -54 127c-35 36 -76 54 -125 54c-50 0 -92 -18 -127 -54c-35 -35 -52 -79 -52 -130z" />
    <glyph glyph-name="Ydieresis.sc" horiz-adv-x="572" 
d="M268 708c0 -33 -25 -57 -58 -57s-60 25 -60 57s27 56 60 56s58 -24 58 -56zM353 764c33 0 59 -24 59 -56c0 -33 -26 -57 -59 -57c-32 0 -59 25 -59 57s27 56 59 56zM342 260v-260h-113v260l-220 312h132l144 -215l145 215h135z" />
    <glyph glyph-name="exclamdown.sc" horiz-adv-x="290" 
d="M97 404h97l16 -404h-129zM212 515c0 -39 -31 -66 -68 -66c-39 0 -69 27 -69 66c0 37 30 65 69 65c37 0 68 -28 68 -65z" />
    <glyph glyph-name="questiondown.sc" horiz-adv-x="427" 
d="M285 164h103c0 -107 -70 -174 -173 -174c-51 0 -92 15 -125 44c-33 30 -49 70 -49 119c0 79 47 138 115 159c15 4 25 10 32 18s10 16 11 24l5 51h104c0 -7 1 -23 1 -31c0 -85 -31 -129 -104 -156c-43 -16 -58 -34 -58 -65c0 -32 32 -56 68 -56c39 0 69 27 70 67zM323 515
c0 -39 -31 -66 -68 -66c-39 0 -69 27 -69 66c0 37 30 65 69 65c37 0 68 -28 68 -65z" />
    <glyph glyph-name="Agrave.sc" horiz-adv-x="570" 
d="M334 631h-85l-118 139h113zM284 439l-66 -204h134zM558 0h-118l-51 137h-207l-52 -137h-118l214 572h118z" />
    <glyph glyph-name="Aacute.sc" horiz-adv-x="570" 
d="M327 768h112l-117 -140h-86zM352 235l-68 204l-66 -204h134zM389 137h-207l-52 -137h-118l214 572h118l214 -572h-118z" />
    <glyph glyph-name="Acircumflex.sc" horiz-adv-x="570" 
d="M428 632h-85l-62 71l-63 -71h-83l94 140h104zM284 439l-66 -204h134zM558 0h-118l-51 137h-207l-52 -137h-118l214 572h118z" />
    <glyph glyph-name="Atilde.sc" horiz-adv-x="570" 
d="M245 682c-8 0 -18 -12 -18 -35h-64c4 68 35 102 72 107c12 1 26 -4 43 -15s30 -17 39 -17c8 0 18 10 19 33h64c-4 -75 -42 -107 -83 -107c-11 0 -24 6 -39 17s-26 17 -33 17zM284 439l-66 -204h134zM558 0h-118l-51 137h-207l-52 -137h-118l214 572h118z" />
    <glyph glyph-name="Adieresis.sc" horiz-adv-x="570" 
d="M204 764c32 0 58 -24 58 -56s-26 -57 -58 -57c-33 0 -61 25 -61 57s28 56 61 56zM406 708c0 -33 -26 -57 -59 -57s-60 25 -60 57s27 56 60 56s59 -24 59 -56zM352 235l-68 204l-66 -204h134zM389 137h-207l-52 -137h-118l214 572h118l214 -572h-118z" />
    <glyph glyph-name="Aring.sc" horiz-adv-x="570" 
d="M183 724c0 56 42 99 97 99c56 0 99 -43 99 -99c0 -55 -43 -97 -99 -97c-55 0 -97 42 -97 97zM280 683c24 0 44 18 44 41s-20 43 -44 43c-21 0 -41 -20 -41 -43s18 -41 41 -41zM352 235l-68 204l-66 -204h134zM389 137h-207l-52 -137h-118l214 572h118l214 -572h-118z" />
    <glyph glyph-name="AE.sc" horiz-adv-x="802" 
d="M385 134h-164l-86 -134h-133l362 572h377v-101h-245v-139h214v-101h-214v-129h253v-102h-364v134zM385 415l-100 -173h100v173z" />
    <glyph glyph-name="Ccedilla.sc" horiz-adv-x="601" 
d="M285 -96c4 -13 19 -20 32 -15s17 17 12 34l-26 70c-74 8 -135 40 -184 95c-48 55 -72 121 -72 196c0 82 28 152 83 209c56 57 125 86 207 86c96 0 173 -39 232 -116l-89 -64c-37 49 -85 74 -143 74c-51 0 -93 -18 -127 -55s-51 -81 -51 -134c0 -51 17 -95 51 -132
c34 -36 76 -54 127 -54c61 0 109 26 145 77l89 -65c-51 -70 -120 -109 -207 -117c3 -7 18 -34 21 -42c4 -9 10 -27 10 -40c0 -47 -39 -87 -90 -87c-48 0 -88 42 -87 105l65 -3c0 -10 1 -17 2 -22z" />
    <glyph glyph-name="Egrave.sc" horiz-adv-x="499" 
d="M82 0v572h356v-100h-246v-140h216v-100h-216v-132h253v-100h-363zM327 631h-86l-119 139h114z" />
    <glyph glyph-name="Eacute.sc" horiz-adv-x="499" 
d="M274 770h114l-119 -139h-85zM438 572v-100h-246v-140h216v-100h-216v-132h253v-100h-363v572h356z" />
    <glyph glyph-name="Ecircumflex.sc" horiz-adv-x="499" 
d="M82 0v572h356v-100h-246v-140h216v-100h-216v-132h253v-100h-363zM393 632h-83l-63 71l-63 -71h-83l93 140h105z" />
    <glyph glyph-name="Edieresis.sc" horiz-adv-x="499" 
d="M117 708c0 32 26 56 61 56c32 0 58 -24 58 -56s-26 -57 -58 -57c-35 0 -61 24 -61 57zM260 708c0 32 26 56 61 56c32 0 58 -24 58 -56s-26 -57 -58 -57c-35 0 -61 24 -61 57zM438 572v-100h-246v-140h216v-100h-216v-132h253v-100h-363v572h356z" />
    <glyph glyph-name="Igrave.sc" horiz-adv-x="274" 
d="M82 0v572h110v-572h-110zM190 631h-86l-119 139h114z" />
    <glyph glyph-name="Iacute.sc" horiz-adv-x="274" 
d="M80 640l94 133h115l-121 -133h-88zM192 572v-572h-110v572h110z" />
    <glyph glyph-name="Icircumflex.sc" horiz-adv-x="274" 
d="M82 0v572h110v-572h-110zM284 632h-83l-63 71l-63 -71h-83l93 140h105z" />
    <glyph glyph-name="Idieresis.sc" horiz-adv-x="274" 
d="M192 572v-572h-110v572h110zM7 708c0 32 26 56 61 56c32 0 58 -24 58 -56s-26 -57 -58 -57c-35 0 -61 24 -61 57zM150 708c0 32 26 56 61 56c32 0 58 -24 58 -56s-26 -57 -58 -57c-35 0 -61 24 -61 57z" />
    <glyph glyph-name="Eth.sc" horiz-adv-x="620" 
d="M313 0h-223v244h-77v72h77v256h223c80 0 143 -27 188 -81c46 -53 69 -122 69 -207c0 -83 -23 -152 -69 -205c-45 -53 -108 -79 -188 -79zM201 468v-152h113v-72h-113v-140h112c93 0 146 76 146 180c0 107 -53 184 -146 184h-112z" />
    <glyph glyph-name="Ntilde.sc" horiz-adv-x="589" 
d="M507 572v-572h-101l-214 364v-364h-110v572h102l211 -358v358h112zM258 682c-8 0 -18 -12 -18 -35h-65c4 75 42 108 83 108c11 0 24 -6 39 -17s26 -16 33 -16c5 0 18 7 18 33h64c-3 -75 -42 -107 -82 -107c-11 0 -24 6 -39 17s-26 17 -33 17z" />
    <glyph glyph-name="Ograve.sc" horiz-adv-x="674" 
d="M369 631h-85l-119 139h113zM47 283c0 82 28 152 84 209s124 86 205 86c82 0 151 -29 207 -86c57 -57 85 -127 85 -209c0 -81 -28 -150 -85 -207s-126 -86 -207 -86s-149 29 -205 86s-84 126 -84 207zM158 283c0 -51 17 -94 51 -130c35 -35 77 -53 127 -53
c51 0 93 18 128 53c35 36 53 79 53 130s-18 95 -53 131s-77 54 -128 54c-50 0 -92 -18 -127 -54c-34 -36 -51 -80 -51 -131z" />
    <glyph glyph-name="Oacute.sc" horiz-adv-x="674" 
d="M384 770h114l-119 -139h-85zM47 283c0 82 28 152 84 209s124 86 205 86c82 0 151 -29 207 -86c57 -57 85 -127 85 -209c0 -81 -28 -150 -85 -207s-126 -86 -207 -86s-149 29 -205 86s-84 126 -84 207zM158 283c0 -51 17 -94 51 -130c35 -35 77 -53 127 -53
c51 0 93 18 128 53c35 36 53 79 53 130s-18 95 -53 131s-77 54 -128 54c-50 0 -92 -18 -127 -54c-34 -36 -51 -80 -51 -131z" />
    <glyph glyph-name="Ocircumflex.sc" horiz-adv-x="674" 
d="M483 632h-83l-64 72l-61 -72h-84l94 140h104zM47 283c0 82 28 152 84 209s124 86 205 86c82 0 151 -29 207 -86c57 -57 85 -127 85 -209c0 -81 -28 -150 -85 -207s-126 -86 -207 -86s-149 29 -205 86s-84 126 -84 207zM158 283c0 -51 17 -94 51 -130
c35 -35 77 -53 127 -53c51 0 93 18 128 53c35 36 53 79 53 130s-18 95 -53 131s-77 54 -128 54c-50 0 -92 -18 -127 -54c-34 -36 -51 -80 -51 -131z" />
    <glyph glyph-name="Otilde.sc" horiz-adv-x="674" 
d="M47 283c0 82 28 152 84 209s124 86 205 86c82 0 151 -29 207 -86c57 -57 85 -127 85 -209c0 -81 -28 -150 -85 -207s-126 -86 -207 -86s-149 29 -205 86s-84 126 -84 207zM158 283c0 -51 17 -94 51 -130c35 -35 77 -53 127 -53c51 0 93 18 128 53c35 36 53 79 53 130
s-18 95 -53 131s-77 54 -128 54c-50 0 -92 -18 -127 -54c-34 -36 -51 -80 -51 -131zM301 682c-8 0 -18 -12 -18 -35h-64c4 75 41 108 82 108c12 0 25 -6 40 -17s25 -16 32 -16c8 0 18 10 19 33h63c-3 -75 -41 -107 -82 -107c-10 0 -23 6 -38 17s-27 17 -34 17z" />
    <glyph glyph-name="Odieresis.sc" horiz-adv-x="674" 
d="M266 764c32 0 58 -24 58 -56s-26 -57 -58 -57c-33 0 -60 25 -60 57s27 56 60 56zM350 708c0 32 26 56 59 56s59 -24 59 -56c0 -33 -26 -57 -59 -57s-59 24 -59 57zM47 283c0 82 28 152 84 209s124 86 205 86c82 0 151 -29 207 -86c57 -57 85 -127 85 -209
c0 -81 -28 -150 -85 -207s-126 -86 -207 -86s-149 29 -205 86s-84 126 -84 207zM158 283c0 -51 17 -94 51 -130c35 -35 77 -53 127 -53c51 0 93 18 128 53c35 36 53 79 53 130s-18 95 -53 131s-77 54 -128 54c-50 0 -92 -18 -127 -54c-34 -36 -51 -80 -51 -131z" />
    <glyph glyph-name="Oslash.sc" horiz-adv-x="673" 
d="M156 52l-66 -68l-42 43l65 68c-45 55 -67 118 -67 188c0 82 28 152 84 209s124 86 205 86c69 0 131 -22 184 -66l66 67l42 -42l-66 -67c44 -56 66 -118 66 -187c0 -81 -28 -150 -85 -207s-126 -86 -207 -86c-65 0 -124 21 -179 62zM157 283c0 -42 11 -78 34 -109l251 259
c-32 23 -68 35 -107 35c-50 0 -92 -18 -127 -54c-34 -36 -51 -80 -51 -131zM335 100c51 0 93 18 128 53c35 36 53 79 53 130c0 39 -11 75 -33 107l-250 -258c29 -21 63 -32 102 -32z" />
    <glyph glyph-name="Ugrave.sc" horiz-adv-x="588" 
d="M360 631h-85l-118 139h113zM401 201v371h111v-371c0 -62 -21 -113 -64 -152s-94 -59 -154 -59s-111 20 -154 59s-64 90 -64 152v371h113v-371c0 -61 48 -105 105 -105s107 44 107 105z" />
    <glyph glyph-name="Uacute.sc" horiz-adv-x="588" 
d="M316 770h112l-118 -139h-86zM401 201v371h111v-371c0 -62 -21 -113 -64 -152s-94 -59 -154 -59s-111 20 -154 59s-64 90 -64 152v371h113v-371c0 -61 48 -105 105 -105s107 44 107 105z" />
    <glyph glyph-name="Ucircumflex.sc" horiz-adv-x="588" 
d="M440 632h-84l-63 72l-62 -72h-84l94 140h104zM401 201v371h111v-371c0 -62 -21 -113 -64 -152s-94 -59 -154 -59s-111 20 -154 59s-64 90 -64 152v371h113v-371c0 -61 48 -105 105 -105s107 44 107 105z" />
    <glyph glyph-name="Udieresis.sc" horiz-adv-x="588" 
d="M223 764c32 0 57 -24 57 -56c0 -33 -25 -57 -57 -57c-33 0 -61 25 -61 57s28 56 61 56zM425 708c0 -33 -26 -57 -59 -57s-60 25 -60 57s27 56 60 56s59 -24 59 -56zM401 201v371h111v-371c0 -62 -21 -113 -64 -152s-94 -59 -154 -59s-111 20 -154 59s-64 90 -64 152v371
h113v-371c0 -61 48 -105 105 -105s107 44 107 105z" />
    <glyph glyph-name="Yacute.sc" horiz-adv-x="572" 
d="M342 260v-260h-113v260l-220 312h132l144 -215l145 215h135zM312 770h114l-119 -139h-85z" />
    <glyph glyph-name="Thorn.sc" horiz-adv-x="497" 
d="M282 108h-89v-108h-111v572h111v-95h89c53 0 96 -17 131 -51c35 -33 52 -78 52 -133s-17 -100 -52 -134s-78 -51 -131 -51zM193 380v-175h85c41 0 77 35 77 86c0 53 -35 86 -78 89h-84z" />
    <glyph glyph-name="Amacron.sc" horiz-adv-x="570" 
d="M168 664v74h227v-74h-227zM284 439l-66 -204h134zM558 0h-118l-51 137h-207l-52 -137h-118l214 572h118z" />
    <glyph glyph-name="Abreve.sc" horiz-adv-x="570" 
d="M169 753h73c0 -30 13 -45 39 -45c25 0 39 20 39 45h74c0 -68 -46 -112 -113 -112c-73 0 -112 49 -112 112zM352 235l-68 204l-66 -204h134zM389 137h-207l-52 -137h-118l214 572h118l214 -572h-118z" />
    <glyph glyph-name="Cacute.sc" horiz-adv-x="600" 
d="M371 770h113l-118 -139h-86zM571 109c-52 -73 -138 -119 -234 -119c-81 0 -150 28 -206 85s-84 127 -84 208c0 82 28 152 83 209c56 57 125 86 207 86c96 0 173 -39 232 -116l-89 -64c-39 49 -86 74 -143 74c-51 0 -93 -18 -127 -55s-51 -81 -51 -134
c0 -52 17 -96 51 -133c34 -36 76 -54 127 -54c60 0 108 26 145 78z" />
    <glyph glyph-name="Ccircumflex.sc" horiz-adv-x="600" 
d="M480 632h-83l-63 71l-63 -71h-83l94 140h104zM482 174l89 -65c-52 -73 -138 -119 -234 -119c-81 0 -150 28 -206 85s-84 127 -84 208c0 82 28 152 83 209c56 57 125 86 207 86c96 0 173 -39 232 -116l-89 -64c-39 49 -86 74 -143 74c-51 0 -93 -18 -127 -55
s-51 -81 -51 -134c0 -52 17 -96 51 -133c34 -36 76 -54 127 -54c60 0 108 26 145 78z" />
    <glyph glyph-name="Cdotaccent.sc" horiz-adv-x="600" 
d="M267 714c0 33 27 59 62 59s63 -26 63 -59c0 -35 -27 -60 -63 -60c-35 0 -62 25 -62 60zM571 109c-52 -73 -138 -119 -234 -119c-81 0 -150 28 -206 85s-84 127 -84 208c0 82 28 152 83 209c56 57 125 86 207 86c96 0 173 -39 232 -116l-89 -64c-39 49 -86 74 -143 74
c-51 0 -93 -18 -127 -55s-51 -81 -51 -134c0 -52 17 -96 51 -133c34 -36 76 -54 127 -54c60 0 108 26 145 78z" />
    <glyph glyph-name="Ccaron.sc" horiz-adv-x="600" 
d="M571 109c-52 -73 -138 -119 -234 -119c-81 0 -150 28 -206 85s-84 127 -84 208c0 82 28 152 83 209c56 57 125 86 207 86c96 0 173 -39 232 -116l-89 -64c-39 49 -86 74 -143 74c-51 0 -93 -18 -127 -55s-51 -81 -51 -134c0 -52 17 -96 51 -133c34 -36 76 -54 127 -54
c60 0 108 26 145 78zM278 769l63 -70l63 70h84l-95 -139h-105l-93 139h83z" />
    <glyph glyph-name="Dcaron.sc" horiz-adv-x="614" 
d="M242 769l62 -70l64 70h84l-95 -139h-105l-94 139h84zM82 0v572h224c81 0 144 -27 190 -81c46 -53 69 -122 69 -207c0 -83 -23 -152 -69 -205s-109 -79 -190 -79h-224zM306 102c93 0 147 78 147 182c0 108 -52 186 -147 186h-113v-368h113z" />
    <glyph glyph-name="Aogonek.sc" horiz-adv-x="570" 
d="M558 0h-64l-25 -77c-5 -18 -1 -29 13 -34c21 -9 37 18 33 37l64 3c1 -64 -38 -105 -87 -105c-51 0 -89 40 -89 87c0 12 3 23 8 38l8 16l20 38l-50 134h-207l-52 -137h-118l214 572h118zM353 235l-68 203l-67 -203h135z" />
    <glyph glyph-name="Emacron.sc" horiz-adv-x="499" 
d="M82 0v572h356v-100h-246v-140h216v-100h-216v-132h253v-100h-363zM139 664v74h226v-74h-226z" />
    <glyph glyph-name="Ebreve.sc" horiz-adv-x="499" 
d="M134 753h73c0 -30 13 -45 40 -45c25 0 38 20 38 45h74c0 -68 -44 -112 -112 -112c-72 0 -113 51 -113 112zM438 572v-100h-246v-140h216v-100h-216v-132h253v-100h-363v572h356z" />
    <glyph glyph-name="Edotaccent.sc" horiz-adv-x="499" 
d="M196 714c0 33 28 59 63 59s62 -26 62 -59c0 -35 -27 -60 -62 -60c-36 0 -63 25 -63 60zM438 572v-100h-246v-140h216v-100h-216v-132h253v-100h-363v572h356z" />
    <glyph glyph-name="Ecaron.sc" horiz-adv-x="499" 
d="M438 572v-100h-246v-140h216v-100h-216v-132h253v-100h-363v572h356zM186 769l63 -70l63 70h84l-95 -139h-105l-93 139h83z" />
    <glyph glyph-name="Gcircumflex.sc" horiz-adv-x="648" 
d="M547 488l-80 -71h-2c-34 37 -76 56 -127 56c-50 0 -93 -19 -128 -56s-52 -81 -52 -134c0 -52 17 -97 52 -134s78 -55 128 -55c38 0 72 10 102 30c30 21 46 47 47 80h-155v93h282c0 -204 -105 -307 -276 -307c-81 0 -150 29 -207 86s-85 126 -85 207c0 82 28 152 84 209
c57 57 126 86 208 86c85 0 154 -30 209 -90zM473 632h-84l-63 72l-62 -72h-84l94 140h104z" />
    <glyph glyph-name="Gbreve.sc" horiz-adv-x="648" 
d="M467 417h-2c-34 37 -76 56 -127 56c-50 0 -93 -19 -128 -56s-52 -81 -52 -134c0 -52 17 -97 52 -134s78 -55 128 -55c38 0 72 10 102 30c30 21 46 47 47 80h-155v93h282c0 -204 -105 -307 -276 -307c-81 0 -150 29 -207 86s-85 126 -85 207c0 82 28 152 84 209
c57 57 126 86 208 86c85 0 154 -30 209 -90zM214 753h73c0 -30 13 -45 40 -45c25 0 38 20 38 45h74c0 -68 -44 -112 -112 -112c-72 0 -113 51 -113 112z" />
    <glyph glyph-name="Eogonek.sc" horiz-adv-x="499" 
d="M357 -46l27 46h-302v572h356v-100h-246v-140h216v-100h-216v-132h253v-99l-29 -75c-7 -17 -3 -29 12 -34c11 -5 20 -2 27 9c7 10 9 19 6 28l65 3c1 -64 -38 -104 -87 -104c-51 0 -89 39 -89 87c0 17 2 30 7 39z" />
    <glyph glyph-name="Dcroat.sc" horiz-adv-x="620" 
d="M313 0h-223v243h-77v75h77v254h223c80 0 143 -27 188 -81c46 -53 69 -122 69 -207c0 -83 -23 -152 -69 -205c-45 -53 -108 -79 -188 -79zM201 468v-150h113v-75h-113v-139h112c93 0 146 76 146 180c0 107 -53 184 -146 184h-112z" />
    <glyph glyph-name="Gdotaccent.sc" horiz-adv-x="648" 
d="M467 417h-2c-34 37 -76 56 -127 56c-50 0 -93 -19 -128 -56s-52 -81 -52 -134c0 -52 17 -97 52 -134s78 -55 128 -55c38 0 72 10 102 30c30 21 46 47 47 80h-155v93h282c0 -204 -105 -307 -276 -307c-81 0 -150 29 -207 86s-85 126 -85 207c0 82 28 152 84 209
c57 57 126 86 208 86c85 0 154 -30 209 -90zM274 714c0 33 28 59 63 59s62 -26 62 -59c0 -35 -27 -60 -62 -60c-36 0 -63 25 -63 60z" />
    <glyph glyph-name="Hcircumflex.sc" horiz-adv-x="607" 
d="M413 572h112v-572h-112v234h-221v-234h-110v572h110v-237h221v237zM449 632h-83l-63 71l-62 -71h-84l94 140h104z" />
    <glyph glyph-name="Hbar.sc" horiz-adv-x="618" 
d="M531 572v-88h59v-61h-59v-423h-112v234h-221v-234h-111v423h-58v61h58v88h111v-88h221v88h112zM198 423v-88h221v88h-221z" />
    <glyph glyph-name="Itilde.sc" horiz-adv-x="274" 
d="M101 682c-8 0 -18 -12 -18 -35h-64c4 75 41 108 82 108c12 0 25 -6 39 -17c15 -11 26 -16 33 -16c8 0 18 10 19 33h64c-4 -75 -42 -107 -83 -107c-11 0 -24 6 -39 17s-26 17 -33 17zM82 0v572h110v-572h-110z" />
    <glyph glyph-name="Imacron.sc" horiz-adv-x="274" 
d="M82 0v572h110v-572h-110zM24 664v74h227v-74h-227z" />
    <glyph glyph-name="Iogonek.sc" horiz-adv-x="274" 
d="M53 -49l29 53v568h110v-572h-53l-27 -77c-5 -18 -1 -29 12 -34c21 -9 37 18 33 37l65 3c0 -64 -38 -105 -87 -105c-51 0 -90 40 -90 87c0 16 3 29 8 40z" />
    <glyph glyph-name="IJ.sc" horiz-adv-x="549" 
d="M82 0v572h110v-572h-110zM203 -185l10 102c17 -6 40 -9 69 -9c51 0 74 35 74 86v578h111v-578c0 -115 -58 -192 -185 -192c-23 0 -49 4 -79 13z" />
    <glyph glyph-name="Jcircumflex.sc" horiz-adv-x="275" 
d="M282 632h-84l-63 71l-62 -71h-84l94 140h104zM-71 -185l10 102c17 -6 40 -9 69 -9c51 0 74 35 74 86v578h111v-578c0 -115 -58 -192 -185 -192c-22 0 -48 4 -79 13z" />
    <glyph glyph-name="Lacute.sc" horiz-adv-x="428" 
d="M171 767h114l-118 -140h-85zM193 572v-472h218v-100h-329v572h111z" />
    <glyph glyph-name="Lcaron.sc" horiz-adv-x="434" 
d="M311 374l-68 20c29 40 46 82 51 125c3 14 4 31 4 52h93c-4 -93 -39 -164 -80 -197zM82 0v572h111v-472h218v-100h-329z" />
    <glyph glyph-name="Ldot.sc" horiz-adv-x="428" 
d="M82 0v572h111v-472h218v-100h-329zM253 243c0 29 26 54 58 54c31 0 57 -25 57 -54c0 -32 -25 -56 -57 -56s-58 24 -58 56z" />
    <glyph glyph-name="Nacute.sc" horiz-adv-x="589" 
d="M326 770h113l-119 -139h-85zM406 0l-214 364v-364h-110v572h102l211 -358v358h112v-572h-101z" />
    <glyph glyph-name="Ncaron.sc" horiz-adv-x="589" 
d="M227 769l63 -70l62 70h84l-94 -139h-105l-93 139h83zM406 0l-214 364v-364h-110v572h102l211 -358v358h112v-572h-101z" />
    <glyph glyph-name="Omacron.sc" horiz-adv-x="674" 
d="M223 664v74h227v-74h-227zM47 283c0 82 28 152 84 209s124 86 205 86c82 0 151 -29 207 -86c57 -57 85 -127 85 -209c0 -81 -28 -150 -85 -207s-126 -86 -207 -86s-149 29 -205 86s-84 126 -84 207zM158 283c0 -51 17 -94 51 -130c35 -35 77 -53 127 -53
c51 0 93 18 128 53c35 36 53 79 53 130s-18 95 -53 131s-77 54 -128 54c-50 0 -92 -18 -127 -54c-34 -36 -51 -80 -51 -131z" />
    <glyph glyph-name="Obreve.sc" horiz-adv-x="674" 
d="M224 753h73c0 -30 13 -45 39 -45c27 0 39 20 39 45h74c0 -68 -45 -112 -113 -112c-72 0 -112 49 -112 112zM47 283c0 82 28 152 84 209s124 86 205 86c82 0 151 -29 207 -86c57 -57 85 -127 85 -209c0 -81 -28 -150 -85 -207s-126 -86 -207 -86s-149 29 -205 86
s-84 126 -84 207zM158 283c0 -51 17 -94 51 -130c35 -35 77 -53 127 -53c51 0 93 18 128 53c35 36 53 79 53 130s-18 95 -53 131s-77 54 -128 54c-50 0 -92 -18 -127 -54c-34 -36 -51 -80 -51 -131z" />
    <glyph glyph-name="Ohungarumlaut.sc" horiz-adv-x="674" 
d="M318 769h94l-95 -139h-85zM445 769h95l-104 -139h-87zM47 283c0 82 28 152 84 209s124 86 205 86c82 0 151 -29 207 -86c57 -57 85 -127 85 -209c0 -81 -28 -150 -85 -207s-126 -86 -207 -86s-149 29 -205 86s-84 126 -84 207zM158 283c0 -51 17 -94 51 -130
c35 -35 77 -53 127 -53c51 0 93 18 128 53c35 36 53 79 53 130s-18 95 -53 131s-77 54 -128 54c-50 0 -92 -18 -127 -54c-34 -36 -51 -80 -51 -131z" />
    <glyph glyph-name="Racute.sc" horiz-adv-x="549" 
d="M282 770h113l-119 -139h-85zM500 0h-135l-134 202h-38v-202h-111v572h230c59 0 105 -18 137 -55s48 -80 48 -131c0 -87 -50 -161 -143 -180zM193 472v-171h110c103 -4 101 174 4 171h-114z" />
    <glyph glyph-name="Rcaron.sc" horiz-adv-x="549" 
d="M209 769l62 -70l63 70h84l-94 -139h-105l-95 139h85zM500 0h-135l-134 202h-38v-202h-111v572h230c59 0 105 -18 137 -55s48 -80 48 -131c0 -87 -50 -161 -143 -180zM193 472v-171h110c103 -4 101 174 4 171h-114z" />
    <glyph glyph-name="Sacute.sc" horiz-adv-x="503" 
d="M281 770h113l-118 -139h-86zM161 170c1 -44 38 -79 94 -79c53 0 88 26 91 65c3 36 -23 61 -76 74l-70 20c-97 26 -145 79 -145 160c0 49 19 90 56 121c38 31 84 47 138 47c112 0 191 -68 191 -176h-110c0 44 -33 74 -82 74c-45 0 -82 -27 -82 -64c0 -29 22 -50 66 -62
l69 -20c113 -31 161 -100 157 -177c-3 -50 -24 -90 -63 -119s-85 -44 -140 -44c-61 0 -110 17 -149 52c-38 35 -57 77 -57 128h112z" />
    <glyph glyph-name="Scircumflex.sc" horiz-adv-x="503" 
d="M397 632h-83l-63 71l-63 -71h-84l94 140h105zM49 170h112c1 -44 38 -79 94 -79c53 0 88 26 91 65c3 36 -23 61 -76 74l-70 20c-97 26 -145 79 -145 160c0 49 19 90 56 121c38 31 84 47 138 47c112 0 191 -68 191 -176h-110c0 44 -33 74 -82 74c-45 0 -82 -27 -82 -64
c0 -29 22 -50 66 -62l69 -20c113 -31 161 -100 157 -177c-3 -50 -24 -90 -63 -119s-85 -44 -140 -44c-61 0 -110 17 -149 52c-38 35 -57 77 -57 128z" />
    <glyph glyph-name="Scedilla.sc" horiz-adv-x="502" 
d="M298 -5c3 -7 18 -35 22 -43c4 -9 10 -28 10 -41c0 -47 -41 -87 -90 -87s-88 41 -87 105l65 -3c-5 -19 12 -46 33 -37c14 5 18 17 13 34l-27 69c-55 3 -100 22 -135 55c-35 34 -52 75 -52 124h111c1 -43 38 -80 94 -80c55 0 88 26 92 65c3 36 -23 59 -76 74l-70 19
c-97 26 -145 80 -145 161c0 49 19 90 56 121s83 47 137 47c55 0 101 -16 137 -48s54 -75 54 -128h-110c0 44 -31 73 -82 73c-45 0 -82 -26 -82 -63c0 -30 22 -51 66 -62l69 -21c108 -32 153 -95 156 -162c1 -46 -14 -85 -45 -116c-30 -31 -68 -49 -114 -56z" />
    <glyph glyph-name="Utilde.sc" horiz-adv-x="588" 
d="M294 96c57 0 107 44 107 105v371h111v-371c0 -62 -21 -113 -64 -152s-94 -59 -154 -59s-111 20 -154 59s-64 90 -64 152v371h113v-371c0 -60 49 -105 105 -105zM258 682c-8 0 -18 -12 -18 -35h-64c4 75 41 108 82 108c11 0 24 -6 38 -17c15 -11 26 -16 34 -16
s18 10 19 33h63c-3 -75 -41 -107 -82 -107c-11 0 -25 6 -40 17s-25 17 -32 17z" />
    <glyph glyph-name="Umacron.sc" horiz-adv-x="588" 
d="M180 664v74h228v-74h-228zM401 201v371h111v-371c0 -62 -21 -113 -64 -152s-94 -59 -154 -59s-111 20 -154 59s-64 90 -64 152v371h113v-371c0 -61 48 -105 105 -105s107 44 107 105z" />
    <glyph glyph-name="Ubreve.sc" horiz-adv-x="588" 
d="M182 753h72c0 -30 13 -45 39 -45c25 0 39 20 39 45h75c0 -68 -46 -112 -114 -112c-72 0 -111 49 -111 112zM401 201v371h111v-371c0 -62 -21 -113 -64 -152s-94 -59 -154 -59s-111 20 -154 59s-64 90 -64 152v371h113v-371c0 -61 48 -105 105 -105s107 44 107 105z" />
    <glyph glyph-name="Uring.sc" horiz-adv-x="588" 
d="M196 724c0 56 42 99 97 99c56 0 99 -43 99 -99c0 -55 -43 -97 -99 -97c-55 0 -97 42 -97 97zM293 683c24 0 43 18 43 41s-19 43 -43 43c-21 0 -41 -20 -41 -43s18 -41 41 -41zM401 201v371h111v-371c0 -62 -21 -113 -64 -152s-94 -59 -154 -59s-111 20 -154 59
s-64 90 -64 152v371h113v-371c0 -61 48 -105 105 -105s107 44 107 105z" />
    <glyph glyph-name="Uhungarumlaut.sc" horiz-adv-x="588" 
d="M401 201v371h111v-371c0 -62 -21 -113 -64 -152s-94 -59 -154 -59s-111 20 -154 59s-64 90 -64 152v371h113v-371c0 -61 48 -105 105 -105s107 44 107 105zM260 769h94l-95 -139h-85zM387 769h95l-104 -139h-87z" />
    <glyph glyph-name="Uogonek.sc" horiz-adv-x="590" 
d="M230 -89c0 15 5 34 15 55l15 29c-52 7 -96 30 -131 67c-35 38 -52 85 -52 140v370h113v-370c0 -60 48 -104 105 -104s107 44 107 104v370h111v-370c0 -57 -18 -105 -55 -143s-82 -60 -136 -66c-10 -25 -19 -49 -26 -70c-5 -17 -1 -29 12 -34c23 -9 38 18 34 37l65 3
c1 -65 -39 -105 -87 -105c-51 0 -90 40 -90 87z" />
    <glyph glyph-name="Wcircumflex.sc" horiz-adv-x="770" 
d="M532 632h-84l-63 71l-63 -71h-83l94 140h104zM513 194l120 378h120l-195 -572h-89l-84 308l-84 -308h-89l-194 572h120l119 -379l84 301h89z" />
    <glyph glyph-name="Ycircumflex.sc" horiz-adv-x="572" 
d="M432 632h-84l-62 71l-63 -71h-83l94 140h104zM342 260v-260h-113v260l-220 312h132l144 -215l145 215h135z" />
    <glyph glyph-name="Tcaron.sc" horiz-adv-x="477" 
d="M181 769l63 -70l63 70h84l-95 -139h-105l-93 139h83zM454 572v-101h-159v-471h-113v471h-159v101h431z" />
    <glyph glyph-name="Tbar.sc" horiz-adv-x="477" 
d="M182 0v246h-95v67h95v158h-159v101h431v-101h-159v-158h98v-67h-98v-246h-113z" />
    <glyph glyph-name="Zacute.sc" horiz-adv-x="514" 
d="M285 770h114l-120 -139h-85zM47 0v87l271 385h-259v100h403v-86l-272 -385h272v-101h-415z" />
    <glyph glyph-name="Zdotaccent.sc" horiz-adv-x="514" 
d="M202 714c0 33 27 59 62 59c36 0 63 -26 63 -59c0 -35 -27 -60 -63 -60c-35 0 -62 25 -62 60zM47 0v87l271 385h-259v100h403v-86l-272 -385h272v-101h-415z" />
    <glyph glyph-name="Wgrave.sc" horiz-adv-x="770" 
d="M439 631h-86l-118 139h113zM513 194l120 378h120l-195 -572h-89l-84 308l-84 -308h-89l-194 572h120l119 -379l84 301h89z" />
    <glyph glyph-name="Wacute.sc" horiz-adv-x="770" 
d="M422 770h113l-119 -139h-85zM753 572l-195 -572h-89l-84 308l-84 -308h-89l-194 572h120l119 -379l84 301h89l83 -300l120 378h120z" />
    <glyph glyph-name="Wdieresis.sc" horiz-adv-x="770" 
d="M314 764c32 0 59 -24 59 -56s-27 -57 -59 -57c-33 0 -60 25 -60 57s27 56 60 56zM397 708c0 32 26 56 61 56c32 0 59 -24 59 -56s-27 -57 -59 -57c-35 0 -61 24 -61 57zM753 572l-195 -572h-89l-84 308l-84 -308h-89l-194 572h120l119 -379l84 301h89l83 -300l120 378
h120z" />
    <glyph glyph-name="Aringacute.sc" horiz-adv-x="570" 
d="M318 914h112l-94 -112c30 -19 45 -47 45 -83c0 -55 -44 -98 -101 -98c-52 0 -96 43 -96 98c0 43 29 82 69 95zM241 719c0 -23 19 -42 40 -42c25 0 44 19 44 42c0 24 -19 43 -44 43c-23 0 -40 -19 -40 -43zM352 235l-68 204l-66 -204h134zM389 137h-207l-52 -137h-118
l214 572h118l214 -572h-118z" />
    <glyph glyph-name="AEacute.sc" horiz-adv-x="802" 
d="M476 770h113l-119 -139h-85zM135 0h-133l362 572h377v-101h-245v-139h214v-101h-214v-129h253v-102h-364v134h-164zM385 242v173l-100 -173h100z" />
    <glyph glyph-name="Oslashacute.sc" horiz-adv-x="673" 
d="M381 770h114l-120 -139h-84zM90 -16l-42 43l65 68c-45 55 -67 118 -67 188c0 82 28 152 84 209s124 86 205 86c69 0 131 -22 184 -66l66 67l42 -42l-66 -67c44 -56 66 -118 66 -187c0 -81 -28 -150 -85 -207s-126 -86 -207 -86c-65 0 -124 21 -179 62zM157 283
c0 -42 11 -78 34 -109l251 259c-32 23 -68 35 -107 35c-50 0 -92 -18 -127 -54c-34 -36 -51 -80 -51 -131zM335 100c51 0 93 18 128 53c35 36 53 79 53 130c0 39 -11 75 -33 107l-250 -258c29 -21 63 -32 102 -32z" />
    <glyph glyph-name="Ibreve.sc" horiz-adv-x="274" 
d="M192 572v-572h-110v572h110zM25 753h73c0 -30 13 -45 40 -45c25 0 38 20 38 45h74c0 -68 -44 -112 -112 -112c-72 0 -113 51 -113 112z" />
    <glyph glyph-name="Eng.sc" horiz-adv-x="589" 
d="M395 4l-202 358v-362h-111v572h103l209 -369v369h113v-561c0 -120 -55 -202 -184 -202c-19 0 -45 4 -80 13l11 108l49 -9c18 -1 30 -1 36 2c36 7 55 41 56 81z" />
    <glyph glyph-name="Ygrave.sc" horiz-adv-x="572" 
d="M346 631h-86l-118 139h113zM342 260v-260h-113v260l-220 312h132l144 -215l145 215h135z" />
    <glyph glyph-name="Gcommaaccent.sc" horiz-adv-x="648" 
d="M547 488l-80 -71h-2c-34 37 -76 56 -127 56c-50 0 -93 -19 -128 -56s-52 -81 -52 -134c0 -52 17 -97 52 -134s78 -55 128 -55c38 0 72 10 102 30c30 21 46 47 47 80h-155v93h282c0 -204 -105 -307 -276 -307c-81 0 -150 29 -207 86s-85 126 -85 207c0 82 28 152 84 209
c57 57 126 86 208 86c85 0 154 -30 209 -90zM308 -248l-56 24c29 39 41 101 36 184h97c1 -45 -7 -86 -23 -125s-34 -66 -54 -83z" />
    <glyph glyph-name="Kcommaaccent.sc" horiz-adv-x="522" 
d="M473 572l-218 -284l269 -288h-145l-185 205v-205h-112v572h112v-199l148 199h131zM266 -248l-56 24c29 39 41 101 36 184h97c1 -45 -7 -86 -23 -125s-34 -66 -54 -83z" />
    <glyph glyph-name="Lcommaaccent.sc" horiz-adv-x="428" 
d="M82 0v572h111v-472h218v-100h-329zM214 -248l-56 24c29 39 41 101 36 184h97c1 -45 -7 -86 -23 -125s-34 -66 -54 -83z" />
    <glyph glyph-name="Ncommaaccent.sc" horiz-adv-x="589" 
d="M507 572v-572h-101l-214 360v-360h-110v572h102l211 -355v355h112zM266 -248l-56 24c29 39 41 101 36 184h97c1 -45 -7 -86 -23 -125s-34 -66 -54 -83z" />
    <glyph glyph-name="Rcommaaccent.sc" horiz-adv-x="549" 
d="M354 206l146 -206h-135l-134 202h-38v-202h-111v572h230c59 0 105 -18 137 -55s48 -80 48 -131c0 -87 -50 -161 -143 -180zM307 472h-114v-171h110c103 -4 101 174 4 171zM266 -248l-56 24c29 39 41 101 36 184h97c1 -45 -7 -86 -23 -125s-34 -66 -54 -83z" />
    <glyph glyph-name="Tcommaaccent.sc" horiz-adv-x="477" 
d="M23 471v101h431v-101h-159v-471h-113v471h-159zM209 -248l-56 24c29 39 41 101 36 184h97c1 -45 -7 -86 -23 -125s-34 -66 -54 -83z" />
    <glyph glyph-name="Scommaaccent.sc" horiz-adv-x="503" 
d="M49 170h112c1 -44 38 -79 94 -79c53 0 88 28 91 65c3 36 -23 59 -76 74l-70 20c-97 26 -145 79 -145 160c0 49 19 90 56 121c38 31 84 47 138 47c112 0 191 -68 191 -176h-110c0 44 -33 74 -82 74c-45 0 -82 -27 -82 -64c0 -29 22 -50 66 -62l69 -20
c115 -33 160 -100 157 -177c-3 -50 -24 -90 -63 -119s-85 -44 -140 -44c-61 0 -110 17 -149 52c-38 35 -57 77 -57 128zM231 -248l-56 24c29 39 41 101 36 184h97c1 -45 -7 -86 -23 -125s-34 -66 -54 -83z" />
    <glyph glyph-name="Idotaccent.sc" horiz-adv-x="274" 
d="M192 572v-572h-110v572h110zM75 714c0 33 28 59 63 59s62 -26 62 -59c0 -35 -27 -60 -62 -60c-36 0 -63 25 -63 60z" />
    <glyph glyph-name="zero.numr" horiz-adv-x="356" 
d="M36 461c0 133 47 200 142 200s142 -67 142 -200c0 -131 -47 -197 -142 -197s-142 66 -142 197zM109 461c0 -84 23 -126 69 -126s69 42 69 126c0 85 -23 128 -69 128s-69 -43 -69 -128z" />
    <glyph glyph-name="one.numr" horiz-adv-x="213" 
d="M161 270h-73v284l-66 -30v66l139 69v-389z" />
    <glyph glyph-name="two.numr" horiz-adv-x="318" 
d="M32 270v37l157 188c15 17 22 33 22 50c0 27 -22 46 -54 46c-31 0 -55 -23 -60 -58l-67 14c12 71 62 114 130 114c35 0 64 -11 88 -33s36 -50 36 -83c0 -35 -14 -68 -41 -99l-93 -106h128v-70h-246z" />
    <glyph glyph-name="three.numr" horiz-adv-x="317" 
d="M97 567l-55 38c23 36 67 59 116 56c65 -4 111 -51 111 -107c0 -33 -16 -58 -48 -76c40 -15 68 -61 64 -104c-3 -33 -19 -60 -48 -81s-62 -31 -99 -28c-52 4 -99 36 -120 81l62 32c15 -29 36 -43 63 -43c33 -1 62 21 65 48c1 28 -15 60 -60 59h-42v63h42c33 0 47 30 44 50
c-1 20 -19 39 -44 39c-22 1 -39 -8 -51 -27z" />
    <glyph glyph-name="four.numr" horiz-adv-x="346" 
d="M322 353h-51v-83h-73v83h-190l193 301h70v-238h51v-63zM198 546l-82 -130h82v130z" />
    <glyph glyph-name="five.numr" horiz-adv-x="339" 
d="M25 343l61 40c15 -28 45 -47 74 -47c47 0 79 29 79 65c0 41 -31 64 -72 64c-36 0 -67 -13 -93 -38l-35 23l32 204h215v-68h-156l-13 -74c17 11 39 17 67 17c73 0 127 -47 127 -128s-59 -137 -151 -137c-55 0 -107 31 -135 79z" />
    <glyph glyph-name="six.numr" horiz-adv-x="338" 
d="M309 584l-67 -28c-11 24 -28 36 -51 36c-52 0 -78 -51 -75 -118c11 23 41 44 77 44c32 0 60 -12 84 -36s36 -56 35 -95c-1 -73 -59 -125 -136 -124c-72 1 -126 53 -133 133c-8 112 7 268 150 264c56 -3 95 -28 116 -76zM123 393c0 -33 25 -58 57 -59c31 0 57 25 58 57
c0 32 -25 58 -56 59c-33 0 -59 -25 -59 -57z" />
    <glyph glyph-name="seven.numr" horiz-adv-x="314" 
d="M26 654h283l-186 -384h-83l152 316h-166v68z" />
    <glyph glyph-name="eight.numr" horiz-adv-x="345" 
d="M59 556c0 59 51 105 114 105s113 -46 113 -105c0 -27 -9 -48 -28 -65c37 -23 56 -55 56 -97c0 -36 -14 -67 -41 -92s-61 -38 -100 -38s-73 13 -101 38c-27 25 -41 56 -41 92c0 41 19 74 56 97c-19 19 -28 40 -28 65zM104 395c-3 -54 79 -83 117 -44c43 36 10 109 -45 107
h-9c-35 0 -63 -30 -63 -63zM131 554c0 -23 17 -40 42 -40c56 0 54 81 0 79c-25 0 -42 -18 -42 -39z" />
    <glyph glyph-name="nine.numr" horiz-adv-x="338" 
d="M36 340l68 28c11 -24 28 -36 51 -36c51 0 76 53 75 118c-12 -23 -42 -44 -78 -44c-32 0 -60 12 -84 36s-36 56 -35 95c3 73 59 124 136 123c73 -1 127 -52 134 -133c4 -61 0 -116 -19 -173c-19 -56 -64 -93 -131 -90c-55 3 -94 28 -117 76zM223 531c0 32 -25 58 -57 59
s-58 -25 -58 -57c-1 -33 24 -58 56 -59c32 0 58 25 59 57z" />
    <glyph glyph-name="zero.dnom" horiz-adv-x="356" 
d="M36 192c0 133 47 199 142 199s142 -66 142 -199c0 -132 -47 -198 -142 -198s-142 66 -142 198zM178 319c-46 0 -69 -42 -69 -127s23 -127 69 -127s69 42 69 127s-23 127 -69 127z" />
    <glyph glyph-name="one.dnom" horiz-adv-x="213" 
d="M162 0h-73v284l-66 -30v66l139 69v-389z" />
    <glyph glyph-name="two.dnom" horiz-adv-x="318" 
d="M32 0v38l157 187c15 18 22 35 22 50c0 27 -22 46 -54 46c-31 0 -55 -22 -60 -57l-67 13c12 71 62 114 130 114c35 0 64 -11 88 -33s36 -50 36 -83c0 -35 -14 -67 -41 -98l-93 -107h128v-70h-246z" />
    <glyph glyph-name="three.dnom" horiz-adv-x="319" 
d="M99 297l-55 38c23 36 67 59 116 56c65 -4 111 -51 111 -107c0 -33 -16 -58 -48 -76c40 -15 68 -61 64 -104c-3 -33 -19 -60 -48 -81s-62 -31 -99 -28c-52 4 -99 36 -120 81l62 32c15 -29 36 -43 63 -43c33 -1 62 21 65 48c1 28 -15 60 -60 59h-42v63h42c33 0 47 30 44 50
c-1 20 -19 39 -44 39c-22 1 -39 -8 -51 -27z" />
    <glyph glyph-name="four.dnom" horiz-adv-x="347" 
d="M323 83h-51v-83h-73v83h-190l193 302h70v-238h51v-64zM199 277l-82 -130h82v130z" />
    <glyph glyph-name="five.dnom" horiz-adv-x="339" 
d="M24 73l61 40c15 -28 45 -47 74 -47c47 0 79 29 79 66c0 41 -32 64 -72 64c-36 0 -67 -13 -93 -39l-35 23l32 204h215v-68h-156l-13 -74c17 11 39 17 67 17c73 0 127 -47 127 -127c0 -81 -60 -138 -151 -138c-55 0 -107 31 -135 79z" />
    <glyph glyph-name="six.dnom" horiz-adv-x="338" 
d="M309 315l-67 -29c-11 24 -28 36 -51 36c-52 0 -78 -51 -75 -118c9 23 41 44 77 44c32 0 60 -12 84 -36s36 -56 35 -95c-1 -72 -59 -124 -136 -123c-72 1 -126 52 -133 133c-8 110 7 267 150 263c55 -3 94 -28 116 -75zM180 65c31 -1 57 24 58 56c0 33 -25 59 -56 59
c-33 0 -59 -25 -59 -57s25 -58 57 -58z" />
    <glyph glyph-name="seven.dnom" horiz-adv-x="317" 
d="M27 385h283l-186 -385h-83l152 316h-166v69z" />
    <glyph glyph-name="eight.dnom" horiz-adv-x="345" 
d="M59 286c0 59 51 105 114 105s113 -46 113 -105c0 -26 -9 -48 -28 -65c37 -23 56 -55 56 -97c0 -36 -14 -67 -41 -92s-61 -38 -100 -38s-73 13 -101 38c-27 25 -41 56 -41 92c0 41 19 74 56 97c-19 19 -28 40 -28 65zM104 126c0 -35 30 -63 69 -63c37 0 68 28 68 63
c0 32 -29 62 -65 62h-9c-35 0 -63 -29 -63 -62zM131 285c0 -23 17 -41 42 -41c25 1 42 18 42 41c0 20 -18 38 -42 38c-25 0 -42 -17 -42 -38z" />
    <glyph glyph-name="nine.dnom" horiz-adv-x="339" 
d="M37 70l68 29c11 -25 28 -37 51 -37c51 0 76 52 75 119c-11 -24 -42 -45 -78 -45c-32 0 -60 12 -84 36c-24 25 -36 56 -35 95c3 73 59 124 136 123c73 -1 127 -52 134 -133c4 -61 0 -116 -19 -173c-19 -56 -64 -93 -131 -90c-55 3 -94 28 -117 76zM224 261
c0 33 -25 59 -57 59c-32 1 -58 -25 -58 -57c-1 -32 24 -58 56 -58c32 -1 58 24 59 56z" />
    <glyph glyph-name="l.alt1" horiz-adv-x="305" 
d="M256 112h47v-112h-65c-116 0 -174 67 -174 202v519h123v-521c-1 -59 22 -88 69 -88z" />
    <glyph glyph-name="a.alt1" horiz-adv-x="540" 
d="M226 97c21 0 44 5 71 14c27 10 46 24 59 41v22c-13 9 -32 16 -57 21c-24 5 -44 8 -59 8c-55 0 -83 -17 -83 -52c0 -29 26 -54 69 -54zM131 312l-72 69c45 64 113 96 204 96c135 0 214 -71 214 -200v-277h-120v48c-32 -39 -93 -58 -140 -58c-111 0 -181 58 -181 153
c0 89 62 147 202 147c17 0 37 -3 61 -9c25 -5 44 -13 58 -22v18c0 53 -38 93 -101 93c-43 0 -94 -18 -125 -58z" />
    <glyph glyph-name="y.alt1" horiz-adv-x="509" 
d="M162 -36l28 67l-180 436h129l116 -287l116 287h130l-229 -549c-25 -55 -51 -94 -78 -116c-27 -23 -64 -34 -113 -34c-19 0 -42 3 -69 10v107c22 -3 45 -5 68 -5c40 0 57 24 82 84z" />
    <glyph glyph-name="lslash.alt1" horiz-adv-x="326" 
d="M275 112h47v-112h-65c-116 0 -174 67 -174 202v91l-75 -47v84l75 47v344h123v-267l87 55v-84l-87 -55v-170c-1 -59 22 -88 69 -88z" />
    <glyph glyph-name="lacute.alt1" horiz-adv-x="305" 
d="M70 766l105 163h128l-138 -163h-95zM303 0h-65c-116 0 -174 67 -174 202v519h123v-521c-1 -59 22 -88 69 -88h47v-112z" />
    <glyph glyph-name="lcommaaccent.alt1" horiz-adv-x="305" 
d="M256 112h47v-112h-65c-116 0 -174 67 -174 202v519h123v-521c-1 -59 22 -88 69 -88zM171 -274l-64 29c21 30 36 58 44 85s11 61 10 104h107c-5 -97 -37 -170 -97 -218z" />
    <glyph glyph-name="lcaron.alt1" horiz-adv-x="305" 
d="M296 484l-75 25c46 64 68 135 65 212h107c-5 -112 -48 -197 -97 -237zM303 0h-65c-116 0 -174 67 -174 202v519h123v-521c-1 -59 22 -88 69 -88h47v-112z" />
    <glyph glyph-name="aacute.alt1" horiz-adv-x="540" 
d="M226 97c21 0 44 5 71 14c27 10 46 24 59 41v22c-13 9 -32 16 -57 21c-24 5 -44 8 -59 8c-55 0 -83 -17 -83 -52c0 -29 26 -54 69 -54zM131 312l-72 69c45 64 113 96 204 96c135 0 214 -71 214 -200v-277h-120v48c-32 -39 -93 -58 -140 -58c-111 0 -181 58 -181 153
c0 89 62 147 202 147c17 0 37 -3 61 -9c25 -5 44 -13 58 -22v18c0 53 -38 93 -101 93c-43 0 -94 -18 -125 -58zM223 544l105 163h128l-138 -163h-95z" />
    <glyph glyph-name="agrave.alt1" horiz-adv-x="540" 
d="M226 97c21 0 44 5 71 14c27 10 46 24 59 41v22c-13 9 -32 16 -57 21c-24 5 -44 8 -59 8c-55 0 -83 -17 -83 -52c0 -29 26 -54 69 -54zM131 312l-72 69c45 64 113 96 204 96c135 0 214 -71 214 -200v-277h-120v48c-32 -39 -93 -58 -140 -58c-111 0 -181 58 -181 153
c0 89 62 147 202 147c17 0 37 -3 61 -9c25 -5 44 -13 58 -22v18c0 53 -38 93 -101 93c-43 0 -94 -18 -125 -58zM234 544l-138 163h128l105 -163h-95z" />
    <glyph glyph-name="acircumflex.alt1" horiz-adv-x="540" 
d="M226 97c21 0 44 5 71 14c27 10 46 24 59 41v22c-13 9 -32 16 -57 21c-24 5 -44 8 -59 8c-55 0 -83 -17 -83 -52c0 -29 26 -54 69 -54zM131 312l-72 69c45 64 113 96 204 96c135 0 214 -71 214 -200v-277h-120v48c-32 -39 -93 -58 -140 -58c-111 0 -181 58 -181 153
c0 89 62 147 202 147c17 0 37 -3 61 -9c25 -5 44 -13 58 -22v18c0 53 -38 93 -101 93c-43 0 -94 -18 -125 -58zM96 547l109 163h123l110 -163h-94l-78 88l-76 -88h-94z" />
    <glyph glyph-name="adieresis.alt1" horiz-adv-x="540" 
d="M226 97c21 0 44 5 71 14c27 10 46 24 59 41v22c-13 9 -32 16 -57 21c-24 5 -44 8 -59 8c-55 0 -83 -17 -83 -52c0 -29 26 -54 69 -54zM131 312l-72 69c45 64 113 96 204 96c135 0 214 -71 214 -200v-277h-120v48c-32 -39 -93 -58 -140 -58c-111 0 -181 58 -181 153
c0 89 62 147 202 147c17 0 37 -3 61 -9c25 -5 44 -13 58 -22v18c0 53 -38 93 -101 93c-43 0 -94 -18 -125 -58zM181 697c37 0 68 -29 68 -65s-31 -65 -68 -65c-39 0 -69 28 -69 65s30 65 69 65zM306 585c-27 25 -27 69 0 93c27 25 72 25 97 0c27 -24 27 -68 0 -93
c-25 -24 -70 -24 -97 0z" />
    <glyph glyph-name="atilde.alt1" horiz-adv-x="540" 
d="M226 97c21 0 44 5 71 14c27 10 46 24 59 41v22c-13 9 -32 16 -57 21c-24 5 -44 8 -59 8c-55 0 -83 -17 -83 -52c0 -29 26 -54 69 -54zM131 312l-72 69c45 64 113 96 204 96c135 0 214 -71 214 -200v-277h-120v48c-32 -39 -93 -58 -140 -58c-111 0 -181 58 -181 153
c0 89 62 147 202 147c17 0 37 -3 61 -9c25 -5 44 -13 58 -22v18c0 53 -38 93 -101 93c-43 0 -94 -18 -125 -58zM231 607c-11 0 -25 -15 -26 -43h-70c4 87 48 125 96 125c16 0 33 -7 51 -21c18 -13 30 -20 37 -20c11 0 26 13 27 41h70c-4 -85 -50 -123 -97 -123
c-15 0 -32 7 -51 20c-19 14 -31 21 -37 21z" />
    <glyph glyph-name="aring.alt1" horiz-adv-x="540" 
d="M226 97c21 0 44 5 71 14c27 10 46 24 59 41v22c-13 9 -32 16 -57 21c-24 5 -44 8 -59 8c-55 0 -83 -17 -83 -52c0 -29 26 -54 69 -54zM131 312l-72 69c45 64 113 96 204 96c135 0 214 -71 214 -200v-277h-120v48c-32 -39 -93 -58 -140 -58c-111 0 -181 58 -181 153
c0 89 62 147 202 147c17 0 37 -3 61 -9c25 -5 44 -13 58 -22v18c0 53 -38 93 -101 93c-43 0 -94 -18 -125 -58zM152 654c0 33 11 60 33 83c23 23 50 34 81 34c67 0 117 -50 117 -117c0 -64 -52 -114 -117 -114c-31 0 -58 11 -81 33c-22 22 -33 49 -33 81zM209 654
c0 -32 26 -57 57 -57c33 0 59 25 59 57c0 33 -26 59 -59 59c-31 0 -57 -26 -57 -59z" />
    <glyph glyph-name="amacron.alt1" horiz-adv-x="540" 
d="M226 97c21 0 44 5 71 14c27 10 46 24 59 41v22c-13 9 -32 16 -57 21c-24 5 -44 8 -59 8c-55 0 -83 -17 -83 -52c0 -29 26 -54 69 -54zM131 312l-72 69c45 64 113 96 204 96c135 0 214 -71 214 -200v-277h-120v48c-32 -39 -93 -58 -140 -58c-111 0 -181 58 -181 153
c0 89 62 147 202 147c17 0 37 -3 61 -9c25 -5 44 -13 58 -22v18c0 53 -38 93 -101 93c-43 0 -94 -18 -125 -58zM403 585h-269v83h269v-83z" />
    <glyph glyph-name="abreve.alt1" horiz-adv-x="540" 
d="M226 97c21 0 44 5 71 14c27 10 46 24 59 41v22c-13 9 -32 16 -57 21c-24 5 -44 8 -59 8c-55 0 -83 -17 -83 -52c0 -29 26 -54 69 -54zM131 312l-72 69c45 64 113 96 204 96c135 0 214 -71 214 -200v-277h-120v48c-32 -39 -93 -58 -140 -58c-111 0 -181 58 -181 153
c0 89 62 147 202 147c17 0 37 -3 61 -9c25 -5 44 -13 58 -22v18c0 53 -38 93 -101 93c-43 0 -94 -18 -125 -58zM139 687h82c0 -37 17 -55 51 -55c33 0 51 24 51 55h83c0 -79 -54 -130 -134 -130c-87 0 -133 58 -133 130z" />
    <glyph glyph-name="aogonek.alt1" horiz-adv-x="540" 
d="M131 312l-72 69c45 64 113 96 204 96c135 0 214 -71 214 -200v-277h-56l-35 -96c-7 -23 -2 -39 17 -46c19 -5 36 3 43 20l5 25l69 4c1 -73 -46 -120 -102 -120c-59 0 -105 47 -105 102c0 20 3 35 9 46l35 65v48c-32 -39 -93 -58 -140 -58c-111 0 -181 58 -181 153
c0 89 62 147 202 147c17 0 37 -3 61 -9c25 -5 44 -13 58 -22v18c0 53 -38 93 -101 93c-43 0 -94 -18 -125 -58zM226 97c21 0 44 5 71 14c27 10 46 24 59 41v22c-13 9 -32 16 -57 21c-24 5 -44 8 -59 8c-55 0 -83 -17 -83 -52c0 -29 26 -54 69 -54z" />
    <glyph glyph-name="yacute.alt1" horiz-adv-x="509" 
d="M176 544l105 163h128l-138 -163h-95zM190 31l-180 436h129l116 -287l116 287h130l-229 -549c-25 -55 -51 -94 -78 -116c-27 -23 -64 -34 -113 -34c-19 0 -42 3 -69 10v107c22 -3 45 -5 68 -5c40 0 57 24 82 84z" />
    <glyph glyph-name="ydieresis.alt1" horiz-adv-x="509" 
d="M165 697c37 0 68 -29 68 -65s-31 -65 -68 -65c-39 0 -69 28 -69 65s30 65 69 65zM290 585c-27 25 -27 69 0 93c27 25 72 25 97 0c27 -24 27 -68 0 -93c-25 -24 -70 -24 -97 0zM190 31l-180 436h129l116 -287l116 287h130l-229 -549c-25 -55 -51 -94 -78 -116
c-27 -23 -64 -34 -113 -34c-19 0 -42 3 -69 10v107c22 -3 45 -5 68 -5c40 0 57 24 82 84z" />
    <glyph glyph-name="ae.alt1" horiz-adv-x="871" 
d="M477 21v-21h-120v48c-32 -39 -93 -58 -140 -58c-111 0 -181 58 -181 153c0 89 62 147 202 147c17 0 38 -3 62 -8c25 -5 44 -12 57 -21v16c0 53 -38 93 -101 93c-43 0 -94 -19 -125 -59l-72 70c45 64 113 96 204 96c75 0 131 -21 168 -63c46 42 102 63 168 63
c68 0 124 -22 169 -67s68 -103 68 -175c0 -13 -1 -27 -2 -42h-356c8 -61 60 -100 129 -100c49 0 96 21 117 60l93 -50c-40 -76 -125 -113 -218 -113c-44 0 -85 10 -122 31zM477 276h240c-9 63 -56 99 -117 99c-65 0 -114 -38 -123 -99zM220 97c21 0 46 5 74 14
c29 10 49 24 62 41v18c-13 9 -32 16 -57 21c-24 5 -44 8 -59 8c-64 0 -83 -28 -83 -56c0 -25 22 -46 63 -46z" />
    <glyph glyph-name="aeacute.alt1" horiz-adv-x="871" 
d="M392 544l105 163h128l-138 -163h-95zM477 0h-120v48c-32 -39 -93 -58 -140 -58c-111 0 -181 58 -181 153c0 89 62 147 202 147c17 0 38 -3 62 -8c25 -5 44 -12 57 -21v16c0 53 -38 93 -101 93c-43 0 -94 -19 -125 -59l-72 70c45 64 113 96 204 96c75 0 131 -21 168 -63
c46 42 102 63 168 63c68 0 124 -22 169 -67s68 -103 68 -175c0 -13 -1 -27 -2 -42h-356c8 -61 60 -100 129 -100c49 0 96 21 117 60l93 -50c-40 -76 -125 -113 -218 -113c-44 0 -85 10 -122 31v-21zM477 276h240c-9 63 -56 99 -117 99c-65 0 -114 -38 -123 -99zM220 97
c21 0 46 5 74 14c29 10 49 24 62 41v18c-13 9 -32 16 -57 21c-24 5 -44 8 -59 8c-64 0 -83 -28 -83 -56c0 -25 22 -46 63 -46z" />
    <glyph glyph-name="ycircumflex.alt1" horiz-adv-x="509" 
d="M162 -36l28 67l-180 436h129l116 -287l116 287h130l-229 -549c-25 -55 -51 -94 -78 -116c-27 -23 -64 -34 -113 -34c-19 0 -42 3 -69 10v107c22 -3 45 -5 68 -5c40 0 57 24 82 84zM85 547l109 163h123l110 -163h-94l-78 88l-76 -88h-94z" />
    <glyph glyph-name="ldot.alt1" horiz-adv-x="404" 
d="M256 112h47v-112h-65c-116 0 -174 67 -174 202v519h123v-521c-1 -59 22 -88 69 -88zM322 389c44 0 80 -32 80 -76s-36 -76 -80 -76c-43 0 -78 33 -78 76s35 76 78 76z" />
    <glyph glyph-name="t.alt1" horiz-adv-x="383" 
d="M301 112h45v-112h-63c-125 0 -174 61 -174 188v181h-85v98h85v97l123 39v-136h97v-98h-97v-183c-1 -47 14 -74 69 -74z" />
    <glyph glyph-name="tcaron.alt1" horiz-adv-x="383" 
d="M336 524l-65 29c21 30 36 58 44 85s11 61 10 104h107c-5 -97 -37 -169 -96 -218zM346 0h-63c-125 0 -174 61 -174 188v181h-85v98h85v97l123 39v-136h97v-98h-97v-183c-1 -47 14 -74 69 -74h45v-112z" />
    <glyph glyph-name="tbar.alt1" horiz-adv-x="385" 
d="M303 112h45v-112h-63c-125 0 -174 61 -174 188v10h-59v71h59v100h-85v98h85v97l123 39v-136h97v-98h-97v-100h70v-71h-70v-12c-1 -47 14 -74 69 -74z" />
    <glyph glyph-name="tcommaaccent.alt1" horiz-adv-x="383" 
d="M301 112h45v-112h-63c-125 0 -174 61 -174 188v181h-85v98h85v97l123 39v-136h97v-98h-97v-183c-1 -47 14 -74 69 -74zM205 -274l-64 29c21 30 36 58 44 85s11 61 10 104h107c-5 -97 -37 -170 -97 -218z" />
    <glyph glyph-name="T.sc.alt1" horiz-adv-x="477" 
d="M23 471v101h431v-101h-159v-471h-113v471h-159z" />
    <glyph glyph-name="Tcaron.sc.alt1" horiz-adv-x="477" 
d="M181 769l63 -70l63 70h84l-95 -139h-105l-93 139h83zM454 572v-101h-159v-471h-113v471h-159v101h431z" />
    <glyph glyph-name="Tbar.sc.alt1" horiz-adv-x="477" 
d="M182 0v246h-95v67h95v158h-159v101h431v-101h-159v-158h98v-67h-98v-246h-113z" />
    <glyph glyph-name="Tcommaaccent.sc.alt1" horiz-adv-x="477" 
d="M23 471v101h431v-101h-159v-471h-113v471h-159zM209 -248l-56 24c29 39 41 101 36 184h97c1 -45 -7 -86 -23 -125s-34 -66 -54 -83z" />
    <glyph glyph-name="aringacute.alt1" horiz-adv-x="540" 
d="M237 760l79 122h128l-113 -133c38 -23 57 -56 57 -101c0 -64 -52 -114 -117 -114c-31 0 -58 11 -81 33c-22 22 -33 49 -33 81c0 53 33 96 80 112zM214 648c0 -32 26 -57 57 -57c33 0 59 25 59 57c0 33 -26 59 -59 59c-31 0 -57 -26 -57 -59zM226 97c21 0 44 5 71 14
c27 10 46 24 59 41v22c-13 9 -32 16 -57 21c-24 5 -44 8 -59 8c-55 0 -83 -17 -83 -52c0 -29 26 -54 69 -54zM131 312l-72 69c45 64 113 96 204 96c135 0 214 -71 214 -200v-277h-120v48c-32 -39 -93 -58 -140 -58c-111 0 -181 58 -181 153c0 89 62 147 202 147
c17 0 37 -3 61 -9c25 -5 44 -13 58 -22v18c0 53 -38 93 -101 93c-43 0 -94 -18 -125 -58z" />
    </font>
</defs>
</svg>
