<?xml version="1.0" standalone="no"?>
<!DOCTYPE svg PUBLIC "-//W3C//DTD SVG 1.1//EN" "http://www.w3.org/Graphics/SVG/1.1/DTD/svg11.dtd" >
<svg xmlns="http://www.w3.org/2000/svg" xmlns:xlink="http://www.w3.org/1999/xlink" version="1.1">
<metadata>
Created by FontForge 20161116 at Fri Aug  8 16:58:42 2014
 By Jimmy Wärting
Please contact us to learn more about license restrictions.
</metadata>
<defs>
<font id="SofiaProRegular" horiz-adv-x="580" >
  <font-face 
    font-family="Sofia Pro"
    font-weight="400"
    font-stretch="normal"
    units-per-em="1000"
    panose-1="2 11 0 0 0 0 0 0 0 0"
    ascent="756"
    descent="-244"
    x-height="467"
    cap-height="689"
    bbox="-172 -251 1141 1091"
    underline-thickness="50"
    underline-position="-100"
    unicode-range="U+0020-FB04"
  />
<missing-glyph horiz-adv-x="635" 
d="M555 0h-475v665h475v-665zM185 431h62c0 49 31 83 74 83s80 -30 80 -73c0 -20 -8 -37 -24 -50c-10 -11 -21 -18 -33 -21c-60 -17 -93 -47 -93 -110v-38h62v38c0 29 17 41 50 50c57 17 99 67 99 131c0 40 -14 72 -42 97c-27 25 -60 38 -99 38c-38 0 -70 -13 -97 -40
c-26 -27 -39 -62 -39 -105zM283 88c24 0 45 19 45 43s-21 43 -45 43c-25 0 -46 -19 -46 -43s21 -43 46 -43z" />
    <glyph glyph-name="f_f" unicode="ff" horiz-adv-x="707" 
d="M660 721h51v-87h-51c-59 0 -88 -40 -87 -120v-47h108v-77h-108v-390h-92v390h-272v-390h-92v390h-90v77h90v47c0 129 58 207 179 207h51v-87h-51c-59 0 -88 -40 -87 -120v-47h272v47c0 129 58 207 179 207z" />
    <glyph glyph-name="fi" unicode="fi" horiz-adv-x="631" 
d="M557 0h-90v390h-258v-390h-92v390h-90v77h90v47c0 129 58 207 179 207h51v-87h-51c-59 0 -88 -40 -87 -120v-47h348v-467zM467 597c-24 23 -24 61 0 84c25 23 65 23 89 0c25 -23 25 -61 0 -84c-24 -23 -64 -23 -89 0z" />
    <glyph glyph-name="fl" unicode="fl" horiz-adv-x="616" 
d="M540 0h-91v634h-153c-59 0 -88 -40 -87 -120v-47h108v-77h-108v-390h-92v390h-90v77h90v47c0 129 58 207 179 207h244v-721z" />
    <glyph glyph-name="f_f_i" unicode="ffi" horiz-adv-x="995" 
d="M831 0v390h-258v-390h-92v390h-272v-390h-92v390h-90v77h90v47c0 129 58 207 179 207h51v-87h-51c-59 0 -88 -40 -87 -120v-47h272v47c0 129 58 207 179 207h51v-87h-51c-59 0 -88 -40 -87 -120v-47h348v-467h-90zM831 597c-24 23 -24 61 0 84c25 23 65 23 89 0
c25 -23 25 -61 0 -84c-24 -23 -64 -23 -89 0z" />
    <glyph glyph-name="f_f_l" unicode="ffl" horiz-adv-x="980" 
d="M904 0h-91v634h-153c-59 0 -88 -40 -87 -120v-47h108v-77h-108v-390h-92v390h-272v-390h-92v390h-90v77h90v47c0 129 58 207 179 207h51v-87h-51c-59 0 -88 -40 -87 -120v-47h272v47c0 129 58 207 179 207h244v-721z" />
    <glyph glyph-name="f_f_j" unicode="ffj" horiz-adv-x="987" 
d="M745 -229h-62v85h54c57 0 85 39 84 116v418h-248v-390h-92v390h-272v-390h-92v390h-90v77h90v47c0 129 58 207 179 207h51v-87h-51c-59 0 -88 -40 -87 -120v-47h272v47c0 129 58 207 179 207h51v-87h-51c-59 0 -88 -40 -87 -120v-47h340v-496c0 -133 -56 -200 -168 -200z
M822 597c-24 23 -24 61 0 84c25 23 65 23 89 0c25 -23 25 -61 0 -84c-24 -23 -64 -23 -89 0z" />
    <glyph glyph-name="f_j" unicode="fj" horiz-adv-x="623" 
d="M381 -229h-62v85h54c57 0 85 39 84 116v418h-248v-390h-92v390h-90v77h90v47c0 129 58 207 179 207h51v-87h-51c-59 0 -88 -40 -87 -120v-47h340v-496c0 -133 -56 -200 -168 -200zM458 597c-24 23 -24 61 0 84c25 23 65 23 89 0c25 -23 25 -61 0 -84
c-24 -23 -64 -23 -89 0z" />
    <glyph glyph-name=".notdef" horiz-adv-x="635" 
d="M555 0h-475v665h475v-665zM185 431h62c0 49 31 83 74 83s80 -30 80 -73c0 -20 -8 -37 -24 -50c-10 -11 -21 -18 -33 -21c-60 -17 -93 -47 -93 -110v-38h62v38c0 29 17 41 50 50c57 17 99 67 99 131c0 40 -14 72 -42 97c-27 25 -60 38 -99 38c-38 0 -70 -13 -97 -40
c-26 -27 -39 -62 -39 -105zM283 88c24 0 45 19 45 43s-21 43 -45 43c-25 0 -46 -19 -46 -43s21 -43 46 -43z" />
    <glyph glyph-name="NULL" horiz-adv-x="0" 
 />
    <glyph glyph-name="CR" horiz-adv-x="333" 
 />
    <glyph glyph-name="space" unicode=" " horiz-adv-x="260" 
 />
    <glyph glyph-name="exclam" unicode="!" horiz-adv-x="264" 
d="M87 689h90l-9 -504h-71zM85 7c-25 24 -25 66 0 90s67 24 92 0c27 -24 27 -66 0 -90c-25 -23 -67 -23 -92 0z" />
    <glyph glyph-name="quotedbl" unicode="&#x22;" horiz-adv-x="355" 
d="M75 401v288h71v-288h-71zM209 401v288h71v-288h-71z" />
    <glyph glyph-name="numbersign" unicode="#" horiz-adv-x="656" 
d="M563 689l-48 -174h105l-23 -85h-106l-48 -175h105l-23 -85h-105l-49 -170h-86l48 170h-107l-49 -170h-85l48 170h-104l23 85h104l47 175h-102l22 85h104l48 174h87l-48 -174h107l48 174h87zM404 430h-107l-48 -175h107z" />
    <glyph glyph-name="dollar" unicode="$" horiz-adv-x="562" 
d="M314 -9v-110h-62v111c-60 7 -109 31 -148 71c-38 40 -57 85 -57 136h93c1 -31 15 -60 43 -85s63 -37 105 -37c83 0 130 44 139 101c5 68 -46 108 -117 123l-89 22c-112 29 -168 89 -168 180c0 52 19 96 58 131s86 56 141 61v100h62v-101c109 -15 184 -90 184 -199h-93
c0 68 -54 113 -130 113c-35 0 -65 -10 -91 -29c-25 -19 -38 -44 -38 -75c0 -48 33 -80 98 -96l90 -22c131 -33 197 -108 184 -216c-12 -96 -88 -170 -204 -179z" />
    <glyph glyph-name="percent" unicode="%" horiz-adv-x="682" 
d="M466 673h66l-329 -673h-66zM171 673c37 0 68 -13 94 -40c27 -26 40 -57 40 -94s-13 -69 -39 -95c-26 -25 -58 -38 -95 -38s-69 13 -95 38c-25 26 -38 58 -38 95s13 69 38 95c26 26 58 39 95 39zM235 539c0 35 -29 64 -64 64c-56 4 -84 -73 -45 -109
c36 -39 113 -11 109 45zM511 257c37 0 68 -13 94 -40c27 -26 40 -57 40 -94s-13 -69 -39 -95c-26 -25 -58 -38 -95 -38s-69 13 -95 38c-25 26 -38 58 -38 95s13 69 38 95c26 26 58 39 95 39zM575 123c0 35 -29 64 -64 64c-56 4 -84 -73 -45 -109c36 -39 113 -11 109 45z" />
    <glyph glyph-name="ampersand" unicode="&#x26;" horiz-adv-x="657" 
d="M283 422h135v89h86v-90h87v-73h-87v-137c0 -88 21 -136 104 -136v-84c-73 0 -131 30 -158 74c-35 -47 -99 -74 -170 -74c-65 0 -119 21 -162 63c-42 43 -63 95 -63 157c0 75 38 142 102 182c-33 31 -49 72 -49 124c0 48 17 89 52 122s77 50 127 50c68 0 131 -39 166 -98
l-74 -46c-23 38 -53 57 -92 57c-53 0 -92 -36 -92 -85s37 -95 88 -95zM418 205v143h-137c-39 0 -72 -14 -99 -41s-40 -59 -40 -96c0 -76 57 -133 138 -133c79 0 135 54 138 127z" />
    <glyph glyph-name="quotesingle" unicode="'" horiz-adv-x="221" 
d="M75 401v288h71v-288h-71z" />
    <glyph glyph-name="parenleft" unicode="(" horiz-adv-x="363" 
d="M323 697v-89c-57 0 -103 -34 -138 -102c-34 -68 -51 -159 -51 -274s17 -206 51 -274c35 -68 81 -102 138 -102v-89c-83 0 -150 42 -200 125c-49 83 -74 197 -74 340s25 257 74 340c50 83 117 125 200 125z" />
    <glyph glyph-name="parenright" unicode=")" horiz-adv-x="363" 
d="M40 -233v89c57 0 103 34 137 102c35 68 52 159 52 274s-17 206 -52 274c-34 68 -80 102 -137 102v89c83 0 150 -42 199 -125c50 -83 75 -197 75 -340s-25 -257 -75 -340c-49 -83 -116 -125 -199 -125z" />
    <glyph glyph-name="asterisk" unicode="*" horiz-adv-x="467" 
d="M236 463l-78 -113l-60 46l85 105l-131 37l13 38l12 35l125 -49l-8 135h79l-9 -135l62 24l65 25l23 -73l-130 -35l87 -108l-62 -43z" />
    <glyph glyph-name="plus" unicode="+" horiz-adv-x="519" 
d="M54 305h162v162h87v-162h162v-87h-162v-163h-87v163h-162v87z" />
    <glyph glyph-name="comma" unicode="," horiz-adv-x="257" 
d="M81 -126l-64 21c47 65 70 139 68 220h96c-8 -115 -52 -201 -100 -241z" />
    <glyph glyph-name="hyphen" unicode="-" horiz-adv-x="486" 
d="M69 190v87h348v-87h-348z" />
    <glyph glyph-name="period" unicode="." horiz-adv-x="266" 
d="M87 7c-25 24 -25 66 0 90s67 24 92 0c27 -24 27 -66 0 -90c-25 -23 -67 -23 -92 0z" />
    <glyph glyph-name="slash" unicode="/" horiz-adv-x="501" 
d="M371 689h99l-340 -689h-99z" />
    <glyph glyph-name="zero" unicode="0" horiz-adv-x="605" 
d="M66 325c0 99 14 173 47 237c35 64 99 99 190 99c92 0 156 -35 189 -99c35 -64 47 -137 47 -237c0 -99 -12 -171 -47 -235c-33 -64 -98 -99 -189 -99c-187 0 -237 151 -237 334zM156 325c0 -152 38 -245 147 -245s147 93 147 245c0 153 -38 246 -147 246
s-147 -93 -147 -246z" />
    <glyph glyph-name="one" unicode="1" horiz-adv-x="334" 
d="M238 0h-90v539l-106 -37v86l196 71v-659z" />
    <glyph glyph-name="two" unicode="2" horiz-adv-x="527" 
d="M60 0v40l265 321c32 37 48 73 48 107c0 61 -51 103 -116 103c-60 0 -109 -39 -118 -103l-87 21c9 52 32 94 70 125s83 47 135 47c58 0 107 -18 146 -54s59 -82 59 -139c0 -59 -24 -115 -71 -169l-177 -209h249v-90h-403z" />
    <glyph glyph-name="three" unicode="3" horiz-adv-x="535" 
d="M148 513l-67 53c36 63 109 101 189 96c53 -3 96 -22 130 -58c35 -35 51 -76 50 -123c0 -13 -2 -26 -6 -40c-12 -39 -36 -69 -71 -89c33 -12 59 -35 78 -70c20 -35 28 -70 25 -106c-5 -55 -31 -101 -78 -137s-100 -52 -161 -47c-85 5 -159 60 -194 136l79 43
c21 -47 71 -86 122 -90h-1c37 -2 69 7 97 28c29 21 44 48 45 79s-12 59 -37 82s-54 35 -89 35h-74v87h74c45 -1 82 31 90 75c5 27 1 50 -11 67c-15 23 -41 36 -76 38c-47 4 -85 -16 -114 -59z" />
    <glyph glyph-name="four" unicode="4" horiz-adv-x="592" 
d="M549 134h-94v-134h-89v134h-340l362 519h67v-434h94v-85zM366 491l-187 -272h187v272z" />
    <glyph glyph-name="five" unicode="5" horiz-adv-x="564" 
d="M48 139l77 42c25 -64 79 -104 140 -104c104 0 157 54 157 133c0 80 -58 125 -135 125c-28 0 -53 -4 -76 -12c-23 -7 -51 -21 -86 -42l-56 46l57 325h348v-86h-274l-36 -185c29 21 83 38 123 38c63 0 116 -19 159 -56s64 -88 64 -153c0 -67 -23 -120 -68 -160
s-104 -60 -177 -60c-92 0 -177 58 -217 149z" />
    <glyph glyph-name="six" unicode="6" horiz-adv-x="556" 
d="M501 535l-80 -34c-25 50 -62 75 -111 75c-45 0 -82 -22 -109 -65s-37 -97 -31 -163c19 49 64 74 134 74c58 0 107 -23 146 -68s58 -97 56 -156c-3 -59 -26 -109 -68 -150s-92 -60 -151 -57c-116 5 -197 89 -208 224c-6 82 -2 164 11 247c10 60 35 109 75 146
c41 37 90 55 149 53c83 -4 147 -35 187 -126zM169 212c0 -36 12 -66 35 -91c24 -25 53 -38 87 -39s63 9 87 32c25 23 38 53 39 88c3 71 -47 127 -116 130c-35 1 -65 -10 -91 -33s-40 -52 -41 -87z" />
    <glyph glyph-name="seven" unicode="7" horiz-adv-x="530" 
d="M62 653h451l-358 -653h-105l311 564h-299v89z" />
    <glyph glyph-name="eight" unicode="8" horiz-adv-x="562" 
d="M107 494c0 47 17 86 50 118c33 33 75 49 124 49s91 -16 125 -49c34 -32 51 -71 51 -118c0 -46 -17 -84 -51 -115c63 -39 100 -103 100 -175c0 -59 -22 -110 -65 -151s-97 -62 -160 -62c-64 0 -118 20 -161 61s-64 92 -64 152c0 72 38 138 99 175c-32 31 -48 69 -48 115z
M146 204c0 -35 13 -64 39 -88s58 -36 96 -36s70 12 96 36s39 53 39 88s-13 64 -39 89s-58 37 -96 37h-7c-36 -1 -66 -14 -91 -39s-37 -54 -37 -87zM276 414h8c48 1 83 37 83 80s-37 77 -86 77c-48 0 -85 -34 -85 -77s35 -79 80 -80z" />
    <glyph glyph-name="nine" unicode="9" horiz-adv-x="555" 
d="M66 116l80 34c25 -50 62 -75 111 -75c45 0 81 21 108 64s38 98 32 164c-19 -49 -64 -74 -134 -74c-58 0 -107 22 -146 67s-58 98 -56 157c3 59 26 109 68 150s92 60 151 57c116 -5 197 -89 208 -224c6 -82 2 -164 -11 -247c-10 -60 -35 -109 -76 -146
c-40 -37 -89 -55 -148 -53c-83 4 -147 35 -187 126zM398 439c0 36 -12 66 -36 91c-23 25 -52 38 -86 39s-63 -10 -88 -33c-24 -23 -37 -52 -38 -87c-3 -71 47 -127 116 -130c35 -1 65 9 91 32s40 53 41 88z" />
    <glyph glyph-name="colon" unicode=":" horiz-adv-x="269" 
d="M88 7c-25 24 -25 66 0 90c27 24 68 24 93 0s25 -66 0 -90c-25 -23 -66 -23 -93 0zM88 370c-25 24 -25 66 0 89c27 24 68 24 93 0c25 -23 25 -65 0 -89s-66 -24 -93 0z" />
    <glyph glyph-name="semicolon" unicode=";" horiz-adv-x="284" 
d="M98 -126l-69 21c47 65 70 139 68 220h101c-8 -115 -51 -201 -100 -241zM102 370c-25 24 -25 66 0 89c25 24 67 24 92 0c27 -23 27 -65 0 -89c-25 -24 -67 -24 -92 0z" />
    <glyph glyph-name="less" unicode="&#x3c;" horiz-adv-x="622" 
d="M554 127v-95l-507 193v87l507 194v-97l-381 -140z" />
    <glyph glyph-name="equal" unicode="=" horiz-adv-x="608" 
d="M74 303v87h460v-87h-460zM74 110v87h460v-87h-460z" />
    <glyph glyph-name="greater" unicode="&#x3e;" horiz-adv-x="621" 
d="M574 312v-87l-506 -194v96l380 142l-380 140v97z" />
    <glyph glyph-name="question" unicode="?" horiz-adv-x="483" 
d="M129 488h-86c0 63 19 113 57 151c38 39 85 58 140 58c56 0 104 -18 144 -54c41 -36 61 -83 61 -141c0 -93 -61 -164 -144 -189c-48 -15 -71 -30 -71 -73l-2 -55h-88v55c0 91 47 132 134 159c44 12 82 58 82 103c0 31 -12 57 -35 76c-23 20 -50 30 -81 30
c-60 0 -111 -48 -111 -120zM138 8c-25 24 -25 66 0 90c27 24 68 24 93 0s25 -66 0 -90c-25 -23 -66 -23 -93 0z" />
    <glyph glyph-name="at" unicode="@" horiz-adv-x="970" 
d="M600 128v129c0 36 -13 66 -38 91s-55 38 -91 38s-67 -13 -92 -38s-37 -55 -37 -91c0 -35 13 -66 38 -91s56 -37 91 -37c34 0 67 16 99 48v-85c-32 -23 -65 -34 -99 -34c-55 0 -103 19 -142 58s-58 86 -58 141s19 102 58 141s87 59 142 59c53 0 99 -18 138 -55
s60 -83 62 -136v-145c0 -44 24 -66 72 -66c45 0 79 32 95 77c16 47 22 90 22 137c0 100 -37 183 -112 250c-74 67 -163 101 -267 101c-101 0 -187 -36 -257 -108c-69 -71 -104 -158 -104 -260s35 -188 104 -259s155 -106 257 -106h23v-71h-23c-121 0 -224 42 -307 127
c-83 84 -125 187 -125 309c0 121 42 225 125 310c84 86 186 129 307 129c239 6 455 -184 451 -422c0 -63 -13 -126 -41 -185s-81 -99 -148 -99c-83 0 -143 42 -143 143z" />
    <glyph glyph-name="A" unicode="A" horiz-adv-x="645" 
d="M323 565l-114 -306h228zM536 0l-67 175h-292l-67 -175h-99l262 689h100l261 -689h-98z" />
    <glyph glyph-name="B" unicode="B" horiz-adv-x="628" 
d="M541 511c0 -74 -29 -122 -87 -144c37 -7 66 -28 89 -62s35 -69 35 -106c0 -56 -18 -103 -55 -142c-37 -38 -86 -57 -147 -57h-282v689h260c115 0 187 -69 187 -178zM188 603v-200h166c59 0 92 45 92 105s-39 95 -102 95h-156zM369 321h-181v-234h184c65 0 110 52 110 113
c0 30 -11 58 -32 83s-48 38 -81 38z" />
    <glyph glyph-name="C" unicode="C" horiz-adv-x="683" 
d="M589 168l70 -59c-63 -75 -156 -119 -261 -119c-97 0 -180 34 -248 103c-67 69 -101 152 -101 250s34 181 101 250c68 69 151 104 248 104c104 0 196 -44 259 -117l-70 -58c-52 57 -115 85 -189 85c-72 0 -133 -26 -182 -77s-74 -114 -74 -187s25 -136 74 -187
s110 -76 182 -76c77 0 141 29 191 88z" />
    <glyph glyph-name="D" unicode="D" horiz-adv-x="724" 
d="M361 0h-267v689h267c95 0 171 -33 226 -98c56 -65 84 -147 84 -248c0 -100 -28 -182 -83 -247c-55 -64 -131 -96 -227 -96zM187 602v-515h174c69 0 123 24 160 71c38 48 57 110 57 185c0 76 -19 138 -57 186c-37 49 -91 73 -160 73h-174z" />
    <glyph glyph-name="E" unicode="E" horiz-adv-x="565" 
d="M94 0v689h408v-87h-315v-220h275v-87h-275v-208h325v-87h-418z" />
    <glyph glyph-name="F" unicode="F" horiz-adv-x="526" 
d="M94 0v689h402v-87h-309v-220h245v-87h-245v-295h-93z" />
    <glyph glyph-name="G" unicode="G" horiz-adv-x="756" 
d="M630 606l-67 -62c-48 43 -103 64 -166 64c-71 0 -132 -26 -181 -78c-49 -51 -74 -114 -74 -187s25 -136 74 -187s110 -77 181 -77c63 0 114 17 155 50c41 34 62 79 65 136h-196v81h302c0 -236 -123 -356 -326 -356c-97 0 -180 34 -247 103s-101 152 -101 250
c0 99 34 182 101 251s150 103 247 103c90 0 168 -30 233 -91z" />
    <glyph glyph-name="H" unicode="H" horiz-adv-x="708" 
d="M520 689h94v-689h-94v300h-333v-300h-93v689h93v-304h333v304z" />
    <glyph glyph-name="I" unicode="I" horiz-adv-x="281" 
d="M94 0v689h93v-689h-93z" />
    <glyph glyph-name="J" unicode="J" horiz-adv-x="281" 
d="M-100 -240l9 88c16 -5 38 -8 66 -8c81 0 119 54 119 133v716h93v-716c0 -132 -67 -224 -212 -224c-15 0 -40 4 -75 11z" />
    <glyph glyph-name="K" unicode="K" horiz-adv-x="578" 
d="M530 689l-265 -344l320 -345h-125l-273 294v-294h-93v689h93v-298l228 298h115z" />
    <glyph glyph-name="L" unicode="L" horiz-adv-x="495" 
d="M94 0v689h93v-602h281v-87h-374z" />
    <glyph glyph-name="M" unicode="M" horiz-adv-x="934" 
d="M224 689l243 -506l243 506h85l84 -689h-92l-63 518l-215 -442h-82l-217 442l-63 -518h-92l84 689h85z" />
    <glyph glyph-name="N" unicode="N" horiz-adv-x="684" 
d="M590 689v-689h-89l-314 519v-519h-93v689h92l311 -515v515h93z" />
    <glyph glyph-name="O" unicode="O" horiz-adv-x="796" 
d="M49 343c0 99 34 182 101 251s150 103 247 103c98 0 181 -34 248 -103c68 -69 102 -152 102 -251c0 -98 -34 -181 -102 -250c-67 -69 -150 -103 -248 -103c-97 0 -180 34 -247 103s-101 152 -101 250zM397 607c-71 0 -132 -26 -181 -77s-74 -114 -74 -187s24 -136 73 -187
s110 -76 182 -76s133 25 182 76s74 114 74 187s-25 136 -74 187s-110 77 -182 77z" />
    <glyph glyph-name="P" unicode="P" horiz-adv-x="606" 
d="M94 0v689h275c68 0 119 -21 153 -63c35 -42 52 -93 52 -153s-17 -111 -52 -153c-34 -41 -85 -62 -153 -62h-181v-258h-94zM368 602h-180v-257h175c79 0 118 57 118 128s-38 129 -113 129z" />
    <glyph glyph-name="Q" unicode="Q" horiz-adv-x="796" 
d="M583 43l72 -114l-72 -44l-77 122c-35 -11 -72 -17 -109 -17c-97 0 -180 34 -247 103s-101 152 -101 250c0 99 34 182 101 251s150 103 247 103c98 0 181 -34 248 -103c68 -69 102 -152 102 -251c0 -124 -64 -236 -164 -300zM385 202l71 45l78 -126c73 47 119 129 119 222
c0 73 -25 136 -74 187s-110 77 -182 77c-71 0 -132 -26 -181 -77s-74 -114 -74 -187c0 -70 22 -130 67 -179s102 -76 170 -80c27 -2 53 -1 76 4z" />
    <glyph glyph-name="R" unicode="R" horiz-adv-x="619" 
d="M383 261l184 -261h-113l-178 258h-88v-258h-94v689h265c68 0 119 -21 153 -63s51 -93 51 -153c0 -56 -15 -104 -45 -144c-29 -40 -74 -63 -135 -68zM356 602h-168v-257h164c79 0 115 56 115 128c0 71 -36 129 -111 129z" />
    <glyph glyph-name="S" unicode="S" horiz-adv-x="573" 
d="M52 199h93c1 -31 15 -60 43 -85s63 -37 105 -37c83 0 130 44 139 101c5 68 -45 107 -117 123l-89 22c-112 29 -168 89 -168 180c0 57 22 103 66 139c44 37 96 55 157 55c64 0 117 -19 159 -56s63 -85 63 -146h-93c0 68 -54 113 -130 113c-35 0 -65 -10 -91 -29
c-25 -19 -38 -44 -38 -75c0 -48 33 -80 98 -96l90 -22c131 -33 197 -108 184 -216c-6 -52 -30 -95 -71 -129s-94 -51 -159 -51c-69 0 -126 21 -172 62c-46 42 -69 91 -69 147z" />
    <glyph glyph-name="T" unicode="T" horiz-adv-x="568" 
d="M28 601v88h512v-88h-209v-601h-94v601h-209z" />
    <glyph glyph-name="U" unicode="U" horiz-adv-x="678" 
d="M497 237v452h94v-452c0 -73 -25 -133 -74 -179c-49 -45 -108 -68 -178 -68s-130 23 -179 68c-49 46 -73 106 -73 179v452h94v-452c0 -46 15 -84 46 -113s68 -44 112 -44s81 15 112 44s46 67 46 113z" />
    <glyph glyph-name="V" unicode="V" horiz-adv-x="562" 
d="M28 689h97l156 -532l156 532h96l-207 -689h-89z" />
    <glyph glyph-name="W" unicode="W" horiz-adv-x="901" 
d="M613 150l173 539h100l-233 -689h-81l-122 430l-121 -430h-81l-233 689h100l173 -539l127 446h71z" />
    <glyph glyph-name="X" unicode="X" horiz-adv-x="615" 
d="M578 689l-215 -319l241 -370h-112l-185 293l-185 -293h-111l240 370l-214 319h112l158 -243l159 243h112z" />
    <glyph glyph-name="Y" unicode="Y" horiz-adv-x="628" 
d="M362 317v-317h-96v317l-261 372h111l198 -279l200 279h112z" />
    <glyph glyph-name="Z" unicode="Z" horiz-adv-x="573" 
d="M42 0v81l364 520h-350v88h468v-81l-366 -520h366v-88h-482z" />
    <glyph glyph-name="bracketleft" unicode="[" horiz-adv-x="327" 
d="M285 -227h-201v916h201v-83h-111v-750h111v-83z" />
    <glyph glyph-name="backslash" unicode="\" horiz-adv-x="501" 
d="M470 0h-99l-340 689h99z" />
    <glyph glyph-name="bracketright" unicode="]" horiz-adv-x="327" 
d="M42 689h201v-916h-201v83h111v750h-111v83z" />
    <glyph glyph-name="underscore" unicode="_" horiz-adv-x="699" 
d="M69 -109v81h561v-81h-561z" />
    <glyph glyph-name="grave" unicode="`" horiz-adv-x="512" 
d="M335 554h-87l-119 154h109z" />
    <glyph glyph-name="a" unicode="a" horiz-adv-x="612" 
d="M536 0h-90v72c-31 -52 -96 -82 -164 -82c-66 0 -122 23 -168 68s-69 104 -69 176c0 73 23 131 69 176s102 67 168 67c68 0 135 -29 164 -80v70h90v-467zM445 235c0 47 -16 85 -47 112s-67 41 -108 41c-43 0 -80 -14 -109 -43c-29 -28 -43 -65 -43 -110s15 -83 44 -112
s65 -44 108 -44s80 14 110 42s45 66 45 114z" />
    <glyph glyph-name="b" unicode="b" horiz-adv-x="612" 
d="M167 72v-72h-91v721h91v-324c31 52 93 80 164 80c67 0 123 -22 168 -67s68 -103 68 -176c0 -72 -23 -131 -69 -176s-102 -68 -168 -68c-67 0 -132 30 -163 82zM168 235c0 -48 15 -86 45 -114s67 -42 110 -42s78 15 107 44s44 67 44 112s-15 82 -44 110
c-29 29 -64 43 -107 43c-41 0 -77 -14 -108 -41s-47 -65 -47 -112z" />
    <glyph glyph-name="c" unicode="c" horiz-adv-x="512" 
d="M292 477c74 0 134 -25 180 -75l-69 -58c-29 29 -66 44 -111 44c-43 0 -80 -14 -111 -43c-31 -28 -46 -65 -46 -110c0 -46 15 -84 46 -113s68 -44 111 -44c45 0 82 15 111 46l70 -58c-47 -51 -107 -76 -181 -76c-69 0 -127 23 -175 68c-48 46 -72 105 -72 177
s24 130 72 175s106 67 175 67z" />
    <glyph glyph-name="d" unicode="d" horiz-adv-x="612" 
d="M536 0h-91v72c-31 -52 -96 -82 -164 -82c-66 0 -122 23 -168 68c-45 45 -68 104 -68 176c0 73 23 131 68 176s101 67 167 67c71 0 134 -28 165 -80v324h91v-721zM289 388c-43 0 -79 -14 -108 -43c-29 -28 -43 -65 -43 -110s14 -83 43 -112s65 -44 108 -44s79 14 109 42
c31 29 46 67 46 114s-16 85 -47 112s-67 41 -108 41z" />
    <glyph glyph-name="e" unicode="e" horiz-adv-x="556" 
d="M136 270h290c-11 77 -66 125 -142 125c-79 0 -137 -48 -148 -125zM516 235c0 -17 0 -29 -1 -36h-379c11 -77 71 -127 151 -127c57 0 109 27 134 72c9 -3 22 -9 40 -16l38 -14c-39 -80 -122 -124 -215 -124c-68 0 -125 23 -171 68c-45 45 -68 104 -68 177s23 131 68 175
c46 45 103 67 171 67c67 0 123 -22 166 -67c44 -44 66 -102 66 -175z" />
    <glyph glyph-name="f" unicode="f" horiz-adv-x="343" 
d="M296 721h51v-87h-51c-59 0 -88 -40 -87 -120v-47h108v-77h-108v-390h-92v390h-90v77h90v47c0 129 58 207 179 207z" />
    <glyph glyph-name="g" unicode="g" horiz-adv-x="611" 
d="M110 -86l36 19c27 -51 82 -80 135 -80c111 0 166 71 166 212c0 3 -1 8 -1 11c-27 -53 -96 -86 -164 -86c-66 0 -122 22 -168 67s-69 103 -69 175c0 73 23 132 69 177s102 68 168 68c68 0 135 -31 164 -83v73h90v-396c0 -203 -85 -304 -255 -304c-88 0 -167 46 -211 126
c5 2 18 9 40 21zM445 233c0 48 -15 86 -45 113c-30 28 -67 42 -110 42s-79 -15 -108 -44s-44 -66 -44 -111c0 -47 14 -84 43 -112s66 -42 109 -42c41 0 77 14 108 42s47 65 47 112z" />
    <glyph glyph-name="h" unicode="h" 
d="M167 252v-252h-91v721h91v-324c13 26 34 46 64 59c31 14 61 21 90 21c117 0 190 -76 189 -207v-270h-91v264c0 76 -45 124 -110 124c-37 0 -70 -11 -99 -34c-29 -22 -43 -56 -43 -102z" />
    <glyph glyph-name="i" unicode="i" horiz-adv-x="242" 
d="M166 0h-90v467h90v-467zM76 597c-24 23 -24 61 0 84c25 23 65 23 89 0c25 -23 25 -61 0 -84c-24 -23 -64 -23 -89 0z" />
    <glyph glyph-name="j" unicode="j" horiz-adv-x="244" 
d="M0 -229h-62v85h54c57 0 85 39 84 116v495h92v-496c0 -133 -56 -200 -168 -200zM77 597c-24 23 -24 61 0 84c25 23 65 23 89 0c25 -23 25 -61 0 -84c-24 -23 -64 -23 -89 0z" />
    <glyph glyph-name="k" unicode="k" horiz-adv-x="502" 
d="M379 0l-213 228v-228h-90v721h90v-417l161 163h124l-200 -202l248 -265h-120z" />
    <glyph glyph-name="l" unicode="l" horiz-adv-x="243" 
d="M76 0v721h91v-721h-91z" />
    <glyph glyph-name="m" unicode="m" horiz-adv-x="881" 
d="M613 388c-76 1 -124 -56 -124 -136v-252h-91v265c0 76 -40 123 -101 123c-72 0 -130 -45 -130 -136v-252h-91v467h91v-70c23 47 82 74 129 78c18 1 35 0 51 -3c59 -9 100 -40 122 -91c33 64 87 96 162 96c116 0 180 -75 180 -207v-270h-91v264c0 77 -40 124 -107 124z
" />
    <glyph glyph-name="n" unicode="n" horiz-adv-x="563" 
d="M167 252v-252h-91v467h91v-70c27 52 89 80 146 80c116 0 180 -75 180 -207v-270h-91v264c0 77 -39 124 -103 124c-73 0 -132 -44 -132 -136z" />
    <glyph glyph-name="o" unicode="o" horiz-adv-x="579" 
d="M45 235c0 72 23 130 70 175s105 67 174 67s127 -22 174 -67s71 -103 71 -175s-24 -131 -72 -177c-47 -45 -105 -68 -173 -68s-126 23 -173 68s-71 104 -71 177zM443 235c0 46 -15 83 -45 111c-29 28 -66 42 -109 42s-80 -14 -110 -42c-29 -28 -44 -65 -44 -111
c0 -47 15 -85 44 -114c30 -29 67 -43 110 -43s80 14 109 43c30 29 45 67 45 114z" />
    <glyph glyph-name="p" unicode="p" horiz-adv-x="609" 
d="M76 467h91v-73c31 52 96 83 163 83c65 0 121 -23 166 -68s68 -104 68 -177c0 -72 -23 -130 -68 -175s-100 -67 -166 -67c-68 0 -134 28 -163 80v-297h-91v694zM168 231c0 -47 15 -85 46 -112s66 -40 107 -40c87 0 151 61 151 152c0 46 -15 84 -44 113s-64 44 -107 44
s-79 -14 -109 -43c-29 -28 -44 -66 -44 -114z" />
    <glyph glyph-name="q" unicode="q" horiz-adv-x="609" 
d="M442 394v73h91v-694h-91v297c-29 -52 -94 -80 -163 -80c-66 0 -122 22 -167 67s-67 103 -67 175c0 73 23 132 68 177s101 68 166 68c67 0 134 -31 163 -83zM442 231c0 48 -15 86 -45 114c-29 29 -66 43 -109 43s-78 -15 -107 -44s-43 -67 -43 -113c0 -45 14 -82 43 -110
s64 -42 107 -42c41 0 76 13 107 40s47 65 47 112z" />
    <glyph glyph-name="r" unicode="r" horiz-adv-x="395" 
d="M167 170v-170h-91v467h91v-105c23 77 66 115 130 115c37 0 64 -6 81 -18l-14 -85c-22 11 -45 16 -69 16c-85 0 -128 -88 -128 -220z" />
    <glyph glyph-name="s" unicode="s" horiz-adv-x="439" 
d="M246 191l-64 15c-89 24 -133 69 -125 152c3 34 21 62 52 85s68 34 110 34c87 0 154 -43 162 -132h-87c-5 33 -36 53 -73 53c-35 0 -63 -17 -70 -42c-4 -15 -4 -27 1 -37c7 -15 26 -27 55 -36l69 -17c81 -20 121 -65 121 -136c0 -42 -18 -76 -53 -102
c-35 -25 -77 -38 -128 -38c-45 0 -85 14 -120 41s-53 64 -54 109h83c4 -25 17 -42 38 -53c21 -13 45 -18 74 -16c43 3 70 28 71 61c1 32 -23 50 -62 59z" />
    <glyph glyph-name="t" unicode="t" horiz-adv-x="328" 
d="M202 643v-176h99v-77h-99v-390h-91v390h-84v77h84v176h91z" />
    <glyph glyph-name="u" unicode="u" horiz-adv-x="562" 
d="M396 215v252h91v-467h-91v70c-27 -52 -88 -80 -145 -80c-116 0 -181 75 -180 207v270h91v-264c0 -77 38 -124 102 -124c75 0 132 43 132 136z" />
    <glyph glyph-name="v" unicode="v" horiz-adv-x="510" 
d="M211 0l-194 467h96l142 -351l141 351h97l-195 -467h1h-88z" />
    <glyph glyph-name="w" unicode="w" horiz-adv-x="790" 
d="M769 467l-173 -467h-75l-127 343l-123 -343h-74l-178 467h97l117 -327l117 327h88l117 -327l117 327h97z" />
    <glyph glyph-name="x" unicode="x" horiz-adv-x="500" 
d="M197 256l-152 211h109l96 -137l97 137h109l-153 -211l185 -256h-108l-130 181l-131 -181h-107z" />
    <glyph glyph-name="y" unicode="y" horiz-adv-x="509" 
d="M492 467l-290 -694h-95l98 241l-187 453h97l140 -338l140 338h97z" />
    <glyph glyph-name="z" unicode="z" horiz-adv-x="502" 
d="M58 467h395v-75l-283 -305h283v-87h-411v75l278 305h-262v87z" />
    <glyph glyph-name="braceleft" unicode="{" horiz-adv-x="400" 
d="M186 143v-174c0 -33 11 -60 32 -83s47 -34 76 -34h67v-79h-64c-55 0 -102 18 -140 54s-57 83 -57 142v174c0 27 -29 51 -61 51v81c32 0 61 24 61 51v176c-1 59 18 106 56 141c38 36 85 54 141 54h64v-79h-67c-60 0 -108 -52 -108 -116v-176c0 -37 -18 -76 -49 -92
c28 -16 49 -56 49 -91z" />
    <glyph glyph-name="bar" unicode="|" horiz-adv-x="230" 
d="M84 795h62v-914h-62v914z" />
    <glyph glyph-name="braceright" unicode="}" horiz-adv-x="400" 
d="M214 -31v174c0 35 21 75 49 91c-31 16 -49 55 -49 92v176c0 64 -48 116 -108 116h-67v79h64c56 0 103 -18 141 -54c38 -35 57 -82 56 -141v-176c0 -27 29 -51 61 -51v-81c-32 0 -61 -24 -61 -51v-174c0 -59 -19 -106 -57 -142s-85 -54 -140 -54h-64v79h67
c29 0 55 11 76 34s32 50 32 83z" />
    <glyph glyph-name="exclamdown" unicode="&#xa1;" horiz-adv-x="241" 
d="M85 282h71l9 -509h-90zM73 370c-25 24 -25 66 0 89c25 24 67 24 92 0c27 -23 27 -65 0 -89c-25 -24 -67 -24 -92 0z" />
    <glyph glyph-name="cent" unicode="&#xa2;" horiz-adv-x="531" 
d="M313 -117h-62v111c-58 10 -106 37 -144 80s-57 97 -57 161c0 63 19 116 57 159s86 69 144 79v106h62v-103c66 -3 121 -28 164 -74l-69 -58c-29 29 -66 44 -111 44c-43 0 -80 -14 -111 -43c-31 -28 -46 -65 -46 -110c0 -46 15 -84 46 -113s68 -44 111 -44
c45 0 82 15 111 46l70 -58c-42 -46 -97 -71 -165 -75v-108z" />
    <glyph glyph-name="sterling" unicode="&#xa3;" horiz-adv-x="632" 
d="M64 348h76v154c0 57 20 104 60 140c41 37 89 55 145 55c55 0 102 -19 140 -58c38 -38 57 -88 57 -151h-90c0 57 -29 101 -72 113c-16 5 -31 6 -45 4c-28 -1 -53 -12 -74 -31s-32 -43 -32 -72v-154h153v-61h-153v-197h244c11 0 17 7 17 22v57h90v-49
c0 -71 -33 -120 -96 -120h-436v90h92v197h-76v61z" />
    <glyph glyph-name="currency" unicode="&#xa4;" horiz-adv-x="610" 
d="M227 417c-21 -21 -32 -47 -32 -78s11 -57 32 -78s47 -32 78 -32s57 11 78 32c22 21 33 47 33 78s-11 57 -33 78c-21 22 -47 33 -78 33s-57 -11 -78 -33zM197 177l-70 -71l-55 55l70 71c-21 31 -32 67 -32 107c0 39 11 75 33 108l-71 71l55 55l71 -71c31 22 67 33 107 33
c39 0 75 -11 108 -33l70 71l55 -55l-70 -71c22 -34 33 -70 33 -108c0 -40 -11 -76 -33 -107l70 -71l-55 -55l-70 71c-65 -44 -151 -44 -216 0z" />
    <glyph glyph-name="yen" unicode="&#xa5;" horiz-adv-x="687" 
d="M573 253h-183v-78h183v-64h-183v-111h-96v111h-181v64h181v78h-181v64h181l-261 372h111l198 -279l200 279h112l-264 -372h183v-64z" />
    <glyph glyph-name="brokenbar" unicode="&#xa6;" horiz-adv-x="234" 
d="M148 405h-62v390h62v-390zM86 269h62v-388h-62v388z" />
    <glyph glyph-name="section" unicode="&#xa7;" horiz-adv-x="516" 
d="M151 491v-160c0 -65 48 -108 111 -108c20 0 39 4 56 11v-89c-20 -5 -39 -8 -56 -8c-55 0 -102 18 -140 53c-38 36 -57 83 -57 141v160c0 58 19 105 57 141s85 54 140 54c85 0 160 -52 189 -136l-82 -24c-20 47 -60 74 -107 74c-61 0 -111 -44 -111 -109zM365 78v160
c0 65 -48 108 -111 108c-19 0 -37 -4 -54 -11v89c18 5 36 8 54 8c55 0 102 -18 140 -54c38 -35 57 -82 57 -140v-160c0 -58 -19 -105 -57 -141s-85 -54 -140 -54c-85 0 -160 52 -189 136l82 24c20 -47 60 -74 107 -74c61 0 111 44 111 109z" />
    <glyph glyph-name="dieresis" unicode="&#xa8;" horiz-adv-x="533" 
d="M182 689c33 0 61 -26 61 -59s-28 -59 -61 -59c-35 0 -62 26 -62 59s27 59 62 59zM307 588c-24 23 -24 61 0 84s64 23 88 0s24 -61 0 -84s-64 -23 -88 0z" />
    <glyph glyph-name="copyright" unicode="&#xa9;" horiz-adv-x="809" 
d="M545 222c-41 -43 -87 -65 -138 -65c-50 0 -93 18 -128 53s-52 78 -52 128s17 92 52 127s77 53 128 53c49 0 95 -22 137 -66l-46 -47c-31 31 -61 46 -91 46c-63 0 -112 -50 -112 -113c0 -31 11 -58 32 -81c22 -22 49 -33 80 -33c30 0 61 16 93 48zM156 93
c-67 69 -101 152 -101 250s34 181 101 250c68 69 151 104 248 104s180 -35 248 -104s102 -152 102 -250s-34 -181 -102 -250s-151 -103 -248 -103s-180 34 -248 103zM200 549c-56 -57 -84 -125 -84 -206s28 -149 84 -206s124 -85 204 -85s148 28 204 85s84 125 84 206
s-28 149 -84 206s-124 86 -204 86s-148 -29 -204 -86z" />
    <glyph glyph-name="ordfeminine" unicode="&#xaa;" horiz-adv-x="505" 
d="M417 325h-63v50c-20 -36 -67 -57 -114 -57c-46 0 -85 16 -118 47c-32 32 -48 73 -48 124s16 92 48 123s71 47 118 47s94 -20 114 -56v49h63v-327zM354 490c0 67 -52 107 -109 107c-60 0 -106 -43 -106 -107s46 -110 106 -110c61 0 109 42 109 110zM413 215h-315v50h315
v-50z" />
    <glyph glyph-name="guillemotleft" unicode="&#xab;" horiz-adv-x="489" 
d="M184 26l-138 207l138 207h79l-138 -207l138 -207h-79zM360 26l-138 207l138 207h79l-138 -207l138 -207h-79z" />
    <glyph glyph-name="logicalnot" unicode="&#xac;" horiz-adv-x="641" 
d="M74 359h489v-241h-87v154h-402v87z" />
    <glyph glyph-name="registered" unicode="&#xae;" horiz-adv-x="809" 
d="M548 165h-84l-88 122h-23v-122h-69v353h137c72 0 114 -53 114 -116c0 -52 -26 -97 -77 -110zM353 450v-95h66c29 0 48 22 48 47c0 27 -18 48 -46 48h-68zM156 93c-67 69 -101 152 -101 250s34 181 101 250c68 69 151 104 248 104s180 -35 248 -104s102 -152 102 -250
s-34 -181 -102 -250s-151 -103 -248 -103s-180 34 -248 103zM200 549c-56 -57 -84 -125 -84 -206s28 -149 84 -206s124 -85 204 -85s148 28 204 85s84 125 84 206s-28 149 -84 206s-124 86 -204 86s-148 -29 -204 -86z" />
    <glyph glyph-name="overscore" unicode="&#xaf;" horiz-adv-x="492" 
d="M120 580v80h252v-80h-252z" />
    <glyph glyph-name="degree" unicode="&#xb0;" horiz-adv-x="370" 
d="M92 473c-25 26 -38 57 -38 93s13 67 38 92c26 26 57 39 93 39s67 -13 92 -39c26 -25 39 -56 39 -92s-13 -67 -39 -93c-25 -25 -56 -38 -92 -38s-67 13 -93 38zM141 610c-24 -24 -24 -64 0 -88c25 -24 63 -24 87 0c25 24 25 64 0 88c-24 24 -62 24 -87 0z" />
    <glyph glyph-name="plusminus" unicode="&#xb1;" horiz-adv-x="542" 
d="M69 364h158v143h87v-143h159v-87h-159v-145h-87v145h-158v87zM473 82v-82h-404v82h404z" />
    <glyph glyph-name="twosuperior" unicode="&#xb2;" horiz-adv-x="320" 
d="M37 430v28l158 191c53 67 18 122 -39 122c-35 0 -66 -26 -71 -65l-53 14c9 65 61 108 124 108c71 0 124 -49 124 -118c0 -36 -14 -70 -43 -102l-101 -119h145v-59h-244z" />
    <glyph glyph-name="threesuperior" unicode="&#xb3;" horiz-adv-x="320" 
d="M87 738l-40 32c23 37 65 60 113 57c32 -1 58 -13 79 -34s30 -46 29 -74c0 -8 -1 -16 -3 -24c-7 -24 -22 -42 -43 -54c39 -15 66 -62 62 -105c-3 -33 -18 -61 -47 -83c-28 -21 -60 -31 -96 -28c-51 4 -96 37 -117 82l48 26c12 -28 42 -53 73 -54h-1c44 -3 84 25 85 64
c1 37 -34 70 -75 70h-45v52h45c27 0 49 20 54 45c3 17 0 30 -7 40c-9 14 -24 22 -45 23c-29 3 -52 -9 -69 -35z" />
    <glyph glyph-name="acute" unicode="&#xb4;" horiz-adv-x="512" 
d="M226 708h109l-119 -154h-87z" />
    <glyph glyph-name="mu" unicode="&#xb5;" horiz-adv-x="555" 
d="M174 -153h-91v620h91v-270c0 -73 33 -117 92 -117c72 0 132 44 132 133v254h91v-467h-91v57c-27 -43 -83 -66 -132 -66c-42 0 -73 10 -92 30v-174z" />
    <glyph glyph-name="paragraph" unicode="&#xb6;" horiz-adv-x="651" 
d="M252 689h73v-745h-83v311c-57 3 -106 26 -147 68c-40 42 -60 92 -60 149c0 60 21 111 63 153c42 43 93 64 154 64zM383 -64v753h93c37 0 69 -14 96 -41s41 -59 41 -96v-85h-82v85c0 28 -18 53 -45 53h-20v-654c0 -35 -14 -66 -41 -93s-59 -42 -96 -44h-88v76h88
c28 0 54 22 54 46z" />
    <glyph glyph-name="middot" unicode="&#xb7;" horiz-adv-x="269" 
d="M88 206c-25 24 -25 66 0 90s67 24 92 0c27 -24 27 -66 0 -90c-25 -23 -67 -23 -92 0z" />
    <glyph glyph-name="cedilla" unicode="&#xb8;" horiz-adv-x="522" 
d="M227 -117c10 -22 27 -30 50 -23c20 9 28 32 20 53l-43 120h49l51 -95c5 -13 8 -27 8 -42c0 -40 -23 -75 -63 -92c-12 -5 -25 -8 -39 -8c-39 0 -73 24 -90 64c-7 15 -10 32 -10 49l64 -4c-1 -9 0 -17 3 -22z" />
    <glyph glyph-name="onesuperior" unicode="&#xb9;" horiz-adv-x="208" 
d="M154 430h-60v305l-68 -35v57l128 70v-397z" />
    <glyph glyph-name="ordmasculine" unicode="&#xba;" horiz-adv-x="497" 
d="M77 490c0 50 16 91 49 122s74 47 122 47s89 -16 122 -47s50 -72 50 -122c0 -51 -17 -92 -50 -124s-74 -48 -122 -48s-89 16 -122 48s-49 73 -49 124zM356 490c0 64 -48 107 -108 107s-108 -43 -108 -107c0 -65 48 -110 108 -110s108 45 108 110zM416 215h-331v50h331v-50
z" />
    <glyph glyph-name="guillemotright" unicode="&#xbb;" horiz-adv-x="489" 
d="M305 440l138 -207l-138 -207h-79l138 207l-138 207h79zM129 440l138 -207l-138 -207h-79l138 207l-138 207h79z" />
    <glyph glyph-name="onequarter" unicode="&#xbc;" horiz-adv-x="733" 
d="M163 665v-395h-53v324l-64 -22v51zM582 131v164l-113 -164h113zM692 131v-51h-57v-80h-53v80h-204l217 312h40v-261h57zM529 670h67l-450 -680h-68z" />
    <glyph glyph-name="onehalf" unicode="&#xbd;" horiz-adv-x="771" 
d="M164 665v-395h-53v324l-64 -22v51zM720 0h-242v24l159 193c58 72 18 126 -44 126c-37 0 -66 -23 -71 -62l-49 13c9 63 60 103 123 103c69 0 123 -48 123 -116c0 -35 -14 -69 -43 -102l-106 -125h150v-54zM527 670h67l-450 -680h-68z" />
    <glyph glyph-name="threequarters" unicode="&#xbe;" horiz-adv-x="812" 
d="M548 131h113v164zM714 80v-80h-53v80h-204l217 312h40v-261h57v-51h-57zM104 578c-8 8 -31 24 -40 32c21 37 65 60 113 57c31 -2 57 -14 78 -35s31 -45 30 -73c0 -31 -18 -62 -46 -78c39 -15 66 -62 62 -105c-3 -33 -18 -61 -47 -83c-28 -21 -60 -31 -97 -28
c-51 4 -96 37 -116 82l47 25c12 -28 43 -51 74 -54h-1c44 -3 84 26 85 65c1 37 -35 70 -75 70h-45v52h45c28 0 49 18 54 45c5 33 -17 59 -53 64c-28 2 -51 -10 -68 -36zM234 -10h-68l451 680h67z" />
    <glyph glyph-name="questiondown" unicode="&#xbf;" horiz-adv-x="472" 
d="M349 -24h86c0 -63 -19 -113 -57 -151c-38 -39 -85 -58 -140 -58c-56 0 -104 18 -145 54c-40 36 -60 83 -60 141c0 93 61 164 144 189c48 15 71 30 71 73l2 59h88v-59c0 -91 -47 -132 -134 -159c-44 -12 -82 -58 -82 -103c0 -31 12 -57 35 -76c23 -20 50 -30 81 -30
c60 0 111 48 111 120zM339 459c27 -23 27 -65 0 -89c-25 -24 -67 -24 -92 0s-25 66 0 89c25 24 67 24 92 0z" />
    <glyph glyph-name="Agrave" unicode="&#xc0;" horiz-adv-x="645" 
d="M323 565l-114 -306h228zM536 0l-67 175h-292l-67 -175h-99l262 689h100l261 -689h-98zM372 776h-87l-119 154h109z" />
    <glyph glyph-name="Aacute" unicode="&#xc1;" horiz-adv-x="645" 
d="M437 259l-114 306l-114 -306h228zM177 175l-67 -175h-99l262 689h100l261 -689h-98l-67 175h-292zM373 930h109l-119 -154h-87z" />
    <glyph glyph-name="Acircumflex" unicode="&#xc2;" horiz-adv-x="645" 
d="M323 565l-114 -306h228zM536 0l-67 175h-292l-67 -175h-99l262 689h100l261 -689h-98zM479 776h-82l-75 87l-74 -87h-82l110 154h93z" />
    <glyph glyph-name="Atilde" unicode="&#xc3;" horiz-adv-x="645" 
d="M323 565l-114 -306h228zM536 0l-67 175h-292l-67 -175h-99l262 689h100l261 -689h-98zM277 832c-12 0 -26 -15 -27 -44h-61c4 81 43 117 88 117c17 0 36 -8 58 -24c38 -32 53 -17 59 24h61c-4 -80 -44 -114 -89 -114c-17 0 -36 8 -57 25c-16 11 -27 16 -32 16z" />
    <glyph glyph-name="Adieresis" unicode="&#xc4;" horiz-adv-x="645" 
d="M437 259l-114 306l-114 -306h228zM177 175l-67 -175h-99l262 689h100l261 -689h-98l-67 175h-292zM238 911c33 0 61 -26 61 -59s-28 -59 -61 -59c-35 0 -62 26 -62 59s27 59 62 59zM363 810c-24 23 -24 61 0 84s64 23 88 0s24 -61 0 -84s-64 -23 -88 0z" />
    <glyph glyph-name="Aring" unicode="&#xc5;" horiz-adv-x="645" 
d="M437 259l-114 306l-114 -306h228zM177 175l-67 -175h-99l262 689h100l261 -689h-98l-67 175h-292zM217 867c0 60 45 106 104 106c60 0 107 -46 107 -106c0 -59 -47 -104 -107 -104c-57 0 -104 47 -104 104zM270 867c0 -28 23 -51 51 -51c29 0 54 23 54 51
c0 29 -23 53 -54 53c-28 0 -51 -24 -51 -53z" />
    <glyph glyph-name="AE" unicode="&#xc6;" horiz-adv-x="934" 
d="M465 173h-245l-111 -173h-109l435 689h435v-92h-313v-213h274v-92h-274v-200h324v-92h-416v173zM465 560l-190 -298h190v298z" />
    <glyph glyph-name="Ccedilla" unicode="&#xc7;" horiz-adv-x="684" 
d="M318 -117c10 -22 27 -30 50 -23c20 9 28 32 20 53l-29 79c-88 9 -162 47 -221 114s-88 146 -88 237c0 98 34 181 101 250c68 69 151 104 248 104c104 0 196 -44 259 -117l-70 -58c-52 57 -115 85 -189 85c-72 0 -133 -26 -182 -77s-74 -114 -74 -187s25 -136 74 -187
s110 -76 182 -76c77 0 141 29 191 88l70 -59c-62 -73 -143 -113 -243 -118l28 -53c5 -13 8 -27 8 -42c0 -40 -23 -75 -63 -92c-12 -5 -25 -8 -39 -8c-39 0 -73 24 -90 64c-7 15 -10 32 -10 49l64 -4c-1 -9 0 -17 3 -22z" />
    <glyph glyph-name="Egrave" unicode="&#xc8;" horiz-adv-x="565" 
d="M94 0v689h408v-87h-315v-220h275v-87h-275v-208h325v-87h-418zM354 776h-87l-119 154h109z" />
    <glyph glyph-name="Eacute" unicode="&#xc9;" horiz-adv-x="565" 
d="M502 689v-87h-315v-220h275v-87h-275v-208h325v-87h-418v689h408zM312 930h109l-119 -154h-87z" />
    <glyph glyph-name="Ecircumflex" unicode="&#xca;" horiz-adv-x="565" 
d="M94 0v689h408v-87h-315v-220h275v-87h-275v-208h325v-87h-418zM439 776h-82l-75 87l-74 -87h-82l110 154h93z" />
    <glyph glyph-name="Edieresis" unicode="&#xcb;" horiz-adv-x="565" 
d="M502 689v-87h-315v-220h275v-87h-275v-208h325v-87h-418v689h408zM202 911c33 0 61 -26 61 -59s-28 -59 -61 -59c-35 0 -62 26 -62 59s27 59 62 59zM327 810c-24 23 -24 61 0 84s64 23 88 0s24 -61 0 -84s-64 -23 -88 0z" />
    <glyph glyph-name="Igrave" unicode="&#xcc;" horiz-adv-x="281" 
d="M187 776h-87l-119 154h109zM94 0v689h93v-689h-93z" />
    <glyph glyph-name="Iacute" unicode="&#xcd;" horiz-adv-x="281" 
d="M187 689v-689h-93v689h93zM190 930h109l-119 -154h-87z" />
    <glyph glyph-name="Icircumflex" unicode="&#xce;" horiz-adv-x="281" 
d="M297 776h-82l-75 87l-74 -87h-82l110 154h93zM94 0v689h93v-689h-93z" />
    <glyph glyph-name="Idieresis" unicode="&#xcf;" horiz-adv-x="281" 
d="M187 689v-689h-93v689h93zM56 911c33 0 61 -26 61 -59s-28 -59 -61 -59c-35 0 -62 26 -62 59s27 59 62 59zM181 810c-24 23 -24 61 0 84s64 23 88 0s24 -61 0 -84s-64 -23 -88 0z" />
    <glyph glyph-name="Eth" unicode="&#xd0;" horiz-adv-x="724" 
d="M363 0h-263v311h-93v68h93v310h263c95 0 170 -32 225 -97s82 -148 82 -249s-27 -183 -82 -247s-130 -96 -225 -96zM193 597v-218h165v-68h-165v-219h170c69 0 121 23 158 69c37 47 56 107 56 182s-19 136 -56 183s-89 71 -158 71h-170z" />
    <glyph glyph-name="Ntilde" unicode="&#xd1;" horiz-adv-x="684" 
d="M297 832c-12 0 -26 -15 -27 -44h-61c4 81 43 117 88 117c17 0 36 -8 58 -24c38 -32 53 -17 59 24h61c-4 -80 -44 -114 -89 -114c-17 0 -36 8 -57 25c-16 11 -27 16 -32 16zM590 689v-689h-89l-314 519v-519h-93v689h92l311 -515v515h93z" />
    <glyph glyph-name="Ograve" unicode="&#xd2;" horiz-adv-x="796" 
d="M49 343c0 99 34 182 101 251s150 103 247 103c98 0 181 -34 248 -103c68 -69 102 -152 102 -251c0 -98 -34 -181 -102 -250c-67 -69 -150 -103 -248 -103c-97 0 -180 34 -247 103s-101 152 -101 250zM397 607c-71 0 -132 -26 -181 -77s-74 -114 -74 -187s24 -136 73 -187
s110 -76 182 -76s133 25 182 76s74 114 74 187s-25 136 -74 187s-110 77 -182 77zM451 776h-87l-119 154h109z" />
    <glyph glyph-name="Oacute" unicode="&#xd3;" horiz-adv-x="796" 
d="M49 343c0 99 34 182 101 251s150 103 247 103c98 0 181 -34 248 -103c68 -69 102 -152 102 -251c0 -98 -34 -181 -102 -250c-67 -69 -150 -103 -248 -103c-97 0 -180 34 -247 103s-101 152 -101 250zM397 607c-71 0 -132 -26 -181 -77s-74 -114 -74 -187s24 -136 73 -187
s110 -76 182 -76s133 25 182 76s74 114 74 187s-25 136 -74 187s-110 77 -182 77zM430 930h109l-119 -154h-87z" />
    <glyph glyph-name="Ocircumflex" unicode="&#xd4;" horiz-adv-x="796" 
d="M49 343c0 99 34 182 101 251s150 103 247 103c98 0 181 -34 248 -103c68 -69 102 -152 102 -251c0 -98 -34 -181 -102 -250c-67 -69 -150 -103 -248 -103c-97 0 -180 34 -247 103s-101 152 -101 250zM397 607c-71 0 -132 -26 -181 -77s-74 -114 -74 -187s24 -136 73 -187
s110 -76 182 -76s133 25 182 76s74 114 74 187s-25 136 -74 187s-110 77 -182 77zM554 776h-82l-75 87l-74 -87h-82l110 154h93z" />
    <glyph glyph-name="Otilde" unicode="&#xd5;" horiz-adv-x="796" 
d="M49 343c0 99 34 182 101 251s150 103 247 103c98 0 181 -34 248 -103c68 -69 102 -152 102 -251c0 -98 -34 -181 -102 -250c-67 -69 -150 -103 -248 -103c-97 0 -180 34 -247 103s-101 152 -101 250zM397 607c-71 0 -132 -26 -181 -77s-74 -114 -74 -187s24 -136 73 -187
s110 -76 182 -76s133 25 182 76s74 114 74 187s-25 136 -74 187s-110 77 -182 77zM353 832c-12 0 -26 -15 -27 -44h-61c4 81 43 117 88 117c17 0 36 -8 58 -24c38 -32 53 -17 59 24h61c-4 -80 -44 -114 -89 -114c-17 0 -36 8 -57 25c-16 11 -27 16 -32 16z" />
    <glyph glyph-name="Odieresis" unicode="&#xd6;" horiz-adv-x="796" 
d="M49 343c0 99 34 182 101 251s150 103 247 103c98 0 181 -34 248 -103c68 -69 102 -152 102 -251c0 -98 -34 -181 -102 -250c-67 -69 -150 -103 -248 -103c-97 0 -180 34 -247 103s-101 152 -101 250zM397 607c-71 0 -132 -26 -181 -77s-74 -114 -74 -187s24 -136 73 -187
s110 -76 182 -76s133 25 182 76s74 114 74 187s-25 136 -74 187s-110 77 -182 77zM313 911c33 0 61 -26 61 -59s-28 -59 -61 -59c-35 0 -62 26 -62 59s27 59 62 59zM438 810c-24 23 -24 61 0 84s64 23 88 0s24 -61 0 -84s-64 -23 -88 0z" />
    <glyph glyph-name="multiply" unicode="&#xd7;" horiz-adv-x="497" 
d="M63 148l125 125l-125 124l62 60l123 -123l126 125l60 -63l-124 -123l124 -124l-60 -63l-126 125l-123 -123z" />
    <glyph glyph-name="Oslash" unicode="&#xd8;" horiz-adv-x="795" 
d="M178 66l-80 -82l-47 47l80 82c-55 66 -83 143 -83 230c0 99 34 182 101 251s150 103 247 103c85 0 159 -27 224 -81l79 81l47 -46l-80 -82c53 -66 80 -141 80 -226c0 -98 -34 -181 -102 -250c-67 -69 -150 -103 -248 -103c-83 0 -156 25 -218 76zM141 343
c0 -62 18 -117 54 -164l361 371c-47 38 -100 57 -160 57c-71 0 -132 -26 -181 -77s-74 -114 -74 -187zM396 80c72 0 133 25 182 76s74 114 74 187c0 59 -17 112 -51 159l-359 -370c44 -35 95 -52 154 -52z" />
    <glyph glyph-name="Ugrave" unicode="&#xd9;" horiz-adv-x="678" 
d="M497 237v452h94v-452c0 -73 -25 -133 -74 -179c-49 -45 -108 -68 -178 -68s-130 23 -179 68c-49 46 -73 106 -73 179v452h94v-452c0 -46 15 -84 46 -113s68 -44 112 -44s81 15 112 44s46 67 46 113zM401 776h-87l-119 154h109z" />
    <glyph glyph-name="Uacute" unicode="&#xda;" horiz-adv-x="678" 
d="M497 237v452h94v-452c0 -73 -25 -133 -74 -179c-49 -45 -108 -68 -178 -68s-130 23 -179 68c-49 46 -73 106 -73 179v452h94v-452c0 -46 15 -84 46 -113s68 -44 112 -44s81 15 112 44s46 67 46 113zM364 930h109l-119 -154h-87z" />
    <glyph glyph-name="Ucircumflex" unicode="&#xdb;" horiz-adv-x="678" 
d="M497 237v452h94v-452c0 -73 -25 -133 -74 -179c-49 -45 -108 -68 -178 -68s-130 23 -179 68c-49 46 -73 106 -73 179v452h94v-452c0 -46 15 -84 46 -113s68 -44 112 -44s81 15 112 44s46 67 46 113zM495 776h-82l-75 87l-74 -87h-82l110 154h93z" />
    <glyph glyph-name="Udieresis" unicode="&#xdc;" horiz-adv-x="678" 
d="M254 911c33 0 61 -26 61 -59s-28 -59 -61 -59c-35 0 -62 26 -62 59s27 59 62 59zM379 810c-24 23 -24 61 0 84s64 23 88 0s24 -61 0 -84s-64 -23 -88 0zM497 237v452h94v-452c0 -73 -25 -133 -74 -179c-49 -45 -108 -68 -178 -68s-130 23 -179 68c-49 46 -73 106 -73 179
v452h94v-452c0 -46 15 -84 46 -113s68 -44 112 -44s81 15 112 44s46 67 46 113z" />
    <glyph glyph-name="Yacute" unicode="&#xdd;" horiz-adv-x="628" 
d="M362 317v-317h-96v317l-261 372h111l198 -279l200 279h112zM350 930h109l-119 -154h-87z" />
    <glyph glyph-name="Thorn" unicode="&#xde;" horiz-adv-x="572" 
d="M327 138h-140v-138h-93v689h93v-123h140c60 0 110 -20 150 -59c41 -39 61 -90 61 -153c0 -64 -20 -116 -61 -156c-40 -40 -90 -60 -150 -60zM187 479v-251h140c33 0 61 12 84 35c23 24 35 54 35 91c0 75 -54 120 -127 124z" />
    <glyph glyph-name="germandbls" unicode="&#xdf;" horiz-adv-x="566" 
d="M206 4v85c29 -11 57 -16 83 -16c41 0 76 14 104 43c29 29 43 63 43 102c0 37 -15 70 -44 99s-63 44 -102 44h-37v74h35c52 0 95 42 95 91c0 48 -44 85 -100 88h-9c-64 0 -112 -48 -112 -124v-490h-86v490c0 129 81 207 198 207h10c51 0 94 -17 130 -50s54 -74 54 -121
s-21 -86 -63 -119c33 -16 61 -42 83 -78c23 -35 34 -72 34 -111c0 -64 -22 -118 -67 -162c-44 -44 -99 -66 -164 -66c-25 -1 -54 3 -85 14z" />
    <glyph glyph-name="agrave" unicode="&#xe0;" horiz-adv-x="612" 
d="M536 0h-90v72c-31 -52 -96 -82 -164 -82c-66 0 -122 23 -168 68s-69 104 -69 176c0 73 23 131 69 176s102 67 168 67c68 0 135 -29 164 -80v70h90v-467zM445 235c0 47 -16 85 -47 112s-67 41 -108 41c-43 0 -80 -14 -109 -43c-29 -28 -43 -65 -43 -110s15 -83 44 -112
s65 -44 108 -44s80 14 110 42s45 66 45 114zM373 554h-87l-119 154h109z" />
    <glyph glyph-name="aacute" unicode="&#xe1;" horiz-adv-x="612" 
d="M536 0h-90v72c-31 -52 -96 -82 -164 -82c-66 0 -122 23 -168 68s-69 104 -69 176c0 73 23 131 69 176s102 67 168 67c68 0 135 -29 164 -80v70h90v-467zM445 235c0 47 -16 85 -47 112s-67 41 -108 41c-43 0 -80 -14 -109 -43c-29 -28 -43 -65 -43 -110s15 -83 44 -112
s65 -44 108 -44s80 14 110 42s45 66 45 114zM319 708h109l-119 -154h-87z" />
    <glyph glyph-name="acircumflex" unicode="&#xe2;" horiz-adv-x="612" 
d="M536 0h-90v72c-31 -52 -96 -82 -164 -82c-66 0 -122 23 -168 68s-69 104 -69 176c0 73 23 131 69 176s102 67 168 67c68 0 135 -29 164 -80v70h90v-467zM445 235c0 47 -16 85 -47 112s-67 41 -108 41c-43 0 -80 -14 -109 -43c-29 -28 -43 -65 -43 -110s15 -83 44 -112
s65 -44 108 -44s80 14 110 42s45 66 45 114zM445 554h-82l-75 87l-74 -87h-82l110 154h93z" />
    <glyph glyph-name="atilde" unicode="&#xe3;" horiz-adv-x="612" 
d="M536 0h-90v72c-31 -52 -96 -82 -164 -82c-66 0 -122 23 -168 68s-69 104 -69 176c0 73 23 131 69 176s102 67 168 67c68 0 135 -29 164 -80v70h90v-467zM445 235c0 47 -16 85 -47 112s-67 41 -108 41c-43 0 -80 -14 -109 -43c-29 -28 -43 -65 -43 -110s15 -83 44 -112
s65 -44 108 -44s80 14 110 42s45 66 45 114zM260 610c-12 0 -26 -15 -27 -44h-61c4 81 43 117 88 117c17 0 36 -8 58 -24c38 -32 53 -17 59 24h61c-4 -80 -44 -114 -89 -114c-17 0 -36 8 -57 25c-16 11 -27 16 -32 16z" />
    <glyph glyph-name="adieresis" unicode="&#xe4;" horiz-adv-x="612" 
d="M536 0h-90v72c-31 -52 -96 -82 -164 -82c-66 0 -122 23 -168 68s-69 104 -69 176c0 73 23 131 69 176s102 67 168 67c68 0 135 -29 164 -80v70h90v-467zM445 235c0 47 -16 85 -47 112s-67 41 -108 41c-43 0 -80 -14 -109 -43c-29 -28 -43 -65 -43 -110s15 -83 44 -112
s65 -44 108 -44s80 14 110 42s45 66 45 114zM206 689c33 0 61 -26 61 -59s-28 -59 -61 -59c-35 0 -62 26 -62 59s27 59 62 59zM331 588c-24 23 -24 61 0 84s64 23 88 0s24 -61 0 -84s-64 -23 -88 0z" />
    <glyph glyph-name="aring" unicode="&#xe5;" horiz-adv-x="612" 
d="M536 0h-90v72c-31 -52 -96 -82 -164 -82c-66 0 -122 23 -168 68s-69 104 -69 176c0 73 23 131 69 176s102 67 168 67c68 0 135 -29 164 -80v70h90v-467zM445 235c0 47 -16 85 -47 112s-67 41 -108 41c-43 0 -80 -14 -109 -43c-29 -28 -43 -65 -43 -110s15 -83 44 -112
s65 -44 108 -44s80 14 110 42s45 66 45 114zM185 645c0 60 45 106 104 106c60 0 107 -46 107 -106c0 -59 -47 -104 -107 -104c-57 0 -104 47 -104 104zM238 645c0 -28 23 -51 51 -51c29 0 54 23 54 51c0 29 -23 53 -54 53c-28 0 -51 -24 -51 -53z" />
    <glyph glyph-name="ae" unicode="&#xe6;" horiz-adv-x="957" 
d="M446 467h90v-38c41 32 91 48 149 48c67 0 123 -22 166 -67c44 -44 66 -102 66 -175c0 -17 0 -29 -1 -36h-379c11 -77 71 -127 151 -127c57 0 109 27 134 72c9 -3 22 -9 40 -16l38 -14c-39 -80 -122 -124 -215 -124c-59 0 -108 16 -149 49v-39h-90v72
c-31 -52 -96 -82 -164 -82c-66 0 -122 23 -168 68s-69 104 -69 176c0 73 23 131 69 176s102 67 168 67c68 0 135 -29 164 -80v70zM445 235c0 47 -16 85 -47 112s-67 41 -108 41c-43 0 -80 -14 -109 -43c-29 -28 -43 -65 -43 -110s15 -83 44 -112s65 -44 108 -44
s80 14 110 42s45 66 45 114zM537 270h290c-11 77 -66 125 -142 125c-79 0 -137 -48 -148 -125z" />
    <glyph glyph-name="ccedilla" unicode="&#xe7;" horiz-adv-x="512" 
d="M316 -8l29 -54c5 -13 8 -27 8 -42c0 -40 -23 -75 -63 -92c-12 -5 -25 -8 -39 -8c-39 0 -73 24 -90 64c-7 15 -10 32 -10 49l64 -4c-1 -9 0 -17 3 -22c10 -22 27 -30 50 -23c20 9 28 32 20 53l-29 79c-61 7 -112 33 -153 77c-41 45 -61 100 -61 166c0 72 24 130 72 175
s106 67 175 67c74 0 134 -25 180 -75l-69 -58c-29 29 -66 44 -111 44c-43 0 -80 -14 -111 -43c-31 -28 -46 -65 -46 -110c0 -46 15 -84 46 -113s68 -44 111 -44c45 0 82 15 111 46l70 -58c-40 -44 -92 -69 -157 -74z" />
    <glyph glyph-name="egrave" unicode="&#xe8;" horiz-adv-x="556" 
d="M136 270h290c-11 77 -66 125 -142 125c-79 0 -137 -48 -148 -125zM516 235c0 -17 0 -29 -1 -36h-379c11 -77 71 -127 151 -127c57 0 109 27 134 72c9 -3 22 -9 40 -16l38 -14c-39 -80 -122 -124 -215 -124c-68 0 -125 23 -171 68c-45 45 -68 104 -68 177s23 131 68 175
c46 45 103 67 171 67c67 0 123 -22 166 -67c44 -44 66 -102 66 -175zM334 554h-87l-119 154h109z" />
    <glyph glyph-name="eacute" unicode="&#xe9;" horiz-adv-x="556" 
d="M136 270h290c-11 77 -66 125 -142 125c-79 0 -137 -48 -148 -125zM516 235c0 -17 0 -29 -1 -36h-379c11 -77 71 -127 151 -127c57 0 109 27 134 72c9 -3 22 -9 40 -16l38 -14c-39 -80 -122 -124 -215 -124c-68 0 -125 23 -171 68c-45 45 -68 104 -68 177s23 131 68 175
c46 45 103 67 171 67c67 0 123 -22 166 -67c44 -44 66 -102 66 -175zM314 708h109l-119 -154h-87z" />
    <glyph glyph-name="ecircumflex" unicode="&#xea;" horiz-adv-x="556" 
d="M136 270h290c-11 77 -66 125 -142 125c-79 0 -137 -48 -148 -125zM516 235c0 -17 0 -29 -1 -36h-379c11 -77 71 -127 151 -127c57 0 109 27 134 72c9 -3 22 -9 40 -16l38 -14c-39 -80 -122 -124 -215 -124c-68 0 -125 23 -171 68c-45 45 -68 104 -68 177s23 131 68 175
c46 45 103 67 171 67c67 0 123 -22 166 -67c44 -44 66 -102 66 -175zM437 554h-82l-75 87l-74 -87h-82l110 154h93z" />
    <glyph glyph-name="edieresis" unicode="&#xeb;" horiz-adv-x="556" 
d="M136 270h290c-11 77 -66 125 -142 125c-79 0 -137 -48 -148 -125zM516 235c0 -17 0 -29 -1 -36h-379c11 -77 71 -127 151 -127c57 0 109 27 134 72c9 -3 22 -9 40 -16l38 -14c-39 -80 -122 -124 -215 -124c-68 0 -125 23 -171 68c-45 45 -68 104 -68 177s23 131 68 175
c46 45 103 67 171 67c67 0 123 -22 166 -67c44 -44 66 -102 66 -175zM196 689c33 0 61 -26 61 -59s-28 -59 -61 -59c-35 0 -62 26 -62 59s27 59 62 59zM321 588c-24 23 -24 61 0 84s64 23 88 0s24 -61 0 -84s-64 -23 -88 0z" />
    <glyph glyph-name="igrave" unicode="&#xec;" horiz-adv-x="241" 
d="M76 467h89v-467h-89v467zM164 554h-87l-119 154h109z" />
    <glyph glyph-name="iacute" unicode="&#xed;" horiz-adv-x="241" 
d="M165 0h-89v467h89v-467zM172 708h109l-119 -154h-87z" />
    <glyph glyph-name="icircumflex" unicode="&#xee;" horiz-adv-x="241" 
d="M76 467h89v-467h-89v467zM282 554h-82l-75 87l-74 -87h-82l110 154h93z" />
    <glyph glyph-name="idieresis" unicode="&#xef;" horiz-adv-x="241" 
d="M165 0h-89v467h89v-467zM41 689c33 0 61 -26 61 -59s-28 -59 -61 -59c-35 0 -62 26 -62 59s27 59 62 59zM166 588c-24 23 -24 61 0 84s64 23 88 0s24 -61 0 -84s-64 -23 -88 0z" />
    <glyph glyph-name="eth" unicode="&#xf0;" horiz-adv-x="578" 
d="M236 689l40 -49l65 40l36 -42l-62 -42l171 -215c31 -42 46 -91 46 -146c0 -72 -24 -131 -71 -177c-47 -45 -104 -68 -172 -68s-126 23 -173 68c-47 46 -71 105 -71 177c0 71 23 129 70 174s102 68 166 68c13 0 25 -3 36 -10l-74 83l-85 -53l-32 47l80 50l-75 95h105z
M289 391c-45 0 -82 -14 -113 -43c-30 -29 -45 -66 -45 -113s15 -85 46 -115c31 -29 68 -44 112 -44s81 15 112 44c31 30 46 68 46 115s-15 84 -46 113s-68 43 -112 43z" />
    <glyph glyph-name="ntilde" unicode="&#xf1;" horiz-adv-x="563" 
d="M167 252v-252h-91v467h91v-70c27 52 89 80 146 80c116 0 180 -75 180 -207v-270h-91v264c0 77 -39 124 -103 124c-73 0 -132 -44 -132 -136zM237 610c-12 0 -26 -15 -27 -44h-61c4 81 43 117 88 117c17 0 36 -8 58 -24c38 -32 53 -17 59 24h61c-4 -80 -44 -114 -89 -114
c-17 0 -36 8 -57 25c-16 11 -27 16 -32 16z" />
    <glyph glyph-name="ograve" unicode="&#xf2;" horiz-adv-x="579" 
d="M45 235c0 72 23 130 70 175s105 67 174 67s127 -22 174 -67s71 -103 71 -175s-24 -131 -72 -177c-47 -45 -105 -68 -173 -68s-126 23 -173 68s-71 104 -71 177zM443 235c0 46 -15 83 -45 111c-29 28 -66 42 -109 42s-80 -14 -110 -42c-29 -28 -44 -65 -44 -111
c0 -47 15 -85 44 -114c30 -29 67 -43 110 -43s80 14 109 43c30 29 45 67 45 114zM340 554h-87l-119 154h109z" />
    <glyph glyph-name="oacute" unicode="&#xf3;" horiz-adv-x="579" 
d="M45 235c0 72 23 130 70 175s105 67 174 67s127 -22 174 -67s71 -103 71 -175s-24 -131 -72 -177c-47 -45 -105 -68 -173 -68s-126 23 -173 68s-71 104 -71 177zM135 235c0 -47 15 -85 44 -114c30 -29 67 -43 110 -43s80 14 109 43c30 29 45 67 45 114
c0 46 -15 83 -45 111c-29 28 -66 42 -109 42s-80 -14 -110 -42c-29 -28 -44 -65 -44 -111zM327 708h109l-119 -154h-87z" />
    <glyph glyph-name="ocircumflex" unicode="&#xf4;" horiz-adv-x="579" 
d="M45 235c0 72 23 130 70 175s105 67 174 67s127 -22 174 -67s71 -103 71 -175s-24 -131 -72 -177c-47 -45 -105 -68 -173 -68s-126 23 -173 68s-71 104 -71 177zM443 235c0 46 -15 83 -45 111c-29 28 -66 42 -109 42s-80 -14 -110 -42c-29 -28 -44 -65 -44 -111
c0 -47 15 -85 44 -114c30 -29 67 -43 110 -43s80 14 109 43c30 29 45 67 45 114zM446 554h-82l-75 87l-74 -87h-82l110 154h93z" />
    <glyph glyph-name="otilde" unicode="&#xf5;" horiz-adv-x="579" 
d="M45 235c0 72 23 130 70 175s105 67 174 67s127 -22 174 -67s71 -103 71 -175s-24 -131 -72 -177c-47 -45 -105 -68 -173 -68s-126 23 -173 68s-71 104 -71 177zM443 235c0 46 -15 83 -45 111c-29 28 -66 42 -109 42s-80 -14 -110 -42c-29 -28 -44 -65 -44 -111
c0 -47 15 -85 44 -114c30 -29 67 -43 110 -43s80 14 109 43c30 29 45 67 45 114zM244 610c-12 0 -26 -15 -27 -44h-61c4 81 43 117 88 117c17 0 36 -8 58 -24c38 -32 53 -17 59 24h61c-4 -80 -44 -114 -89 -114c-17 0 -36 8 -57 25c-16 11 -27 16 -32 16z" />
    <glyph glyph-name="odieresis" unicode="&#xf6;" horiz-adv-x="579" 
d="M45 235c0 72 23 130 70 175s105 67 174 67s127 -22 174 -67s71 -103 71 -175s-24 -131 -72 -177c-47 -45 -105 -68 -173 -68s-126 23 -173 68s-71 104 -71 177zM135 235c0 -47 15 -85 44 -114c30 -29 67 -43 110 -43s80 14 109 43c30 29 45 67 45 114
c0 46 -15 83 -45 111c-29 28 -66 42 -109 42s-80 -14 -110 -42c-29 -28 -44 -65 -44 -111zM205 689c33 0 61 -26 61 -59s-28 -59 -61 -59c-35 0 -62 26 -62 59s27 59 62 59zM330 588c-24 23 -24 61 0 84s64 23 88 0s24 -61 0 -84s-64 -23 -88 0z" />
    <glyph glyph-name="divide" unicode="&#xf7;" horiz-adv-x="537" 
d="M222 45c-25 24 -25 66 0 90s67 24 92 0c27 -24 27 -66 0 -90c-25 -23 -67 -23 -92 0zM222 379c-25 24 -25 66 0 89c25 24 67 24 92 0c27 -23 27 -65 0 -89c-25 -24 -67 -24 -92 0zM63 214v83h411v-83h-411z" />
    <glyph glyph-name="oslash" unicode="&#xf8;" horiz-adv-x="577" 
d="M144 33l-57 -58l-47 47l56 57c-35 43 -52 95 -52 156c0 72 23 130 70 175s105 67 174 67c56 0 106 -16 150 -47l50 51l47 -46l-50 -51c32 -43 48 -92 48 -149c0 -72 -24 -131 -72 -177c-47 -45 -105 -68 -173 -68c-55 0 -103 14 -144 43zM288 388c-43 0 -80 -14 -110 -42
c-29 -28 -44 -65 -44 -111c0 -35 8 -65 25 -90l215 219c-25 16 -54 24 -86 24zM288 78c43 0 80 14 109 43c30 29 45 67 45 114c0 29 -7 56 -22 82l-212 -218c23 -14 50 -21 80 -21z" />
    <glyph glyph-name="ugrave" unicode="&#xf9;" horiz-adv-x="562" 
d="M396 215v252h91v-467h-91v70c-27 -52 -88 -80 -145 -80c-116 0 -181 75 -180 207v270h91v-264c0 -77 38 -124 102 -124c75 0 132 43 132 136zM347 554h-87l-119 154h109z" />
    <glyph glyph-name="uacute" unicode="&#xfa;" horiz-adv-x="562" 
d="M396 215v252h91v-467h-91v70c-27 -52 -88 -80 -145 -80c-116 0 -181 75 -180 207v270h91v-264c0 -77 38 -124 102 -124c75 0 132 43 132 136zM326 708h109l-119 -154h-87z" />
    <glyph glyph-name="ucircumflex" unicode="&#xfb;" horiz-adv-x="562" 
d="M396 215v252h91v-467h-91v70c-27 -52 -88 -80 -145 -80c-116 0 -181 75 -180 207v270h91v-264c0 -77 38 -124 102 -124c75 0 132 43 132 136zM429 554h-82l-75 87l-74 -87h-82l110 154h93z" />
    <glyph glyph-name="udieresis" unicode="&#xfc;" horiz-adv-x="562" 
d="M396 215v252h91v-467h-91v70c-27 -52 -88 -80 -145 -80c-116 0 -181 75 -180 207v270h91v-264c0 -77 38 -124 102 -124c75 0 132 43 132 136zM204 689c33 0 61 -26 61 -59s-28 -59 -61 -59c-35 0 -62 26 -62 59s27 59 62 59zM329 588c-24 23 -24 61 0 84s64 23 88 0
s24 -61 0 -84s-64 -23 -88 0z" />
    <glyph glyph-name="yacute" unicode="&#xfd;" horiz-adv-x="509" 
d="M107 -227l98 241l-187 453h97l140 -338l140 338h97l-290 -694h-95zM275 708h109l-119 -154h-87z" />
    <glyph glyph-name="thorn" unicode="&#xfe;" horiz-adv-x="602" 
d="M167 -213h-91v933h91v-311c32 43 91 67 152 67c68 0 125 -22 170 -67c45 -44 68 -102 68 -175c0 -72 -23 -131 -68 -176s-102 -68 -170 -68c-60 0 -120 25 -152 69v-272zM467 234c0 45 -14 82 -42 109c-28 28 -63 42 -106 42c-40 0 -75 -14 -106 -41s-46 -63 -46 -110
c0 -96 67 -154 152 -154c42 0 77 14 105 43c29 29 43 66 43 111z" />
    <glyph glyph-name="ydieresis" unicode="&#xff;" horiz-adv-x="509" 
d="M107 -227l98 241l-187 453h97l140 -338l140 338h97l-290 -694h-95zM173 689c33 0 61 -26 61 -59s-28 -59 -61 -59c-35 0 -62 26 -62 59s27 59 62 59zM298 588c-24 23 -24 61 0 84s64 23 88 0s24 -61 0 -84s-64 -23 -88 0z" />
    <glyph glyph-name="Amacron" unicode="&#x100;" horiz-adv-x="645" 
d="M323 565l-114 -306h228zM536 0l-67 175h-292l-67 -175h-99l262 689h100l261 -689h-98zM196 802v80h252v-80h-252z" />
    <glyph glyph-name="amacron" unicode="&#x101;" horiz-adv-x="612" 
d="M536 0h-90v72c-31 -52 -96 -82 -164 -82c-66 0 -122 23 -168 68s-69 104 -69 176c0 73 23 131 69 176s102 67 168 67c68 0 135 -29 164 -80v70h90v-467zM445 235c0 47 -16 85 -47 112s-67 41 -108 41c-43 0 -80 -14 -109 -43c-29 -28 -43 -65 -43 -110s15 -83 44 -112
s65 -44 108 -44s80 14 110 42s45 66 45 114zM179 580v80h252v-80h-252z" />
    <glyph glyph-name="Abreve" unicode="&#x102;" horiz-adv-x="645" 
d="M437 259l-114 306l-114 -306h228zM177 175l-67 -175h-99l262 689h100l261 -689h-98l-67 175h-292zM192 905h74c0 -35 21 -59 56 -59c33 0 55 28 55 59h76c0 -79 -51 -128 -131 -128c-87 0 -130 56 -130 128z" />
    <glyph glyph-name="abreve" unicode="&#x103;" horiz-adv-x="612" 
d="M536 0h-90v72c-31 -52 -96 -82 -164 -82c-66 0 -122 23 -168 68s-69 104 -69 176c0 73 23 131 69 176s102 67 168 67c68 0 135 -29 164 -80v70h90v-467zM445 235c0 47 -16 85 -47 112s-67 41 -108 41c-43 0 -80 -14 -109 -43c-29 -28 -43 -65 -43 -110s15 -83 44 -112
s65 -44 108 -44s80 14 110 42s45 66 45 114zM175 683h74c0 -35 21 -59 56 -59c33 0 55 28 55 59h76c0 -79 -51 -128 -131 -128c-87 0 -130 56 -130 128z" />
    <glyph glyph-name="Aogonek" unicode="&#x104;" horiz-adv-x="645" 
d="M323 565l-114 -306h228zM502 -62l33 63l-66 174h-292l-67 -175h-99l262 689h100l261 -689h-44l-31 -87c-8 -21 0 -44 20 -53c23 -7 40 1 50 23l3 22l64 4c0 -17 -3 -34 -10 -49c-17 -40 -51 -64 -90 -64c-14 0 -27 3 -39 8c-40 17 -63 52 -63 92c0 15 3 29 8 42z" />
    <glyph glyph-name="aogonek" unicode="&#x105;" horiz-adv-x="612" 
d="M539 -117l3 22l64 4c0 -17 -3 -34 -10 -49c-17 -40 -51 -64 -90 -64c-14 0 -27 3 -39 8c-40 17 -63 52 -63 92c0 15 3 29 8 42l34 63v71c-31 -52 -96 -82 -164 -82c-66 0 -122 23 -168 68s-69 104 -69 176c0 73 23 131 69 176s102 67 168 67c68 0 135 -29 164 -80v70h90
v-467h-36l-31 -87c-8 -21 0 -44 20 -53c23 -7 40 1 50 23zM445 235c0 47 -16 85 -47 112s-67 41 -108 41c-43 0 -80 -14 -109 -43c-29 -28 -43 -65 -43 -110s15 -83 44 -112s65 -44 108 -44s80 14 110 42s45 66 45 114z" />
    <glyph glyph-name="Cacute" unicode="&#x106;" horiz-adv-x="683" 
d="M659 109c-63 -75 -156 -119 -261 -119c-97 0 -180 34 -248 103c-67 69 -101 152 -101 250s34 181 101 250c68 69 151 104 248 104c104 0 196 -44 259 -117l-70 -58c-52 57 -115 85 -189 85c-72 0 -133 -26 -182 -77s-74 -114 -74 -187s25 -136 74 -187s110 -76 182 -76
c77 0 141 29 191 88zM426 930h109l-119 -154h-87z" />
    <glyph glyph-name="cacute" unicode="&#x107;" horiz-adv-x="512" 
d="M292 477c74 0 134 -25 180 -75l-69 -58c-29 29 -66 44 -111 44c-43 0 -80 -14 -111 -43c-31 -28 -46 -65 -46 -110c0 -46 15 -84 46 -113s68 -44 111 -44c45 0 82 15 111 46l70 -58c-47 -51 -107 -76 -181 -76c-69 0 -127 23 -175 68c-48 46 -72 105 -72 177
s24 130 72 175s106 67 175 67zM311 708h109l-119 -154h-87z" />
    <glyph glyph-name="Ccircumflex" unicode="&#x108;" horiz-adv-x="683" 
d="M589 168l70 -59c-63 -75 -156 -119 -261 -119c-97 0 -180 34 -248 103c-67 69 -101 152 -101 250s34 181 101 250c68 69 151 104 248 104c104 0 196 -44 259 -117l-70 -58c-52 57 -115 85 -189 85c-72 0 -133 -26 -182 -77s-74 -114 -74 -187s25 -136 74 -187
s110 -76 182 -76c77 0 141 29 191 88zM553 776h-82l-75 87l-74 -87h-82l110 154h93z" />
    <glyph glyph-name="ccircumflex" unicode="&#x109;" horiz-adv-x="512" 
d="M292 477c74 0 134 -25 180 -75l-69 -58c-29 29 -66 44 -111 44c-43 0 -80 -14 -111 -43c-31 -28 -46 -65 -46 -110c0 -46 15 -84 46 -113s68 -44 111 -44c45 0 82 15 111 46l70 -58c-47 -51 -107 -76 -181 -76c-69 0 -127 23 -175 68c-48 46 -72 105 -72 177
s24 130 72 175s106 67 175 67zM445 554h-82l-75 87l-74 -87h-82l110 154h93z" />
    <glyph glyph-name="Cdotaccent" unicode="&#x10a;" horiz-adv-x="683" 
d="M659 109c-63 -75 -156 -119 -261 -119c-97 0 -180 34 -248 103c-67 69 -101 152 -101 250s34 181 101 250c68 69 151 104 248 104c104 0 196 -44 259 -117l-70 -58c-52 57 -115 85 -189 85c-72 0 -133 -26 -182 -77s-74 -114 -74 -187s25 -136 74 -187s110 -76 182 -76
c77 0 141 29 191 88zM336 819c-24 23 -24 61 0 84c25 23 65 23 89 0c25 -23 25 -61 0 -84c-24 -23 -64 -23 -89 0z" />
    <glyph glyph-name="cdotaccent" unicode="&#x10b;" horiz-adv-x="512" 
d="M292 477c74 0 134 -25 180 -75l-69 -58c-29 29 -66 44 -111 44c-43 0 -80 -14 -111 -43c-31 -28 -46 -65 -46 -110c0 -46 15 -84 46 -113s68 -44 111 -44c45 0 82 15 111 46l70 -58c-47 -51 -107 -76 -181 -76c-69 0 -127 23 -175 68c-48 46 -72 105 -72 177
s24 130 72 175s106 67 175 67zM243 597c-24 23 -24 61 0 84c25 23 65 23 89 0c25 -23 25 -61 0 -84c-24 -23 -64 -23 -89 0z" />
    <glyph glyph-name="Ccaron" unicode="&#x10c;" horiz-adv-x="683" 
d="M659 109c-63 -75 -156 -119 -261 -119c-97 0 -180 34 -248 103c-67 69 -101 152 -101 250s34 181 101 250c68 69 151 104 248 104c104 0 196 -44 259 -117l-70 -58c-52 57 -115 85 -189 85c-72 0 -133 -26 -182 -77s-74 -114 -74 -187s25 -136 74 -187s110 -76 182 -76
c77 0 141 29 191 88zM308 930l74 -87l75 87h82l-110 -154h-93l-110 154h82z" />
    <glyph glyph-name="ccaron" unicode="&#x10d;" horiz-adv-x="512" 
d="M292 477c74 0 134 -25 180 -75l-69 -58c-29 29 -66 44 -111 44c-43 0 -80 -14 -111 -43c-31 -28 -46 -65 -46 -110c0 -46 15 -84 46 -113s68 -44 111 -44c45 0 82 15 111 46l70 -58c-47 -51 -107 -76 -181 -76c-69 0 -127 23 -175 68c-48 46 -72 105 -72 177
s24 130 72 175s106 67 175 67zM205 708l74 -87l75 87h82l-110 -154h-93l-110 154h82z" />
    <glyph glyph-name="Dcaron" unicode="&#x10e;" horiz-adv-x="724" 
d="M94 0v689h267c95 0 171 -33 226 -98c56 -65 84 -147 84 -248c0 -100 -28 -182 -83 -247c-55 -64 -131 -96 -227 -96h-267zM361 87c69 0 123 24 160 71c38 48 57 110 57 185c0 76 -19 138 -57 186c-37 49 -91 73 -160 73h-174v-515h174zM300 930l74 -87l75 87h82
l-110 -154h-93l-110 154h82z" />
    <glyph glyph-name="dcaron" unicode="&#x10f;" horiz-adv-x="602" 
d="M436 705h90v-705h-88v61c-33 -44 -94 -70 -154 -70c-68 0 -125 22 -171 67c-45 45 -68 104 -68 177s23 131 68 175c46 44 103 66 171 66s119 -22 152 -66v295zM135 235c0 -45 14 -82 42 -111c29 -29 64 -43 107 -43s79 14 108 41c29 28 44 66 44 113s-16 83 -47 110
s-66 41 -105 41c-43 0 -78 -14 -107 -42c-28 -27 -42 -64 -42 -109zM626 496l-58 19c21 28 34 54 41 78s9 56 5 96h90c1 -86 -25 -150 -78 -193z" />
    <glyph glyph-name="Dcroat" unicode="&#x110;" horiz-adv-x="724" 
d="M363 0h-263v311h-93v68h93v310h263c95 0 170 -32 225 -97s82 -148 82 -249s-27 -183 -82 -247s-130 -96 -225 -96zM193 597v-218h165v-68h-165v-219h170c69 0 121 23 158 69c37 47 56 107 56 182s-19 136 -56 183s-89 71 -158 71h-170z" />
    <glyph glyph-name="dslash" unicode="&#x111;" horiz-adv-x="612" 
d="M611 559h-75v-1v-558h-91v72c-31 -52 -96 -82 -164 -82c-66 0 -122 23 -168 68c-45 45 -68 104 -68 176c0 73 23 131 68 176s101 67 167 67c71 0 134 -28 165 -80v162h-150v62h150v100h91v-100h75v-62zM289 388c-43 0 -79 -14 -108 -43c-29 -28 -43 -65 -43 -110
s14 -83 43 -112s65 -44 108 -44s79 14 109 42c31 29 46 67 46 114s-16 85 -47 112s-67 41 -108 41z" />
    <glyph glyph-name="Emacron" unicode="&#x112;" horiz-adv-x="565" 
d="M94 0v689h408v-87h-315v-220h275v-87h-275v-208h325v-87h-418zM175 802v80h252v-80h-252z" />
    <glyph glyph-name="emacron" unicode="&#x113;" horiz-adv-x="556" 
d="M136 270h290c-11 77 -66 125 -142 125c-79 0 -137 -48 -148 -125zM516 235c0 -17 0 -29 -1 -36h-379c11 -77 71 -127 151 -127c57 0 109 27 134 72c9 -3 22 -9 40 -16l38 -14c-39 -80 -122 -124 -215 -124c-68 0 -125 23 -171 68c-45 45 -68 104 -68 177s23 131 68 175
c46 45 103 67 171 67c67 0 123 -22 166 -67c44 -44 66 -102 66 -175zM154 580v80h252v-80h-252z" />
    <glyph glyph-name="Ebreve" unicode="&#x114;" horiz-adv-x="565" 
d="M502 689v-87h-315v-220h275v-87h-275v-208h325v-87h-418v689h408zM152 905h74c0 -35 21 -59 56 -59c33 0 55 28 55 59h76c0 -79 -51 -128 -131 -128c-87 0 -130 56 -130 128z" />
    <glyph glyph-name="ebreve" unicode="&#x115;" horiz-adv-x="556" 
d="M136 270h290c-11 77 -66 125 -142 125c-79 0 -137 -48 -148 -125zM516 235c0 -17 0 -29 -1 -36h-379c11 -77 71 -127 151 -127c57 0 109 27 134 72c9 -3 22 -9 40 -16l38 -14c-39 -80 -122 -124 -215 -124c-68 0 -125 23 -171 68c-45 45 -68 104 -68 177s23 131 68 175
c46 45 103 67 171 67c67 0 123 -22 166 -67c44 -44 66 -102 66 -175zM150 683h74c0 -35 21 -59 56 -59c33 0 55 28 55 59h76c0 -79 -51 -128 -131 -128c-87 0 -130 56 -130 128z" />
    <glyph glyph-name="Edotaccent" unicode="&#x116;" horiz-adv-x="565" 
d="M502 689v-87h-315v-220h275v-87h-275v-208h325v-87h-418v689h408zM260 819c-24 23 -24 61 0 84c25 23 65 23 89 0c25 -23 25 -61 0 -84c-24 -23 -64 -23 -89 0z" />
    <glyph glyph-name="edotaccent" unicode="&#x117;" horiz-adv-x="556" 
d="M136 270h290c-11 77 -66 125 -142 125c-79 0 -137 -48 -148 -125zM516 235c0 -17 0 -29 -1 -36h-379c11 -77 71 -127 151 -127c57 0 109 27 134 72c9 -3 22 -9 40 -16l38 -14c-39 -80 -122 -124 -215 -124c-68 0 -125 23 -171 68c-45 45 -68 104 -68 177s23 131 68 175
c46 45 103 67 171 67c67 0 123 -22 166 -67c44 -44 66 -102 66 -175zM240 597c-24 23 -24 61 0 84c25 23 65 23 89 0c25 -23 25 -61 0 -84c-24 -23 -64 -23 -89 0z" />
    <glyph glyph-name="Eogonek" unicode="&#x118;" horiz-adv-x="565" 
d="M512 0h-5l-27 -76c-8 -21 0 -44 20 -53c23 -7 40 1 50 23l3 22l64 4c0 -17 -3 -34 -10 -49c-17 -40 -51 -64 -90 -64c-14 0 -27 3 -39 8c-40 17 -63 52 -63 92c0 15 3 29 8 42l27 51h-356v689h408v-87h-315v-220h275v-87h-275v-208h325v-87z" />
    <glyph glyph-name="eogonek" unicode="&#x119;" horiz-adv-x="557" 
d="M379 -87c-8 -21 0 -44 20 -53c23 -7 40 1 50 23l3 22l64 4c0 -17 -3 -34 -10 -49c-17 -40 -51 -64 -90 -64c-14 0 -27 3 -39 8c-40 17 -63 52 -63 92c0 15 3 29 8 42l33 61c-23 -6 -47 -9 -71 -9c-68 0 -125 23 -171 68c-45 45 -68 104 -68 177s23 131 68 175
c46 45 103 67 171 67c67 0 123 -22 166 -67c44 -44 66 -102 66 -175c0 -17 0 -29 -1 -36h-379c11 -77 71 -127 151 -127c57 0 109 27 134 72l78 -30c-7 -15 -31 -41 -52 -65c-20 -24 -49 -75 -68 -136zM136 270h290c-11 77 -66 125 -142 125c-79 0 -137 -48 -148 -125z" />
    <glyph glyph-name="Ecaron" unicode="&#x11a;" horiz-adv-x="565" 
d="M502 689v-87h-315v-220h275v-87h-275v-208h325v-87h-418v689h408zM208 930l74 -87l75 87h82l-110 -154h-93l-110 154h82z" />
    <glyph glyph-name="ecaron" unicode="&#x11b;" horiz-adv-x="556" 
d="M136 270h290c-11 77 -66 125 -142 125c-79 0 -137 -48 -148 -125zM516 235c0 -17 0 -29 -1 -36h-379c11 -77 71 -127 151 -127c57 0 109 27 134 72c9 -3 22 -9 40 -16l38 -14c-39 -80 -122 -124 -215 -124c-68 0 -125 23 -171 68c-45 45 -68 104 -68 177s23 131 68 175
c46 45 103 67 171 67c67 0 123 -22 166 -67c44 -44 66 -102 66 -175zM206 708l74 -87l75 87h82l-110 -154h-93l-110 154h82z" />
    <glyph glyph-name="Gcircumflex" unicode="&#x11c;" horiz-adv-x="756" 
d="M630 606l-67 -62c-48 43 -103 64 -166 64c-71 0 -132 -26 -181 -78c-49 -51 -74 -114 -74 -187s25 -136 74 -187s110 -77 181 -77c63 0 114 17 155 50c41 34 62 79 65 136h-196v81h302c0 -236 -123 -356 -326 -356c-97 0 -180 34 -247 103s-101 152 -101 250
c0 99 34 182 101 251s150 103 247 103c90 0 168 -30 233 -91zM538 776h-82l-75 87l-74 -87h-82l110 154h93z" />
    <glyph glyph-name="gcircumflex" unicode="&#x11d;" horiz-adv-x="611" 
d="M110 -86l36 19c27 -51 82 -80 135 -80c111 0 166 71 166 212c0 3 -1 8 -1 11c-27 -53 -96 -86 -164 -86c-66 0 -122 22 -168 67s-69 103 -69 175c0 73 23 132 69 177s102 68 168 68c68 0 135 -31 164 -83v73h90v-396c0 -203 -85 -304 -255 -304c-88 0 -167 46 -211 126
c5 2 18 9 40 21zM445 233c0 48 -15 86 -45 113c-30 28 -67 42 -110 42s-79 -15 -108 -44s-44 -66 -44 -111c0 -47 14 -84 43 -112s66 -42 109 -42c41 0 77 14 108 42s47 65 47 112zM462 554h-82l-75 87l-74 -87h-82l110 154h93z" />
    <glyph glyph-name="Gbreve" unicode="&#x11e;" horiz-adv-x="756" 
d="M630 606l-67 -62c-48 43 -103 64 -166 64c-71 0 -132 -26 -181 -78c-49 -51 -74 -114 -74 -187s25 -136 74 -187s110 -77 181 -77c63 0 114 17 155 50c41 34 62 79 65 136h-196v81h302c0 -236 -123 -356 -326 -356c-97 0 -180 34 -247 103s-101 152 -101 250
c0 99 34 182 101 251s150 103 247 103c90 0 168 -30 233 -91zM251 905h74c0 -35 21 -59 56 -59c33 0 55 28 55 59h76c0 -79 -51 -128 -131 -128c-87 0 -130 56 -130 128z" />
    <glyph glyph-name="gbreve" unicode="&#x11f;" horiz-adv-x="611" 
d="M146 -67c27 -51 82 -80 135 -80c111 0 166 71 166 212c0 3 -1 8 -1 11c-27 -53 -96 -86 -164 -86c-66 0 -122 22 -168 67s-69 103 -69 175c0 73 23 132 69 177s102 68 168 68c68 0 135 -31 164 -83v73h90v-396c0 -203 -85 -304 -255 -304c-88 0 -167 46 -211 126
c5 2 18 9 40 21zM445 233c0 48 -15 86 -45 113c-30 28 -67 42 -110 42s-79 -15 -108 -44s-44 -66 -44 -111c0 -47 14 -84 43 -112s66 -42 109 -42c41 0 77 14 108 42s47 65 47 112zM175 683h74c0 -35 21 -59 56 -59c33 0 55 28 55 59h76c0 -79 -51 -128 -131 -128
c-87 0 -130 56 -130 128z" />
    <glyph glyph-name="Gdotaccent" unicode="&#x120;" horiz-adv-x="756" 
d="M630 606l-67 -62c-48 43 -103 64 -166 64c-71 0 -132 -26 -181 -78c-49 -51 -74 -114 -74 -187s25 -136 74 -187s110 -77 181 -77c63 0 114 17 155 50c41 34 62 79 65 136h-196v81h302c0 -236 -123 -356 -326 -356c-97 0 -180 34 -247 103s-101 152 -101 250
c0 99 34 182 101 251s150 103 247 103c90 0 168 -30 233 -91zM349 819c-24 23 -24 61 0 84c25 23 65 23 89 0c25 -23 25 -61 0 -84c-24 -23 -64 -23 -89 0z" />
    <glyph glyph-name="gdotaccent" unicode="&#x121;" horiz-adv-x="611" 
d="M146 -67c27 -51 82 -80 135 -80c111 0 166 71 166 212c0 3 -1 8 -1 11c-27 -53 -96 -86 -164 -86c-66 0 -122 22 -168 67s-69 103 -69 175c0 73 23 132 69 177s102 68 168 68c68 0 135 -31 164 -83v73h90v-396c0 -203 -85 -304 -255 -304c-88 0 -167 46 -211 126
c5 2 18 9 40 21zM445 233c0 48 -15 86 -45 113c-30 28 -67 42 -110 42s-79 -15 -108 -44s-44 -66 -44 -111c0 -47 14 -84 43 -112s66 -42 109 -42c41 0 77 14 108 42s47 65 47 112zM260 597c-24 23 -24 61 0 84c25 23 65 23 89 0c25 -23 25 -61 0 -84c-24 -23 -64 -23 -89 0
z" />
    <glyph glyph-name="Gcommaaccent" unicode="&#x122;" horiz-adv-x="756" 
d="M630 606l-67 -62c-48 43 -103 64 -166 64c-71 0 -132 -26 -181 -78c-49 -51 -74 -114 -74 -187s25 -136 74 -187s110 -77 181 -77c63 0 114 17 155 50c41 34 62 79 65 136h-196v81h302c0 -236 -123 -356 -326 -356c-97 0 -180 34 -247 103s-101 152 -101 250
c0 99 34 182 101 251s150 103 247 103c90 0 168 -30 233 -91zM371 -250l-58 19c21 28 34 54 41 78s9 56 5 96h90c1 -86 -25 -150 -78 -193z" />
    <glyph glyph-name="gcommaaccent" unicode="&#x123;" horiz-adv-x="611" 
d="M146 -67c27 -51 82 -80 135 -80c111 0 166 71 166 212c0 3 -1 8 -1 11c-27 -53 -96 -86 -164 -86c-66 0 -122 22 -168 67s-69 103 -69 175c0 73 23 132 69 177s102 68 168 68c68 0 135 -31 164 -83v73h90v-396c0 -203 -85 -304 -255 -304c-88 0 -167 46 -211 126
c5 2 18 9 40 21zM445 233c0 48 -15 86 -45 113c-30 28 -67 42 -110 42s-79 -15 -108 -44s-44 -66 -44 -111c0 -47 14 -84 43 -112s66 -42 109 -42c41 0 77 14 108 42s47 65 47 112zM310 749l58 -19c-21 -28 -35 -54 -42 -78s-8 -56 -4 -96h-90c-1 86 25 150 78 193z" />
    <glyph glyph-name="Hcircumflex" unicode="&#x124;" horiz-adv-x="708" 
d="M520 689h94v-689h-94v300h-333v-300h-93v689h93v-304h333v304zM510 776h-82l-75 87l-74 -87h-82l110 154h93z" />
    <glyph glyph-name="hcircumflex" unicode="&#x125;" 
d="M167 252v-252h-91v721h91v-324c13 26 34 46 64 59c31 14 61 21 90 21c117 0 190 -76 189 -207v-270h-91v264c0 76 -45 124 -110 124c-37 0 -70 -11 -99 -34c-29 -22 -43 -56 -43 -102zM279 765h-82l-75 87l-74 -87h-82l110 154h93z" />
    <glyph glyph-name="Hbar" unicode="&#x126;" horiz-adv-x="716" 
d="M617 689v-125h70v-62h-70v-502h-93v298h-332v-298h-93v502h-69v62h69v125h93v-125h332v125h93zM192 502v-116h332v116h-332z" />
    <glyph glyph-name="hbar" unicode="&#x127;" 
d="M297 559h-130v-162c13 26 34 46 64 59c31 14 61 21 90 21c117 0 190 -76 189 -207v-270h-91v264c0 76 -45 124 -110 124c-37 0 -70 -11 -99 -34c-29 -22 -43 -56 -43 -102v-252h-91v559h-70v62h70v100h91v-100h130v-62z" />
    <glyph glyph-name="Itilde" unicode="&#x128;" horiz-adv-x="281" 
d="M96 832c-12 0 -26 -15 -27 -44h-61c4 81 43 117 88 117c17 0 36 -8 58 -24c38 -32 53 -17 59 24h61c-4 -80 -44 -114 -89 -114c-17 0 -36 8 -57 25c-16 11 -27 16 -32 16zM94 0v689h93v-689h-93z" />
    <glyph glyph-name="itilde" unicode="&#x129;" horiz-adv-x="241" 
d="M76 467h89v-467h-89v467zM80 610c-12 0 -26 -15 -27 -44h-61c4 81 43 117 88 117c17 0 36 -8 58 -24c38 -32 53 -17 59 24h61c-4 -80 -44 -114 -89 -114c-17 0 -36 8 -57 25c-16 11 -27 16 -32 16z" />
    <glyph glyph-name="Imacron" unicode="&#x12a;" horiz-adv-x="281" 
d="M15 802v80h252v-80h-252zM94 0v689h93v-689h-93z" />
    <glyph glyph-name="imacron" unicode="&#x12b;" horiz-adv-x="241" 
d="M76 467h89v-467h-89v467zM-1 580v80h252v-80h-252z" />
    <glyph glyph-name="Ibreve" unicode="&#x12c;" horiz-adv-x="281" 
d="M187 689v-689h-93v689h93zM10 905h74c0 -35 21 -59 56 -59c33 0 55 28 55 59h76c0 -79 -51 -128 -131 -128c-87 0 -130 56 -130 128z" />
    <glyph glyph-name="ibreve" unicode="&#x12d;" horiz-adv-x="241" 
d="M165 0h-89v467h89v-467zM-5 683h74c0 -35 21 -59 56 -59c33 0 55 28 55 59h76c0 -79 -51 -128 -131 -128c-87 0 -130 56 -130 128z" />
    <glyph glyph-name="Iogonek" unicode="&#x12e;" horiz-adv-x="281" 
d="M187 0h-39l-31 -87c-8 -21 0 -44 20 -53c23 -7 40 1 50 23l3 22l64 4c0 -17 -3 -34 -10 -49c-17 -40 -51 -64 -90 -64c-14 0 -27 3 -39 8c-40 17 -63 52 -63 92c0 15 3 29 8 42l34 63v688h93v-689z" />
    <glyph glyph-name="iogonek" unicode="&#x12f;" horiz-adv-x="242" 
d="M166 0h-35l-31 -87c-8 -21 0 -44 20 -53c23 -7 40 1 50 23l3 22l64 4c0 -17 -3 -34 -10 -49c-17 -40 -51 -64 -90 -64c-14 0 -27 3 -39 8c-40 17 -63 52 -63 92c0 15 3 29 8 42l33 62v467h90v-467zM91 597c-24 23 -24 61 0 84c25 23 65 23 89 0c25 -23 25 -61 0 -84
c-24 -23 -64 -23 -89 0z" />
    <glyph glyph-name="Idot" unicode="&#x130;" horiz-adv-x="281" 
d="M187 689v-689h-93v689h93zM96 819c-24 23 -24 61 0 84c25 23 65 23 89 0c25 -23 25 -61 0 -84c-24 -23 -64 -23 -89 0z" />
    <glyph glyph-name="dotlessi" unicode="&#x131;" horiz-adv-x="242" 
d="M76 467h90v-467h-90v467z" />
    <glyph glyph-name="IJ" unicode="&#x132;" horiz-adv-x="562" 
d="M181 -240l9 88c16 -5 38 -8 66 -8c81 0 119 54 119 133v716h93v-716c0 -132 -67 -224 -212 -224c-15 0 -40 4 -75 11zM94 0v689h93v-689h-93z" />
    <glyph glyph-name="ij" unicode="&#x133;" horiz-adv-x="486" 
d="M242 -229h-62v85h54c57 0 85 39 84 116v495h92v-496c0 -133 -56 -200 -168 -200zM319 597c-24 23 -24 61 0 84c25 23 65 23 89 0c25 -23 25 -61 0 -84c-24 -23 -64 -23 -89 0zM166 0h-90v467h90v-467zM76 597c-24 23 -24 61 0 84c25 23 65 23 89 0c25 -23 25 -61 0 -84
c-24 -23 -64 -23 -89 0z" />
    <glyph glyph-name="Jcircumflex" unicode="&#x134;" horiz-adv-x="281" 
d="M-100 -240l9 88c16 -5 38 -8 66 -8c81 0 119 54 119 133v716h93v-716c0 -132 -67 -224 -212 -224c-15 0 -40 4 -75 11zM290 776h-82l-75 87l-74 -87h-82l110 154h93z" />
    <glyph glyph-name="jcircumflex" unicode="&#x135;" horiz-adv-x="244" 
d="M0 -229h-62v85h54c57 0 85 39 84 116v495h92v-496c0 -133 -56 -200 -168 -200zM283 554h-82l-75 87l-74 -87h-82l110 154h93z" />
    <glyph glyph-name="Kcommaaccent" unicode="&#x136;" horiz-adv-x="578" 
d="M530 689l-265 -344l320 -345h-125l-273 294v-294h-93v689h93v-298l228 298h115zM301 -250l-58 19c21 28 34 54 41 78s9 56 5 96h90c1 -86 -25 -150 -78 -193z" />
    <glyph glyph-name="kcommaaccent" unicode="&#x137;" horiz-adv-x="502" 
d="M379 0l-213 228v-228h-90v721h90v-417l161 163h124l-200 -202l248 -265h-120zM247 -250l-58 19c21 28 34 54 41 78s9 56 5 96h90c1 -86 -25 -150 -78 -193z" />
    <glyph glyph-name="kgreenlandic" unicode="&#x138;" horiz-adv-x="494" 
d="M358 0l-192 187v-187h-90v467h90v-187l178 187h119l-217 -231l238 -236h-126z" />
    <glyph glyph-name="Lacute" unicode="&#x139;" horiz-adv-x="495" 
d="M187 689v-602h281v-87h-374v689h93zM197 919h109l-119 -154h-87z" />
    <glyph glyph-name="lacute" unicode="&#x13a;" horiz-adv-x="243" 
d="M167 721v-721h-91v721h91zM174 931h109l-119 -154h-87z" />
    <glyph glyph-name="Lcommaaccent" unicode="&#x13b;" horiz-adv-x="495" 
d="M94 0v689h93v-602h281v-87h-374zM240 -250l-58 19c21 28 34 54 41 78s9 56 5 96h90c1 -86 -25 -150 -78 -193z" />
    <glyph glyph-name="lcommaaccent" unicode="&#x13c;" horiz-adv-x="243" 
d="M89 -250l-58 19c21 28 34 54 41 78s9 56 5 96h90c1 -86 -25 -150 -78 -193zM76 0v721h91v-721h-91z" />
    <glyph glyph-name="Lcaron" unicode="&#x13d;" horiz-adv-x="495" 
d="M94 0v689h93v-602h281v-87h-374zM311 496l-58 19c21 28 34 54 41 78s9 56 5 96h90c1 -86 -25 -150 -78 -193z" />
    <glyph glyph-name="lcaron" unicode="&#x13e;" horiz-adv-x="243" 
d="M267 528l-58 19c21 28 34 54 41 78s9 56 5 96h90c1 -86 -25 -150 -78 -193zM76 0v721h91v-721h-91z" />
    <glyph glyph-name="Ldot" unicode="&#x13f;" horiz-adv-x="495" 
d="M94 0v689h93v-602h281v-87h-374zM285 216c-25 24 -25 66 0 90s67 24 92 0c27 -24 27 -66 0 -90c-25 -23 -67 -23 -92 0z" />
    <glyph glyph-name="ldot" unicode="&#x140;" horiz-adv-x="337" 
d="M242 216c-25 24 -25 66 0 90s67 24 92 0c27 -24 27 -66 0 -90c-25 -23 -67 -23 -92 0zM76 0v721h91v-721h-91z" />
    <glyph glyph-name="Lslash" unicode="&#x141;" horiz-adv-x="499" 
d="M191 689v-237l104 65v-66l-104 -65v-294h280v-92h-372v328l-65 -41v66l65 41v295h92z" />
    <glyph glyph-name="lslash" unicode="&#x142;" horiz-adv-x="255" 
d="M84 721h90v-281l77 50v-64l-77 -50v-376h-90v319l-67 -43v64l67 43v338z" />
    <glyph glyph-name="Nacute" unicode="&#x143;" horiz-adv-x="684" 
d="M501 0l-314 519v-519h-93v689h92l311 -515v515h93v-689h-89zM366 930h109l-119 -154h-87z" />
    <glyph glyph-name="nacute" unicode="&#x144;" horiz-adv-x="563" 
d="M167 252v-252h-91v467h91v-70c27 52 89 80 146 80c116 0 180 -75 180 -207v-270h-91v264c0 77 -39 124 -103 124c-73 0 -132 -44 -132 -136zM314 708h109l-119 -154h-87z" />
    <glyph glyph-name="Ncommaaccent" unicode="&#x145;" horiz-adv-x="684" 
d="M590 689v-689h-89l-314 519v-519h-93v689h92l311 -515v515h93zM318 -250l-58 19c21 28 34 54 41 78s9 56 5 96h90c1 -86 -25 -150 -78 -193z" />
    <glyph glyph-name="ncommaaccent" unicode="&#x146;" horiz-adv-x="563" 
d="M167 252v-252h-91v467h91v-70c27 52 89 80 146 80c116 0 180 -75 180 -207v-270h-91v264c0 77 -39 124 -103 124c-73 0 -132 -44 -132 -136zM253 -250l-58 19c21 28 34 54 41 78s9 56 5 96h90c1 -86 -25 -150 -78 -193z" />
    <glyph glyph-name="Ncaron" unicode="&#x147;" horiz-adv-x="684" 
d="M501 0l-314 519v-519h-93v689h92l311 -515v515h93v-689h-89zM267 930l74 -87l75 87h82l-110 -154h-93l-110 154h82z" />
    <glyph glyph-name="ncaron" unicode="&#x148;" horiz-adv-x="563" 
d="M167 252v-252h-91v467h91v-70c27 52 89 80 146 80c116 0 180 -75 180 -207v-270h-91v264c0 77 -39 124 -103 124c-73 0 -132 -44 -132 -136zM207 708l74 -87l75 87h82l-110 -154h-93l-110 154h82z" />
    <glyph glyph-name="napostrophe" unicode="&#x149;" horiz-adv-x="563" 
d="M9 469l-65 19c32 45 49 83 52 114c1 15 0 34 -4 59h95c1 -85 -25 -149 -78 -192zM167 252v-252h-91v467h91v-70c27 52 89 80 146 80c116 0 180 -75 180 -207v-270h-91v264c0 77 -39 124 -103 124c-73 0 -132 -44 -132 -136z" />
    <glyph glyph-name="Eng" unicode="&#x14a;" horiz-adv-x="682" 
d="M495 -23v33l-309 505v-515h-92v689h91l310 -515v515h93v-685c0 -167 -70 -251 -211 -251c-23 0 -48 4 -76 11l9 93c15 -4 34 -7 55 -9c29 -2 51 2 68 12c41 18 62 57 62 117z" />
    <glyph glyph-name="eng" unicode="&#x14b;" horiz-adv-x="562" 
d="M493 270l-1 -256c0 -155 -69 -233 -207 -233c-19 0 -44 3 -73 10l8 91c24 -8 46 -12 65 -12c80 0 116 53 117 130v264c0 77 -39 124 -103 124c-73 0 -132 -44 -132 -136v-252h-91v467h91v-70c27 52 89 80 146 80c116 0 181 -76 180 -207z" />
    <glyph glyph-name="Omacron" unicode="&#x14c;" horiz-adv-x="796" 
d="M49 343c0 99 34 182 101 251s150 103 247 103c98 0 181 -34 248 -103c68 -69 102 -152 102 -251c0 -98 -34 -181 -102 -250c-67 -69 -150 -103 -248 -103c-97 0 -180 34 -247 103s-101 152 -101 250zM397 607c-71 0 -132 -26 -181 -77s-74 -114 -74 -187s24 -136 73 -187
s110 -76 182 -76s133 25 182 76s74 114 74 187s-25 136 -74 187s-110 77 -182 77zM272 802v80h252v-80h-252z" />
    <glyph glyph-name="omacron" unicode="&#x14d;" horiz-adv-x="579" 
d="M45 235c0 72 23 130 70 175s105 67 174 67s127 -22 174 -67s71 -103 71 -175s-24 -131 -72 -177c-47 -45 -105 -68 -173 -68s-126 23 -173 68s-71 104 -71 177zM443 235c0 46 -15 83 -45 111c-29 28 -66 42 -109 42s-80 -14 -110 -42c-29 -28 -44 -65 -44 -111
c0 -47 15 -85 44 -114c30 -29 67 -43 110 -43s80 14 109 43c30 29 45 67 45 114zM154 580v80h252v-80h-252z" />
    <glyph glyph-name="Obreve" unicode="&#x14e;" horiz-adv-x="796" 
d="M49 343c0 99 34 182 101 251s150 103 247 103c98 0 181 -34 248 -103c68 -69 102 -152 102 -251c0 -98 -34 -181 -102 -250c-67 -69 -150 -103 -248 -103c-97 0 -180 34 -247 103s-101 152 -101 250zM397 607c-71 0 -132 -26 -181 -77s-74 -114 -74 -187s24 -136 73 -187
s110 -76 182 -76s133 25 182 76s74 114 74 187s-25 136 -74 187s-110 77 -182 77zM267 905h74c0 -35 21 -59 56 -59c33 0 55 28 55 59h76c0 -79 -51 -128 -131 -128c-87 0 -130 56 -130 128z" />
    <glyph glyph-name="obreve" unicode="&#x14f;" horiz-adv-x="579" 
d="M45 235c0 72 23 130 70 175s105 67 174 67s127 -22 174 -67s71 -103 71 -175s-24 -131 -72 -177c-47 -45 -105 -68 -173 -68s-126 23 -173 68s-71 104 -71 177zM135 235c0 -47 15 -85 44 -114c30 -29 67 -43 110 -43s80 14 109 43c30 29 45 67 45 114
c0 46 -15 83 -45 111c-29 28 -66 42 -109 42s-80 -14 -110 -42c-29 -28 -44 -65 -44 -111zM159 683h74c0 -35 21 -59 56 -59c33 0 55 28 55 59h76c0 -79 -51 -128 -131 -128c-87 0 -130 56 -130 128z" />
    <glyph glyph-name="Ohungarumlaut" unicode="&#x150;" horiz-adv-x="796" 
d="M49 343c0 99 34 182 101 251s150 103 247 103c98 0 181 -34 248 -103c68 -69 102 -152 102 -251c0 -98 -34 -181 -102 -250c-67 -69 -150 -103 -248 -103c-97 0 -180 34 -247 103s-101 152 -101 250zM397 607c-71 0 -132 -26 -181 -77s-74 -114 -74 -187s24 -136 73 -187
s110 -76 182 -76s133 25 182 76s74 114 74 187s-25 136 -74 187s-110 77 -182 77zM361 930h92l-89 -154h-83zM503 930h94l-102 -154h-81z" />
    <glyph glyph-name="ohungarumlaut" unicode="&#x151;" horiz-adv-x="579" 
d="M45 235c0 72 23 130 70 175s105 67 174 67s127 -22 174 -67s71 -103 71 -175s-24 -131 -72 -177c-47 -45 -105 -68 -173 -68s-126 23 -173 68s-71 104 -71 177zM135 235c0 -47 15 -85 44 -114c30 -29 67 -43 110 -43s80 14 109 43c30 29 45 67 45 114
c0 46 -15 83 -45 111c-29 28 -66 42 -109 42s-80 -14 -110 -42c-29 -28 -44 -65 -44 -111zM237 708h92l-89 -154h-83zM379 708h94l-102 -154h-81z" />
    <glyph glyph-name="OE" unicode="&#x152;" horiz-adv-x="1120" 
d="M650 578v111h406v-92h-313v-213h274v-92h-274v-200h324v-92h-417v108c-61 -73 -153 -118 -254 -118c-97 0 -179 34 -246 103s-100 152 -100 250c0 99 33 182 100 251s149 103 246 103c101 0 193 -46 254 -119zM396 83c69 0 128 24 176 72c49 49 75 108 78 177v22
c-3 70 -29 129 -78 177c-48 49 -107 73 -176 73c-71 0 -131 -25 -180 -76s-73 -112 -73 -185s24 -134 73 -185c49 -50 109 -75 180 -75z" />
    <glyph glyph-name="oe" unicode="&#x153;" horiz-adv-x="955" 
d="M915 235c0 -17 0 -29 -1 -36h-379c11 -77 71 -127 151 -127c57 0 109 27 134 72c9 -3 22 -9 40 -16l38 -14c-39 -80 -122 -124 -215 -124c-81 0 -152 36 -195 97c-45 -61 -118 -97 -199 -97c-68 0 -126 23 -173 68s-71 104 -71 177c0 72 23 130 70 175s105 67 174 67
c85 0 152 -32 199 -96c45 64 110 96 195 96c67 0 123 -22 166 -67c44 -44 66 -102 66 -175zM443 235c0 46 -15 83 -45 111c-29 28 -66 42 -109 42s-80 -14 -110 -42c-29 -28 -44 -65 -44 -111c0 -47 15 -85 44 -114c30 -29 67 -43 110 -43s80 14 109 43c30 29 45 67 45 114z
M535 270h290c-11 77 -66 125 -142 125c-79 0 -137 -48 -148 -125z" />
    <glyph glyph-name="Racute" unicode="&#x154;" horiz-adv-x="619" 
d="M567 0h-113l-178 258h-88v-258h-94v689h265c68 0 119 -21 153 -63s51 -93 51 -153c0 -56 -15 -104 -45 -144c-29 -40 -74 -63 -135 -68zM188 602v-257h164c79 0 115 56 115 128c0 71 -36 129 -111 129h-168zM302 930h109l-119 -154h-87z" />
    <glyph glyph-name="racute" unicode="&#x155;" horiz-adv-x="395" 
d="M167 170v-170h-91v467h91v-105c23 77 66 115 130 115c37 0 64 -6 81 -18l-14 -85c-22 11 -45 16 -69 16c-85 0 -128 -88 -128 -220zM174 708h109l-119 -154h-87z" />
    <glyph glyph-name="Rcommaaccent" unicode="&#x156;" horiz-adv-x="619" 
d="M383 261l184 -261h-113l-178 258h-88v-258h-94v689h265c68 0 119 -21 153 -63s51 -93 51 -153c0 -56 -15 -104 -45 -144c-29 -40 -74 -63 -135 -68zM356 602h-168v-257h164c79 0 115 56 115 128c0 71 -36 129 -111 129zM286 -250l-58 19c21 28 34 54 41 78s9 56 5 96h90
c1 -86 -25 -150 -78 -193z" />
    <glyph glyph-name="rcommaaccent" unicode="&#x157;" horiz-adv-x="395" 
d="M167 170v-170h-91v467h91v-105c23 77 66 115 130 115c37 0 64 -6 81 -18l-14 -85c-22 11 -45 16 -69 16c-85 0 -128 -88 -128 -220zM89 -250l-58 19c21 28 34 54 41 78s9 56 5 96h90c1 -86 -25 -150 -78 -193z" />
    <glyph glyph-name="Rcaron" unicode="&#x158;" horiz-adv-x="619" 
d="M567 0h-113l-178 258h-88v-258h-94v689h265c68 0 119 -21 153 -63s51 -93 51 -153c0 -56 -15 -104 -45 -144c-29 -40 -74 -63 -135 -68zM188 602v-257h164c79 0 115 56 115 128c0 71 -36 129 -111 129h-168zM234 930l74 -87l75 87h82l-110 -154h-93l-110 154h82z" />
    <glyph glyph-name="rcaron" unicode="&#x159;" horiz-adv-x="395" 
d="M167 170v-170h-91v467h91v-105c23 77 66 115 130 115c37 0 64 -6 81 -18l-14 -85c-22 11 -45 16 -69 16c-85 0 -128 -88 -128 -220zM131 708l74 -87l75 87h82l-110 -154h-93l-110 154h82z" />
    <glyph glyph-name="Sacute" unicode="&#x15a;" horiz-adv-x="573" 
d="M145 199c1 -31 15 -60 43 -85s63 -37 105 -37c83 0 130 44 139 101c5 68 -45 107 -117 123l-89 22c-112 29 -168 89 -168 180c0 57 22 103 66 139c44 37 96 55 157 55c64 0 117 -19 159 -56s63 -85 63 -146h-93c0 68 -54 113 -130 113c-35 0 -65 -10 -91 -29
c-25 -19 -38 -44 -38 -75c0 -48 33 -80 98 -96l90 -22c131 -33 197 -108 184 -216c-6 -52 -30 -95 -71 -129s-94 -51 -159 -51c-69 0 -126 21 -172 62c-46 42 -69 91 -69 147h93zM307 930h109l-119 -154h-87z" />
    <glyph glyph-name="sacute" unicode="&#x15b;" horiz-adv-x="439" 
d="M246 191l-64 15c-89 24 -133 69 -125 152c3 34 21 62 52 85s68 34 110 34c87 0 154 -43 162 -132h-87c-5 33 -36 53 -73 53c-35 0 -63 -17 -70 -42c-4 -15 -4 -27 1 -37c7 -15 26 -27 55 -36l69 -17c81 -20 121 -65 121 -136c0 -42 -18 -76 -53 -102
c-35 -25 -77 -38 -128 -38c-45 0 -85 14 -120 41s-53 64 -54 109h83c4 -25 17 -42 38 -53c21 -13 45 -18 74 -16c43 3 70 28 71 61c1 32 -23 50 -62 59zM241 708h109l-119 -154h-87z" />
    <glyph glyph-name="Scircumflex" unicode="&#x15c;" horiz-adv-x="573" 
d="M52 199h93c1 -31 15 -60 43 -85s63 -37 105 -37c83 0 130 44 139 101c5 68 -45 107 -117 123l-89 22c-112 29 -168 89 -168 180c0 57 22 103 66 139c44 37 96 55 157 55c64 0 117 -19 159 -56s63 -85 63 -146h-93c0 68 -54 113 -130 113c-35 0 -65 -10 -91 -29
c-25 -19 -38 -44 -38 -75c0 -48 33 -80 98 -96l90 -22c131 -33 197 -108 184 -216c-6 -52 -30 -95 -71 -129s-94 -51 -159 -51c-69 0 -126 21 -172 62c-46 42 -69 91 -69 147zM434 776h-82l-75 87l-74 -87h-82l110 154h93z" />
    <glyph glyph-name="scircumflex" unicode="&#x15d;" horiz-adv-x="439" 
d="M246 191l-64 15c-89 24 -133 69 -125 152c3 34 21 62 52 85s68 34 110 34c87 0 154 -43 162 -132h-87c-5 33 -36 53 -73 53c-35 0 -63 -17 -70 -42c-4 -15 -4 -27 1 -37c7 -15 26 -27 55 -36l69 -17c81 -20 121 -65 121 -136c0 -42 -18 -76 -53 -102
c-35 -25 -77 -38 -128 -38c-45 0 -85 14 -120 41s-53 64 -54 109h83c4 -25 17 -42 38 -53c21 -13 45 -18 74 -16c43 3 70 28 71 61c1 32 -23 50 -62 59zM376 554h-82l-75 87l-74 -87h-82l110 154h93z" />
    <glyph glyph-name="Scedilla" unicode="&#x15e;" horiz-adv-x="573" 
d="M254 -117c10 -22 27 -30 50 -23c20 9 28 32 20 53l-28 77h-3c-69 0 -126 21 -172 62c-46 42 -69 91 -69 147h93c1 -31 15 -60 43 -85s63 -37 105 -37c83 0 130 44 139 101c5 68 -46 108 -117 123l-89 22c-112 29 -168 89 -168 180c0 57 22 103 66 139c44 37 96 55 157 55
c64 0 117 -19 159 -56s63 -85 63 -146h-93c0 68 -54 113 -130 113c-35 0 -65 -10 -91 -29c-25 -19 -38 -44 -38 -75c0 -48 33 -80 98 -96l90 -22c131 -33 197 -108 184 -216c-11 -87 -74 -155 -173 -174l31 -58c5 -13 8 -27 8 -42c0 -40 -23 -75 -63 -92
c-12 -5 -25 -8 -39 -8c-39 0 -73 24 -90 64c-7 15 -10 32 -10 49l64 -4c-1 -9 0 -17 3 -22z" />
    <glyph glyph-name="scedilla" unicode="&#x15f;" horiz-adv-x="440" 
d="M280 -1l33 -61c5 -13 8 -27 8 -42c0 -40 -23 -75 -63 -92c-12 -5 -25 -8 -39 -8c-39 0 -73 24 -90 64c-7 15 -10 32 -10 49l64 -4c-1 -9 0 -17 3 -22c10 -22 27 -30 50 -23c20 9 28 32 20 53l-28 78c-3 0 -9 -1 -12 -1c-45 0 -85 14 -120 41s-53 64 -54 109h83
c4 -25 17 -42 38 -53c21 -13 45 -18 74 -16c43 3 70 28 71 61c1 32 -23 50 -62 59l-64 15c-89 24 -133 69 -125 152c3 34 21 62 52 85s68 34 110 34c87 0 154 -43 162 -132h-87c-5 33 -36 53 -73 53c-35 0 -63 -17 -70 -42c-4 -15 -4 -27 1 -37c7 -15 26 -27 55 -36l69 -17
c81 -20 121 -65 121 -136c0 -65 -48 -114 -117 -131z" />
    <glyph glyph-name="Scaron" unicode="&#x160;" horiz-adv-x="573" 
d="M145 199c1 -31 15 -60 43 -85s63 -37 105 -37c83 0 130 44 139 101c5 68 -45 107 -117 123l-89 22c-112 29 -168 89 -168 180c0 57 22 103 66 139c44 37 96 55 157 55c64 0 117 -19 159 -56s63 -85 63 -146h-93c0 68 -54 113 -130 113c-35 0 -65 -10 -91 -29
c-25 -19 -38 -44 -38 -75c0 -48 33 -80 98 -96l90 -22c131 -33 197 -108 184 -216c-6 -52 -30 -95 -71 -129s-94 -51 -159 -51c-69 0 -126 21 -172 62c-46 42 -69 91 -69 147h93zM214 930l74 -87l75 87h82l-110 -154h-93l-110 154h82z" />
    <glyph glyph-name="scaron" unicode="&#x161;" horiz-adv-x="439" 
d="M246 191l-64 15c-89 24 -133 69 -125 152c3 34 21 62 52 85s68 34 110 34c87 0 154 -43 162 -132h-87c-5 33 -36 53 -73 53c-35 0 -63 -17 -70 -42c-4 -15 -4 -27 1 -37c7 -15 26 -27 55 -36l69 -17c81 -20 121 -65 121 -136c0 -42 -18 -76 -53 -102
c-35 -25 -77 -38 -128 -38c-45 0 -85 14 -120 41s-53 64 -54 109h83c4 -25 17 -42 38 -53c21 -13 45 -18 74 -16c43 3 70 28 71 61c1 32 -23 50 -62 59zM145 708l74 -87l75 87h82l-110 -154h-93l-110 154h82z" />
    <glyph glyph-name="Tcommaaccent" unicode="&#x162;" horiz-adv-x="568" 
d="M28 601v88h512v-88h-209v-601h-94v601h-209zM249 -250l-58 19c21 28 34 54 41 78s9 56 5 96h90c1 -86 -25 -150 -78 -193z" />
    <glyph glyph-name="tcommaaccent" unicode="&#x163;" horiz-adv-x="328" 
d="M202 643v-176h99v-77h-99v-390h-91v390h-84v77h84v176h91zM123 -250l-58 19c21 28 34 54 41 78s9 56 5 96h90c1 -86 -25 -150 -78 -193z" />
    <glyph glyph-name="Tcaron" unicode="&#x164;" horiz-adv-x="568" 
d="M540 689v-88h-209v-601h-94v601h-209v88h512zM209 930l74 -87l75 87h82l-110 -154h-93l-110 154h82z" />
    <glyph glyph-name="tcaron" unicode="&#x165;" horiz-adv-x="328" 
d="M301 467v-77h-99v-390h-91v390h-84v77h84v176h91v-176h99zM299 528l-58 19c21 28 34 54 41 78s9 56 5 96h90c1 -86 -25 -150 -78 -193z" />
    <glyph glyph-name="Tbar" unicode="&#x166;" horiz-adv-x="567" 
d="M330 597v-187h133v-66h-133v-344h-93v344h-132v66h132v187h-211v92h515v-92h-211z" />
    <glyph glyph-name="tbar" unicode="&#x167;" horiz-adv-x="330" 
d="M203 0h-91v226h-68v61h68v103h-84v77h84v176h91v-176h99v-77h-99v-103h76v-61h-76v-226z" />
    <glyph glyph-name="Utilde" unicode="&#x168;" horiz-adv-x="678" 
d="M294 832c-12 0 -26 -15 -27 -44h-61c4 81 43 117 88 117c17 0 36 -8 58 -24c38 -32 53 -17 59 24h61c-4 -80 -44 -114 -89 -114c-17 0 -36 8 -57 25c-16 11 -27 16 -32 16zM497 237v452h94v-452c0 -73 -25 -133 -74 -179c-49 -45 -108 -68 -178 -68s-130 23 -179 68
c-49 46 -73 106 -73 179v452h94v-452c0 -46 15 -84 46 -113s68 -44 112 -44s81 15 112 44s46 67 46 113z" />
    <glyph glyph-name="utilde" unicode="&#x169;" horiz-adv-x="562" 
d="M396 215v252h91v-467h-91v70c-27 -52 -88 -80 -145 -80c-116 0 -181 75 -180 207v270h91v-264c0 -77 38 -124 102 -124c75 0 132 43 132 136zM243 610c-12 0 -26 -15 -27 -44h-61c4 81 43 117 88 117c17 0 36 -8 58 -24c38 -32 53 -17 59 24h61c-4 -80 -44 -114 -89 -114
c-17 0 -36 8 -57 25c-16 11 -27 16 -32 16z" />
    <glyph glyph-name="Umacron" unicode="&#x16a;" horiz-adv-x="678" 
d="M497 237v452h94v-452c0 -73 -25 -133 -74 -179c-49 -45 -108 -68 -178 -68s-130 23 -179 68c-49 46 -73 106 -73 179v452h94v-452c0 -46 15 -84 46 -113s68 -44 112 -44s81 15 112 44s46 67 46 113zM213 802v80h252v-80h-252z" />
    <glyph glyph-name="umacron" unicode="&#x16b;" horiz-adv-x="562" 
d="M396 215v252h91v-467h-91v70c-27 -52 -88 -80 -145 -80c-116 0 -181 75 -180 207v270h91v-264c0 -77 38 -124 102 -124c75 0 132 43 132 136zM162 580v80h252v-80h-252z" />
    <glyph glyph-name="Ubreve" unicode="&#x16c;" horiz-adv-x="678" 
d="M497 237v452h94v-452c0 -73 -25 -133 -74 -179c-49 -45 -108 -68 -178 -68s-130 23 -179 68c-49 46 -73 106 -73 179v452h94v-452c0 -46 15 -84 46 -113s68 -44 112 -44s81 15 112 44s46 67 46 113zM208 905h74c0 -35 21 -59 56 -59c33 0 55 28 55 59h76
c0 -79 -51 -128 -131 -128c-87 0 -130 56 -130 128z" />
    <glyph glyph-name="ubreve" unicode="&#x16d;" horiz-adv-x="562" 
d="M396 215v252h91v-467h-91v70c-27 -52 -88 -80 -145 -80c-116 0 -181 75 -180 207v270h91v-264c0 -77 38 -124 102 -124c75 0 132 43 132 136zM158 683h74c0 -35 21 -59 56 -59c33 0 55 28 55 59h76c0 -79 -51 -128 -131 -128c-87 0 -130 56 -130 128z" />
    <glyph glyph-name="Uring" unicode="&#x16e;" horiz-adv-x="678" 
d="M497 237v452h94v-452c0 -73 -25 -133 -74 -179c-49 -45 -108 -68 -178 -68s-130 23 -179 68c-49 46 -73 106 -73 179v452h94v-452c0 -46 15 -84 46 -113s68 -44 112 -44s81 15 112 44s46 67 46 113zM233 867c0 60 45 106 104 106c60 0 107 -46 107 -106
c0 -59 -47 -104 -107 -104c-57 0 -104 47 -104 104zM286 867c0 -28 23 -51 51 -51c29 0 54 23 54 51c0 29 -23 53 -54 53c-28 0 -51 -24 -51 -53z" />
    <glyph glyph-name="uring" unicode="&#x16f;" horiz-adv-x="562" 
d="M183 645c0 60 45 106 104 106c60 0 107 -46 107 -106c0 -59 -47 -104 -107 -104c-59 0 -104 47 -104 104zM236 645c0 -28 23 -51 51 -51c29 0 54 23 54 51c0 29 -23 53 -54 53c-28 0 -51 -24 -51 -53zM396 215v252h91v-467h-91v70c-27 -52 -88 -80 -145 -80
c-116 0 -181 75 -180 207v270h91v-264c0 -77 38 -124 102 -124c75 0 132 43 132 136z" />
    <glyph glyph-name="Uhungarumlaut" unicode="&#x170;" horiz-adv-x="678" 
d="M289 930h92l-89 -154h-83zM431 930h94l-102 -154h-81zM497 237v452h94v-452c0 -73 -25 -133 -74 -179c-49 -45 -108 -68 -178 -68s-130 23 -179 68c-49 46 -73 106 -73 179v452h94v-452c0 -46 15 -84 46 -113s68 -44 112 -44s81 15 112 44s46 67 46 113z" />
    <glyph glyph-name="uhungarumlaut" unicode="&#x171;" horiz-adv-x="562" 
d="M230 708h92l-89 -154h-83zM372 708h94l-102 -154h-81zM396 215v252h91v-467h-91v70c-27 -52 -88 -80 -145 -80c-116 0 -181 75 -180 207v270h91v-264c0 -77 38 -124 102 -124c75 0 132 43 132 136z" />
    <glyph glyph-name="Uogonek" unicode="&#x172;" horiz-adv-x="678" 
d="M414 -117l3 22l64 4c0 -17 -3 -34 -10 -49c-17 -40 -51 -64 -90 -64c-14 0 -27 3 -39 8c-40 17 -63 52 -63 92c0 15 3 29 8 42l28 53c-65 5 -119 30 -163 75c-43 45 -65 102 -65 171v452h94v-452c0 -46 15 -84 46 -113s68 -44 112 -44s81 15 112 44s46 67 46 113v452h94
v-452c0 -67 -21 -123 -63 -168c-41 -44 -93 -70 -156 -77l-28 -79c-8 -21 0 -44 20 -53c23 -7 40 1 50 23z" />
    <glyph glyph-name="uogonek" unicode="&#x173;" horiz-adv-x="562" 
d="M490 -117l3 22l64 4c0 -17 -3 -34 -10 -49c-17 -40 -51 -64 -90 -64c-14 0 -27 3 -39 8c-40 17 -63 52 -63 92c0 15 3 29 8 42l33 62v70c-27 -52 -88 -80 -145 -80c-116 0 -181 75 -180 207v270h91v-264c0 -77 38 -124 102 -124c75 0 132 43 132 136v252h91v-467h-36
l-31 -87c-8 -21 0 -44 20 -53c23 -7 40 1 50 23z" />
    <glyph glyph-name="Wcircumflex" unicode="&#x174;" horiz-adv-x="901" 
d="M613 150l173 539h100l-233 -689h-81l-122 430l-121 -430h-81l-233 689h100l173 -539l127 446h71zM607 776h-82l-75 87l-74 -87h-82l110 154h93z" />
    <glyph glyph-name="wcircumflex" unicode="&#x175;" horiz-adv-x="790" 
d="M769 467l-173 -467h-75l-127 343l-123 -343h-74l-178 467h97l117 -327l117 327h88l117 -327l117 327h97zM550 554h-82l-75 87l-74 -87h-82l110 154h93z" />
    <glyph glyph-name="Ycircumflex" unicode="&#x176;" horiz-adv-x="628" 
d="M362 317v-317h-96v317l-261 372h111l198 -279l200 279h112zM472 776h-82l-75 87l-74 -87h-82l110 154h93z" />
    <glyph glyph-name="ycircumflex" unicode="&#x177;" horiz-adv-x="509" 
d="M492 467l-290 -694h-95l98 241l-187 453h97l140 -338l140 338h97zM414 554h-82l-75 87l-74 -87h-82l110 154h93z" />
    <glyph glyph-name="Ydieresis" unicode="&#x178;" horiz-adv-x="628" 
d="M362 317v-317h-96v317l-261 372h111l198 -279l200 279h112zM231 911c33 0 61 -26 61 -59s-28 -59 -61 -59c-35 0 -62 26 -62 59s27 59 62 59zM356 810c-24 23 -24 61 0 84s64 23 88 0s24 -61 0 -84s-64 -23 -88 0z" />
    <glyph glyph-name="Zacute" unicode="&#x179;" horiz-adv-x="573" 
d="M42 0v81l364 520h-350v88h468v-81l-366 -520h366v-88h-482zM316 930h109l-119 -154h-87z" />
    <glyph glyph-name="zacute" unicode="&#x17a;" horiz-adv-x="502" 
d="M453 392l-283 -305h283v-87h-411v75l278 305h-262v87h395v-75zM273 708h109l-119 -154h-87z" />
    <glyph glyph-name="Zdotaccent" unicode="&#x17b;" horiz-adv-x="573" 
d="M42 0v81l364 520h-350v88h468v-81l-366 -520h366v-88h-482zM238 819c-24 23 -24 61 0 84c25 23 65 23 89 0c25 -23 25 -61 0 -84c-24 -23 -64 -23 -89 0z" />
    <glyph glyph-name="zdotaccent" unicode="&#x17c;" horiz-adv-x="502" 
d="M453 392l-283 -305h283v-87h-411v75l278 305h-262v87h395v-75zM203 597c-24 23 -24 61 0 84c25 23 65 23 89 0c25 -23 25 -61 0 -84c-24 -23 -64 -23 -89 0z" />
    <glyph glyph-name="Zcaron" unicode="&#x17d;" horiz-adv-x="573" 
d="M42 0v81l364 520h-350v88h468v-81l-366 -520h366v-88h-482zM208 930l74 -87l75 87h82l-110 -154h-93l-110 154h82z" />
    <glyph glyph-name="zcaron" unicode="&#x17e;" horiz-adv-x="502" 
d="M453 392l-283 -305h283v-87h-411v75l278 305h-262v87h395v-75zM173 708l74 -87l75 87h82l-110 -154h-93l-110 154h82z" />
    <glyph glyph-name="longs" unicode="&#x17f;" horiz-adv-x="305" 
d="M296 721h51v-87h-51c-59 0 -88 -40 -87 -120v-514h-92v390h-90v77h90v47c0 129 58 207 179 207z" />
    <glyph glyph-name="florin" unicode="&#x192;" horiz-adv-x="617" 
d="M210 16l80 367h-86l18 84h86l9 40c26 117 84 181 173 194c14 3 34 3 59 2l37 -2l-17 -83h-58c-46 0 -68 -24 -85 -54c-5 -11 -14 -38 -17 -49c-1 -11 -9 -41 -10 -48h108l-17 -84h-109l-74 -341c-27 -129 -76 -210 -180 -226c-19 -3 -52 -2 -97 1l17 82h59
c35 0 59 13 74 40c16 25 22 45 30 77z" />
    <glyph glyph-name="Aringacute" unicode="&#x1fa;" horiz-adv-x="645" 
d="M177 175l-67 -175h-99l262 689h100l261 -689h-98l-67 175h-292zM367 1091h109l-102 -132c36 -19 54 -50 54 -92c0 -59 -47 -104 -107 -104c-57 0 -104 47 -104 104c0 48 29 88 72 101zM437 259l-114 306l-114 -306h228zM270 867c0 -28 23 -51 51 -51c29 0 54 23 54 51
c0 29 -23 53 -54 53c-28 0 -51 -24 -51 -53z" />
    <glyph glyph-name="aringacute" unicode="&#x1fb;" horiz-adv-x="612" 
d="M536 0h-90v72c-31 -52 -96 -82 -164 -82c-66 0 -122 23 -168 68s-69 104 -69 176c0 73 23 131 69 176s102 67 168 67c68 0 135 -29 164 -80v70h90v-467zM445 235c0 47 -16 85 -47 112s-67 41 -108 41c-43 0 -80 -14 -109 -43c-29 -28 -43 -65 -43 -110s15 -83 44 -112
s65 -44 108 -44s80 14 110 42s45 66 45 114zM324 861h109l-102 -132c36 -19 54 -50 54 -92c0 -59 -47 -104 -107 -104c-59 0 -104 47 -104 104c0 48 29 88 72 101zM227 637c0 -28 23 -51 51 -51c29 0 54 23 54 51c0 29 -23 53 -54 53c-28 0 -51 -24 -51 -53z" />
    <glyph glyph-name="AEacute" unicode="&#x1fc;" horiz-adv-x="934" 
d="M109 0h-109l435 689h435v-92h-313v-213h274v-92h-274v-200h324v-92h-416v173h-245zM465 262v298l-190 -298h190zM557 930h109l-119 -154h-87z" />
    <glyph glyph-name="aeacute" unicode="&#x1fd;" horiz-adv-x="957" 
d="M536 429c41 32 91 48 149 48c67 0 123 -22 166 -67c44 -44 66 -102 66 -175c0 -17 0 -29 -1 -36h-379c11 -77 71 -127 151 -127c57 0 109 27 134 72c9 -3 22 -9 40 -16l38 -14c-39 -80 -122 -124 -215 -124c-59 0 -108 16 -149 49v-39h-90v72c-31 -52 -96 -82 -164 -82
c-66 0 -122 23 -168 68s-69 104 -69 176c0 73 23 131 69 176s102 67 168 67c68 0 135 -29 164 -80v70h90v-38zM445 235c0 47 -16 85 -47 112s-67 41 -108 41c-43 0 -80 -14 -109 -43c-29 -28 -43 -65 -43 -110s15 -83 44 -112s65 -44 108 -44s80 14 110 42s45 66 45 114z
M537 270h290c-11 77 -66 125 -142 125c-79 0 -137 -48 -148 -125zM517 708h109l-119 -154h-87z" />
    <glyph glyph-name="Oslashacute" unicode="&#x1fe;" horiz-adv-x="795" 
d="M444 930h109l-119 -154h-87zM98 -16l-47 47l80 82c-55 66 -83 143 -83 230c0 99 34 182 101 251s150 103 247 103c85 0 159 -27 224 -81l79 81l47 -46l-80 -82c53 -66 80 -141 80 -226c0 -98 -34 -181 -102 -250c-67 -69 -150 -103 -248 -103c-83 0 -156 25 -218 76z
M141 343c0 -62 18 -117 54 -164l361 371c-47 38 -100 57 -160 57c-71 0 -132 -26 -181 -77s-74 -114 -74 -187zM396 80c72 0 133 25 182 76s74 114 74 187c0 59 -17 112 -51 159l-359 -370c44 -35 95 -52 154 -52z" />
    <glyph glyph-name="oslashacute" unicode="&#x1ff;" horiz-adv-x="577" 
d="M326 708h109l-119 -154h-87zM87 -25l-47 47l56 57c-35 43 -52 95 -52 156c0 72 23 130 70 175s105 67 174 67c56 0 106 -16 150 -47l50 51l47 -46l-50 -51c32 -43 48 -92 48 -149c0 -72 -24 -131 -72 -177c-47 -45 -105 -68 -173 -68c-55 0 -103 14 -144 43zM288 388
c-43 0 -80 -14 -110 -42c-29 -28 -44 -65 -44 -111c0 -35 8 -65 25 -90l215 219c-25 16 -54 24 -86 24zM288 78c43 0 80 14 109 43c30 29 45 67 45 114c0 29 -7 56 -22 82l-212 -218c23 -14 50 -21 80 -21z" />
    <glyph glyph-name="Scommaaccent" unicode="&#x218;" horiz-adv-x="573" 
d="M52 199h93c1 -31 15 -60 43 -85s63 -37 105 -37c83 0 130 44 139 101c5 37 -7 66 -34 86c-21 17 -48 30 -83 37l-89 22c-112 29 -168 89 -168 180c0 57 22 103 66 139c44 37 96 55 157 55c64 0 117 -19 159 -56s63 -85 63 -146h-93c0 68 -54 113 -130 113
c-35 0 -65 -10 -91 -29c-25 -19 -38 -44 -38 -75c0 -48 33 -80 98 -96l90 -22c131 -33 197 -108 184 -216c-6 -52 -30 -95 -71 -129s-94 -51 -159 -51c-69 0 -126 21 -172 62c-46 42 -69 91 -69 147zM265 -250l-58 19c21 28 34 54 41 78s9 56 5 96h90
c1 -86 -25 -150 -78 -193z" />
    <glyph glyph-name="scommaaccent" unicode="&#x219;" horiz-adv-x="439" 
d="M246 191l-64 15c-89 24 -133 69 -125 152c3 34 21 62 52 85s68 34 110 34c87 0 154 -43 162 -132h-87c-5 33 -36 53 -73 53c-35 0 -63 -17 -70 -42c-4 -15 -4 -27 1 -37c7 -15 26 -27 55 -36l69 -17c81 -20 121 -65 121 -136c0 -42 -18 -76 -53 -102
c-35 -25 -77 -38 -128 -38c-45 0 -85 14 -120 41s-53 64 -54 109h83c4 -25 17 -42 38 -53c21 -13 45 -18 74 -16c43 3 70 28 71 61c1 32 -23 50 -62 59zM195 -250l-58 19c21 28 34 54 41 78s9 56 5 96h90c1 -86 -25 -150 -78 -193z" />
    <glyph glyph-name="circumflex" unicode="&#x2c6;" horiz-adv-x="523" 
d="M418 554h-82l-75 87l-74 -87h-82l110 154h93z" />
    <glyph glyph-name="caron" unicode="&#x2c7;" horiz-adv-x="523" 
d="M187 708l74 -87l75 87h82l-110 -154h-93l-110 154h82z" />
    <glyph glyph-name="breve" unicode="&#x2d8;" horiz-adv-x="481" 
d="M110 683h74c0 -35 21 -59 56 -59c33 0 55 28 55 59h76c0 -79 -51 -128 -131 -128c-87 0 -130 56 -130 128z" />
    <glyph glyph-name="dotaccent" unicode="&#x2d9;" horiz-adv-x="526" 
d="M218 597c-24 23 -24 61 0 84c25 23 65 23 89 0c25 -23 25 -61 0 -84c-24 -23 -64 -23 -89 0z" />
    <glyph glyph-name="ring" unicode="&#x2da;" horiz-adv-x="531" 
d="M160 645c0 60 45 106 104 106c60 0 107 -46 107 -106c0 -59 -47 -104 -107 -104c-59 0 -104 47 -104 104zM213 645c0 -28 23 -51 51 -51c29 0 54 23 54 51c0 29 -23 53 -54 53c-28 0 -51 -24 -51 -53z" />
    <glyph glyph-name="ogonek" unicode="&#x2db;" horiz-adv-x="522" 
d="M295 -117l3 22l64 4c0 -17 -3 -34 -10 -49c-17 -40 -51 -64 -90 -64c-14 0 -27 3 -39 8c-40 17 -63 52 -63 92c0 15 3 29 8 42l51 95h49l-43 -120c-8 -21 0 -44 20 -53c23 -7 40 1 50 23z" />
    <glyph glyph-name="tilde" unicode="&#x2dc;" horiz-adv-x="426" 
d="M168 610c-12 0 -26 -15 -27 -44h-61c4 81 43 117 88 117c17 0 36 -8 58 -24c38 -32 53 -17 59 24h61c-4 -80 -44 -114 -89 -114c-17 0 -36 8 -57 25c-16 11 -27 16 -32 16z" />
    <glyph glyph-name="hungarumlaut" unicode="&#x2dd;" horiz-adv-x="476" 
d="M160 708h92l-89 -154h-83zM302 708h94l-102 -154h-81z" />
    <glyph glyph-name="Wgrave" unicode="&#x1e80;" horiz-adv-x="901" 
d="M613 150l173 539h100l-233 -689h-81l-122 430l-121 -430h-81l-233 689h100l173 -539l127 446h71zM496 776h-87l-119 154h109z" />
    <glyph glyph-name="wgrave" unicode="&#x1e81;" horiz-adv-x="790" 
d="M769 467l-173 -467h-75l-127 343l-123 -343h-74l-178 467h97l117 -327l117 327h88l117 -327l117 327h97zM440 554h-87l-119 154h109z" />
    <glyph glyph-name="Wacute" unicode="&#x1e82;" horiz-adv-x="901" 
d="M886 689l-233 -689h-81l-122 430l-121 -430h-81l-233 689h100l173 -539l127 446h71l127 -446l173 539h100zM501 930h109l-119 -154h-87z" />
    <glyph glyph-name="wacute" unicode="&#x1e83;" horiz-adv-x="790" 
d="M521 0l-127 343l-123 -343h-74l-178 467h97l117 -327l117 327h88l117 -327l117 327h97l-173 -467h-75zM446 708h109l-119 -154h-87z" />
    <glyph glyph-name="Wdieresis" unicode="&#x1e84;" horiz-adv-x="901" 
d="M886 689l-233 -689h-81l-122 430l-121 -430h-81l-233 689h100l173 -539l127 446h71l127 -446l173 539h100zM366 911c33 0 61 -26 61 -59s-28 -59 -61 -59c-35 0 -62 26 -62 59s27 59 62 59zM491 810c-24 23 -24 61 0 84s64 23 88 0s24 -61 0 -84s-64 -23 -88 0z" />
    <glyph glyph-name="wdieresis" unicode="&#x1e85;" horiz-adv-x="790" 
d="M521 0l-127 343l-123 -343h-74l-178 467h97l117 -327l117 327h88l117 -327l117 327h97l-173 -467h-75zM309 689c33 0 61 -26 61 -59s-28 -59 -61 -59c-35 0 -62 26 -62 59s27 59 62 59zM434 588c-24 23 -24 61 0 84s64 23 88 0s24 -61 0 -84s-64 -23 -88 0z" />
    <glyph glyph-name="Ygrave" unicode="&#x1ef2;" horiz-adv-x="628" 
d="M362 317v-317h-96v317l-261 372h111l198 -279l200 279h112zM364 776h-87l-119 154h109z" />
    <glyph glyph-name="ygrave" unicode="&#x1ef3;" horiz-adv-x="509" 
d="M492 467l-290 -694h-95l98 241l-187 453h97l140 -338l140 338h97zM330 554h-87l-119 154h109z" />
    <glyph glyph-name="thinspace" unicode="&#x2009;" horiz-adv-x="14" 
 />
    <glyph glyph-name="endash" unicode="&#x2013;" horiz-adv-x="595" 
d="M71 195v78h453v-78h-453z" />
    <glyph glyph-name="emdash" unicode="&#x2014;" horiz-adv-x="801" 
d="M71 195v78h659v-78h-659z" />
    <glyph glyph-name="quoteleft" unicode="&#x2018;" horiz-adv-x="248" 
d="M153 688l53 -19c-43 -61 -64 -131 -63 -211h-83c8 107 49 194 93 230z" />
    <glyph glyph-name="quoteright" unicode="&#x2019;" horiz-adv-x="245" 
d="M103 454l-53 19c43 61 64 131 63 211h83c-8 -107 -49 -194 -93 -230z" />
    <glyph glyph-name="quotesinglbase" unicode="&#x201a;" horiz-adv-x="242" 
d="M81 -65l-53 19c43 61 64 131 63 211h83c-8 -107 -49 -194 -93 -230z" />
    <glyph glyph-name="quotedblleft" unicode="&#x201c;" horiz-adv-x="397" 
d="M153 689l53 -19c-43 -61 -64 -131 -63 -211h-83c8 107 49 194 93 230zM302 689l53 -19c-43 -61 -64 -131 -63 -211h-83c8 107 49 194 93 230z" />
    <glyph glyph-name="quotedblright" unicode="&#x201d;" horiz-adv-x="395" 
d="M253 459l-53 19c43 61 64 131 63 211h83c-8 -107 -49 -194 -93 -230zM104 459l-53 19c43 61 64 131 63 211h83c-8 -107 -49 -194 -93 -230z" />
    <glyph glyph-name="quotedblbase" unicode="&#x201e;" horiz-adv-x="391" 
d="M230 -65l-53 19c43 61 64 131 63 211h83c-8 -107 -49 -194 -93 -230zM81 -65l-53 19c43 61 64 131 63 211h83c-8 -107 -49 -194 -93 -230z" />
    <glyph glyph-name="dagger" unicode="&#x2020;" horiz-adv-x="414" 
d="M251 676v-179h121v-90h-121v-528h-89v528h-120v90h120v179h89z" />
    <glyph glyph-name="daggerdbl" unicode="&#x2021;" horiz-adv-x="448" 
d="M268 676v-179h121v-90h-121v-235h121v-89h-121v-204h-89v204h-120v89h120v235h-120v90h120v179h89z" />
    <glyph glyph-name="bullet" unicode="&#x2022;" horiz-adv-x="461" 
d="M125 137c-29 27 -44 61 -44 102s15 74 44 101s65 41 106 41s76 -14 105 -41s44 -60 44 -101s-15 -75 -44 -102s-64 -41 -105 -41s-77 14 -106 41z" />
    <glyph glyph-name="ellipsis" unicode="&#x2026;" horiz-adv-x="718" 
d="M86 7c-25 24 -25 66 0 90s67 24 92 0c27 -24 27 -66 0 -90c-25 -23 -67 -23 -92 0zM312 7c-25 24 -25 66 0 90s67 24 92 0c27 -24 27 -66 0 -90c-25 -23 -67 -23 -92 0zM538 7c-25 24 -25 66 0 90s67 24 92 0c27 -24 27 -66 0 -90c-25 -23 -67 -23 -92 0z" />
    <glyph glyph-name="perthousand" unicode="&#x2030;" horiz-adv-x="991" 
d="M467 673h66l-329 -673h-66zM306 539c0 -37 -13 -69 -39 -95c-26 -25 -58 -38 -95 -38s-69 13 -95 38c-25 26 -38 58 -38 95s13 69 38 95c26 26 58 39 95 39s69 -13 95 -40c26 -26 39 -57 39 -94zM236 539c0 35 -29 64 -64 64c-56 4 -84 -73 -45 -109
c36 -39 113 -11 109 45zM646 123c0 -37 -13 -69 -39 -95c-26 -25 -58 -38 -95 -38s-69 13 -95 38c-25 26 -38 58 -38 95s13 69 38 95c26 26 58 39 95 39s69 -13 95 -40c26 -26 39 -57 39 -94zM576 123c0 35 -29 64 -64 64c-56 4 -84 -73 -45 -109c36 -39 113 -11 109 45z
M821 257c37 0 68 -13 94 -40c27 -26 40 -57 40 -94s-13 -69 -39 -95c-26 -25 -58 -38 -95 -38s-69 13 -95 38c-25 26 -38 58 -38 95s13 69 38 95c26 26 58 39 95 39zM885 123c0 35 -29 64 -64 64c-56 4 -84 -73 -45 -109c36 -39 113 -11 109 45z" />
    <glyph glyph-name="guilsinglleft" unicode="&#x2039;" horiz-adv-x="313" 
d="M184 26l-138 207l138 207h79l-138 -207l138 -207h-79z" />
    <glyph glyph-name="guilsinglright" unicode="&#x203a;" horiz-adv-x="313" 
d="M129 440l138 -207l-138 -207h-79l138 207l-138 207h79z" />
    <glyph glyph-name="fraction" unicode="&#x2044;" horiz-adv-x="180" 
d="M279 670h67l-450 -680h-68z" />
    <glyph glyph-name="zerosuperior" unicode="&#x2070;" horiz-adv-x="364" 
d="M39 625c0 112 29 203 143 203s143 -91 143 -203c0 -133 -48 -200 -143 -200s-143 67 -143 200zM98 625c0 -95 28 -142 84 -142s84 47 84 142c0 96 -28 144 -84 144s-84 -48 -84 -144z" />
    <glyph glyph-name="foursuperior" unicode="&#x2074;" horiz-adv-x="359" 
d="M332 509h-56v-79h-59v79h-203l218 314h44v-258h56v-56zM217 715l-101 -150h101v150z" />
    <glyph glyph-name="fivesuperior" unicode="&#x2075;" horiz-adv-x="340" 
d="M26 507l49 35c15 -37 51 -60 88 -60c52 0 86 32 86 75c0 44 -36 68 -75 68c-31 0 -68 -11 -111 -33l-18 23l35 207h201v-56h-152l-9 -48l-9 -48c20 9 41 13 63 13c75 0 133 -46 133 -126s-57 -133 -144 -133c-56 0 -112 31 -137 83z" />
    <glyph glyph-name="sixsuperior" unicode="&#x2076;" horiz-adv-x="338" 
d="M301 746l-53 -22c-15 31 -36 46 -64 46c-51 0 -85 -55 -84 -132c16 31 43 47 80 47c36 0 66 -14 89 -41c24 -27 35 -59 34 -96c-2 -36 -16 -66 -41 -91c-25 -24 -56 -35 -92 -34c-71 3 -121 54 -128 135c-6 93 1 272 142 268c55 -3 94 -29 117 -80zM103 557
c0 -41 31 -73 70 -74s68 28 71 68c1 41 -26 73 -65 74c-41 1 -75 -28 -76 -68z" />
    <glyph glyph-name="sevensuperior" unicode="&#x2077;" horiz-adv-x="327" 
d="M39 823h275l-215 -393h-69l183 334h-174v59z" />
    <glyph glyph-name="eightsuperior" unicode="&#x2078;" horiz-adv-x="342" 
d="M65 725c0 57 46 103 106 103c61 0 108 -46 108 -103c0 -24 -10 -46 -29 -67c38 -25 57 -60 57 -105c0 -36 -13 -66 -39 -91s-58 -37 -97 -37s-71 12 -97 37s-39 55 -39 91c0 46 19 81 56 105c-17 19 -26 41 -26 67zM171 483c43 0 77 31 77 70c0 40 -34 75 -77 75h-4
c-41 0 -73 -36 -73 -75s33 -70 77 -70zM168 678h5c27 1 46 23 46 47s-21 44 -48 44s-47 -20 -47 -44s19 -46 44 -47z" />
    <glyph glyph-name="ninesuperior" unicode="&#x2079;" horiz-adv-x="338" 
d="M40 504l53 22c15 -31 36 -46 64 -46c51 0 85 55 84 132c-16 -31 -43 -47 -80 -47c-36 0 -66 14 -90 41c-23 27 -34 59 -33 96c2 36 16 66 41 90c25 25 56 36 92 35c71 -3 121 -54 128 -135c6 -93 -1 -272 -142 -268c-55 3 -94 29 -117 80zM238 693c0 41 -31 73 -70 74
s-68 -28 -71 -68c-1 -41 26 -73 65 -74c41 -1 75 28 76 68z" />
    <glyph glyph-name="zeroinferior" unicode="&#x2080;" horiz-adv-x="364" 
d="M39 49c0 112 29 203 143 203s143 -91 143 -203c0 -133 -48 -200 -143 -200s-143 67 -143 200zM98 49c0 -95 28 -142 84 -142s84 47 84 142c0 96 -28 144 -84 144s-84 -48 -84 -144z" />
    <glyph glyph-name="oneinferior" unicode="&#x2081;" horiz-adv-x="207" 
d="M153 -146h-60v305l-68 -35v57l128 70v-397z" />
    <glyph glyph-name="twoinferior" unicode="&#x2082;" horiz-adv-x="325" 
d="M39 -146v28l158 191c53 67 18 122 -39 122c-35 0 -66 -26 -71 -65l-53 14c9 65 61 108 124 108c71 0 124 -49 124 -118c0 -36 -14 -70 -43 -102l-101 -119h145v-59h-244z" />
    <glyph glyph-name="threeinferior" unicode="&#x2083;" horiz-adv-x="320" 
d="M87 162l-40 32c23 37 65 60 113 57c32 -1 58 -13 79 -34s30 -46 29 -74c0 -8 -1 -16 -3 -24c-7 -24 -22 -42 -43 -54c39 -15 66 -62 62 -105c-3 -33 -18 -61 -47 -82c-28 -22 -60 -32 -96 -29c-51 4 -96 37 -117 82l48 26c12 -28 42 -53 73 -54h-1c44 -3 84 25 85 64
c1 37 -34 70 -75 70h-45v52h45c27 0 49 20 54 45c3 17 0 30 -7 40c-9 14 -24 22 -45 23c-29 3 -52 -9 -69 -35z" />
    <glyph glyph-name="fourinferior" unicode="&#x2084;" horiz-adv-x="360" 
d="M333 -67h-56v-79h-59v79h-203l218 314h44v-258h56v-56zM218 139l-101 -150h101v150z" />
    <glyph glyph-name="fiveinferior" unicode="&#x2085;" horiz-adv-x="338" 
d="M26 -69l49 35c15 -37 51 -60 88 -60c52 0 86 32 86 75c0 44 -36 68 -75 68c-31 0 -68 -11 -111 -33l-18 23l35 207h201v-56h-152l-9 -48l-9 -48c20 9 41 13 63 13c75 0 133 -46 133 -126s-57 -133 -144 -133c-56 0 -112 31 -137 83z" />
    <glyph glyph-name="sixinferior" unicode="&#x2086;" horiz-adv-x="337" 
d="M301 170l-53 -22c-15 31 -36 46 -64 46c-51 0 -85 -55 -84 -132c16 31 43 47 80 47c36 0 66 -14 89 -41c24 -27 35 -59 34 -96c-2 -36 -16 -66 -41 -90c-25 -25 -56 -36 -92 -35c-71 3 -121 54 -128 135c-6 93 1 272 142 268c55 -3 94 -29 117 -80zM103 -19
c0 -41 31 -73 70 -74s68 28 71 68c1 41 -26 73 -65 74c-41 1 -75 -28 -76 -68z" />
    <glyph glyph-name="seveninferior" unicode="&#x2087;" horiz-adv-x="320" 
d="M40 247h275l-215 -393h-69l183 334h-174v59z" />
    <glyph glyph-name="eightinferior" unicode="&#x2088;" horiz-adv-x="342" 
d="M65 149c0 57 46 103 106 103c61 0 108 -46 108 -103c0 -24 -10 -46 -29 -67c38 -25 57 -60 57 -105c0 -36 -13 -66 -39 -91s-58 -37 -97 -37s-71 12 -97 37s-39 55 -39 91c0 46 19 81 56 105c-17 19 -26 41 -26 67zM171 -93c43 0 77 31 77 70c0 40 -34 75 -77 75h-4
c-41 0 -73 -36 -73 -75s33 -70 77 -70zM168 102h5c27 1 46 23 46 47s-21 44 -48 44s-47 -20 -47 -44s19 -46 44 -47z" />
    <glyph glyph-name="nineinferior" unicode="&#x2089;" horiz-adv-x="338" 
d="M41 -72l53 22c15 -31 36 -46 64 -46c51 0 85 55 84 132c-16 -31 -43 -47 -80 -47c-36 0 -66 14 -90 41c-23 27 -34 59 -33 96c2 36 16 66 41 90c25 25 56 36 92 35c71 -3 121 -54 128 -135c6 -93 -1 -272 -142 -268c-55 3 -94 29 -117 80zM239 117c0 41 -31 73 -70 74
s-68 -28 -71 -68c-1 -41 26 -73 65 -74c41 -1 75 28 76 68z" />
    <glyph glyph-name="colonmonetary" unicode="&#x20a1;" horiz-adv-x="702" 
d="M311 0l-39 -109l-47 17l38 108c-28 11 -53 26 -75 43l-47 -131l-47 16l53 150c-67 69 -100 152 -100 249c0 92 30 171 90 238c61 67 136 105 225 114l39 110l47 -17l-33 -92c31 -1 59 -6 86 -15l31 87l47 -16l-32 -89c40 -19 76 -47 108 -83l-70 -58
c-22 23 -45 41 -69 54l-175 -490c18 -4 36 -6 55 -6c77 0 141 29 191 88l70 -59c-63 -75 -156 -119 -261 -119c-27 0 -55 3 -85 10zM396 607h-13l-163 -457c22 -21 47 -37 74 -49l176 494c-23 8 -47 12 -74 12zM140 343c0 -54 14 -103 43 -148l144 402
c-55 -15 -100 -47 -135 -94s-52 -100 -52 -160z" />
    <glyph glyph-name="lira" unicode="&#x20a4;" horiz-adv-x="635" 
d="M68 398h76v104c0 57 20 104 60 140c41 37 89 55 145 55c55 0 102 -19 140 -58c38 -38 57 -88 57 -151h-90c0 57 -29 101 -72 113c-16 5 -31 6 -45 4c-28 -1 -53 -12 -74 -31s-32 -43 -32 -72v-104h153v-53h-153v-66h153v-53h-153v-136h244c11 0 17 7 17 22v57h90v-49
c0 -71 -33 -120 -96 -120h-436v90h92v136h-76v53h76v66h-76v53z" />
    <glyph glyph-name="uni20A6" unicode="&#x20a6;" horiz-adv-x="757" 
d="M622 250v-250h-89l-151 250h-163v-250h-93v250h-69v55h69v74h-69v55h69v255h92l154 -255h157v255h93v-255h82v-55h-82v-74h82v-55h-82zM304 379h-85v-74h129zM529 379h-124l45 -74h79v74zM270 434l-51 85v-85h51zM529 250h-46l46 -76v76z" />
    <glyph glyph-name="peseta" unicode="&#x20a7;" horiz-adv-x="745" 
d="M133 0v399h-80v55h80v49h-80v55h80v131h275c96 0 160 -52 188 -131h104v-55h-90c2 -14 3 -28 3 -41v-8h87v-55h-95c-21 -85 -86 -141 -197 -141h-181v-258h-94zM227 454h293v8c0 12 -2 26 -5 41h-288v-49zM227 399v-54h175c51 0 85 18 104 54h-279zM407 602h-180v-44h264
c-20 29 -48 44 -84 44z" />
    <glyph glyph-name="rupee" unicode="&#x20a8;" horiz-adv-x="674" 
d="M363 0l-178 258h-118v87h194c76 0 112 52 115 123h-309v55h303c-15 53 -50 79 -105 79h-198l-1 87h560v-55h-216c31 -29 50 -66 58 -111h158v-55h-154c-1 -55 -17 -102 -47 -141c-29 -39 -74 -61 -133 -66l184 -261h-113z" />
    <glyph glyph-name="uni20A9" unicode="&#x20a9;" horiz-adv-x="982" 
d="M288 0l-93 274h-135v55h117l-34 100h-83v55h64l-69 205h100l66 -205h202l32 112h71l32 -112h202l66 205h100l-70 -205h66v-55h-84l-34 -100h118v-55h-136l-93 -274h-81l-78 274h-88l-77 -274h-81zM742 429h-169l29 -100h108zM407 429h-169l32 -100h109zM693 274h-76
l36 -124zM363 274h-75l40 -124zM490 429h-1l-28 -100h58z" />
    <glyph glyph-name="afii57636" unicode="&#x20aa;" horiz-adv-x="751" 
d="M504 332v-167h-89v167c0 67 -50 117 -122 117h-107v-449h-90v538h197c63 0 113 -20 152 -59s59 -88 59 -147zM247 206v167h89v-167c0 -67 50 -117 122 -117h107v449h90v-538h-197c-63 0 -114 20 -153 59s-58 88 -58 147z" />
    <glyph glyph-name="Euro" unicode="&#x20ac;" horiz-adv-x="783" 
d="M519 421v-56h-467v56h102c18 77 56 139 113 188c58 49 127 74 206 74c95 0 178 -37 250 -110l-63 -63c-57 56 -120 84 -187 84c-108 0 -193 -72 -224 -173h270zM52 249v55h467v-55h-269c15 -49 43 -90 83 -122c40 -31 87 -47 140 -47c69 0 131 28 188 85l63 -64
c-72 -73 -156 -110 -251 -110c-79 0 -147 24 -204 72s-95 110 -114 186h-103z" />
    <glyph glyph-name="uni2113" unicode="&#x2113;" horiz-adv-x="393" 
d="M221 89h95v-89h-107c-91 0 -137 53 -137 159v379c0 106 46 159 137 159c93 0 134 -63 134 -159v-190c0 -59 -13 -100 -40 -124c-26 -24 -73 -36 -142 -36v-29c0 -32 7 -52 20 -61c11 -6 25 -9 40 -9zM161 532v-254h48c29 0 44 25 44 75v179c0 51 -15 76 -44 76
c-32 0 -48 -25 -48 -76z" />
    <glyph glyph-name="afii61352" unicode="&#x2116;" horiz-adv-x="969" 
d="M787 689c36 0 67 -13 92 -39c26 -25 39 -56 39 -92s-13 -67 -39 -93c-25 -25 -56 -38 -92 -38c-37 0 -68 13 -94 38c-25 26 -38 57 -38 93s13 67 38 92c26 26 57 39 94 39zM742 603c-25 -25 -25 -65 0 -90s65 -25 90 0s25 65 0 90s-65 25 -90 0zM913 338h-253v47h253v-47
zM503 0l-314 519v-519h-93v689h92l311 -515v515h93v-689h-89z" />
    <glyph glyph-name="trademark" unicode="&#x2122;" horiz-adv-x="844" 
d="M66 622v59h357l123 -270l123 270h58l46 -383h-65l-32 268l-102 -227h-55l-104 227l-31 -268h-66l38 324h-106v-324h-68v324h-116z" />
    <glyph glyph-name="estimated" unicode="&#x212e;" horiz-adv-x="659" 
d="M611 279h-429v-193c44 -42 95 -63 152 -63c101 0 157 46 210 127l31 -19c-59 -91 -125 -141 -241 -141c-79 0 -144 28 -195 84c-51 57 -76 125 -76 206c0 82 25 151 75 206c50 56 117 84 200 84s149 -28 198 -85c50 -56 75 -125 75 -206zM182 312h309v163
c-45 41 -96 62 -153 62c-64 0 -116 -21 -156 -62v-163z" />
    <glyph glyph-name="minus" unicode="&#x2212;" horiz-adv-x="576" 
d="M74 223v82h428v-82h-428z" />
    <glyph glyph-name="notequal" unicode="&#x2260;" horiz-adv-x="594" 
d="M362 303l-51 -106h216v-87h-259l-54 -110h-70l54 110h-131v87h173l52 106h-225v87h267l54 110h71l-54 -110h122v-87h-165z" />
    <glyph glyph-name="lessequal" unicode="&#x2264;" horiz-adv-x="654" 
d="M572 237v-96l-506 194v87l506 194v-97l-380 -140zM75 0v80h497v-80h-497z" />
    <glyph glyph-name="greaterequal" unicode="&#x2265;" horiz-adv-x="654" 
d="M588 422v-87l-506 -194v96l380 142l-380 140v97zM579 80v-80h-497v80h497z" />
    <glyph glyph-name="commaaccent" unicode="&#xf6c3;" horiz-adv-x="277" 
d="M128 -250l-58 19c21 28 34 54 41 78s9 56 5 96h90c1 -86 -25 -150 -78 -193z" />
    <glyph glyph-name="rupiah" unicode="&#xf6dd;" horiz-adv-x="1176" 
d="M363 261l184 -261h-113l-178 258h-88v-258h-94v689h265c68 0 119 -21 153 -63s51 -93 51 -153c0 -56 -15 -104 -45 -144c-29 -40 -74 -63 -135 -68zM336 602h-168v-257h164c79 0 115 56 115 128c0 71 -36 129 -111 129zM653 467h91v-73c31 52 96 83 163 83
c65 0 121 -23 166 -68s68 -104 68 -177c0 -72 -23 -130 -68 -175s-100 -67 -166 -67c-68 0 -134 28 -163 80v-297h-91v694zM745 231c0 -47 15 -85 46 -112s66 -40 107 -40c87 0 151 61 151 152c0 46 -15 84 -44 113s-64 44 -107 44s-79 -14 -109 -43
c-29 -28 -44 -66 -44 -114z" />
    <glyph glyph-name="apple" unicode="&#xf8ff;" horiz-adv-x="847" 
d="M80 687h687v-687h-687v687zM426 332l-262 263v-377h81l-74 75v178l255 -253l256 253v-178l-74 -75h84v377zM193 96l-14 36h-15v-53h9v37l13 -37h10l11 37v-37h9v53h-14zM248 132c-17 0 -25 -9 -25 -27c0 -15 9 -26 25 -26c15 0 23 13 23 26c0 15 -8 27 -23 27zM248 89
c-9 0 -17 9 -17 16c0 8 8 17 17 17c8 0 12 -6 12 -17s-4 -16 -12 -16zM284 99h-13c0 -13 7 -20 22 -20s22 6 22 17c0 7 -5 12 -15 14c-11 2 -16 4 -16 6c0 4 3 6 9 6c7 0 10 -2 10 -6h9c0 11 -6 16 -19 16s-19 -5 -19 -16c0 -5 5 -10 16 -15c9 0 13 -2 13 -5
c0 -5 -3 -7 -10 -7c-6 0 -9 3 -9 10zM315 132v-10h17v-43h8v43h15v10h-40zM398 79l-21 53h-9l-22 -53h12l4 13h22l3 -13h11zM371 119h3l7 -18h-16zM426 132h-28v-53h9v22h13c6 0 9 -3 9 -9v-13h13c-2 2 -3 6 -3 13c0 6 -2 10 -7 13c5 2 7 6 7 11c0 11 -4 16 -13 16zM420 108
h-13v14h13c6 0 9 -2 9 -6c0 -5 -3 -8 -9 -8zM466 132h-20v-53h20c17 0 25 10 25 29c0 16 -8 24 -25 24zM466 89h-8v33h4c11 0 17 -6 17 -17c0 -8 -6 -16 -13 -16zM531 122v10h-37v-53h40v10h-28v12h25v9h-25v12h25zM543 99h-9c0 -13 7 -20 22 -20s22 6 22 17
c0 7 -5 12 -15 14c-11 2 -17 4 -17 6c0 4 2 6 7 6c8 0 12 -2 12 -6h10c0 11 -6 16 -19 16s-41 -15 -3 -31c8 0 12 -2 12 -5c0 -5 -3 -7 -9 -7c-9 0 -13 3 -13 10zM589 79v53h-7v-53h7zM633 86l4 -7h6v29h-22v-9h12c-3 -7 -7 -10 -12 -10c-9 0 -16 9 -16 16c0 8 7 17 16 17
c6 0 9 -3 9 -10h13c-3 13 -10 20 -22 20c-15 0 -25 -12 -25 -27c0 -13 10 -26 25 -26c6 0 10 2 12 7zM679 99l-22 33h-8v-53h8v33l22 -33h13v53h-13v-33z" />
    <glyph glyph-name="published" horiz-adv-x="809" 
d="M369 280v-122h-69v353h136c73 0 114 -52 114 -116c0 -29 -10 -56 -30 -80c-19 -23 -47 -35 -84 -35h-67zM369 443v-95h65c60 0 59 95 2 95h-67zM156 93c-67 69 -101 152 -101 250s34 181 101 250c68 69 151 104 248 104s180 -35 248 -104s102 -152 102 -250
s-34 -181 -102 -250s-151 -103 -248 -103s-180 34 -248 103zM200 549c-56 -57 -84 -125 -84 -206s28 -149 84 -206s124 -85 204 -85s148 28 204 85s84 125 84 206s-28 149 -84 206s-124 86 -204 86s-148 -29 -204 -86z" />
    <glyph glyph-name="frenchfranc" horiz-adv-x="726" 
d="M478 116v-116h-91v330h-200v-330h-90v676h392v-90h-302v-166h291v-112c23 77 66 115 130 115c37 0 64 -6 81 -18l-14 -85c-22 11 -45 16 -69 16c-85 0 -128 -88 -128 -220z" />
    <glyph glyph-name="parenleft.case" horiz-adv-x="363" 
d="M323 813v-89c-57 0 -103 -34 -138 -102c-34 -68 -51 -159 -51 -274s17 -206 51 -274c35 -68 81 -102 138 -102v-89c-83 0 -150 42 -200 125c-49 83 -74 197 -74 340s25 257 74 340c50 83 117 125 200 125z" />
    <glyph glyph-name="parenright.case" horiz-adv-x="363" 
d="M40 -117v89c57 0 103 34 137 102c35 68 52 159 52 274s-17 206 -52 274c-34 68 -80 102 -137 102v89c83 0 150 -42 199 -125c50 -83 75 -197 75 -340s-25 -257 -75 -340c-49 -83 -116 -125 -199 -125z" />
    <glyph glyph-name="hyphen.case" horiz-adv-x="486" 
d="M69 307v87h348v-87h-348z" />
    <glyph glyph-name="at.case" horiz-adv-x="971" 
d="M601 225v129c0 36 -13 66 -38 91s-55 38 -91 38s-67 -13 -92 -38s-37 -55 -37 -91c0 -35 13 -66 38 -91s56 -37 91 -37c34 0 67 16 99 48v-85c-32 -23 -65 -34 -99 -34c-55 0 -103 19 -142 58s-58 86 -58 141s19 102 58 141s87 59 142 59c53 0 99 -18 138 -55
s60 -83 62 -136v-145c0 -44 24 -66 72 -66c45 0 79 32 95 77c16 47 22 90 22 137c0 100 -37 183 -112 250c-74 67 -163 101 -267 101c-101 0 -187 -36 -257 -108c-69 -71 -104 -158 -104 -260s35 -188 104 -259s155 -106 257 -106h23v-71h-23c-121 0 -224 42 -307 126
c-83 85 -125 188 -125 310c0 121 42 225 125 310c84 86 186 129 307 129c239 6 455 -184 451 -422c0 -63 -13 -126 -41 -185s-81 -99 -148 -99c-83 0 -143 42 -143 143z" />
    <glyph glyph-name="bracketleft.case" horiz-adv-x="327" 
d="M285 -107h-201v916h201v-83h-111v-750h111v-83z" />
    <glyph glyph-name="bracketright.case" horiz-adv-x="327" 
d="M42 807h201v-916h-201v83h111v750h-111v83z" />
    <glyph glyph-name="braceleft.case" horiz-adv-x="400" 
d="M186 255v-174c0 -33 11 -60 32 -83s47 -34 76 -34h67v-79h-64c-55 0 -102 18 -140 54s-57 83 -57 142v174c0 27 -29 51 -61 51v81c32 0 61 24 61 51v176c-1 59 18 106 56 141c38 36 85 54 141 54h64v-79h-67c-60 0 -108 -52 -108 -116v-176c0 -37 -18 -76 -49 -92
c28 -16 49 -56 49 -91z" />
    <glyph glyph-name="braceright.case" horiz-adv-x="400" 
d="M214 81v174c0 35 21 75 49 91c-31 16 -49 55 -49 92v176c0 64 -48 116 -108 116h-67v79h64c56 0 103 -18 141 -54c38 -35 57 -82 56 -141v-176c0 -27 29 -51 61 -51v-81c-32 0 -61 -24 -61 -51v-174c0 -59 -19 -106 -57 -142s-85 -54 -140 -54h-64v79h67
c29 0 55 11 76 34s32 50 32 83z" />
    <glyph glyph-name="exclamdown.case" horiz-adv-x="263" 
d="M97 502h71l9 -503h-90zM85 590c-25 24 -25 66 0 89c25 24 67 24 92 0c27 -23 27 -65 0 -89c-25 -24 -67 -24 -92 0z" />
    <glyph glyph-name="guillemotleft.case" horiz-adv-x="515" 
d="M195 143l-138 207l138 207h79l-138 -207l138 -207h-79zM371 143l-138 207l138 207h79l-138 -207l138 -207h-79z" />
    <glyph glyph-name="periodcentered.case" horiz-adv-x="268" 
d="M88 308c-25 24 -25 66 0 90s67 24 92 0c27 -24 27 -66 0 -90c-25 -23 -67 -23 -92 0z" />
    <glyph glyph-name="guillemotright.case" horiz-adv-x="515" 
d="M320 557l138 -207l-138 -207h-79l138 207l-138 207h79zM144 557l138 -207l-138 -207h-79l138 207l-138 207h79z" />
    <glyph glyph-name="questiondown.case" horiz-adv-x="482" 
d="M350 199h90c0 -63 -19 -113 -57 -152c-38 -38 -85 -57 -140 -57c-56 0 -104 18 -145 54c-40 36 -60 83 -60 141c0 93 61 164 144 189c48 15 71 30 71 73l2 59h88v-59c0 -91 -47 -132 -134 -159c-18 -5 -34 -15 -48 -30c-23 -20 -34 -44 -34 -73c0 -31 12 -57 35 -77
c23 -19 50 -29 81 -29c60 0 107 48 107 120zM344 679c27 -23 27 -65 0 -89c-25 -24 -67 -24 -92 0s-25 66 0 89c25 24 67 24 92 0z" />
    <glyph glyph-name="endash.case" horiz-adv-x="597" 
d="M72 311v78h453v-78h-453z" />
    <glyph glyph-name="emdash.case" horiz-adv-x="803" 
d="M72 311v78h659v-78h-659z" />
    <glyph glyph-name="bullet.case" horiz-adv-x="463" 
d="M126 248c-29 27 -44 61 -44 102s15 74 44 101s65 41 106 41s76 -14 105 -41s44 -60 44 -101s-15 -75 -44 -102s-64 -41 -105 -41s-77 14 -106 41z" />
    <glyph glyph-name="guilsinglleft.case" horiz-adv-x="339" 
d="M195 143l-138 207l138 207h79l-138 -207l138 -207h-79z" />
    <glyph glyph-name="guilsinglright.case" horiz-adv-x="339" 
d="M144 557l138 -207l-138 -207h-79l138 207l-138 207h79z" />
    <glyph glyph-name="cent.case" horiz-adv-x="533" 
d="M314 0h-62v107c-58 10 -106 37 -144 80s-57 97 -57 161c0 63 19 116 57 159s86 69 144 79v103h62v-100c66 -3 121 -28 164 -74l-69 -58c-29 29 -66 44 -111 44c-43 0 -80 -14 -111 -43c-31 -28 -46 -65 -46 -110c0 -46 15 -84 46 -113s68 -44 111 -44c45 0 82 15 111 46
l70 -58c-42 -46 -97 -71 -165 -75v-104z" />
    <glyph glyph-name="zero.tnum" 
d="M53 325c0 99 14 173 47 237c35 64 99 99 190 99c92 0 156 -35 189 -99c35 -64 47 -137 47 -237c0 -99 -12 -171 -47 -235c-33 -64 -98 -99 -189 -99c-187 0 -237 151 -237 334zM143 325c0 -152 38 -245 147 -245s147 93 147 245c0 153 -38 246 -147 246
s-147 -93 -147 -246z" />
    <glyph glyph-name="one.tnum" 
d="M361 0h-90v539l-106 -37v86l196 71v-659z" />
    <glyph glyph-name="two.tnum" 
d="M86 0v40l265 321c32 37 48 73 48 107c0 61 -51 103 -116 103c-60 0 -109 -39 -118 -103l-87 21c9 52 32 94 70 125s83 47 135 47c58 0 107 -18 146 -54s59 -82 59 -139c0 -59 -24 -115 -71 -169l-177 -209h249v-90h-403z" />
    <glyph glyph-name="three.tnum" 
d="M170 513l-67 53c36 63 109 101 189 96c53 -3 96 -22 130 -58c35 -35 51 -76 50 -123c0 -13 -2 -26 -6 -40c-12 -39 -36 -69 -71 -89c33 -12 59 -35 78 -70c20 -35 28 -70 25 -106c-5 -55 -31 -101 -78 -137s-100 -52 -161 -47c-85 5 -159 60 -194 136l79 43
c21 -47 71 -86 122 -90h-1c37 -2 69 7 97 28c29 21 44 48 45 79s-12 59 -37 82s-54 35 -89 35h-74v87h74c45 -1 82 31 90 75c5 27 1 50 -11 67c-15 23 -41 36 -76 38c-47 4 -85 -16 -114 -59z" />
    <glyph glyph-name="four.tnum" 
d="M543 134h-94v-134h-89v134h-340l362 519h67v-434h94v-85zM360 491l-187 -272h187v272z" />
    <glyph glyph-name="five.tnum" 
d="M56 139l77 42c25 -64 79 -104 140 -104c104 0 157 54 157 133c0 80 -58 125 -135 125c-28 0 -53 -4 -76 -12c-23 -7 -51 -21 -86 -42l-56 46l57 325h348v-86h-274l-36 -185c29 21 83 38 123 38c63 0 116 -19 159 -56s64 -88 64 -153c0 -67 -23 -120 -68 -160
s-104 -60 -177 -60c-92 0 -177 58 -217 149z" />
    <glyph glyph-name="six.tnum" 
d="M513 535l-80 -34c-25 50 -62 75 -111 75c-45 0 -82 -22 -109 -65s-37 -97 -31 -163c19 49 64 74 134 74c58 0 107 -23 146 -68s58 -97 56 -156c-3 -59 -26 -109 -68 -150s-92 -60 -151 -57c-116 5 -197 89 -208 224c-6 82 -2 164 11 247c10 60 35 109 75 146
c41 37 90 55 149 53c83 -4 147 -35 187 -126zM181 212c0 -36 12 -66 35 -91c24 -25 53 -38 87 -39s63 9 87 32c25 23 38 53 39 88c3 71 -47 127 -116 130c-35 1 -65 -10 -91 -33s-40 -52 -41 -87z" />
    <glyph glyph-name="seven.tnum" 
d="M87 653h451l-358 -653h-105l311 564h-299v89z" />
    <glyph glyph-name="eight.tnum" 
d="M116 494c0 47 17 86 50 118c33 33 75 49 124 49s91 -16 125 -49c34 -32 51 -71 51 -118c0 -46 -17 -84 -51 -115c63 -39 100 -103 100 -175c0 -59 -22 -110 -65 -151s-97 -62 -160 -62c-64 0 -118 20 -161 61s-64 92 -64 152c0 72 38 138 99 175c-32 31 -48 69 -48 115z
M155 204c0 -35 13 -64 39 -88s58 -36 96 -36s70 12 96 36s39 53 39 88s-13 64 -39 89s-58 37 -96 37h-7c-36 -1 -66 -14 -91 -39s-37 -54 -37 -87zM285 414h8c48 1 83 37 83 80s-37 77 -86 77c-48 0 -85 -34 -85 -77s35 -79 80 -80z" />
    <glyph glyph-name="nine.tnum" 
d="M78 116l80 34c25 -50 62 -75 111 -75c45 0 81 21 108 64s38 98 32 164c-19 -49 -64 -74 -134 -74c-58 0 -107 22 -146 67s-58 98 -56 157c3 59 26 109 68 150s92 60 151 57c116 -5 197 -89 208 -224c6 -81 2 -164 -11 -248v1c-10 -60 -35 -109 -76 -146
c-40 -37 -89 -55 -148 -53c-83 4 -147 35 -187 126zM410 439c0 36 -12 66 -36 91c-23 25 -52 38 -86 39s-63 -10 -88 -33c-24 -23 -37 -52 -38 -87c-3 -71 47 -127 116 -130c35 -1 65 9 91 32s40 53 41 88z" />
    <glyph glyph-name="zero.taboldstyle" 
d="M289 -10c-67 0 -124 24 -171 72s-71 110 -71 186c0 77 24 139 71 186s104 71 171 71c68 0 126 -24 173 -71s71 -109 71 -186c0 -76 -24 -138 -72 -186c-47 -48 -105 -72 -172 -72zM289 79c43 0 79 16 109 47s45 72 45 122c0 49 -15 89 -45 120s-66 47 -109 47
s-79 -16 -109 -47c-29 -31 -44 -71 -44 -120c0 -50 15 -91 45 -122s66 -47 108 -47z" />
    <glyph glyph-name="one.taboldstyle" 
d="M149 388l238 128v-516h-90v370l-148 -77v95z" />
    <glyph glyph-name="two.taboldstyle" 
d="M100 0v41l235 254c24 24 36 46 36 66c0 36 -35 62 -83 62c-45 0 -79 -29 -83 -74l-88 15c5 45 24 81 57 108s73 41 118 41c50 0 91 -14 123 -43c33 -29 49 -65 49 -109c0 -16 -3 -33 -7 -45c-3 -11 -14 -30 -18 -38c-4 -7 -23 -30 -27 -35l-17 -18l-16 -18l-113 -117h199
v-90h-365z" />
    <glyph glyph-name="six.taboldstyle" 
d="M513 535l-80 -34c-25 50 -62 75 -111 75c-45 0 -82 -22 -109 -65s-37 -97 -31 -163c19 49 64 74 134 74c58 0 107 -23 146 -68s58 -97 56 -156c-3 -59 -26 -109 -68 -150s-92 -60 -151 -57c-116 5 -197 89 -208 224c-6 82 -2 164 11 247c10 60 35 109 75 146
c41 37 90 55 149 53c83 -4 147 -35 187 -126zM181 212c0 -36 12 -66 35 -91c24 -25 53 -38 87 -39s63 9 87 32c25 23 38 53 39 88c3 71 -47 127 -116 130c-35 1 -65 -10 -91 -33s-40 -52 -41 -87z" />
    <glyph glyph-name="eight.taboldstyle" 
d="M116 494c0 47 17 86 50 118c33 33 75 49 124 49s91 -16 125 -49c34 -32 51 -71 51 -118c0 -46 -17 -84 -51 -115c63 -39 100 -103 100 -175c0 -59 -22 -110 -65 -151s-97 -62 -160 -62c-64 0 -118 20 -161 61s-64 92 -64 152c0 72 38 138 99 175c-32 31 -48 69 -48 115z
M155 204c0 -35 13 -64 39 -88s58 -36 96 -36s70 12 96 36s39 53 39 88s-13 64 -39 89s-58 37 -96 37h-7c-36 -1 -66 -14 -91 -39s-37 -54 -37 -87zM285 414h8c48 1 83 37 83 80s-37 77 -86 77c-48 0 -85 -34 -85 -77s35 -79 80 -80z" />
    <glyph glyph-name="three.taboldstyle" 
d="M173 325l-67 53c36 63 109 101 189 96c53 -3 96 -22 130 -58c35 -35 51 -76 50 -123c0 -13 -2 -26 -6 -40c-12 -39 -36 -69 -71 -89c33 -12 59 -35 78 -70c20 -35 28 -70 25 -106c-5 -55 -31 -101 -78 -137s-100 -52 -161 -47c-85 5 -159 60 -194 136l79 43
c21 -47 71 -86 122 -90h-1c37 -2 69 8 97 29c29 21 44 47 45 78s-12 59 -37 82s-54 35 -89 35h-74v87h74c45 -1 82 31 90 75c5 27 1 50 -11 67c-15 23 -41 36 -76 38c-47 4 -85 -16 -114 -59z" />
    <glyph glyph-name="four.taboldstyle" 
d="M543 -53h-94v-134h-89v134h-340l362 519h67v-434h94v-85zM360 304l-187 -272h187v272z" />
    <glyph glyph-name="five.taboldstyle" 
d="M57 -48l77 42c25 -64 79 -104 140 -104c104 0 157 54 157 133c0 80 -58 125 -135 125c-28 0 -53 -4 -76 -12c-23 -7 -51 -21 -86 -42l-56 46l57 325h348v-86h-274l-36 -185c29 21 83 38 123 38c63 0 116 -19 159 -56s64 -88 64 -153c0 -67 -23 -120 -68 -160
s-104 -60 -177 -60c-92 0 -177 58 -217 149z" />
    <glyph glyph-name="seven.taboldstyle" 
d="M88 465h451l-358 -653h-105l311 564h-299v89z" />
    <glyph glyph-name="nine.taboldstyle" 
d="M83 -73l80 34c25 -50 62 -75 111 -75c45 0 81 22 108 65s38 97 32 163c-19 -49 -64 -74 -134 -74c-58 0 -107 22 -146 67s-58 98 -56 157c3 59 26 109 68 150s92 60 151 57c116 -5 197 -89 208 -224c6 -81 2 -164 -11 -248v1c-10 -60 -35 -109 -76 -146
c-40 -37 -89 -55 -148 -53c-83 4 -147 35 -187 126zM415 250c0 36 -12 66 -36 91c-23 25 -52 38 -86 39s-63 -10 -88 -33c-24 -23 -37 -52 -38 -87c-3 -71 47 -127 116 -130c35 -1 65 9 91 32s40 53 41 88z" />
    <glyph glyph-name="zero.oldstyle" horiz-adv-x="592" 
d="M295 -10c-67 0 -124 24 -171 72s-71 110 -71 186c0 77 24 139 71 186s104 71 171 71c68 0 126 -24 173 -71s71 -109 71 -186c0 -76 -24 -138 -72 -186c-47 -48 -105 -72 -172 -72zM295 79c43 0 79 16 109 47s45 72 45 122c0 49 -15 89 -45 120s-66 47 -109 47
s-79 -16 -109 -47c-29 -31 -44 -71 -44 -120c0 -50 15 -91 45 -122s66 -47 108 -47z" />
    <glyph glyph-name="one.oldstyle" horiz-adv-x="365" 
d="M42 388l238 128v-516h-90v370l-148 -77v95z" />
    <glyph glyph-name="two.oldstyle" horiz-adv-x="475" 
d="M48 0v41l235 254c24 24 36 46 36 66c0 36 -35 62 -83 62c-45 0 -79 -29 -83 -74l-88 15c5 45 24 81 57 108s73 41 118 41c50 0 91 -14 123 -43c33 -29 49 -65 49 -109c0 -16 -3 -33 -7 -45c-3 -11 -14 -30 -18 -38c-4 -7 -23 -30 -27 -35l-17 -18l-16 -18l-113 -117h199
v-90h-365z" />
    <glyph glyph-name="three.oldstyle" horiz-adv-x="515" 
d="M140 325l-67 53c36 63 109 101 189 96c53 -3 96 -22 130 -58c35 -35 51 -76 50 -123c0 -13 -2 -26 -6 -40c-12 -39 -36 -69 -71 -89c33 -12 59 -35 78 -70c20 -35 28 -70 25 -106c-5 -55 -31 -101 -78 -137s-100 -52 -161 -47c-85 5 -159 60 -194 136l79 43
c21 -47 71 -86 122 -90h-1c37 -2 69 8 97 29c29 21 44 47 45 78s-12 59 -37 82s-54 35 -89 35h-74v87h74c45 -1 82 31 90 75c5 27 1 50 -11 67c-15 23 -41 36 -76 38c-47 4 -85 -16 -114 -59z" />
    <glyph glyph-name="four.oldstyle" 
d="M543 -53h-94v-134h-89v134h-340l362 519h67v-434h94v-85zM360 304l-187 -272h187v272z" />
    <glyph glyph-name="five.oldstyle" horiz-adv-x="548" 
d="M41 -48l77 42c25 -64 79 -104 140 -104c104 0 157 54 157 133c0 80 -58 125 -135 125c-28 0 -53 -4 -76 -12c-23 -7 -51 -21 -86 -42l-56 46l57 325h348v-86h-274l-36 -185c29 21 83 38 123 38c63 0 116 -19 159 -56s64 -88 64 -153c0 -67 -23 -120 -68 -160
s-104 -60 -177 -60c-92 0 -177 58 -217 149z" />
    <glyph glyph-name="six.oldstyle" horiz-adv-x="556" 
d="M501 535l-80 -34c-25 50 -62 75 -111 75c-45 0 -82 -22 -109 -65s-37 -97 -31 -163c19 49 64 74 134 74c58 0 107 -23 146 -68s58 -97 56 -156c-3 -59 -26 -109 -68 -150s-92 -60 -151 -57c-116 5 -197 89 -208 224c-6 82 -2 164 11 247c10 60 35 109 75 146
c41 37 90 55 149 53c83 -4 147 -35 187 -126zM169 212c0 -36 12 -66 35 -91c24 -25 53 -38 87 -39s63 9 87 32c25 23 38 53 39 88c3 71 -47 127 -116 130c-35 1 -65 -10 -91 -33s-40 -52 -41 -87z" />
    <glyph glyph-name="seven.oldstyle" horiz-adv-x="506" 
d="M51 465h451l-358 -653h-105l311 564h-299v89z" />
    <glyph glyph-name="eight.oldstyle" horiz-adv-x="562" 
d="M107 494c0 47 17 86 50 118c33 33 75 49 124 49s91 -16 125 -49c34 -32 51 -71 51 -118c0 -46 -17 -84 -51 -115c63 -39 100 -103 100 -175c0 -59 -22 -110 -65 -151s-97 -62 -160 -62c-64 0 -118 20 -161 61s-64 92 -64 152c0 72 38 138 99 175c-32 31 -48 69 -48 115z
M146 204c0 -35 13 -64 39 -88s58 -36 96 -36s70 12 96 36s39 53 39 88s-13 64 -39 89s-58 37 -96 37h-7c-36 -1 -66 -14 -91 -39s-37 -54 -37 -87zM276 414h8c48 1 83 37 83 80s-37 77 -86 77c-48 0 -85 -34 -85 -77s35 -79 80 -80z" />
    <glyph glyph-name="nine.oldstyle" horiz-adv-x="534" 
d="M60 -73l80 34c25 -50 62 -75 111 -75c45 0 81 22 108 65s38 97 32 163c-19 -49 -64 -74 -134 -74c-58 0 -107 22 -146 67s-58 98 -56 157c3 59 26 109 68 150s92 60 151 57c116 -5 197 -89 208 -224c6 -81 2 -164 -11 -248v1c-10 -60 -35 -109 -76 -146
c-40 -37 -89 -55 -148 -53c-83 4 -147 35 -187 126zM392 250c0 36 -12 66 -36 91c-23 25 -52 38 -86 39s-63 -10 -88 -33c-24 -23 -37 -52 -38 -87c-3 -71 47 -127 116 -130c35 -1 65 9 91 32s40 53 41 88z" />
    <glyph glyph-name="Lslash.sc" horiz-adv-x="434" 
d="M177 584v-196l87 54v-63l-87 -55v-241h235v-83h-319v272l-54 -35v64l54 35v248h84z" />
    <glyph glyph-name="Zcaron.sc" horiz-adv-x="507" 
d="M45 0v72l302 433h-290v79h399v-72l-305 -432h305v-80h-411zM188 786l61 -71l63 71h75l-97 -134h-80l-98 134h76z" />
    <glyph glyph-name="exclam.sc" horiz-adv-x="262" 
d="M91 584h81l-8 -429h-65zM79 46c0 29 23 51 51 51c29 0 52 -22 52 -51c0 -27 -23 -49 -52 -49c-28 0 -51 22 -51 49z" />
    <glyph glyph-name="ampersand.sc" horiz-adv-x="577" 
d="M252 360h110v74h78v-75h73v-67h-73v-112c0 -71 19 -111 88 -111v-77c-60 0 -112 24 -137 59c-34 -39 -81 -59 -141 -59c-56 0 -102 18 -139 54c-36 36 -54 81 -54 134c0 66 28 117 84 154c-25 25 -38 59 -38 102c0 41 15 76 44 105s66 43 109 43c59 0 113 -34 144 -86
l-68 -43c-21 34 -46 51 -76 51c-43 0 -75 -30 -75 -70s31 -76 71 -76zM362 175v117h-111c-32 0 -59 -11 -82 -34c-22 -23 -33 -49 -33 -78c0 -61 47 -109 114 -109c63 0 109 45 112 104z" />
    <glyph glyph-name="question.sc" horiz-adv-x="426" 
d="M121 410h-78c0 54 16 97 49 130s73 50 120 50c48 0 89 -15 123 -46c35 -30 52 -70 52 -119c0 -80 -54 -141 -123 -162c-39 -12 -58 -26 -58 -59l-1 -49h-80v49c0 77 41 114 114 137c36 9 68 45 68 84c0 49 -46 85 -95 85s-91 -40 -91 -100zM165 104c33 0 58 -24 58 -57
c0 -32 -25 -55 -58 -55c-32 0 -58 23 -58 55s26 57 58 57z" />
    <glyph glyph-name="A.sc" horiz-adv-x="570" 
d="M285 467l-92 -244h184zM462 0l-56 147h-241l-32 -84l-24 -63h-90l222 584h88l222 -584h-89z" />
    <glyph glyph-name="B.sc" horiz-adv-x="553" 
d="M470 431c0 -57 -22 -97 -66 -119c29 -9 53 -27 70 -55c18 -28 27 -57 27 -87c0 -48 -16 -88 -47 -121s-73 -49 -125 -49h-240v584h221c99 0 160 -58 160 -153zM174 506v-161h136c47 0 74 36 74 84s-31 77 -83 77h-127zM323 270h-149v-191h151c53 0 90 43 90 92
c0 24 -9 46 -26 67s-39 32 -66 32z" />
    <glyph glyph-name="C.sc" horiz-adv-x="600" 
d="M508 148l63 -53c-55 -64 -135 -104 -223 -104c-83 0 -153 29 -211 87c-57 59 -86 130 -86 213s29 154 86 212c58 58 128 87 211 87c89 0 163 -33 221 -100l-62 -53c-45 48 -98 72 -159 72c-60 0 -111 -21 -152 -64c-41 -42 -61 -93 -61 -154s20 -112 61 -155
c41 -42 92 -63 152 -63c63 0 117 25 160 75z" />
    <glyph glyph-name="D.sc" horiz-adv-x="633" 
d="M316 0h-227v584h227c81 0 145 -28 192 -83s71 -125 71 -210s-24 -155 -71 -210c-47 -54 -111 -81 -192 -81zM173 506v-427h143c115 0 179 87 179 212c0 63 -16 114 -47 154c-31 41 -75 61 -132 61h-143z" />
    <glyph glyph-name="E.sc" horiz-adv-x="499" 
d="M89 0v584h348v-78h-264v-179h231v-79h-231v-169h272v-79h-356z" />
    <glyph glyph-name="F.sc" horiz-adv-x="464" 
d="M89 0v584h343v-78h-259v-179h205v-79h-205v-248h-84z" />
    <glyph glyph-name="G.sc" horiz-adv-x="659" 
d="M545 511l-60 -56c-39 37 -85 55 -139 55c-59 0 -109 -21 -150 -64s-61 -94 -61 -155s20 -112 61 -155s91 -64 150 -64c103 0 176 58 181 150h-164v74h259c0 -201 -104 -305 -276 -305c-83 0 -153 29 -210 87c-57 59 -85 130 -85 213s28 154 85 212s127 87 210 87
c78 0 144 -26 199 -79z" />
    <glyph glyph-name="H.sc" horiz-adv-x="620" 
d="M446 584h85v-584h-85v252h-273v-252h-84v584h84v-255h273v255z" />
    <glyph glyph-name="I.sc" horiz-adv-x="262" 
d="M89 0v584h84v-584h-84z" />
    <glyph glyph-name="J.sc" horiz-adv-x="262" 
d="M-74 -201l8 81c15 -5 34 -8 59 -8c67 0 96 44 96 108v604h84v-604c0 -112 -56 -190 -180 -190c-15 0 -37 3 -67 9z" />
    <glyph glyph-name="K.sc" horiz-adv-x="515" 
d="M462 584l-224 -292l276 -292h-115l-226 242v-242h-84v584h84v-244l187 244h102z" />
    <glyph glyph-name="L.sc" horiz-adv-x="430" 
d="M89 0v584h84v-505h236v-79h-320z" />
    <glyph glyph-name="M.sc" horiz-adv-x="810" 
d="M203 584l201 -419l203 419h76l71 -584h-84l-51 427l-177 -363h-73l-178 363l-52 -427h-83l71 584h76z" />
    <glyph glyph-name="N.sc" horiz-adv-x="601" 
d="M512 584v-584h-80l-259 428v-428h-84v584h82l257 -423v423h84z" />
    <glyph glyph-name="O.sc" horiz-adv-x="694" 
d="M136 78c-57 59 -85 130 -85 213s28 154 85 212s127 87 210 87s154 -29 211 -87s86 -129 86 -212s-29 -154 -86 -213c-57 -58 -128 -87 -211 -87s-153 29 -210 87zM196 445c-41 -42 -61 -93 -61 -154s20 -112 61 -155c41 -42 91 -63 150 -63s109 21 150 63
c41 43 62 94 62 155s-21 112 -62 154c-41 43 -91 64 -150 64s-109 -21 -150 -64z" />
    <glyph glyph-name="P.sc" horiz-adv-x="534" 
d="M89 0v584h234c58 0 102 -18 131 -54s44 -79 44 -130c0 -52 -15 -96 -44 -131s-73 -53 -131 -53h-149v-216h-85zM322 506h-148v-211h144c129 -7 125 217 4 211z" />
    <glyph glyph-name="Q.sc" horiz-adv-x="694" 
d="M507 39l60 -96l-66 -42l-65 104c-33 -9 -63 -14 -90 -14c-83 0 -153 29 -210 87c-57 59 -85 130 -85 213s28 154 85 212s127 87 210 87s154 -29 211 -87s86 -129 86 -212c0 -103 -53 -197 -136 -252zM331 174l65 41l65 -105c60 39 97 105 97 181c0 61 -21 112 -62 154
c-41 43 -91 64 -150 64s-109 -21 -150 -64c-41 -42 -61 -93 -61 -154c0 -55 19 -104 57 -145s84 -65 139 -70c27 0 46 1 58 3l-29 47c-13 21 -23 37 -29 48z" />
    <glyph glyph-name="R.sc" horiz-adv-x="546" 
d="M340 220l155 -220h-102l-149 216h-70v-216h-85v584h225c57 0 101 -18 130 -54c30 -36 45 -79 45 -130c0 -96 -49 -171 -149 -180zM312 506h-138v-211h134c127 -8 123 218 4 211z" />
    <glyph glyph-name="S.sc" horiz-adv-x="505" 
d="M53 173h85c0 -27 11 -51 34 -72s51 -31 86 -31c68 0 107 37 114 82c8 55 -39 88 -96 101l-75 19c-95 23 -142 74 -142 154c0 48 19 87 56 118c38 31 83 46 134 46c55 0 100 -16 135 -48c36 -31 54 -73 54 -126h-84c0 56 -45 94 -106 94c-57 0 -105 -35 -105 -84
c0 -38 27 -64 80 -77l75 -19c109 -28 166 -94 157 -185c-7 -43 -28 -80 -63 -110c-35 -29 -80 -44 -134 -44c-59 0 -108 18 -147 54c-39 37 -58 79 -58 128z" />
    <glyph glyph-name="T.sc" horiz-adv-x="482" 
d="M23 505v79h436v-79h-176v-505h-85v505h-175z" />
    <glyph glyph-name="U.sc" horiz-adv-x="595" 
d="M297 73c36 0 67 12 92 36c26 24 39 55 39 92v383h84v-383c0 -62 -21 -113 -63 -152c-41 -39 -92 -58 -152 -58c-59 0 -110 19 -152 58c-41 39 -62 90 -62 152v383h85v-383c0 -37 13 -68 38 -92s56 -36 91 -36z" />
    <glyph glyph-name="V.sc" horiz-adv-x="498" 
d="M33 584h87l130 -438l128 438h87l-176 -584h-79z" />
    <glyph glyph-name="W.sc" horiz-adv-x="785" 
d="M529 138l143 446h90l-198 -584h-72l-100 352l-99 -352h-72l-198 584h90l143 -446l105 368h63z" />
    <glyph glyph-name="X.sc" horiz-adv-x="546" 
d="M505 584l-181 -271l204 -313h-102l-153 242l-153 -242h-101l203 314l-181 270h101l131 -200l132 200h100z" />
    <glyph glyph-name="Y.sc" horiz-adv-x="563" 
d="M324 268v-268h-86v268l-222 316h99l165 -233l167 233h102z" />
    <glyph glyph-name="Z.sc" horiz-adv-x="507" 
d="M45 0v72l302 433h-290v79h399v-72l-305 -432h305v-80h-411z" />
    <glyph glyph-name="Scaron.sc" horiz-adv-x="505" 
d="M193 786l61 -71l63 71h76l-98 -134h-80l-98 134h76zM138 173c0 -27 11 -51 34 -72s51 -31 86 -31c68 0 107 37 114 82c8 55 -39 88 -96 101l-75 19c-95 23 -142 74 -142 154c0 48 19 87 56 118c38 31 83 46 134 46c55 0 100 -16 135 -48c36 -31 54 -73 54 -126h-84
c0 56 -45 94 -106 94c-57 0 -105 -35 -105 -84c0 -38 27 -64 80 -77l75 -19c109 -28 166 -94 157 -185c-7 -43 -28 -80 -63 -110c-35 -29 -80 -44 -134 -44c-59 0 -108 18 -147 54c-39 37 -58 79 -58 128h85z" />
    <glyph glyph-name="OE.sc" horiz-adv-x="964" 
d="M554 496v88h347v-83h-263v-173h230v-83h-230v-162h272v-83h-356v86c-57 -63 -127 -95 -210 -95s-152 29 -209 87c-56 59 -84 130 -84 213s28 154 84 212c57 58 126 87 209 87c84 0 154 -31 210 -94zM344 76c55 0 102 20 142 61c41 41 63 89 68 144v19
c-5 56 -27 104 -68 145c-40 41 -87 61 -142 61c-59 0 -109 -21 -150 -63c-40 -41 -60 -92 -60 -152s20 -111 60 -153c41 -41 91 -62 150 -62z" />
    <glyph glyph-name="Ydieresis.sc" horiz-adv-x="563" 
d="M324 268v-268h-86v268l-222 316h99l165 -233l167 233h102zM156 718c0 29 24 52 55 52s54 -23 54 -52c0 -31 -23 -53 -54 -53s-55 22 -55 53zM298 718c0 29 24 52 55 52s55 -23 55 -52c0 -31 -24 -53 -55 -53s-55 22 -55 53z" />
    <glyph glyph-name="exclamdown.sc" horiz-adv-x="264" 
d="M132 591c33 0 58 -23 58 -55s-25 -56 -58 -56c-32 0 -57 24 -57 56s25 55 57 55zM172 0h-81l8 429h65z" />
    <glyph glyph-name="questiondown.sc" horiz-adv-x="426" 
d="M312 -14h81c0 -54 -16 -98 -49 -131s-72 -50 -119 -50c-48 0 -89 15 -124 46c-34 31 -51 71 -51 120c0 76 54 138 122 161c39 13 59 27 59 59l1 53h80v-53c0 -77 -40 -113 -115 -137c-15 -4 -28 -12 -38 -23c-19 -17 -28 -37 -28 -60c0 -51 43 -86 94 -86
c48 0 87 41 87 101zM312 390c23 -20 23 -58 0 -79c-21 -21 -61 -21 -82 0s-21 59 0 79c21 21 61 21 82 0z" />
    <glyph glyph-name="Agrave.sc" horiz-adv-x="570" 
d="M285 467l-92 -244h184zM462 0l-56 147h-241l-32 -84l-24 -63h-90l222 584h88l222 -584h-89zM333 652h-80l-105 134h99z" />
    <glyph glyph-name="Aacute.sc" horiz-adv-x="570" 
d="M325 780h99l-104 -134h-80zM377 223l-92 244l-92 -244h184zM165 147l-32 -84l-24 -63h-90l222 584h88l222 -584h-89l-56 147h-241z" />
    <glyph glyph-name="Acircumflex.sc" horiz-adv-x="570" 
d="M285 467l-92 -244h184zM462 0l-56 147h-241l-32 -84l-24 -63h-90l222 584h88l222 -584h-89zM423 652h-77l-62 72l-61 -72h-75l97 134h80z" />
    <glyph glyph-name="Atilde.sc" horiz-adv-x="570" 
d="M285 467l-92 -244h184zM462 0l-56 147h-241l-32 -84l-24 -63h-90l222 584h88l222 -584h-89zM247 698c-13 0 -19 -12 -20 -36h-57c4 72 38 103 77 103c14 0 29 -6 45 -18l-1 1c1 0 5 -4 6 -5c12 -8 20 -12 25 -12c13 0 19 11 20 34h57c-4 -72 -38 -102 -77 -102
c-16 0 -33 7 -50 22l-10 6c-7 5 -12 7 -15 7z" />
    <glyph glyph-name="Adieresis.sc" horiz-adv-x="570" 
d="M159 718c0 29 24 52 55 52s54 -23 54 -52c0 -31 -23 -53 -54 -53s-55 22 -55 53zM301 718c0 29 23 52 54 52s56 -23 56 -52c0 -31 -24 -53 -56 -53c-31 0 -54 22 -54 53zM377 223l-92 244l-92 -244h184zM165 147l-32 -84l-24 -63h-90l222 584h88l222 -584h-89l-56 147
h-241z" />
    <glyph glyph-name="Aring.sc" horiz-adv-x="570" 
d="M193 731c0 52 39 91 90 91c53 0 93 -39 93 -91c0 -51 -40 -90 -93 -90c-51 0 -90 39 -90 90zM244 731c0 -21 18 -40 39 -40c24 0 43 17 43 40s-19 41 -43 41c-21 0 -39 -18 -39 -41zM377 223l-92 244l-92 -244h184zM165 147l-32 -84l-24 -63h-90l222 584h88l222 -584h-89
l-56 147h-241z" />
    <glyph glyph-name="AE.sc" horiz-adv-x="814" 
d="M404 145h-200l-93 -145h-100l370 584h370v-83h-263v-173h229v-83h-229v-162h272v-83h-356v145zM404 461l-150 -235h150v235z" />
    <glyph glyph-name="Ccedilla.sc" horiz-adv-x="601" 
d="M282 -94c7 -15 24 -23 39 -18c16 7 21 21 15 41l-24 64c-75 9 -137 41 -187 97c-49 57 -74 124 -74 201c0 83 29 154 86 212c58 58 128 87 211 87c89 0 163 -33 221 -100l-62 -53c-45 48 -98 72 -159 72c-60 0 -111 -21 -152 -64c-41 -42 -61 -93 -61 -154
s20 -112 61 -155c41 -42 92 -63 152 -63c63 0 117 25 160 75l63 -53c-54 -63 -122 -97 -204 -103l22 -40c5 -11 7 -23 7 -36c0 -36 -18 -63 -55 -81c-9 -4 -20 -6 -34 -6c-32 0 -63 22 -78 55c-6 15 -9 31 -9 46l60 -4c0 -9 1 -16 2 -20z" />
    <glyph glyph-name="Egrave.sc" horiz-adv-x="499" 
d="M89 0v584h348v-78h-264v-179h231v-79h-231v-169h272v-79h-356zM316 652h-80l-105 134h100z" />
    <glyph glyph-name="Eacute.sc" horiz-adv-x="499" 
d="M272 786h100l-105 -134h-80zM437 584v-78h-264v-179h231v-79h-231v-169h272v-79h-356v584h348z" />
    <glyph glyph-name="Ecircumflex.sc" horiz-adv-x="499" 
d="M89 0v584h348v-78h-264v-179h231v-79h-231v-169h272v-79h-356zM387 652h-75l-62 72l-62 -72h-76l98 134h80z" />
    <glyph glyph-name="Edieresis.sc" horiz-adv-x="499" 
d="M127 718c0 29 25 52 56 52c29 0 54 -23 54 -52c0 -31 -25 -53 -54 -53c-32 0 -56 22 -56 53zM269 718c0 29 24 52 55 52s55 -23 55 -52c0 -31 -24 -53 -55 -53s-55 22 -55 53zM437 584v-78h-264v-179h231v-79h-231v-169h272v-79h-356v584h348z" />
    <glyph glyph-name="Igrave.sc" horiz-adv-x="261" 
d="M89 0v584h83v-584h-83zM175 652h-80l-104 134h100z" />
    <glyph glyph-name="Iacute.sc" horiz-adv-x="261" 
d="M171 786h99l-105 -134h-80zM172 584v-584h-83v584h83z" />
    <glyph glyph-name="Icircumflex.sc" horiz-adv-x="262" 
d="M89 0v584h84v-584h-84zM269 652h-76l-63 72l-61 -72h-76l98 134h80z" />
    <glyph glyph-name="Idieresis.sc" horiz-adv-x="261" 
d="M5 718c0 29 24 52 55 52s55 -23 55 -52c0 -31 -24 -53 -55 -53s-55 22 -55 53zM147 718c0 29 23 52 54 52s56 -23 56 -52c0 -31 -24 -53 -56 -53c-31 0 -54 22 -54 53zM172 584v-584h-83v584h83z" />
    <glyph glyph-name="Eth.sc" horiz-adv-x="630" 
d="M316 0h-223v262h-78v60h78v262h223c81 0 145 -27 191 -82s69 -125 69 -211c0 -85 -23 -155 -69 -210c-46 -54 -110 -81 -191 -81zM177 501v-179h138v-60h-138v-179h139c113 0 177 84 177 208s-64 210 -177 210h-139z" />
    <glyph glyph-name="Ntilde.sc" horiz-adv-x="601" 
d="M512 584v-584h-80l-259 428v-428h-84v584h82l257 -423v423h84zM263 698c-9 0 -20 -12 -20 -36h-57c4 72 37 103 77 103c11 0 27 -6 46 -18l4 -3c11 -9 19 -13 24 -13c13 0 20 11 20 34h58c-4 -72 -39 -102 -78 -102c-15 0 -32 7 -49 22l-10 6c-7 5 -12 7 -15 7z" />
    <glyph glyph-name="Ograve.sc" horiz-adv-x="694" 
d="M136 78c-57 59 -85 130 -85 213s28 154 85 212s127 87 210 87s154 -29 211 -87s86 -129 86 -212s-29 -154 -86 -213c-57 -58 -128 -87 -211 -87s-153 29 -210 87zM196 445c-41 -42 -61 -93 -61 -154s20 -112 61 -155c41 -42 91 -63 150 -63s109 21 150 63
c41 43 62 94 62 155s-21 112 -62 154c-41 43 -91 64 -150 64s-109 -21 -150 -64zM397 652h-80l-104 134h98z" />
    <glyph glyph-name="Oacute.sc" horiz-adv-x="694" 
d="M372 786h99l-104 -134h-80zM136 503c57 58 127 87 210 87s154 -29 211 -87s86 -129 86 -212s-29 -154 -86 -213c-57 -58 -128 -87 -211 -87s-153 29 -210 87c-57 59 -85 130 -85 213s28 154 85 212zM196 136c41 -42 91 -63 150 -63s109 21 150 63c41 43 62 94 62 155
s-21 112 -62 154c-41 43 -91 64 -150 64s-109 -21 -150 -64c-41 -42 -61 -93 -61 -154s20 -112 61 -155z" />
    <glyph glyph-name="Ocircumflex.sc" horiz-adv-x="694" 
d="M136 78c-57 59 -85 130 -85 213s28 154 85 212s127 87 210 87s154 -29 211 -87s86 -129 86 -212s-29 -154 -86 -213c-57 -58 -128 -87 -211 -87s-153 29 -210 87zM196 445c-41 -42 -61 -93 -61 -154s20 -112 61 -155c41 -42 91 -63 150 -63s109 21 150 63
c41 43 62 94 62 155s-21 112 -62 154c-41 43 -91 64 -150 64s-109 -21 -150 -64zM483 652h-75l-62 72l-61 -72h-76l97 134h80z" />
    <glyph glyph-name="Otilde.sc" horiz-adv-x="694" 
d="M136 78c-57 59 -85 130 -85 213s28 154 85 212s127 87 210 87s154 -29 211 -87s86 -129 86 -212s-29 -154 -86 -213c-57 -58 -128 -87 -211 -87s-153 29 -210 87zM196 445c-41 -42 -61 -93 -61 -154s20 -112 61 -155c41 -42 91 -63 150 -63s109 21 150 63
c41 43 62 94 62 155s-21 112 -62 154c-41 43 -91 64 -150 64s-109 -21 -150 -64zM309 698c-12 0 -18 -12 -19 -36h-58c4 72 38 103 77 103c12 0 28 -6 47 -18l4 -3c11 -9 19 -13 23 -13c13 0 20 11 21 34h57c-4 -72 -38 -102 -78 -102c-15 0 -31 7 -48 22l-11 6
c-7 5 -12 7 -15 7z" />
    <glyph glyph-name="Odieresis.sc" horiz-adv-x="694" 
d="M220 718c0 29 25 52 56 52c29 0 53 -23 53 -52c0 -31 -24 -53 -53 -53c-32 0 -56 22 -56 53zM363 718c0 29 23 52 54 52s55 -23 55 -52c0 -31 -24 -53 -55 -53s-54 22 -54 53zM136 503c57 58 127 87 210 87s154 -29 211 -87s86 -129 86 -212s-29 -154 -86 -213
c-57 -58 -128 -87 -211 -87s-153 29 -210 87c-57 59 -85 130 -85 213s28 154 85 212zM196 136c41 -42 91 -63 150 -63s109 21 150 63c41 43 62 94 62 155s-21 112 -62 154c-41 43 -91 64 -150 64s-109 -21 -150 -64c-41 -42 -61 -93 -61 -154s20 -112 61 -155z" />
    <glyph glyph-name="Oslash.sc" horiz-adv-x="692" 
d="M162 54l-67 -69l-43 44l67 69c-46 57 -69 121 -69 193c0 83 28 154 85 212s127 87 210 87c70 0 132 -22 187 -66l68 67l43 -42l-67 -68c44 -57 66 -120 66 -190c0 -83 -29 -154 -86 -213c-57 -58 -128 -87 -211 -87c-69 0 -130 21 -183 63zM134 291c0 -51 14 -95 42 -134
l299 307c-37 30 -81 45 -130 45c-59 0 -109 -21 -150 -64c-41 -42 -61 -93 -61 -154zM345 73c59 0 109 21 150 63c41 43 62 94 62 155c0 47 -13 90 -40 130l-298 -307c37 -27 79 -41 126 -41z" />
    <glyph glyph-name="Ugrave.sc" horiz-adv-x="595" 
d="M356 652h-80l-105 134h100zM297 73c36 0 67 12 92 36c26 24 39 55 39 92v383h84v-383c0 -62 -21 -113 -63 -152c-41 -39 -92 -58 -152 -58c-59 0 -110 19 -152 58c-41 39 -62 90 -62 152v383h85v-383c0 -37 13 -68 38 -92s56 -36 91 -36z" />
    <glyph glyph-name="Uacute.sc" horiz-adv-x="595" 
d="M297 73c36 0 67 12 92 36c26 24 39 55 39 92v383h84v-383c0 -62 -21 -113 -63 -152c-41 -39 -92 -58 -152 -58c-59 0 -110 19 -152 58c-41 39 -62 90 -62 152v383h85v-383c0 -37 13 -68 38 -92s56 -36 91 -36zM317 786h99l-105 -134h-80z" />
    <glyph glyph-name="Ucircumflex.sc" horiz-adv-x="595" 
d="M434 652h-76l-61 72l-61 -72h-76l97 134h80zM297 73c36 0 67 12 92 36c26 24 39 55 39 92v383h84v-383c0 -62 -21 -113 -63 -152c-41 -39 -92 -58 -152 -58c-59 0 -110 19 -152 58c-41 39 -62 90 -62 152v383h85v-383c0 -37 13 -68 38 -92s56 -36 91 -36z" />
    <glyph glyph-name="Udieresis.sc" horiz-adv-x="595" 
d="M297 73c36 0 67 12 92 36c26 24 39 55 39 92v383h84v-383c0 -62 -21 -113 -63 -152c-41 -39 -92 -58 -152 -58c-59 0 -110 19 -152 58c-41 39 -62 90 -62 152v383h85v-383c0 -37 13 -68 38 -92s56 -36 91 -36zM171 718c0 29 24 52 55 52s54 -23 54 -52
c0 -31 -23 -53 -54 -53s-55 22 -55 53zM313 718c0 29 24 52 55 52s55 -23 55 -52c0 -31 -24 -53 -55 -53s-55 22 -55 53z" />
    <glyph glyph-name="Yacute.sc" horiz-adv-x="563" 
d="M324 268v-268h-86v268l-222 316h99l165 -233l167 233h102zM309 786h100l-105 -134h-80z" />
    <glyph glyph-name="Thorn.sc" horiz-adv-x="505" 
d="M287 116h-114v-116h-84v584h84v-103h114c52 0 95 -17 129 -50c35 -33 52 -76 52 -131s-17 -99 -52 -133s-78 -51 -129 -51zM173 402v-205h114c55 0 97 43 97 103s-44 98 -104 101h-54c-23 1 -41 1 -53 1z" />
    <glyph glyph-name="Amacron.sc" horiz-adv-x="570" 
d="M285 467l-92 -244h184zM462 0l-56 147h-241l-32 -84l-24 -63h-90l222 584h88l222 -584h-89zM176 673v73h217v-73h-217z" />
    <glyph glyph-name="Abreve.sc" horiz-adv-x="570" 
d="M173 765h68c0 -29 16 -49 43 -49s44 24 44 49h69c0 -69 -45 -113 -113 -113c-75 0 -111 49 -111 113zM377 223l-92 244l-92 -244h184zM165 147l-32 -84l-24 -63h-90l222 584h88l222 -584h-89l-56 147h-241z" />
    <glyph glyph-name="Cacute.sc" horiz-adv-x="600" 
d="M369 786h99l-105 -134h-80zM571 95c-55 -64 -135 -104 -223 -104c-83 0 -153 29 -211 87c-57 59 -86 130 -86 213s29 154 86 212c58 58 128 87 211 87c89 0 163 -33 221 -100l-62 -53c-45 48 -98 72 -159 72c-60 0 -111 -21 -152 -64c-41 -42 -61 -93 -61 -154
s20 -112 61 -155c41 -42 92 -63 152 -63c63 0 117 25 160 75z" />
    <glyph glyph-name="Ccircumflex.sc" horiz-adv-x="600" 
d="M508 148l63 -53c-55 -64 -135 -104 -223 -104c-83 0 -153 29 -211 87c-57 59 -86 130 -86 213s29 154 86 212c58 58 128 87 211 87c89 0 163 -33 221 -100l-62 -53c-45 48 -98 72 -159 72c-60 0 -111 -21 -152 -64c-41 -42 -61 -93 -61 -154s20 -112 61 -155
c41 -42 92 -63 152 -63c63 0 117 25 160 75zM484 652h-76l-62 72l-62 -72h-75l97 134h80z" />
    <glyph glyph-name="Cdotaccent.sc" horiz-adv-x="600" 
d="M278 726c0 29 24 52 55 52s56 -23 56 -52c0 -31 -24 -53 -56 -53c-31 0 -55 22 -55 53zM571 95c-55 -64 -135 -104 -223 -104c-83 0 -153 29 -211 87c-57 59 -86 130 -86 213s29 154 86 212c58 58 128 87 211 87c89 0 163 -33 221 -100l-62 -53c-45 48 -98 72 -159 72
c-60 0 -111 -21 -152 -64c-41 -42 -61 -93 -61 -154s20 -112 61 -155c41 -42 92 -63 152 -63c63 0 117 25 160 75z" />
    <glyph glyph-name="Ccaron.sc" horiz-adv-x="600" 
d="M273 786l61 -71l62 71h76l-98 -134h-80l-96 134h75zM571 95c-55 -64 -135 -104 -223 -104c-83 0 -153 29 -211 87c-57 59 -86 130 -86 213s29 154 86 212c58 58 128 87 211 87c89 0 163 -33 221 -100l-62 -53c-45 48 -98 72 -159 72c-60 0 -111 -21 -152 -64
c-41 -42 -61 -93 -61 -154s20 -112 61 -155c41 -42 92 -63 152 -63c63 0 117 25 160 75z" />
    <glyph glyph-name="Dcaron.sc" horiz-adv-x="626" 
d="M263 786l61 -71l62 71h75l-96 -134h-80l-98 134h76zM89 0v584h223c81 0 145 -27 191 -82s69 -125 69 -211c0 -85 -23 -155 -69 -210c-46 -54 -110 -81 -191 -81h-223zM173 83h139c113 0 177 84 177 208s-64 210 -177 210h-139v-418z" />
    <glyph glyph-name="Aogonek.sc" horiz-adv-x="570" 
d="M285 467l-91 -244h183zM433 -48l27 52l-55 143h-240l-32 -84l-24 -63h-90l222 584h88l222 -584h-39l-25 -71c-7 -19 -2 -33 15 -41c17 -6 29 0 37 18l3 20l59 4c0 -16 -3 -31 -8 -46c-15 -33 -46 -55 -79 -55c-14 0 -25 2 -33 6c-37 17 -55 44 -55 81c0 13 2 25 7 36z
" />
    <glyph glyph-name="Emacron.sc" horiz-adv-x="499" 
d="M89 0v584h348v-78h-264v-179h231v-79h-231v-169h272v-79h-356zM157 673v73h217v-73h-217z" />
    <glyph glyph-name="Ebreve.sc" horiz-adv-x="499" 
d="M137 765h68c0 -28 17 -49 45 -49c25 0 43 24 43 49h69c0 -69 -44 -113 -112 -113c-75 0 -113 49 -113 113zM437 584v-78h-264v-179h231v-79h-231v-169h272v-79h-356v584h348z" />
    <glyph glyph-name="Edotaccent.sc" horiz-adv-x="499" 
d="M213 726c0 29 24 52 55 52c32 0 57 -23 57 -52c0 -31 -25 -53 -57 -53c-31 0 -55 22 -55 53zM437 584v-78h-264v-179h231v-79h-231v-169h272v-79h-356v584h348z" />
    <glyph glyph-name="Ecaron.sc" horiz-adv-x="499" 
d="M188 786l62 -71l62 71h75l-97 -134h-80l-98 134h76zM437 584v-78h-264v-179h231v-79h-231v-169h272v-79h-356v584h348z" />
    <glyph glyph-name="Gcircumflex.sc" horiz-adv-x="659" 
d="M545 511l-60 -56c-39 37 -85 55 -139 55c-59 0 -109 -21 -150 -64s-61 -94 -61 -155s20 -112 61 -155s91 -64 150 -64c103 0 176 58 181 150h-164v74h259c0 -201 -104 -305 -276 -305c-83 0 -153 29 -210 87c-57 59 -85 130 -85 213s28 154 85 212s127 87 210 87
c78 0 144 -26 199 -79zM470 652h-76l-62 72l-60 -72h-76l97 134h79z" />
    <glyph glyph-name="Gbreve.sc" horiz-adv-x="659" 
d="M220 765h69c0 -29 16 -49 43 -49s43 24 43 49h71c0 -69 -45 -113 -114 -113c-75 0 -112 49 -112 113zM485 455c-39 37 -85 55 -139 55c-59 0 -109 -21 -150 -64s-61 -94 -61 -155s20 -112 61 -155s91 -64 150 -64c103 0 176 58 181 150h-164v74h259
c0 -201 -104 -305 -276 -305c-83 0 -153 29 -210 87c-57 59 -85 130 -85 213s28 154 85 212s127 87 210 87c78 0 144 -26 199 -79z" />
    <glyph glyph-name="Eogonek.sc" horiz-adv-x="499" 
d="M443 1l-3 -1l-21 -62c-7 -15 0 -34 15 -41c15 -5 31 3 38 18l2 21l60 3c0 -15 -3 -31 -9 -46c-15 -33 -45 -55 -78 -55c-12 0 -23 2 -34 7c-36 16 -54 43 -54 80c0 13 2 25 6 36l21 39h-297v584h349v-78h-265v-179h231v-79h-231v-169h272z" />
    <glyph glyph-name="Dcroat.sc" horiz-adv-x="631" 
d="M317 0h-223v260h-78v66h78v258h223c81 0 145 -27 191 -82s69 -125 69 -211c0 -85 -23 -155 -69 -210c-46 -54 -110 -81 -191 -81zM178 501v-175h138v-66h-138v-177h139c113 0 177 84 177 208s-64 210 -177 210h-139z" />
    <glyph glyph-name="Gdotaccent.sc" horiz-adv-x="659" 
d="M266 726c0 29 24 52 55 52s56 -23 56 -52c0 -31 -24 -53 -56 -53c-31 0 -55 22 -55 53zM485 455c-39 37 -85 55 -139 55c-59 0 -109 -21 -150 -64s-61 -94 -61 -155s20 -112 61 -155s91 -64 150 -64c103 0 176 58 181 150h-164v74h259c0 -201 -104 -305 -276 -305
c-83 0 -153 29 -210 87c-57 59 -85 130 -85 213s28 154 85 212s127 87 210 87c78 0 144 -26 199 -79z" />
    <glyph glyph-name="Hcircumflex.sc" horiz-adv-x="620" 
d="M446 584h85v-584h-85v252h-273v-252h-84v584h84v-255h273v255zM447 652h-76l-62 72l-61 -72h-75l97 134h80z" />
    <glyph glyph-name="Hbar.sc" horiz-adv-x="628" 
d="M534 584v-105h59v-52h-59v-427h-84v250h-273v-250h-84v427h-57v52h57v105h84v-105h273v105h84zM177 427v-97h273v97h-273z" />
    <glyph glyph-name="Itilde.sc" horiz-adv-x="262" 
d="M89 0v584h84v-584h-84zM94 698c-13 0 -19 -12 -20 -36h-57c4 72 38 103 77 103c11 0 27 -6 46 -18l4 -3c11 -9 19 -13 24 -13c13 0 20 11 21 34h57c-4 -72 -38 -102 -78 -102c-15 0 -32 7 -49 22l-10 6c-7 5 -12 7 -15 7z" />
    <glyph glyph-name="Imacron.sc" horiz-adv-x="262" 
d="M89 0v584h84v-584h-84zM23 673v73h217v-73h-217z" />
    <glyph glyph-name="Iogonek.sc" horiz-adv-x="262" 
d="M173 0h-34l-24 -71c-7 -19 -2 -33 14 -41c17 -6 30 0 38 18l3 20l59 4c0 -15 -3 -31 -9 -46c-15 -33 -45 -55 -78 -55c-14 0 -25 2 -33 6c-35 16 -56 48 -56 81c0 13 2 25 7 36l29 53v579h84v-584z" />
    <glyph glyph-name="IJ.sc" horiz-adv-x="524" 
d="M188 -201l8 81c15 -5 34 -8 59 -8c67 0 96 44 96 108v604h84v-604c0 -112 -56 -190 -180 -190c-15 0 -37 3 -67 9zM89 0v584h84v-584h-84z" />
    <glyph glyph-name="Jcircumflex.sc" horiz-adv-x="262" 
d="M261 652h-75l-62 72l-61 -72h-76l98 134h80zM-74 -201l8 81c15 -5 34 -8 59 -8c67 0 96 44 96 108v604h84v-604c0 -112 -56 -190 -180 -190c-15 0 -37 3 -67 9z" />
    <glyph glyph-name="Lacute.sc" horiz-adv-x="430" 
d="M176 777h99l-104 -135h-80zM173 584v-505h236v-79h-320v584h84z" />
    <glyph glyph-name="Lcaron.sc" horiz-adv-x="431" 
d="M89 0v584h84v-505h236v-79h-320zM285 423l-55 14c25 37 38 74 38 112c0 5 -1 15 -2 30h82c0 -71 -21 -123 -63 -156z" />
    <glyph glyph-name="Ldot.sc" horiz-adv-x="430" 
d="M89 0v584h84v-505h236v-79h-320zM290 272c29 0 53 -22 53 -50s-24 -49 -53 -49c-28 0 -51 21 -51 49s23 50 51 50z" />
    <glyph glyph-name="Nacute.sc" horiz-adv-x="601" 
d="M318 786h100l-105 -134h-80zM432 0l-259 428v-428h-84v584h82l257 -423v423h84v-584h-80z" />
    <glyph glyph-name="Ncaron.sc" horiz-adv-x="601" 
d="M238 786l61 -71l62 71h75l-96 -134h-80l-98 134h76zM432 0l-259 428v-428h-84v584h82l257 -423v423h84v-584h-80z" />
    <glyph glyph-name="Omacron.sc" horiz-adv-x="694" 
d="M136 78c-57 59 -85 130 -85 213s28 154 85 212s127 87 210 87s154 -29 211 -87s86 -129 86 -212s-29 -154 -86 -213c-57 -58 -128 -87 -211 -87s-153 29 -210 87zM196 445c-41 -42 -61 -93 -61 -154s20 -112 61 -155c41 -42 91 -63 150 -63s109 21 150 63
c41 43 62 94 62 155s-21 112 -62 154c-41 43 -91 64 -150 64s-109 -21 -150 -64zM238 673v73h217v-73h-217z" />
    <glyph glyph-name="Obreve.sc" horiz-adv-x="694" 
d="M234 765h67c0 -28 17 -49 45 -49c27 0 43 24 43 49h69c0 -69 -44 -113 -112 -113c-75 0 -112 49 -112 113zM136 503c57 58 127 87 210 87s154 -29 211 -87s86 -129 86 -212s-29 -154 -86 -213c-57 -58 -128 -87 -211 -87s-153 29 -210 87c-57 59 -85 130 -85 213
s28 154 85 212zM196 136c41 -42 91 -63 150 -63s109 21 150 63c41 43 62 94 62 155s-21 112 -62 154c-41 43 -91 64 -150 64s-109 -21 -150 -64c-41 -42 -61 -93 -61 -154s20 -112 61 -155z" />
    <glyph glyph-name="Ohungarumlaut.sc" horiz-adv-x="694" 
d="M313 786h86l-79 -134h-77zM433 786h86l-90 -134h-75zM136 503c57 58 127 87 210 87s154 -29 211 -87s86 -129 86 -212s-29 -154 -86 -213c-57 -58 -128 -87 -211 -87s-153 29 -210 87c-57 59 -85 130 -85 213s28 154 85 212zM196 136c41 -42 91 -63 150 -63
s109 21 150 63c41 43 62 94 62 155s-21 112 -62 154c-41 43 -91 64 -150 64s-109 -21 -150 -64c-41 -42 -61 -93 -61 -154s20 -112 61 -155z" />
    <glyph glyph-name="Racute.sc" horiz-adv-x="546" 
d="M265 786h98l-104 -134h-80zM495 0h-102l-149 216h-70v-216h-85v584h225c57 0 101 -18 130 -54c30 -36 45 -79 45 -130c0 -96 -49 -171 -149 -180zM174 506v-211h134c127 -8 123 218 4 211h-138z" />
    <glyph glyph-name="Rcaron.sc" horiz-adv-x="546" 
d="M210 786l62 -71l62 71h75l-97 -134h-80l-98 134h76zM495 0h-102l-149 216h-70v-216h-85v584h225c57 0 101 -18 130 -54c30 -36 45 -79 45 -130c0 -96 -49 -171 -149 -180zM174 506v-211h134c127 -8 123 218 4 211h-138z" />
    <glyph glyph-name="Sacute.sc" horiz-adv-x="505" 
d="M268 786h100l-105 -134h-80zM138 173c0 -27 11 -51 34 -72s51 -31 86 -31c68 0 107 37 114 82c8 55 -39 88 -96 101l-75 19c-95 23 -142 74 -142 154c0 48 19 87 56 118c38 31 83 46 134 46c55 0 100 -16 135 -48c36 -31 54 -73 54 -126h-84c0 56 -45 94 -106 94
c-57 0 -105 -35 -105 -84c0 -38 27 -64 80 -77l75 -19c109 -28 166 -94 157 -185c-7 -43 -28 -80 -63 -110c-35 -29 -80 -44 -134 -44c-59 0 -108 18 -147 54c-39 37 -58 79 -58 128h85z" />
    <glyph glyph-name="Scircumflex.sc" horiz-adv-x="505" 
d="M383 652h-76l-61 72l-62 -72h-76l98 134h80zM53 173h85c0 -27 11 -51 34 -72s51 -31 86 -31c68 0 107 37 114 82c8 55 -39 88 -96 101l-75 19c-95 23 -142 74 -142 154c0 48 19 87 56 118c38 31 83 46 134 46c55 0 100 -16 135 -48c36 -31 54 -73 54 -126h-84
c0 56 -45 94 -106 94c-57 0 -105 -35 -105 -84c0 -38 27 -64 80 -77l75 -19c109 -28 166 -94 157 -185c-7 -43 -28 -80 -63 -110c-35 -29 -80 -44 -134 -44c-59 0 -108 18 -147 54c-39 37 -58 79 -58 128z" />
    <glyph glyph-name="Scedilla.sc" horiz-adv-x="506" 
d="M229 -94c7 -15 23 -23 38 -18c15 7 22 25 15 41l-26 62c-58 1 -106 19 -145 55s-58 78 -58 127h85c0 -27 11 -51 34 -72s52 -31 86 -31c68 0 107 37 114 82c8 55 -39 88 -96 101l-75 19c-95 23 -142 74 -142 154c0 48 19 87 56 118c38 31 83 46 134 46
c55 0 100 -16 135 -48c36 -31 54 -73 54 -126h-84c0 56 -45 94 -106 94c-57 0 -105 -35 -105 -84c0 -38 27 -64 80 -77l75 -19c109 -28 166 -94 157 -185c-12 -71 -64 -131 -143 -147l23 -46c5 -11 7 -23 7 -36c0 -37 -18 -64 -55 -81c-9 -4 -20 -6 -34 -6
c-32 0 -63 22 -78 55c-5 17 -8 33 -8 46l60 -4c-1 -9 0 -16 2 -20z" />
    <glyph glyph-name="Utilde.sc" horiz-adv-x="595" 
d="M260 698c-9 0 -19 -12 -20 -36h-57c4 72 38 103 77 103c15 0 31 -6 48 -19l4 -4c12 -7 20 -11 23 -11c13 0 20 11 21 34h56c-4 -72 -38 -102 -77 -102c-16 0 -33 7 -50 22c-2 0 -4 1 -6 3c-9 7 -16 10 -19 10zM297 73c36 0 67 12 92 36c26 24 39 55 39 92v383h84v-383
c0 -62 -21 -113 -63 -152c-41 -39 -92 -58 -152 -58c-59 0 -110 19 -152 58c-41 39 -62 90 -62 152v383h85v-383c0 -37 13 -68 38 -92s56 -36 91 -36z" />
    <glyph glyph-name="Umacron.sc" horiz-adv-x="595" 
d="M189 673v73h217v-73h-217zM297 73c36 0 67 12 92 36c26 24 39 55 39 92v383h84v-383c0 -62 -21 -113 -63 -152c-41 -39 -92 -58 -152 -58c-59 0 -110 19 -152 58c-41 39 -62 90 -62 152v383h85v-383c0 -37 13 -68 38 -92s56 -36 91 -36z" />
    <glyph glyph-name="Ubreve.sc" horiz-adv-x="595" 
d="M297 73c36 0 67 12 92 36c26 24 39 55 39 92v383h84v-383c0 -62 -21 -113 -63 -152c-41 -39 -92 -58 -152 -58c-59 0 -110 19 -152 58c-41 39 -62 90 -62 152v383h85v-383c0 -37 13 -68 38 -92s56 -36 91 -36zM185 765h68c0 -28 17 -49 44 -49c25 0 43 24 43 49h70
c0 -69 -45 -113 -113 -113c-75 0 -112 49 -112 113z" />
    <glyph glyph-name="Uring.sc" horiz-adv-x="595" 
d="M297 73c36 0 67 12 92 36c26 24 39 55 39 92v383h84v-383c0 -62 -21 -113 -63 -152c-41 -39 -92 -58 -152 -58c-59 0 -110 19 -152 58c-41 39 -62 90 -62 152v383h85v-383c0 -37 13 -68 38 -92s56 -36 91 -36zM205 731c0 52 40 91 91 91c53 0 93 -39 93 -91
c0 -51 -40 -90 -93 -90c-51 0 -91 39 -91 90zM296 691c23 0 43 19 43 40s-20 41 -43 41c-21 0 -40 -20 -40 -41s19 -40 40 -40z" />
    <glyph glyph-name="Uhungarumlaut.sc" horiz-adv-x="595" 
d="M297 73c36 0 67 12 92 36c26 24 39 55 39 92v383h84v-383c0 -62 -21 -113 -63 -152c-41 -39 -92 -58 -152 -58c-59 0 -110 19 -152 58c-41 39 -62 90 -62 152v383h85v-383c0 -37 13 -68 38 -92s56 -36 91 -36zM254 786h85l-79 -134h-76zM373 786h86l-89 -134h-76z" />
    <glyph glyph-name="Uogonek.sc" horiz-adv-x="597" 
d="M358 -94l1 1l2 19l60 4c0 -18 -3 -33 -8 -46c-16 -33 -47 -55 -79 -55c-15 0 -26 2 -34 6c-37 18 -55 45 -55 81c0 13 2 25 7 36l22 41c-54 5 -99 27 -136 65c-36 38 -54 86 -54 143v383h85v-383c0 -37 13 -68 38 -92s56 -36 91 -36c36 0 67 12 92 36c26 24 39 55 39 92
v383h84v-383c0 -57 -17 -104 -52 -142c-35 -37 -79 -59 -132 -66c-4 -15 -18 -49 -23 -64c-7 -19 -2 -33 15 -41c15 -5 32 2 37 18z" />
    <glyph glyph-name="Wcircumflex.sc" horiz-adv-x="785" 
d="M529 138l143 446h90l-198 -584h-72l-100 352l-99 -352h-72l-198 584h90l143 -446l105 368h63zM530 652h-76l-62 72l-61 -72h-76l97 134h80z" />
    <glyph glyph-name="Ycircumflex.sc" horiz-adv-x="563" 
d="M420 652h-77l-62 72l-61 -72h-75l97 134h80zM324 268v-268h-86v268l-222 316h99l165 -233l167 233h102z" />
    <glyph glyph-name="Tcaron.sc" horiz-adv-x="482" 
d="M179 786l62 -71l61 71h76l-98 -134h-80l-97 134h76zM459 584v-79h-176v-505h-85v505h-175v79h436z" />
    <glyph glyph-name="Tbar.sc" horiz-adv-x="483" 
d="M283 501v-151h112v-57h-112v-293h-84v293h-110v57h110v151h-177v83h439v-83h-178z" />
    <glyph glyph-name="Zacute.sc" horiz-adv-x="507" 
d="M45 0v72l302 433h-290v79h399v-72l-305 -432h305v-80h-411zM276 786h100l-106 -134h-80z" />
    <glyph glyph-name="Zdotaccent.sc" horiz-adv-x="507" 
d="M45 0v72l302 433h-290v79h399v-72l-305 -432h305v-80h-411zM194 726c0 29 25 52 56 52c32 0 56 -23 56 -52c0 -31 -24 -53 -56 -53c-31 0 -56 22 -56 53z" />
    <glyph glyph-name="Wgrave.sc" horiz-adv-x="785" 
d="M529 138l143 446h90l-198 -584h-72l-100 352l-99 -352h-72l-198 584h90l143 -446l105 368h63zM437 652h-80l-106 134h100z" />
    <glyph glyph-name="Wacute.sc" horiz-adv-x="785" 
d="M433 786h99l-105 -134h-80zM762 584l-198 -584h-72l-100 352l-99 -352h-72l-198 584h90l143 -446l105 368h63l105 -368l143 446h90z" />
    <glyph glyph-name="Wdieresis.sc" horiz-adv-x="785" 
d="M266 718c0 29 24 52 55 52s55 -23 55 -52c0 -31 -24 -53 -55 -53s-55 22 -55 53zM408 718c0 29 25 52 56 52s54 -23 54 -52c0 -31 -23 -53 -54 -53c-32 0 -56 22 -56 53zM762 584l-198 -584h-72l-100 352l-99 -352h-72l-198 584h90l143 -446l105 368h63l105 -368l143 446
h90z" />
    <glyph glyph-name="Aringacute.sc" horiz-adv-x="570" 
d="M320 921h100l-87 -112c29 -17 43 -43 43 -78c0 -51 -40 -90 -93 -90c-51 0 -90 39 -90 90c0 41 25 75 61 86zM244 731c0 -21 18 -40 39 -40c24 0 43 17 43 40s-19 41 -43 41c-21 0 -39 -18 -39 -41zM377 223l-92 244l-92 -244h184zM165 147l-32 -84l-24 -63h-90l222 584
h88l222 -584h-89l-56 147h-241z" />
    <glyph glyph-name="AEacute.sc" horiz-adv-x="814" 
d="M483 786h99l-105 -134h-80zM111 0h-100l370 584h370v-83h-263v-173h229v-83h-229v-162h272v-83h-356v145h-200zM404 226v235l-150 -235h150z" />
    <glyph glyph-name="Oslashacute.sc" horiz-adv-x="692" 
d="M383 786h99l-105 -134h-80zM95 -15l-43 44l67 69c-46 57 -69 121 -69 193c0 83 28 154 85 212s127 87 210 87c70 0 132 -22 187 -66l68 67l43 -42l-67 -68c44 -57 66 -120 66 -190c0 -83 -29 -154 -86 -213c-57 -58 -128 -87 -211 -87c-69 0 -130 21 -183 63zM134 291
c0 -51 14 -95 42 -134l299 307c-37 30 -81 45 -130 45c-59 0 -109 -21 -150 -64c-41 -42 -61 -93 -61 -154zM345 73c59 0 109 21 150 63c41 43 62 94 62 155c0 47 -13 90 -40 130l-298 -307c37 -27 79 -41 126 -41z" />
    <glyph glyph-name="Ibreve.sc" horiz-adv-x="262" 
d="M19 765h67c0 -28 17 -49 44 -49s44 24 44 49h69c0 -69 -45 -113 -113 -113c-75 0 -111 49 -111 113zM173 584v-584h-84v584h84z" />
    <glyph glyph-name="Eng.sc" horiz-adv-x="599" 
d="M425 -17v26l-253 415v-424h-83v584h81l255 -423v423h85v-578c0 -142 -60 -213 -181 -213c-22 0 -44 3 -66 10l7 83l49 -7c21 -1 39 1 53 8c35 15 53 47 53 96z" />
    <glyph glyph-name="Ygrave.sc" horiz-adv-x="563" 
d="M329 652h-80l-105 134h99zM324 268v-268h-86v268l-222 316h99l165 -233l167 233h102z" />
    <glyph glyph-name="Gcommaaccent.sc" horiz-adv-x="659" 
d="M545 511l-60 -56c-39 37 -85 55 -139 55c-59 0 -109 -21 -150 -64s-61 -94 -61 -155s20 -112 61 -155s91 -64 150 -64c103 0 176 58 181 150h-164v74h259c0 -201 -104 -305 -276 -305c-83 0 -153 29 -210 87c-57 59 -85 130 -85 213s28 154 85 212s127 87 210 87
c78 0 144 -26 199 -79zM321 -210l-54 17c29 40 43 79 43 116c0 8 -1 20 -2 36h81c1 -75 -22 -131 -68 -169z" />
    <glyph glyph-name="Kcommaaccent.sc" horiz-adv-x="515" 
d="M266 -210l-54 17c29 40 43 79 43 116c0 8 -1 20 -2 36h81c1 -75 -22 -131 -68 -169zM462 584l-224 -292l276 -292h-115l-226 242v-242h-84v584h84v-244l187 244h102z" />
    <glyph glyph-name="Lcommaaccent.sc" horiz-adv-x="430" 
d="M89 0v584h84v-505h236v-79h-320zM219 -210l-54 17c29 40 43 79 43 116c0 8 -1 20 -2 36h81c1 -75 -22 -131 -68 -169z" />
    <glyph glyph-name="Ncommaaccent.sc" horiz-adv-x="601" 
d="M512 584v-584h-80l-259 428v-428h-84v584h82l257 -423v423h84zM284 -210l-54 17c29 40 43 79 43 116c0 8 -1 20 -2 36h81c1 -75 -22 -131 -68 -169z" />
    <glyph glyph-name="Rcommaaccent.sc" horiz-adv-x="546" 
d="M340 220l155 -220h-102l-149 216h-70v-216h-85v584h225c57 0 101 -18 130 -54c30 -36 45 -79 45 -130c0 -96 -49 -171 -149 -180zM312 506h-138v-211h134c127 -8 123 218 4 211zM262 -210l-54 17c29 40 43 79 43 116c0 8 -1 20 -2 36h81c1 -75 -22 -131 -68 -169z" />
    <glyph glyph-name="Tcommaaccent.sc" horiz-adv-x="482" 
d="M23 505v79h436v-79h-176v-505h-85v505h-175zM210 -210l-54 17c29 40 43 79 43 116c0 8 -1 20 -2 36h81c1 -75 -22 -131 -68 -169z" />
    <glyph glyph-name="Scommaaccent.sc" horiz-adv-x="505" 
d="M53 173h85c0 -27 11 -51 34 -72s51 -31 86 -31c68 0 107 37 114 82c8 55 -39 88 -96 101l-75 19c-95 23 -142 74 -142 154c0 48 19 87 56 118c38 31 83 46 134 46c55 0 100 -16 135 -48c36 -31 54 -73 54 -126h-84c0 56 -45 94 -106 94c-57 0 -105 -35 -105 -84
c0 -38 27 -64 80 -77l75 -19c109 -28 166 -94 157 -185c-7 -43 -28 -80 -63 -110c-35 -29 -80 -44 -134 -44c-59 0 -108 18 -147 54c-39 37 -58 79 -58 128zM235 -210l-54 17c29 40 43 79 43 116c0 8 -1 20 -2 36h81c1 -75 -22 -131 -68 -169z" />
    <glyph glyph-name="Idotaccent.sc" horiz-adv-x="262" 
d="M75 726c0 29 25 52 56 52c32 0 56 -23 56 -52c0 -31 -24 -53 -56 -53c-31 0 -56 22 -56 53zM173 584v-584h-84v584h84z" />
    <glyph glyph-name="zero.numr" horiz-adv-x="364" 
d="M39 455c0 112 29 203 143 203s143 -91 143 -203c0 -133 -48 -200 -143 -200s-143 67 -143 200zM98 455c0 -95 28 -142 84 -142s84 47 84 142c0 96 -28 144 -84 144s-84 -48 -84 -144z" />
    <glyph glyph-name="one.numr" horiz-adv-x="209" 
d="M154 260h-60v305l-68 -35v57l128 70v-397z" />
    <glyph glyph-name="two.numr" horiz-adv-x="319" 
d="M36 260v28l158 191c53 67 18 122 -39 122c-35 0 -66 -26 -71 -65l-53 14c9 65 61 108 124 108c71 0 124 -49 124 -118c0 -36 -14 -70 -43 -102l-101 -119h145v-59h-244z" />
    <glyph glyph-name="three.numr" horiz-adv-x="321" 
d="M88 563l-45 36c23 39 68 62 116 59c33 -1 59 -13 80 -35c21 -21 31 -46 30 -75c0 -29 -14 -55 -41 -76c37 -19 56 -51 56 -96c0 -75 -60 -120 -136 -120c-48 0 -104 33 -124 78l50 29c12 -27 49 -48 78 -48c41 0 71 24 72 60c3 36 -23 66 -62 66h-56v57h47
c25 0 45 18 50 41c4 35 -16 60 -56 60c-23 0 -43 -12 -59 -36z" />
    <glyph glyph-name="four.numr" horiz-adv-x="361" 
d="M334 339h-56v-79h-59v79h-203l218 314h44v-258h56v-56zM219 545l-101 -150h101v150z" />
    <glyph glyph-name="five.numr" horiz-adv-x="340" 
d="M27 337l49 35c15 -37 51 -60 88 -60c52 0 86 32 86 75c0 44 -36 68 -75 68c-31 0 -68 -11 -111 -33l-18 23l35 207h201v-56h-152l-9 -48l-9 -48c20 9 41 13 63 13c75 0 133 -46 133 -126s-57 -133 -144 -133c-56 0 -112 31 -137 83z" />
    <glyph glyph-name="six.numr" horiz-adv-x="338" 
d="M301 576l-53 -22c-15 31 -36 46 -64 46c-51 0 -85 -55 -84 -132c16 31 43 47 80 47c36 0 66 -14 89 -41c24 -27 35 -59 34 -96c-2 -36 -16 -66 -41 -91c-25 -24 -56 -35 -92 -34c-71 3 -121 54 -128 135c-6 93 1 272 142 268c55 -3 94 -29 117 -80zM103 387
c0 -41 31 -73 70 -74s68 28 71 68c1 41 -26 73 -65 74c-41 1 -75 -28 -76 -68z" />
    <glyph glyph-name="seven.numr" horiz-adv-x="322" 
d="M37 653h275l-215 -393h-69l183 334h-174v59z" />
    <glyph glyph-name="eight.numr" horiz-adv-x="342" 
d="M65 555c0 57 46 103 106 103c61 0 108 -46 108 -103c0 -24 -10 -46 -29 -67c38 -25 57 -60 57 -105c0 -36 -13 -66 -39 -91s-58 -37 -97 -37s-71 12 -97 37s-39 55 -39 91c0 46 19 81 56 105c-17 19 -26 41 -26 67zM171 313c43 0 77 31 77 70c0 40 -34 75 -77 75h-4
c-41 0 -73 -36 -73 -75s33 -70 77 -70zM168 508h5c27 1 46 23 46 47s-21 44 -48 44s-47 -20 -47 -44s19 -46 44 -47z" />
    <glyph glyph-name="nine.numr" horiz-adv-x="337" 
d="M40 334l53 22c15 -31 36 -46 64 -46c51 0 85 55 84 132c-16 -31 -43 -47 -80 -47c-36 0 -66 14 -90 41c-23 27 -34 59 -33 96c2 36 16 66 41 90c25 25 56 36 92 35c71 -3 121 -54 128 -135c6 -93 -1 -272 -142 -268c-55 3 -94 29 -117 80zM238 523c0 41 -31 73 -70 74
s-68 -28 -71 -68c-1 -41 26 -73 65 -74c41 -1 75 28 76 68z" />
    <glyph glyph-name="zero.dnom" horiz-adv-x="364" 
d="M39 195c0 112 29 203 143 203s143 -91 143 -203c0 -133 -48 -200 -143 -200s-143 67 -143 200zM98 195c0 -95 28 -142 84 -142s84 47 84 142c0 96 -28 144 -84 144s-84 -48 -84 -144z" />
    <glyph glyph-name="one.dnom" horiz-adv-x="209" 
d="M154 0h-60v305l-68 -35v57l128 70v-397z" />
    <glyph glyph-name="two.dnom" horiz-adv-x="319" 
d="M36 0v28l158 191c53 67 18 122 -39 122c-35 0 -66 -26 -71 -65l-53 14c9 65 61 108 124 108c71 0 124 -49 124 -118c0 -36 -14 -70 -43 -102l-101 -119h145v-59h-244z" />
    <glyph glyph-name="three.dnom" horiz-adv-x="321" 
d="M88 303l-45 36c23 39 68 62 116 59c33 -1 59 -13 80 -35c21 -21 31 -46 30 -75c0 -29 -14 -55 -41 -76c37 -19 56 -51 56 -96c0 -75 -60 -120 -136 -120c-48 0 -104 33 -124 78l50 29c12 -27 49 -48 78 -48c41 0 71 24 72 60c3 36 -23 66 -62 66h-56v57h47
c25 0 45 18 50 41c4 35 -16 60 -56 60c-23 0 -43 -12 -59 -36z" />
    <glyph glyph-name="four.dnom" horiz-adv-x="361" 
d="M334 79h-56v-79h-59v79h-203l218 314h44v-258h56v-56zM219 285l-101 -150h101v150z" />
    <glyph glyph-name="five.dnom" horiz-adv-x="340" 
d="M27 77l49 35c15 -37 51 -60 88 -60c52 0 86 32 86 75c0 44 -36 68 -75 68c-31 0 -68 -11 -111 -33l-18 23l35 207h201v-56h-152l-9 -48l-9 -48c20 9 41 13 63 13c75 0 133 -46 133 -126s-57 -133 -144 -133c-56 0 -112 31 -137 83z" />
    <glyph glyph-name="six.dnom" horiz-adv-x="338" 
d="M301 316l-53 -22c-15 31 -36 46 -64 46c-51 0 -85 -55 -84 -132c16 31 43 47 80 47c36 0 66 -14 89 -41c24 -27 35 -59 34 -96c-2 -36 -16 -66 -41 -91c-25 -24 -56 -35 -92 -34c-71 3 -121 54 -128 135c-6 93 1 272 142 268c55 -3 94 -29 117 -80zM103 127
c0 -41 31 -73 70 -74s68 28 71 68c1 41 -26 73 -65 74c-41 1 -75 -28 -76 -68z" />
    <glyph glyph-name="seven.dnom" horiz-adv-x="321" 
d="M37 393h275l-215 -393h-69l183 334h-174v59z" />
    <glyph glyph-name="eight.dnom" horiz-adv-x="342" 
d="M65 295c0 57 46 103 106 103c61 0 108 -46 108 -103c0 -24 -10 -46 -29 -67c38 -25 57 -60 57 -105c0 -36 -13 -66 -39 -91s-58 -37 -97 -37s-71 12 -97 37s-39 55 -39 91c0 46 19 81 56 105c-17 19 -26 41 -26 67zM171 53c43 0 77 31 77 70c0 40 -34 75 -77 75h-4
c-41 0 -73 -36 -73 -75s33 -70 77 -70zM168 248h5c27 1 46 23 46 47s-21 44 -48 44s-47 -20 -47 -44s19 -46 44 -47z" />
    <glyph glyph-name="nine.dnom" horiz-adv-x="337" 
d="M40 74l53 22c15 -31 36 -46 64 -46c51 0 85 55 84 132c-16 -31 -43 -47 -80 -47c-36 0 -66 14 -90 41c-23 27 -34 59 -33 96c2 36 16 66 41 90c25 25 56 36 92 35c71 -3 121 -54 128 -135c6 -93 -1 -272 -142 -268c-55 3 -94 29 -117 80zM238 263c0 41 -31 73 -70 74
s-68 -28 -71 -68c-1 -41 26 -73 65 -74c41 -1 75 28 76 68z" />
    <glyph glyph-name="l.alt1" horiz-adv-x="279" 
d="M246 85h31v-85h-39c-112 0 -168 67 -168 200v521h92v-520c-1 -77 27 -116 84 -116z" />
    <glyph glyph-name="a.alt1" horiz-adv-x="540" 
d="M218 71c28 0 58 7 90 21s56 33 71 58v34c-46 16 -92 24 -139 24c-76 0 -114 -24 -114 -73c0 -37 32 -64 92 -64zM119 335l-56 54c41 59 106 88 194 88c135 0 213 -68 213 -196v-60v-221h-90v60c-32 -45 -101 -70 -164 -70c-107 0 -176 54 -176 145c0 87 63 147 200 147
c41 0 87 -8 140 -25v24c0 69 -49 114 -130 114c-47 0 -99 -23 -131 -60z" />
    <glyph glyph-name="y.alt1" horiz-adv-x="508" 
d="M179 -48l26 62l-187 453h97l139 -336l140 336h97l-229 -550c-25 -55 -51 -93 -78 -116s-64 -34 -111 -34c-20 0 -38 2 -55 7v80c12 -2 30 -3 53 -3c56 0 76 26 108 101z" />
    <glyph glyph-name="lslash.alt1" horiz-adv-x="290" 
d="M255 85h31v-85h-39c-112 0 -168 67 -168 200v118l-66 -42v64l66 42v339h92v-280l76 49v-64l-76 -49v-176c-1 -77 27 -116 84 -116z" />
    <glyph glyph-name="lacute.alt1" horiz-adv-x="279" 
d="M168 931h109l-119 -154h-87zM277 0h-39c-112 0 -168 67 -168 200v521h92v-520c-1 -77 27 -116 84 -116h31v-85z" />
    <glyph glyph-name="lcommaaccent.alt1" horiz-adv-x="279" 
d="M246 85h31v-85h-39c-112 0 -168 67 -168 200v521h92v-520c-1 -77 27 -116 84 -116zM168 -250l-58 19c21 28 34 54 41 78s9 56 5 96h90c1 -86 -25 -150 -78 -193z" />
    <glyph glyph-name="lcaron.alt1" horiz-adv-x="279" 
d="M262 528l-58 19c21 28 34 54 41 78s9 56 5 96h90c1 -86 -25 -150 -78 -193zM277 0h-39c-112 0 -168 67 -168 200v521h92v-520c-1 -77 27 -116 84 -116h31v-85z" />
    <glyph glyph-name="aacute.alt1" horiz-adv-x="540" 
d="M218 71c28 0 58 7 90 21s56 33 71 58v34c-46 16 -92 24 -139 24c-76 0 -114 -24 -114 -73c0 -37 32 -64 92 -64zM119 335l-56 54c41 59 106 88 194 88c135 0 213 -68 213 -196v-60v-221h-90v60c-32 -45 -101 -70 -164 -70c-107 0 -176 54 -176 145c0 87 63 147 200 147
c41 0 87 -8 140 -25v24c0 69 -49 114 -130 114c-47 0 -99 -23 -131 -60zM305 708h109l-119 -154h-87z" />
    <glyph glyph-name="agrave.alt1" horiz-adv-x="540" 
d="M218 71c28 0 58 7 90 21s56 33 71 58v34c-46 16 -92 24 -139 24c-76 0 -114 -24 -114 -73c0 -37 32 -64 92 -64zM119 335l-56 54c41 59 106 88 194 88c135 0 213 -68 213 -196v-60v-221h-90v60c-32 -45 -101 -70 -164 -70c-107 0 -176 54 -176 145c0 87 63 147 200 147
c41 0 87 -8 140 -25v24c0 69 -49 114 -130 114c-47 0 -99 -23 -131 -60zM317 554h-87l-119 154h109z" />
    <glyph glyph-name="acircumflex.alt1" horiz-adv-x="540" 
d="M218 71c28 0 58 7 90 21s56 33 71 58v34c-46 16 -92 24 -139 24c-76 0 -114 -24 -114 -73c0 -37 32 -64 92 -64zM119 335l-56 54c41 59 106 88 194 88c135 0 213 -68 213 -196v-60v-221h-90v60c-32 -45 -101 -70 -164 -70c-107 0 -176 54 -176 145c0 87 63 147 200 147
c41 0 87 -8 140 -25v24c0 69 -49 114 -130 114c-47 0 -99 -23 -131 -60zM411 554h-82l-75 87l-74 -87h-82l110 154h93z" />
    <glyph glyph-name="adieresis.alt1" horiz-adv-x="540" 
d="M218 71c28 0 58 7 90 21s56 33 71 58v34c-46 16 -92 24 -139 24c-76 0 -114 -24 -114 -73c0 -37 32 -64 92 -64zM119 335l-56 54c41 59 106 88 194 88c135 0 213 -68 213 -196v-60v-221h-90v60c-32 -45 -101 -70 -164 -70c-107 0 -176 54 -176 145c0 87 63 147 200 147
c41 0 87 -8 140 -25v24c0 69 -49 114 -130 114c-47 0 -99 -23 -131 -60zM183 689c33 0 61 -26 61 -59s-28 -59 -61 -59c-35 0 -62 26 -62 59s27 59 62 59zM308 588c-24 23 -24 61 0 84s64 23 88 0s24 -61 0 -84s-64 -23 -88 0z" />
    <glyph glyph-name="atilde.alt1" horiz-adv-x="540" 
d="M218 71c28 0 58 7 90 21s56 33 71 58v34c-46 16 -92 24 -139 24c-76 0 -114 -24 -114 -73c0 -37 32 -64 92 -64zM119 335l-56 54c41 59 106 88 194 88c135 0 213 -68 213 -196v-60v-221h-90v60c-32 -45 -101 -70 -164 -70c-107 0 -176 54 -176 145c0 87 63 147 200 147
c41 0 87 -8 140 -25v24c0 69 -49 114 -130 114c-47 0 -99 -23 -131 -60zM209 610c-12 0 -26 -15 -27 -44h-61c4 81 43 117 88 117c17 0 36 -8 58 -24c38 -32 53 -17 59 24h61c-4 -80 -44 -114 -89 -114c-17 0 -36 8 -57 25c-16 11 -27 16 -32 16z" />
    <glyph glyph-name="aring.alt1" horiz-adv-x="540" 
d="M218 71c28 0 58 7 90 21s56 33 71 58v34c-46 16 -92 24 -139 24c-76 0 -114 -24 -114 -73c0 -37 32 -64 92 -64zM119 335l-56 54c41 59 106 88 194 88c135 0 213 -68 213 -196v-60v-221h-90v60c-32 -45 -101 -70 -164 -70c-107 0 -176 54 -176 145c0 87 63 147 200 147
c41 0 87 -8 140 -25v24c0 69 -49 114 -130 114c-47 0 -99 -23 -131 -60zM154 645c0 60 45 106 104 106c60 0 107 -46 107 -106c0 -59 -47 -104 -107 -104c-59 0 -104 47 -104 104zM207 645c0 -28 23 -51 51 -51c29 0 54 23 54 51c0 29 -23 53 -54 53c-28 0 -51 -24 -51 -53z
" />
    <glyph glyph-name="amacron.alt1" horiz-adv-x="540" 
d="M218 71c28 0 58 7 90 21s56 33 71 58v34c-46 16 -92 24 -139 24c-76 0 -114 -24 -114 -73c0 -37 32 -64 92 -64zM119 335l-56 54c41 59 106 88 194 88c135 0 213 -68 213 -196v-60v-221h-90v60c-32 -45 -101 -70 -164 -70c-107 0 -176 54 -176 145c0 87 63 147 200 147
c41 0 87 -8 140 -25v24c0 69 -49 114 -130 114c-47 0 -99 -23 -131 -60zM137 580v80h252v-80h-252z" />
    <glyph glyph-name="abreve.alt1" horiz-adv-x="540" 
d="M218 71c28 0 58 7 90 21s56 33 71 58v34c-46 16 -92 24 -139 24c-76 0 -114 -24 -114 -73c0 -37 32 -64 92 -64zM119 335l-56 54c41 59 106 88 194 88c135 0 213 -68 213 -196v-60v-221h-90v60c-32 -45 -101 -70 -164 -70c-107 0 -176 54 -176 145c0 87 63 147 200 147
c41 0 87 -8 140 -25v24c0 69 -49 114 -130 114c-47 0 -99 -23 -131 -60zM138 683h74c0 -35 21 -59 56 -59c33 0 55 28 55 59h76c0 -79 -51 -128 -131 -128c-87 0 -130 56 -130 128z" />
    <glyph glyph-name="aogonek.alt1" horiz-adv-x="540" 
d="M119 335l-56 54c41 59 106 88 194 88c135 0 213 -68 213 -196v-281h-35l-31 -87c-8 -21 0 -44 20 -53c23 -7 40 1 50 23l3 22l64 4c0 -17 -3 -34 -10 -49c-17 -40 -51 -64 -90 -64c-14 0 -27 3 -39 8c-40 17 -63 52 -63 92c0 15 3 29 8 42l33 62v60
c-32 -45 -101 -70 -164 -70c-107 0 -176 54 -176 145c0 87 63 147 200 147c41 0 87 -8 140 -25v24c0 69 -49 114 -130 114c-47 0 -99 -23 -131 -60zM218 71c28 0 58 7 90 21s56 33 71 58v34c-46 16 -92 24 -139 24c-76 0 -114 -24 -114 -73c0 -37 32 -64 92 -64z" />
    <glyph glyph-name="yacute.alt1" horiz-adv-x="508" 
d="M295 708h109l-119 -154h-87zM205 14l-187 453h97l139 -336l140 336h97l-229 -550c-25 -55 -51 -93 -78 -116s-64 -34 -111 -34c-20 0 -38 2 -55 7v80c12 -2 30 -3 53 -3c56 0 76 26 108 101z" />
    <glyph glyph-name="ydieresis.alt1" horiz-adv-x="508" 
d="M174 689c33 0 61 -26 61 -59s-28 -59 -61 -59c-35 0 -62 26 -62 59s27 59 62 59zM299 588c-24 23 -24 61 0 84s64 23 88 0s24 -61 0 -84s-64 -23 -88 0zM205 14l-187 453h97l139 -336l140 336h97l-229 -550c-25 -55 -51 -93 -78 -116s-64 -34 -111 -34c-20 0 -38 2 -55 7
v80c12 -2 30 -3 53 -3c56 0 76 26 108 101z" />
    <glyph glyph-name="ae.alt1" horiz-adv-x="890" 
d="M470 38v-38h-90v60c-32 -45 -101 -70 -164 -70c-107 0 -176 54 -176 145c0 87 63 147 200 147c41 0 87 -8 140 -25v24c0 69 -49 114 -130 114c-47 0 -99 -23 -131 -60l-56 54c41 59 106 88 194 88c85 0 145 -26 180 -77c46 51 106 77 181 77c67 0 123 -22 166 -67
c44 -44 66 -102 66 -175c0 -17 0 -29 -1 -36h-379c11 -77 71 -127 151 -127c57 0 109 27 134 72c9 -3 22 -9 40 -16l38 -14c-39 -80 -122 -124 -215 -124c-57 0 -107 16 -148 48zM470 270h290c-11 77 -66 125 -142 125c-79 0 -137 -48 -148 -125zM218 71c28 0 58 7 90 21
s56 33 71 58v34c-46 16 -92 24 -139 24c-76 0 -114 -24 -114 -73c0 -37 32 -64 92 -64z" />
    <glyph glyph-name="aeacute.alt1" horiz-adv-x="890" 
d="M503 708h109l-119 -154h-87zM470 0h-90v60c-32 -45 -101 -70 -164 -70c-107 0 -176 54 -176 145c0 87 63 147 200 147c41 0 87 -8 140 -25v24c0 69 -49 114 -130 114c-47 0 -99 -23 -131 -60l-56 54c41 59 106 88 194 88c85 0 145 -26 180 -77c46 51 106 77 181 77
c67 0 123 -22 166 -67c44 -44 66 -102 66 -175c0 -17 0 -29 -1 -36h-379c11 -77 71 -127 151 -127c57 0 109 27 134 72c9 -3 22 -9 40 -16l38 -14c-39 -80 -122 -124 -215 -124c-57 0 -107 16 -148 48v-38zM760 270c-11 77 -66 125 -142 125c-79 0 -137 -48 -148 -125h290z
M218 71c28 0 58 7 90 21s56 33 71 58v34c-46 16 -92 24 -139 24c-76 0 -114 -24 -114 -73c0 -37 32 -64 92 -64z" />
    <glyph glyph-name="ycircumflex.alt1" horiz-adv-x="508" 
d="M179 -48l26 62l-187 453h97l139 -336l140 336h97l-229 -550c-25 -55 -51 -93 -78 -116s-64 -34 -111 -34c-20 0 -38 2 -55 7v80c12 -2 30 -3 53 -3c56 0 76 26 108 101zM409 554h-82l-75 87l-74 -87h-82l110 154h93z" />
    <glyph glyph-name="ldot.alt1" horiz-adv-x="339" 
d="M246 85h31v-85h-39c-112 0 -168 67 -168 200v521h92v-520c-1 -77 27 -116 84 -116zM236 216c-25 24 -25 66 0 90s67 24 92 0c27 -24 27 -66 0 -90c-25 -23 -67 -23 -92 0z" />
    <glyph glyph-name="t.alt1" horiz-adv-x="351" 
d="M288 85h27v-85h-35c-112 0 -168 67 -168 200v190h-84v77h84v125l92 28v-153h98v-77h-98v-189c-1 -77 27 -116 84 -116z" />
    <glyph glyph-name="tcaron.alt1" horiz-adv-x="351" 
d="M300 528l-58 19c21 28 34 54 41 78s9 56 5 96h90c1 -86 -25 -150 -78 -193zM315 0h-35c-112 0 -168 67 -168 200v190h-84v77h84v125l92 28v-153h98v-77h-98v-189c-1 -77 27 -116 84 -116h27v-85z" />
    <glyph glyph-name="tbar.alt1" horiz-adv-x="353" 
d="M290 85h27v-85h-35c-112 0 -168 67 -168 200v26h-68v61h68v103h-84v77h84v125l92 28v-153h98v-77h-98v-103h75v-61h-75v-25c-1 -77 27 -116 84 -116z" />
    <glyph glyph-name="tcommaaccent.alt1" horiz-adv-x="351" 
d="M288 85h27v-85h-35c-112 0 -168 67 -168 200v190h-84v77h84v125l92 28v-153h98v-77h-98v-189c-1 -77 27 -116 84 -116zM193 -250l-58 19c21 28 34 54 41 78s9 56 5 96h90c1 -86 -25 -150 -78 -193z" />
    <glyph glyph-name="T.sc.alt1" horiz-adv-x="482" 
d="M23 505v79h436v-79h-176v-505h-85v505h-175z" />
    <glyph glyph-name="Tcaron.sc.alt1" horiz-adv-x="482" 
d="M179 786l62 -71l61 71h76l-98 -134h-80l-97 134h76zM459 584v-79h-176v-505h-85v505h-175v79h436z" />
    <glyph glyph-name="Tbar.sc.alt1" horiz-adv-x="483" 
d="M283 501v-151h112v-57h-112v-293h-84v293h-110v57h110v151h-177v83h439v-83h-178z" />
    <glyph glyph-name="Tcommaaccent.sc.alt1" horiz-adv-x="482" 
d="M23 505v79h436v-79h-176v-505h-85v505h-175zM210 -210l-54 17c29 40 43 79 43 116c0 8 -1 20 -2 36h81c1 -75 -22 -131 -68 -169z" />
    <glyph glyph-name="aringacute.alt1" horiz-adv-x="540" 
d="M308 861h109l-102 -132c36 -19 54 -50 54 -92c0 -59 -47 -104 -107 -104c-59 0 -104 47 -104 104c0 48 29 88 72 101zM211 637c0 -28 23 -51 51 -51c29 0 54 23 54 51c0 29 -23 53 -54 53c-28 0 -51 -24 -51 -53zM218 71c28 0 58 7 90 21s56 33 71 58v34
c-41 14 -87 21 -139 21c-76 0 -114 -23 -114 -70c0 -37 32 -64 92 -64zM119 335l-56 54c41 59 106 88 194 88c135 0 213 -68 213 -196v-60v-221h-90v60c-32 -45 -101 -70 -164 -70c-107 0 -176 54 -176 145c0 87 63 147 200 147c41 0 87 -8 140 -25v24
c0 69 -49 114 -130 114c-47 0 -99 -23 -131 -60z" />
    </font>
</defs>
</svg>
